<svg xmlns="http://www.w3.org/2000/svg" width="388" height="324.357" viewBox="0 0 388 324.357">
  <g id="Grupo_1070381" data-name="Grupo 1070381" transform="translate(-1020 -1800.438)">
    <g id="Grupo_1070298" data-name="Grupo 1070298" transform="translate(0 -58)">
      <g id="Image_Place_Holder" data-name="Image Place Holder" transform="translate(1020 1912.025)">
        <rect id="Image_Place_Holder-2" data-name="Image Place Holder" width="388" height="270.77" rx="10" fill="#fffad0"/>
      </g>
      <g id="Grupo_1069897" data-name="Grupo 1069897" transform="translate(-1248 8565.731)">
        <path id="Trazado_812986" data-name="Trazado 812986" d="M581.465,421.062H374.278v17.682H581.465Z" transform="translate(1915.955 -6838.148)" fill="#999"/>
        <path id="Trazado_812987" data-name="Trazado 812987" d="M535.49,511.6V459.593H539.3l10.344-177.13H396.872l13.972,239.2H522.106V511.6Z" transform="translate(1931.562 -6933.887)" fill="#1d1d1b"/>
        <path id="Trazado_812988" data-name="Trazado 812988" d="M535.488,459.593H539.3l10.344-177.13H396.875l13.967,239.2H522.108V492.648c0-16.454,4.139-33.054,13.384-33.054Z" transform="translate(1931.564 -6933.887)" fill="#282828"/>
        <path id="Trazado_812989" data-name="Trazado 812989" d="M375.506,282.463l13.966,239.2H520.713l7.566-239.2Z" transform="translate(1916.803 -6933.887)" fill="#464749"/>
        <path id="Trazado_812990" data-name="Trazado 812990" d="M396.872,305.287l13.972-55.868H535.68l13.967,55.868Z" transform="translate(1931.562 -6956.712)" fill="#282828"/>
        <path id="Trazado_812991" data-name="Trazado 812991" d="M375.506,305.287l13.966-55.868H520.713l7.566,55.868Z" transform="translate(1916.803 -6956.712)" fill="#7f7f7f"/>
        <path id="Trazado_812992" data-name="Trazado 812992" d="M535.576,276.783H370v21.851H535.576Z" transform="translate(1913 -6937.811)" fill="#7f7f7f"/>
        <path id="Trazado_812993" data-name="Trazado 812993" d="M467.929,298.636h41.613v-21.85H467.929Z" transform="translate(1980.645 -6937.808)" fill="#282828"/>
        <path id="Trazado_812994" data-name="Trazado 812994" d="M577.187,289.185H370v1.769H577.187Z" transform="translate(1913 -6929.244)" fill="#1d1d1b"/>
        <path id="Trazado_812995" data-name="Trazado 812995" d="M531.161,423.414H383.769v1.768H531.161Z" transform="translate(1922.511 -6836.524)" fill="#1d1d1b"/>
        <path id="Trazado_812996" data-name="Trazado 812996" d="M577.187,276.261H370v1.769H577.187Z" transform="translate(1913 -6938.171)" fill="#a3a2a2"/>
        <path id="Trazado_812997" data-name="Trazado 812997" d="M482.674,389.621c-5.162,0-9.341,12.99-9.341,29.01s4.185,29.012,9.341,29.012H494.9V389.616H482.674Z" transform="translate(1984.378 -6859.87)" fill="#494949"/>
        <path id="Trazado_812998" data-name="Trazado 812998" d="M497.614,283.226H396.872a12.2,12.2,0,0,1-12.18-12.182h1.326A10.866,10.866,0,0,0,396.872,281.9H497.614a10.864,10.864,0,0,0,10.851-10.856V260.13h1.326v10.914a12.2,12.2,0,0,1-12.182,12.182Z" transform="translate(1923.149 -6949.313)" fill="#1d1d1b"/>
        <path id="Trazado_812999" data-name="Trazado 812999" d="M386.018,276.02h-1.326V265.106a12.2,12.2,0,0,1,12.18-12.18H497.614a12.194,12.194,0,0,1,12.18,12.18h-1.326a10.865,10.865,0,0,0-10.85-10.855H396.877a10.866,10.866,0,0,0-10.855,10.855V276.02Z" transform="translate(1923.149 -6954.29)" fill="#a3a2a2"/>
        <path id="Trazado_813000" data-name="Trazado 813000" d="M495.015,256.685H394.278a5.829,5.829,0,0,0-5.83,5.83v10.909a5.831,5.831,0,0,0,5.83,5.831H495.015a5.831,5.831,0,0,0,5.831-5.831V262.515A5.83,5.83,0,0,0,495.015,256.685Z" transform="translate(1925.743 -6951.693)" fill="#1d1d1b"/>
        <path id="Trazado_813001" data-name="Trazado 813001" d="M389.383,273.7h-1.326V262.782a6.5,6.5,0,0,1,6.491-6.491H495.29a6.5,6.5,0,0,1,6.491,6.491h-1.326a5.17,5.17,0,0,0-5.165-5.165H394.548a5.17,5.17,0,0,0-5.165,5.165Z" transform="translate(1925.473 -6951.965)" fill="#1d1d1b"/>
        <path id="Trazado_813002" data-name="Trazado 813002" d="M495.29,277.538H394.548a6.5,6.5,0,0,1-6.491-6.491h1.326a5.17,5.17,0,0,0,5.165,5.165H495.29a5.17,5.17,0,0,0,5.165-5.165V260.133h1.326v10.914A6.5,6.5,0,0,1,495.29,277.538Z" transform="translate(1925.473 -6949.312)" fill="#a3a2a2"/>
        <path id="Trazado_813003" data-name="Trazado 813003" d="M473.636,412.382c1.266,11.365,4.739,19.535,8.829,19.535h12.221V412.382Z" transform="translate(1984.587 -6844.145)" fill="#282828"/>
        <path id="Trazado_813004" data-name="Trazado 813004" d="M489.9,447.641c5.159,0,9.34-12.99,9.34-29.012s-4.181-29.01-9.34-29.01-9.34,12.988-9.34,29.01S484.743,447.641,489.9,447.641Z" transform="translate(1989.371 -6859.868)" fill="#1d1d1b"/>
        <path id="Trazado_813005" data-name="Trazado 813005" d="M486.447,434.716a.882.882,0,1,1,0-1.763c2.179,0,5.219-6.875,5.219-18.069s-3.04-18.069-5.219-18.069a.883.883,0,0,1,0-1.765c4.536,0,6.988,10.222,6.988,19.838s-2.447,19.839-6.988,19.839Z" transform="translate(1992.827 -6856.117)" fill="#707070"/>
        <path id="Trazado_813006" data-name="Trazado 813006" d="M486.616,420.125c1.686,0,3.054-4.244,3.054-9.477s-1.368-9.475-3.054-9.475-3.054,4.242-3.054,9.475S484.931,420.125,486.616,420.125Z" transform="translate(1991.444 -6851.887)" fill="#282828"/>
        <path id="Trazado_813007" data-name="Trazado 813007" d="M486,444.114a.879.879,0,0,1-.751-.416c-3.216-5.13-5.211-15.207-5.211-26.293,0-10.466,1.831-20.259,4.781-25.559a.885.885,0,0,1,1.547.859c-2.813,5.052-4.56,14.519-4.56,24.7,0,10.773,1.9,20.485,4.944,25.351a.885.885,0,0,1-.751,1.353Z" transform="translate(1989.011 -6858.644)" fill="#707070"/>
        <path id="Trazado_813008" data-name="Trazado 813008" d="M403.412,364.617l-8.5-14.716a10.469,10.469,0,0,0,3.067.451h35.741v18.079H410.011a7.549,7.549,0,0,1-6.6-3.809Z" transform="translate(1930.209 -6887.304)" fill="#fff"/>
        <path id="Trazado_813009" data-name="Trazado 813009" d="M399.842,361.591a7.618,7.618,0,0,1-6.6-11.426L405.1,329.631l15.655,9.037-13.234,22.923h-7.676Z" transform="translate(1928.343 -6901.305)" fill="#fff"/>
        <path id="Trazado_813010" data-name="Trazado 813010" d="M411.887,329.585,419.048,342,397.56,329.59Z" transform="translate(1932.037 -6901.337)" fill="#fff"/>
        <path id="Trazado_813011" data-name="Trazado 813011" d="M459.784,357.738l-8.5,14.716a10.625,10.625,0,0,0-1.14-2.881l-17.871-30.951,15.655-9.037,11.854,20.536A7.542,7.542,0,0,1,459.784,357.738Z" transform="translate(1956.017 -6901.337)" fill="#fff"/>
        <path id="Trazado_813012" data-name="Trazado 813012" d="M453.814,356.77a7.618,7.618,0,0,1-6.6,11.426H423.506V350.117h26.469l3.84,6.65Z" transform="translate(1949.96 -6887.154)" fill="#fff"/>
        <path id="Trazado_813013" data-name="Trazado 813013" d="M420.365,360.532l7.169-12.4v24.808Z" transform="translate(1947.79 -6888.527)" fill="#fff"/>
        <path id="Trazado_813014" data-name="Trazado 813014" d="M421.108,310.255h17a10.554,10.554,0,0,0-1.922,2.428l-17.871,30.951L402.658,334.6l11.856-20.534a7.541,7.541,0,0,1,6.6-3.808Z" transform="translate(1935.559 -6914.689)" fill="#fff"/>
        <path id="Trazado_813015" data-name="Trazado 813015" d="M425.466,314.063a7.622,7.622,0,0,1,13.2,0L450.519,334.6l-15.655,9.037-13.234-22.922,3.84-6.65Z" transform="translate(1948.664 -6914.689)" fill="#fff"/>
        <path id="Trazado_813016" data-name="Trazado 813016" d="M441.508,335.115l-14.329,0,21.49-12.407Z" transform="translate(1952.497 -6906.089)" fill="#fff"/>
        <path id="Trazado_814899" data-name="Trazado 814899" d="M35.449,9.356H33.815V13H31.764V3.047h3.7a4.181,4.181,0,0,1,2.721.786,2.713,2.713,0,0,1,.957,2.222,3.062,3.062,0,0,1-.441,1.7,3.007,3.007,0,0,1-1.336,1.083L39.516,12.9V13h-2.2ZM33.815,7.7h1.654a1.694,1.694,0,0,0,1.2-.393,1.4,1.4,0,0,0,.424-1.083,1.5,1.5,0,0,0-.4-1.107,1.662,1.662,0,0,0-1.227-.4H33.815Zm10.158,5.441a3.631,3.631,0,0,1-2.649-1A3.548,3.548,0,0,1,40.3,9.479V9.288A4.468,4.468,0,0,1,40.733,7.3a3.161,3.161,0,0,1,1.22-1.354,3.425,3.425,0,0,1,1.8-.475,3.07,3.07,0,0,1,2.389.957,3.889,3.889,0,0,1,.872,2.714v.807h-4.71a1.835,1.835,0,0,0,.578,1.162,1.746,1.746,0,0,0,1.22.438,2.132,2.132,0,0,0,1.784-.827l.971,1.087a2.966,2.966,0,0,1-1.2.981A3.947,3.947,0,0,1,43.973,13.137ZM43.748,7.06a1.234,1.234,0,0,0-.954.4,2.062,2.062,0,0,0-.468,1.14h2.748V8.44a1.471,1.471,0,0,0-.355-1.02A1.274,1.274,0,0,0,43.748,7.06Zm8.395,3.9a.637.637,0,0,0-.359-.571,4.077,4.077,0,0,0-1.152-.373q-2.639-.554-2.639-2.242a2.032,2.032,0,0,1,.817-1.644,3.3,3.3,0,0,1,2.136-.66A3.547,3.547,0,0,1,53.2,6.13a2.09,2.09,0,0,1,.844,1.723H52.067a.956.956,0,0,0-.273-.7,1.157,1.157,0,0,0-.854-.277,1.182,1.182,0,0,0-.772.226.712.712,0,0,0-.273.574.609.609,0,0,0,.311.53,3.2,3.2,0,0,0,1.049.349,8.571,8.571,0,0,1,1.244.332,2.044,2.044,0,0,1,1.565,1.989,1.929,1.929,0,0,1-.868,1.637,3.745,3.745,0,0,1-2.242.625,3.912,3.912,0,0,1-1.651-.332A2.77,2.77,0,0,1,48.17,11.9a2.113,2.113,0,0,1-.41-1.248h1.873a1.031,1.031,0,0,0,.39.807,1.546,1.546,0,0,0,.971.28,1.43,1.43,0,0,0,.858-.215A.67.67,0,0,0,52.142,10.956ZM57.419,13H55.437V5.6h1.982Zm-2.1-9.311a.973.973,0,0,1,.3-.731,1.281,1.281,0,0,1,1.617,0,.967.967,0,0,1,.3.731.97.97,0,0,1-.3.738,1.267,1.267,0,0,1-1.606,0A.97.97,0,0,1,55.321,3.689Zm3.418,5.558a4.457,4.457,0,0,1,.776-2.755,2.517,2.517,0,0,1,2.123-1.025,2.265,2.265,0,0,1,1.784.807V2.5H65.4V13H63.62l-.1-.786a2.325,2.325,0,0,1-1.9.923,2.511,2.511,0,0,1-2.1-1.029A4.6,4.6,0,0,1,58.739,9.247Zm1.976.147a2.92,2.92,0,0,0,.362,1.6,1.18,1.18,0,0,0,1.053.555,1.322,1.322,0,0,0,1.292-.774V7.847a1.3,1.3,0,0,0-1.278-.774Q60.714,7.073,60.714,9.394Zm10.65,2.854a2.477,2.477,0,0,1-2.023.889,2.337,2.337,0,0,1-1.815-.684,2.918,2.918,0,0,1-.639-2V5.6h1.976v4.784q0,1.157,1.053,1.157a1.426,1.426,0,0,0,1.381-.7V5.6h1.982V13H71.419Zm3.1-3.015a4.387,4.387,0,0,1,.424-1.962,3.1,3.1,0,0,1,1.22-1.333,3.56,3.56,0,0,1,1.849-.472,3.368,3.368,0,0,1,2.444.916,3.676,3.676,0,0,1,1.056,2.488l.014.506a3.866,3.866,0,0,1-.95,2.731,3.683,3.683,0,0,1-5.1,0,3.934,3.934,0,0,1-.954-2.789Zm1.976.14a2.765,2.765,0,0,0,.4,1.612,1.424,1.424,0,0,0,2.256.007,3.025,3.025,0,0,0,.4-1.763,2.737,2.737,0,0,0-.4-1.6,1.311,1.311,0,0,0-1.135-.568,1.29,1.29,0,0,0-1.121.565A3.076,3.076,0,0,0,76.437,9.374Zm10.254,1.582a.637.637,0,0,0-.359-.571,4.077,4.077,0,0,0-1.152-.373q-2.639-.554-2.639-2.242a2.032,2.032,0,0,1,.817-1.644,3.3,3.3,0,0,1,2.136-.66,3.547,3.547,0,0,1,2.252.663,2.09,2.09,0,0,1,.844,1.723H86.616a.956.956,0,0,0-.273-.7,1.157,1.157,0,0,0-.854-.277,1.182,1.182,0,0,0-.772.226.712.712,0,0,0-.273.574.609.609,0,0,0,.311.53,3.2,3.2,0,0,0,1.049.349,8.571,8.571,0,0,1,1.244.332,2.044,2.044,0,0,1,1.565,1.989,1.929,1.929,0,0,1-.868,1.637,3.745,3.745,0,0,1-2.242.625,3.912,3.912,0,0,1-1.651-.332,2.77,2.77,0,0,1-1.131-.909,2.113,2.113,0,0,1-.41-1.248h1.873a1.031,1.031,0,0,0,.39.807,1.546,1.546,0,0,0,.971.28,1.43,1.43,0,0,0,.858-.215A.67.67,0,0,0,86.691,10.956ZM7.148,25.6l.062.854a2.582,2.582,0,0,1,2.126-.991,2.146,2.146,0,0,1,1.75.69,3.221,3.221,0,0,1,.588,2.064V33H9.7V28.27a1.282,1.282,0,0,0-.273-.913,1.224,1.224,0,0,0-.909-.284,1.359,1.359,0,0,0-1.251.711V33H5.289V25.6Zm5.715,3.63a4.387,4.387,0,0,1,.424-1.962,3.1,3.1,0,0,1,1.22-1.333,3.56,3.56,0,0,1,1.849-.472,3.368,3.368,0,0,1,2.444.916,3.676,3.676,0,0,1,1.056,2.488l.014.506a3.866,3.866,0,0,1-.95,2.731,3.3,3.3,0,0,1-2.55,1.029,3.319,3.319,0,0,1-2.553-1.025,3.934,3.934,0,0,1-.954-2.789Zm1.976.14a2.765,2.765,0,0,0,.4,1.612,1.424,1.424,0,0,0,2.256.007,3.025,3.025,0,0,0,.4-1.763,2.737,2.737,0,0,0-.4-1.6,1.311,1.311,0,0,0-1.135-.568,1.29,1.29,0,0,0-1.121.565A3.076,3.076,0,0,0,14.838,29.374ZM28.859,33a2.194,2.194,0,0,1-.2-.663,2.39,2.39,0,0,1-1.866.8,2.626,2.626,0,0,1-1.8-.629,2.023,2.023,0,0,1-.714-1.586,2.09,2.09,0,0,1,.872-1.8,4.3,4.3,0,0,1,2.519-.636h.909v-.424a1.219,1.219,0,0,0-.263-.82,1.035,1.035,0,0,0-.831-.308,1.177,1.177,0,0,0-.783.239.813.813,0,0,0-.284.656H24.443a1.985,1.985,0,0,1,.4-1.189,2.621,2.621,0,0,1,1.121-.858,4.086,4.086,0,0,1,1.627-.311,3.228,3.228,0,0,1,2.17.687,2.4,2.4,0,0,1,.8,1.931v3.206a3.536,3.536,0,0,0,.294,1.593V33Zm-1.634-1.374a1.7,1.7,0,0,0,.807-.195,1.28,1.28,0,0,0,.547-.523V29.637H27.84q-1.483,0-1.579,1.025l-.007.116a.791.791,0,0,0,.26.608A1.009,1.009,0,0,0,27.225,31.626ZM38.737,29.37a4.436,4.436,0,0,1-.776,2.738,2.488,2.488,0,0,1-2.1,1.029,2.3,2.3,0,0,1-1.812-.779v3.486H32.079V25.6h1.832l.068.725a2.322,2.322,0,0,1,1.873-.861,2.5,2.5,0,0,1,2.126,1.012,4.556,4.556,0,0,1,.759,2.789Zm-1.976-.144a2.911,2.911,0,0,0-.366-1.593,1.191,1.191,0,0,0-1.063-.561,1.294,1.294,0,0,0-1.278.711v3.028a1.316,1.316,0,0,0,1.292.731Q36.761,31.544,36.761,29.227Zm7.355-1.771a5.367,5.367,0,0,0-.711-.055,1.447,1.447,0,0,0-1.47.759V33H39.96V25.6h1.866l.055.882a1.831,1.831,0,0,1,1.647-1.019,2.07,2.07,0,0,1,.615.089Zm.4,1.777a4.387,4.387,0,0,1,.424-1.962,3.1,3.1,0,0,1,1.22-1.333,3.56,3.56,0,0,1,1.849-.472,3.368,3.368,0,0,1,2.444.916,3.676,3.676,0,0,1,1.056,2.488l.014.506a3.866,3.866,0,0,1-.95,2.731,3.683,3.683,0,0,1-5.1,0,3.934,3.934,0,0,1-.954-2.789Zm1.976.14a2.765,2.765,0,0,0,.4,1.612,1.424,1.424,0,0,0,2.256.007,3.025,3.025,0,0,0,.4-1.763,2.737,2.737,0,0,0-.4-1.6,1.311,1.311,0,0,0-1.135-.568,1.29,1.29,0,0,0-1.121.565A3.076,3.076,0,0,0,46.489,29.374ZM55.4,30.587,56.777,25.6h2.064l-2.5,7.4H54.459l-2.5-7.4h2.064Zm7.622,2.55a3.631,3.631,0,0,1-2.649-1,3.548,3.548,0,0,1-1.022-2.659v-.191a4.468,4.468,0,0,1,.431-1.993A3.161,3.161,0,0,1,61,25.942a3.425,3.425,0,0,1,1.8-.475,3.07,3.07,0,0,1,2.389.957,3.889,3.889,0,0,1,.872,2.714v.807h-4.71a1.835,1.835,0,0,0,.578,1.162,1.746,1.746,0,0,0,1.22.438,2.132,2.132,0,0,0,1.784-.827L65.91,31.8a2.966,2.966,0,0,1-1.2.981A3.947,3.947,0,0,1,63.025,33.137ZM62.8,27.06a1.234,1.234,0,0,0-.954.4,2.062,2.062,0,0,0-.468,1.14h2.748V28.44a1.471,1.471,0,0,0-.355-1.02A1.274,1.274,0,0,0,62.8,27.06Zm7.465,4.484a1.3,1.3,0,0,0,.889-.3,1.054,1.054,0,0,0,.355-.8h1.853a2.534,2.534,0,0,1-.41,1.377,2.706,2.706,0,0,1-1.1.971,3.455,3.455,0,0,1-1.548.345,3.211,3.211,0,0,1-2.5-1.008,3.99,3.99,0,0,1-.916-2.786v-.13a3.944,3.944,0,0,1,.909-2.728,3.174,3.174,0,0,1,2.5-1.019,3.111,3.111,0,0,1,2.225.79,2.8,2.8,0,0,1,.851,2.1H71.508a1.358,1.358,0,0,0-.355-.938,1.321,1.321,0,0,0-1.945.142,2.916,2.916,0,0,0-.352,1.633V29.4a2.953,2.953,0,0,0,.349,1.643A1.2,1.2,0,0,0,70.264,31.544Zm6.152-5.134a2.466,2.466,0,0,1,1.976-.943q2.406,0,2.44,2.8V33H78.857V28.317a1.374,1.374,0,0,0-.273-.94,1.172,1.172,0,0,0-.909-.3,1.345,1.345,0,0,0-1.258.67V33H74.441V22.5h1.976ZM86.609,33a2.194,2.194,0,0,1-.2-.663,2.39,2.39,0,0,1-1.866.8,2.626,2.626,0,0,1-1.8-.629,2.023,2.023,0,0,1-.714-1.586,2.09,2.09,0,0,1,.872-1.8,4.3,4.3,0,0,1,2.519-.636h.909v-.424a1.219,1.219,0,0,0-.263-.82,1.035,1.035,0,0,0-.831-.308,1.177,1.177,0,0,0-.783.239.813.813,0,0,0-.284.656H82.193a1.985,1.985,0,0,1,.4-1.189,2.621,2.621,0,0,1,1.121-.858,4.086,4.086,0,0,1,1.627-.311,3.228,3.228,0,0,1,2.17.687,2.4,2.4,0,0,1,.8,1.931v3.206a3.536,3.536,0,0,0,.294,1.593V33Zm-1.634-1.374a1.7,1.7,0,0,0,.807-.195,1.28,1.28,0,0,0,.547-.523V29.637H85.59q-1.483,0-1.579,1.025L84,30.778a.791.791,0,0,0,.26.608A1.009,1.009,0,0,0,84.975,31.626ZM96.494,29.37a4.479,4.479,0,0,1-.759,2.772,2.513,2.513,0,0,1-2.119.995,2.309,2.309,0,0,1-1.921-.923L91.606,33H89.829V22.5H91.8v3.767a2.25,2.25,0,0,1,1.8-.8,2.534,2.534,0,0,1,2.123.995,4.485,4.485,0,0,1,.769,2.8Zm-1.976-.144a2.942,2.942,0,0,0-.355-1.637,1.2,1.2,0,0,0-1.06-.516,1.3,1.3,0,0,0-1.3.772v2.919a1.321,1.321,0,0,0,1.313.779,1.22,1.22,0,0,0,1.258-.943A4.866,4.866,0,0,0,94.518,29.227ZM99.8,33H97.813V22.5H99.8Zm5.031.137a3.631,3.631,0,0,1-2.649-1,3.548,3.548,0,0,1-1.022-2.659v-.191a4.468,4.468,0,0,1,.431-1.993,3.161,3.161,0,0,1,1.22-1.354,3.425,3.425,0,0,1,1.8-.475,3.07,3.07,0,0,1,2.389.957,3.889,3.889,0,0,1,.872,2.714v.807h-4.71a1.835,1.835,0,0,0,.578,1.162,1.746,1.746,0,0,0,1.22.438,2.132,2.132,0,0,0,1.784-.827l.971,1.087a2.966,2.966,0,0,1-1.2.981A3.947,3.947,0,0,1,104.827,33.137ZM104.6,27.06a1.234,1.234,0,0,0-.954.4,2.062,2.062,0,0,0-.468,1.14h2.748V28.44a1.471,1.471,0,0,0-.355-1.02A1.274,1.274,0,0,0,104.6,27.06Zm8.395,3.9a.637.637,0,0,0-.359-.571,4.077,4.077,0,0,0-1.152-.373q-2.639-.554-2.639-2.242a2.032,2.032,0,0,1,.817-1.644,3.3,3.3,0,0,1,2.136-.66,3.547,3.547,0,0,1,2.252.663,2.09,2.09,0,0,1,.844,1.723H112.92a.956.956,0,0,0-.273-.7,1.157,1.157,0,0,0-.854-.277,1.182,1.182,0,0,0-.772.226.712.712,0,0,0-.273.574.609.609,0,0,0,.311.53,3.2,3.2,0,0,0,1.049.349,8.571,8.571,0,0,1,1.244.332,2.044,2.044,0,0,1,1.565,1.989,1.929,1.929,0,0,1-.868,1.637,3.745,3.745,0,0,1-2.242.625,3.912,3.912,0,0,1-1.651-.332,2.77,2.77,0,0,1-1.131-.909,2.113,2.113,0,0,1-.41-1.248h1.873a1.031,1.031,0,0,0,.39.807,1.546,1.546,0,0,0,.971.28,1.43,1.43,0,0,0,.858-.215A.67.67,0,0,0,113,30.956Z" transform="translate(2316 -6482)" fill="#fff"/>
      </g>
      <g id="Grupo_1069901" data-name="Grupo 1069901" transform="translate(-1044.603 8963.768)">
        <path id="Trazado_813140" data-name="Trazado 813140" d="M516.81,190.24c-3.93-1.876-8.716-2.36-12.99-2.7a48.585,48.585,0,0,1-7.343-1.154c-1.413-.327-4.178-1.509-2.629-3.385.214-.258.236-.326.236-.518.029-.044.057-.084.084-.13a1.3,1.3,0,0,0,.079-1.024c-.9-1.9-2.291-2.663-4.245-3.283-5.225-1.649-10.845-1.357-16.251-1.266-6.305.1-12.55.754-18.84,1.08a22.174,22.174,0,0,1-4-.191c-2.084-.277-2.7-1.431-3.486-3.137-.85-1.836-3.265-2.742-5.033-3.305-5.045-1.621-10.958-1.238-16.165-.963-5,.26-10.564,0-15.35,1.628-2.229.759-3.716,3.04-5.839,3.773-.4.1-.817.186-1.232.265-1.645.241-3.305.349-4.962.552a49.257,49.257,0,0,0-6.013.687,22.693,22.693,0,0,0-7.3,2.573,8.938,8.938,0,0,0-3.233,3.862c-.867,1.724-1.424,3.305-3.142,4.358-2.883,1.775-10.422,4.044-8.964,8.8,1.188,3.879,6.425,3.761,9.656,4.375a16.078,16.078,0,0,1,4.348,1.379c2.162,1.1,1.966,4.415,2.489,6.555.624,2.568,2.551,4.24,5.062,5.382,2.635,1.194,5.76,1.368,8.615,1.464a26.659,26.659,0,0,0,8.9-1.279c2.539-.8,4.8-2.308,7.393-2.95,3.452-.857,7.022-.356,10.473.2,3.373.54,6.757,1.058,10.153,1.446,4.352.5,8.733.884,13-.405,3-.906,5.755-2.4,8.851-3.012,3.04-.609,5.946.658,8.858,1.306,4.775,1.065,9.042-.721,13.1-3.1a54.89,54.89,0,0,1,6.064-3.581c2.669-1.132,5.564-.913,8.367-1.38,2.524-.427,4.866-1.542,7.36-2.082,4.668-1.014,15.158.489,17.54-5.057.918-2.139-1.824-4.933-3.6-5.784Z" transform="translate(1913 -7072.8)" fill="#c27647"/>
        <g id="Grupo_1069069" data-name="Grupo 1069069" transform="translate(2283.905 -6901.808)" opacity="0.2">
          <path id="Trazado_813141" data-name="Trazado 813141" d="M515.183,189.887c-3.867-1.773-8.575-2.23-12.788-2.551a49.055,49.055,0,0,1-7.223-1.092c-1.385-.31-4.11-1.431-2.59-3.2.213-.248.23-.309.23-.489.029-.04.057-.079.084-.125a1.189,1.189,0,0,0,.074-.969c-.879-1.79-2.258-2.516-4.178-3.1-5.141-1.554-10.67-1.284-15.992-1.2-6.206.1-12.354.709-18.543,1.019a22.476,22.476,0,0,1-3.941-.18c-2.055-.265-2.652-1.351-3.435-2.968-.833-1.733-3.214-2.59-4.954-3.125-4.967-1.531-10.783-1.171-15.907-.911-4.916.248-10.395,0-15.107,1.537-2.19.721-3.655,2.872-5.743,3.564-.395.1-.8.175-1.211.248-1.615.226-3.253.332-4.881.523a50.214,50.214,0,0,0-5.917.648,22.763,22.763,0,0,0-7.186,2.433,8.559,8.559,0,0,0-3.181,3.648c-.857,1.633-1.4,3.126-3.091,4.122-2.838,1.672-10.255,3.818-8.824,8.316,1.171,3.666,6.324,3.56,9.5,4.134a16.44,16.44,0,0,1,4.28,1.3c2.128,1.048,1.937,4.172,2.448,6.194.614,2.433,2.512,4.009,4.984,5.084,2.6,1.132,5.669,1.3,8.48,1.385a27.307,27.307,0,0,0,8.762-1.2c2.5-.754,4.718-2.185,7.274-2.792,3.4-.8,6.909-.332,10.3.191,3.322.513,6.651,1,9.99,1.368,4.284.474,8.592.833,12.788-.383,2.95-.855,5.664-2.263,8.7-2.848,3-.575,5.85.624,8.716,1.238,4.7,1.007,8.9-.682,12.889-2.922a55.063,55.063,0,0,1,5.969-3.39c2.629-1.07,5.472-.862,8.232-1.306,2.482-.4,4.785-1.453,7.247-1.966,4.594-.957,15.9.462,18.237-4.775.906-2.021-2.77-4.662-4.515-5.462Z" transform="translate(-370.697 -170.769)" fill="#c27647"/>
        </g>
        <path id="Trazado_813142" data-name="Trazado 813142" d="M375.279,195.349c-1.6-.034-3,.462-2.445,1.667.676,1.464,4.358,2.084,5.519,1.053C380.149,196.476,377.52,195.4,375.279,195.349Z" transform="translate(1913.808 -7065.247)" fill="#c27647"/>
        <g id="Grupo_1069070" data-name="Grupo 1069070" transform="translate(2286.712 -6869.757)" opacity="0.5">
          <path id="Trazado_813143" data-name="Trazado 813143" d="M375.037,195.458c-1.358-.029-2.546.388-2.072,1.407.574,1.244,3.693,1.762,4.679.9C379.164,196.41,376.941,195.5,375.037,195.458Z" transform="translate(-372.859 -195.457)" fill="#c27647"/>
        </g>
        <path id="Trazado_813144" data-name="Trazado 813144" d="M473.413,203.335s3.233-.844,3.373-3.3-4.915-3.3-10.186-1.9-10.046,3.862-6.673,6.109S469.972,204.951,473.413,203.335Z" transform="translate(1939.483 -7064.617)" fill="#c27647"/>
        <g id="Grupo_1069071" data-name="Grupo 1069071" transform="translate(2398.927 -6867.162)" opacity="0.5">
          <path id="Trazado_813145" data-name="Trazado 813145" d="M472.871,202.919s3-.783,3.13-3.069-4.566-3.068-9.459-1.762-9.33,3.587-6.2,5.676S469.673,204.417,472.871,202.919Z" transform="translate(-459.297 -197.456)" fill="#c27647"/>
        </g>
        <path id="Trazado_813146" data-name="Trazado 813146" d="M479.431,198.084s4.353-1.409,1.756-2.529-7.095-.208-6.464,1.262S477.46,198.5,479.431,198.084Z" transform="translate(1944.214 -7065.334)" fill="#c27647"/>
        <g id="Grupo_1069072" data-name="Grupo 1069072" transform="translate(2419.437 -6870.289)" opacity="0.5">
          <path id="Trazado_813147" data-name="Trazado 813147" d="M479.134,197.619s3.688-1.189,1.487-2.146-6.013-.18-5.473,1.07,2.32,1.431,3.987,1.07Z" transform="translate(-475.095 -195.047)" fill="#c27647"/>
        </g>
        <path id="Trazado_813148" data-name="Trazado 813148" d="M386.643,178.139a9.37,9.37,0,0,0-3.862,4.043c-1.233,2.4-2.281,3.862-4.792,5.129-2.568,1.3-7.506,2.686-6.712,6.459.01.062.1,0,.09-.039a3.263,3.263,0,0,1,1.407-2.866,15.041,15.041,0,0,1,2.85-1.227,19.79,19.79,0,0,0,3.919-1.927,8.374,8.374,0,0,0,2.212-2.117,11.225,11.225,0,0,0,1.358-2.173c1.041-2.032,1.588-3.79,3.547-5.236.023-.017.012-.051-.017-.034Z" transform="translate(1913.356 -7070.379)" fill="#d6a180"/>
        <path id="Trazado_813149" data-name="Trazado 813149" d="M386.694,203.471a9.026,9.026,0,0,1-2.546-5.49,4.872,4.872,0,0,0-1.655-3.322.011.011,0,0,0-.01.012c1.227,1.419,1.08,3.457,1.492,5.186a6.771,6.771,0,0,0,2.629,3.705c.045.034.13-.051.086-.091Z" transform="translate(1916.723 -7065.452)" fill="#d6a180"/>
        <path id="Trazado_813150" data-name="Trazado 813150" d="M443.554,199.456a21.59,21.59,0,0,0-8,2.056,20.421,20.421,0,0,1-10.444,1.4c-.023,0-.052.045-.023.051a16.585,16.585,0,0,0,8.119-.236c3.5-.884,6.651-2.917,10.316-3.164C443.566,199.559,443.622,199.456,443.554,199.456Z" transform="translate(1929.425 -7064.022)" fill="#d6a180"/>
        <path id="Trazado_813151" data-name="Trazado 813151" d="M485.452,187.8s-.023,0-.023.012c.918,2.545-1.046,4.375-3.159,5.321-.039.017-.068.118,0,.1,2.354-.761,4.685-2.833,3.175-5.434Z" transform="translate(1946.47 -7067.497)" fill="#d6a180"/>
        <path id="Trazado_813152" data-name="Trazado 813152" d="M477.628,197.1a5.711,5.711,0,0,1-1.5-.545.867.867,0,0,1-.473-.715c-.012-.125.186-.282.23-.4.017-.034-.027-.045-.044-.022-.108.129-.219.106-.339.2a.62.62,0,0,0-.152.288.71.71,0,0,0,.147.714,2.446,2.446,0,0,0,2.1.631c.073-.012.129-.135.039-.152Z" transform="translate(1944.407 -7065.229)" fill="#d6a180"/>
        <path id="Trazado_813153" data-name="Trazado 813153" d="M461.591,200.425a19.881,19.881,0,0,1,3.024-1.807c.017-.012.01-.04-.012-.029-1.655.67-3.525.985-4.38,2.765-.913,1.9,2.229,2.46,3.407,2.482.068,0,.135-.118.051-.135-1.6-.292-4.076-1.52-2.1-3.277Z" transform="translate(1939.858 -7064.281)" fill="#d6a180"/>
        <path id="Trazado_813154" data-name="Trazado 813154" d="M478.074,196.715H477.9a.109.109,0,0,0-.106.125c-.017.034-.023.062.01.09a.207.207,0,0,0,.18.057c.14,0,.265-.271.1-.265Z" transform="translate(1945.143 -7064.839)" fill="#d6a180"/>
        <path id="Trazado_813155" data-name="Trazado 813155" d="M463.856,202.524h-.017a.287.287,0,0,1-.192-.017c-.044-.029-.112.056-.073.095.005.012.017.012.022.017-.051.068,0,.175.1.108a.716.716,0,0,1,.123-.034C463.9,202.676,463.946,202.535,463.856,202.524Z" transform="translate(1940.903 -7063.113)" fill="#d6a180"/>
        <path id="Trazado_813156" data-name="Trazado 813156" d="M386.762,202.153a1.114,1.114,0,0,1-.344-.2.067.067,0,0,0-.084-.012.1.1,0,0,0-.034-.022c-.017-.017-.056.017-.045.039s.012.017.017.029c-.034.039-.061.1-.039.135.073.147.265.18.4.236.1.039.236-.152.125-.2Z" transform="translate(1917.839 -7063.289)" fill="#d6a180"/>
        <path id="Trazado_813157" data-name="Trazado 813157" d="M374.784,195.594s.023-.023.007-.023c-.508-.01-1.307-.027-1.616.491-.378.624.282,1.233.833,1.441.034.012.095-.045.061-.079-.348-.3-1.176-.844-.591-1.357a3.677,3.677,0,0,1,1.313-.479Z" transform="translate(1913.914 -7065.182)" fill="#d6a180"/>
        <path id="Trazado_813158" data-name="Trazado 813158" d="M374.156,197.094a.189.189,0,0,0-.13-.045c-.068,0-.147.108-.073.147a.282.282,0,0,0,.1.039c.067.017.162-.095.1-.14Z" transform="translate(1914.17 -7064.74)" fill="#d6a180"/>
        <g id="Grupo_1069073" data-name="Grupo 1069073" transform="translate(2296.52 -6887.33)" opacity="0.2">
          <path id="Trazado_813159" data-name="Trazado 813159" d="M504.735,182.889c-20.957-.084-41.921,0-62.878-.27-10.53-.135-21.059-.1-31.588-.158-5.057-.027-10.152-.3-15.2-.14-3.383.1-6.982.467-10.3-.4.005.045.012.09.017.135a1.966,1.966,0,0,1-1.1.575l-2.7,1s-.562-.074-.562,1.4c0,.084,0,.174.005.275,0,.079-.005.164-.005.248,0,1.475.63,5.76.63,5.76s.069.563.913.913,3.655.844,4.144,1.547a3.9,3.9,0,0,0,.575.631c.631,3.734,1.277,7.117,1.846,9.241a3.307,3.307,0,0,0,1.087,1.846,3.689,3.689,0,0,0,2.6.788l57.84-3.479a10.294,10.294,0,0,0,2.691-.462,4.039,4.039,0,0,0,2.05.985c1.318.175,2.916-1.183,3.665-2a3.042,3.042,0,0,0,1.053.214,4.331,4.331,0,0,0,.552,0l48.358-6.324s3.756-.422,3.756-2.421c0-1.627-2.067-7.719-2.838-9.933C507.8,182.889,506.267,182.895,504.735,182.889Z" transform="translate(-380.414 -181.921)" fill="#5b351e"/>
        </g>
        <path id="Trazado_813160" data-name="Trazado 813160" d="M385.193,181.1s.169.828-1.3,1.177l-2.7,1s-.563-.074-.563,1.4.631,5.76.631,5.76.067.562.913.911,3.655.845,4.144,1.549a4.791,4.791,0,0,0,1.335,1.194l-2.461-13Z" transform="translate(1916.169 -7069.496)" fill="#c9855c"/>
        <path id="Trazado_813161" data-name="Trazado 813161" d="M385.193,180.694s.169.822-1.3,1.176l-2.7,1s-.563-.067-.563,1.407.631,5.76.631,5.76.067.563.913.913,3.655.839,4.144,1.542a4.766,4.766,0,0,0,1.335,1.194l-2.461-12.99Z" transform="translate(1916.169 -7069.617)" fill="#ce916e"/>
        <path id="Trazado_813162" data-name="Trazado 813162" d="M439.015,204.63a4.5,4.5,0,0,0,2.634,1.583c1.583.209,3.582-1.79,4-2.421L427,168.493l-1.583,1.79Z" transform="translate(1929.528 -7073.255)" fill="#ce916e"/>
        <path id="Trazado_813163" data-name="Trazado 813163" d="M475.065,163.9a9.122,9.122,0,0,0-5.794-1.9c-3.481.1-35.924.1-35.924.1a7.325,7.325,0,0,0-2.325.26,1.779,1.779,0,0,0,.326,1.109c.845,1.159,17.275,24.651,17.275,24.651a4.949,4.949,0,0,0,4.426,1.792l38.875-3.373a1.716,1.716,0,0,0,1.267-2.428,1.234,1.234,0,0,1-.057-.388,9.813,9.813,0,0,0-1.419-2.033c-2.106-2.32-16.645-17.8-16.645-17.8Z" transform="translate(1931.198 -7075.193)" fill="#ce916e"/>
        <path id="Trazado_813164" data-name="Trazado 813164" d="M451.694,189.381l.022-.135a5.344,5.344,0,0,1-1.429-1.2S433.85,164.555,433.012,163.4a1.805,1.805,0,0,1-.326-1.11,2.992,2.992,0,0,0-1.679,1.11c-1.053,1.581-5.586,8.744-5.586,8.744l19.174,33.188s.09.867,1.768.946c-.007-.2-.012-.315-.012-.315l5.338-16.577Z" transform="translate(1929.528 -7075.107)" fill="#d39c7b"/>
        <path id="Trazado_813165" data-name="Trazado 813165" d="M491.1,181.872a10.908,10.908,0,0,0-1.109-3.13,1.451,1.451,0,0,0,.056.388,1.717,1.717,0,0,1-1.267,2.426L449.9,184.929a4.465,4.465,0,0,1-3-.591l-.022.135-5.338,16.577s0,.118.012.315a4.263,4.263,0,0,0,.547,0l48.356-6.324s2.635.108,2.635-1.9-2-11.273-2-11.273Z" transform="translate(1934.337 -7070.199)" fill="#c9855c"/>
        <path id="Trazado_813166" data-name="Trazado 813166" d="M399.7,195.6a4.741,4.741,0,0,1-.962-2.691s-3.159-24.443-3.373-26.235a2.769,2.769,0,0,1,.467-1.942,13.873,13.873,0,0,0-1.527,1.2c-2.313,2.106-10.326,9.06-10.326,9.06a5.652,5.652,0,0,0-.845,3.159c.214,1.475,2.951,22.439,4.849,29.5a3.316,3.316,0,0,0,1.08,1.847l10.468-13.683.152-.225Z" transform="translate(1916.911 -7074.378)" fill="#d39c7b"/>
        <path id="Trazado_813167" data-name="Trazado 813167" d="M448.366,186.438l-.608-1.446c-.31,2.246-3.5,2.916-3.5,2.916s-42.777,2.428-44.775,2.213a1.8,1.8,0,0,1-1.149-.574l-.152.225-10.468,13.683a3.69,3.69,0,0,0,2.6.788l57.84-3.481s2.742-.106,3.265-.844a3.6,3.6,0,0,0,.108-1.684c-.209-.631-3.159-11.8-3.159-11.8Z" transform="translate(1918.284 -7068.335)" fill="#c9855c"/>
        <path id="Trazado_813168" data-name="Trazado 813168" d="M392.562,167.3c.209,1.792,3.373,26.235,3.373,26.235s.107,3.057,2.106,3.265,44.776-2.212,44.776-2.212,3.192-.676,3.5-2.917l-11.189-26.481a5.259,5.259,0,0,0-5.371-2.528c-3.9.422-34.026,1.367-34.026,1.367a8.842,8.842,0,0,0-2.693,1.324,2.741,2.741,0,0,0-.467,1.942Z" transform="translate(1919.724 -7075.007)" fill="#ce916e"/>
        <path id="Trazado_813169" data-name="Trazado 813169" d="M434.565,185.7l7.726,13.344a3.769,3.769,0,0,1-2.178,1.824,2.289,2.289,0,0,0-.074-2.32c-.7-1.475-5.479-12.855-5.479-12.855Z" transform="translate(1932.254 -7068.125)" fill="#c9855c"/>
        <path id="Trazado_813170" data-name="Trazado 813170" d="M384.175,181.262l1.757,11.446S382.07,186.6,384.175,181.262Z" transform="translate(1917.04 -7069.447)" fill="#c9855c"/>
        <g id="Grupo_1069074" data-name="Grupo 1069074" transform="translate(2330.77 -6895.369)" opacity="0.4">
          <path id="Trazado_813171" data-name="Trazado 813171" d="M436.59,185.834a3.46,3.46,0,0,0-2.139-.253,4.246,4.246,0,0,1-2.455-.923,1.98,1.98,0,0,0-.67-.754,4.229,4.229,0,0,0-2.63-.715c-2.055.434-3.919.889-4.572,3.181-.338,1.177-2.116,1.137-3.074,1.493a5.046,5.046,0,0,0-2.33,1.47c-.913,1.239-1.081,3.153.945,3.349,3.064.293,5.575-2.624,8.564-2.128,2.731.456,4.938.991,7.3-.8,1.065-.817,2.6-2.844,1.076-3.914Z" transform="translate(-403.435 -173.517)" fill="#a56136"/>
          <path id="Trazado_813172" data-name="Trazado 813172" d="M413.659,186.1a.186.186,0,0,0-.118.147,10.711,10.711,0,0,0-1.245.513c-.913.393-1.368,1.6-.118,1.9a3.308,3.308,0,0,0,3.142-1.058c.845-1.2-.675-1.7-1.667-1.5Z" transform="translate(-405.42 -172.65)" fill="#aa6437"/>
          <path id="Trazado_813173" data-name="Trazado 813173" d="M415.469,183.542c-.524-.067-1.059-.135-1.6-.208.106-.811.208-1.621.3-2.443.3.061.6.118.906.162.045.007.106-.095.051-.106a8.972,8.972,0,0,0-.946-.169,41.489,41.489,0,0,0,.3-4.42c0-.029-.039-.012-.039.005-.068,1.464-.248,2.924-.439,4.387-.243-.034-.491-.073-.732-.123-.017,0-.04.034-.017.039.241.068.489.125.737.18-.017.123-.029.241-.045.361-.005,0-.005-.012-.017-.012-.591-.108-1.183-.2-1.773-.293a.537.537,0,0,1,.012-.1c.191-1.441.8-3.074.63-4.515,0-.029-.044,0-.044.022a8.646,8.646,0,0,1-.361,2.506c-.393-.034-.793-.056-1.188-.1-.118-.01-.241-.022-.366-.027.169-.985.332-1.966.473-2.951,0-.017-.022-.005-.022,0-.157.985-.343,1.966-.535,2.939a3.988,3.988,0,0,1-.918-.147c-.017-.005-.039.023-.017.034a3.691,3.691,0,0,0,.9.3c-.118.592-.231,1.188-.344,1.78-1.193-.186-2.381-.378-3.558-.631-.01,0-.027.022-.01.029,1.142.326,2.33.608,3.53.833-.118.624-.231,1.255-.332,1.88-1.087-.2-2.156-.427-3.187-.7-.01,0-.027.017-.01.022,1.007.31,2.077.58,3.175.817-.108.659-.2,1.324-.265,1.988-.005.062.079.029.084-.017.1-.647.2-1.3.31-1.947.484.1.974.191,1.463.275-.027.3-.056.609-.078.907a.86.86,0,0,1-.113-.091c-.012-.012-.04.017-.029.029a.654.654,0,0,0,.135.118c-.039.523-.084,1.048-.123,1.566-.012.1.13.061.147-.012a13.461,13.461,0,0,0,.28-1.4,5.645,5.645,0,0,0,.756.191c.332.074.663.13,1,.175-.022.231-.039.467-.056.7-.005.1.118.039.13-.029.027-.214.056-.434.084-.653.343.039.682.073,1.024.09.057,0,.118-.106.04-.118-.349-.044-.7-.084-1.048-.123.044-.344.084-.682.13-1.026.535.062,1.058.113,1.576.153.062,0,.123-.113.045-.125Zm-4.663-4.667a6.7,6.7,0,0,0,1.544.1c-.169.658-.354,1.306-.467,1.886-.462-.068-.923-.135-1.385-.209.1-.591.208-1.188.309-1.784Zm.789,4.139c-.491-.074-.975-.152-1.459-.243.108-.63.214-1.255.327-1.88.461.084.923.157,1.385.23-.108.626-.186,1.262-.248,1.893Zm1.959,1.509c-.164-.017-.332-.039-.5-.062a6.506,6.506,0,0,1-1.255-.219c.045-.332.09-.663.125-1,.586.095,1.164.174,1.74.241-.04.344-.074.687-.108,1.031Zm.13-1.21c-.575-.079-1.161-.158-1.74-.248.061-.631.112-1.267.186-1.9.585.079,1.165.152,1.74.2a.072.072,0,0,0,.056-.022c-.084.653-.169,1.306-.248,1.959Z" transform="translate(-406.796 -175.729)" fill="#aa6437"/>
        </g>
        <g id="Grupo_1069075" data-name="Grupo 1069075" transform="translate(2372.09 -6910.374)" opacity="0.4">
          <path id="Trazado_813174" data-name="Trazado 813174" d="M477.038,180.711a2.072,2.072,0,0,0-1.29-.152,2.574,2.574,0,0,1-1.48-.558,1.219,1.219,0,0,0-.406-.456,2.546,2.546,0,0,0-1.588-.434c-1.239.26-2.364.535-2.759,1.92-.2.71-1.272.687-1.853.9a2.994,2.994,0,0,0-1.4.884c-.552.749-.653,1.9.569,2.021,1.847.18,3.361-1.583,5.163-1.284,1.645.277,2.979.6,4.4-.484C477.032,182.58,477.961,181.359,477.038,180.711Z" transform="translate(-430.5 -159.723)" fill="#a56136"/>
          <path id="Trazado_813175" data-name="Trazado 813175" d="M455.452,182.045a.188.188,0,0,0-.119.145,10.829,10.829,0,0,0-1.238.513c-.911.395-1.374,1.6-.118,1.9a3.319,3.319,0,0,0,3.142-1.059c.845-1.2-.675-1.694-1.666-1.5Z" transform="translate(-434.275 -158.854)" fill="#aa6437"/>
          <path id="Trazado_813176" data-name="Trazado 813176" d="M462.512,184.134a.114.114,0,0,0-.068.084,6.345,6.345,0,0,0-.7.292c-.518.219-.778.9-.067,1.07a1.871,1.871,0,0,0,1.773-.6c.478-.682-.383-.958-.941-.85Z" transform="translate(-431.88 -158.224)" fill="#aa6437"/>
          <path id="Trazado_813177" data-name="Trazado 813177" d="M441.727,171.353c-.13-.378-.26-.761-.383-1.149.653-.241,1.313-.489,1.966-.749.056.226.118.45.179.67.012.034.108.04.1-.005a6.037,6.037,0,0,0-.192-.7c1.188-.461,2.359-.957,3.474-1.515.023-.01,0-.034-.017-.022-1.137.524-2.313.968-3.5,1.407a5.359,5.359,0,0,1-.152-.535c0-.01-.04-.01-.034,0,.027.187.073.378.112.563-.095.034-.191.074-.292.108v-.017c-.118-.434-.248-.867-.383-1.3.029-.012.056-.023.084-.034a18.814,18.814,0,0,0,3.66-1.335c.022-.012-.012-.034-.034-.023a8.147,8.147,0,0,1-2.033.732c-.112-.275-.225-.552-.332-.833-.034-.084-.067-.169-.1-.258.806-.27,1.616-.541,2.416-.828.012,0,0-.017-.012-.012-.8.277-1.615.53-2.426.783a2.91,2.91,0,0,1-.2-.675c0-.012-.034-.017-.034,0a2.528,2.528,0,0,0,.084.721c-.495.152-.985.3-1.475.462-.265-.867-.523-1.746-.732-2.63,0-.01-.029-.01-.029,0a26.735,26.735,0,0,0,.569,2.686c-.518.164-1.036.332-1.548.506-.219-.8-.412-1.61-.552-2.4,0-.01-.023-.01-.023,0,.108.795.265,1.616.457,2.445-.541.186-1.076.383-1.6.6-.052.017,0,.061.039.051.53-.192,1.058-.373,1.593-.547.091.366.186.726.288,1.092l-.722.3a.406.406,0,0,1,.029-.106c.005-.017-.022-.023-.034-.006a.7.7,0,0,0-.045.136c-.41.174-.827.348-1.239.523-.079.034,0,.106.056.1a10.894,10.894,0,0,0,1.166-.361,4.137,4.137,0,0,0,.113.58,6.131,6.131,0,0,0,.209.732c-.187.078-.373.152-.553.23-.073.034.012.1.062.074.175-.062.349-.13.524-.2.084.243.174.484.28.721.017.04.125.034.1-.017-.084-.253-.174-.5-.258-.749.275-.1.552-.208.828-.309q.2.574.422,1.115c.017.044.13.039.106-.017Zm1.976-4.933a4.4,4.4,0,0,0,.45,1.076c-.562.14-1.12.265-1.6.417-.1-.332-.208-.67-.309-1.009.489-.162.974-.321,1.464-.484Zm-2.889,2.134c-.106-.354-.214-.715-.316-1.07.518-.174,1.031-.343,1.549-.512.091.343.192.68.293,1.019-.518.169-1.026.365-1.532.569Zm-.484,1.9c-.039-.118-.084-.236-.123-.354a4.54,4.54,0,0,1-.265-.929c.27-.1.535-.2.8-.3.123.427.258.85.405,1.261-.275.108-.547.214-.822.327Zm.968-.388c-.14-.417-.275-.84-.4-1.262.506-.2,1.007-.417,1.515-.614.135.423.282.84.439,1.245,0,.012.017.022.034.034C442.351,169.664,441.823,169.861,441.3,170.064Z" transform="translate(-438.624 -164.171)" fill="#aa6437"/>
        </g>
        <path id="Trazado_813178" data-name="Trazado 813178" d="M392.554,166.749l3.688,26.814S394.98,172.916,392.554,166.749Z" transform="translate(1919.726 -7073.775)" fill="#d6a180"/>
        <path id="Trazado_813179" data-name="Trazado 813179" d="M431.671,163.544,448,187.25S436.937,168.815,431.671,163.544Z" transform="translate(1931.392 -7074.731)" fill="#d6a180"/>
        <path id="Trazado_813180" data-name="Trazado 813180" d="M441.958,127.227c.083.457-12.24,17.134-12.73,17.849s7.213-1.312,10.146-3.091,4.953-2.617,8.368-2.617,14.649-.508,15.7-.7,25.659-6.548,26.283-6.514a6.528,6.528,0,0,0,2.168-.856s-5.06-7.3-3.937-9.681a23.3,23.3,0,0,0,1.677-6.981c-.083-.457-3.14-9.513-3.14-9.513s-28.758,2.3-29.332,2.568-15.206,19.543-15.206,19.543Z" transform="translate(1930.657 -7092.154)" fill="#a3a290"/>
        <g id="Grupo_1069076" data-name="Grupo 1069076" transform="translate(2359.872 -6987.038)" opacity="0.6">
          <path id="Trazado_813181" data-name="Trazado 813181" d="M486.5,105.118s-28.76,2.3-29.332,2.568-15.207,19.543-15.207,19.543c.084.457-12.24,17.134-12.729,17.849s7.213-1.314,10.146-3.091a18.526,18.526,0,0,1,4.32-2.069,11.452,11.452,0,0,1-.623-7.67.452.452,0,0,1,.657-.266,32.023,32.023,0,0,0,7.695,2.551c2.583.632,5.11,1.438,7.678,2.119,2.06.549,4.13,1.055,6.207,1.563,1.089-.266,2.568-.648,4.271-1.072.906-1.894,1.645-3.914,2.493-5.551a76.112,76.112,0,0,1,6.448-11.051,42.469,42.469,0,0,0,5.085-9.573,15.834,15.834,0,0,1,3.133-5.134C486.595,105.384,486.5,105.118,486.5,105.118Z" transform="translate(-429.213 -105.118)" fill="#c2c2c2"/>
        </g>
        <g id="Grupo_1069077" data-name="Grupo 1069077" transform="translate(2366.651 -6961.281)">
          <path id="Trazado_813182" data-name="Trazado 813182" d="M483.276,124.961c-4.43.848-8.792,1.936-13.187,2.908-1.877.415-3.639,1.089-5.559,1.38a56.754,56.754,0,0,1-7.03.357c-2.094.058-4.171.066-6.265.058-2.219-.017-4.3.531-6.481.723a11.176,11.176,0,0,0-4.237,1.786c-1.962,1.1-4.156,1.794-6.05,3.008-.051.032-.042.142.032.1,7.279-4.23,16.278-5.559,24.613-5.434,8.359.125,16.088-2.909,24.139-4.728C483.325,125.1,483.376,124.936,483.276,124.961Z" transform="translate(-434.434 -124.958)" fill="#c2c2c2"/>
        </g>
        <g id="Grupo_1069078" data-name="Grupo 1069078" transform="translate(2371.256 -6965.75)">
          <path id="Trazado_813183" data-name="Trazado 813183" d="M480.847,121.516c-1.612.292-3.174.691-4.762,1.1-1.877.483-3.514,1.537-5.45,1.953-1.737.366-3.616.068-5.368.292-1.986.24-3.906.756-5.916.9-3.865.291-7.7.208-11.526,1.039-3.365.732-6.556,2.236-9.806,3.34-.042.009-.058.117,0,.1a32.247,32.247,0,0,0,3.323-.756,50.19,50.19,0,0,1,6.382-1.994c3.78-.874,7.7-.765,11.542-1.148a49.209,49.209,0,0,0,5.974-1.229c1.76-.408,3.59-.174,5.376-.34a19.666,19.666,0,0,0,4.677-1.322c1.812-.648,3.723-1.039,5.551-1.629.116-.042.183-.323.017-.291Z" transform="translate(-437.982 -121.516)" fill="#c2c2c2"/>
        </g>
        <g id="Grupo_1069079" data-name="Grupo 1069079" transform="translate(2394.747 -6967.912)">
          <path id="Trazado_813184" data-name="Trazado 813184" d="M474.8,119.852c-2.992.774-6.025,1.214-9.066,1.745-3.216.566-6.357,1.546-9.607,1.954-.049,0-.083.1-.016.1a73.072,73.072,0,0,0,18.671-3.6c.083-.025.115-.225.008-.2Z" transform="translate(-456.077 -119.85)" fill="#c2c2c2"/>
        </g>
        <g id="Grupo_1069080" data-name="Grupo 1069080" transform="translate(2376.974 -6965.442)">
          <path id="Trazado_813185" data-name="Trazado 813185" d="M454.754,121.753c-2.285.366-4.545.691-6.805,1.222-1.836.432-3.631,1.338-5.459,1.679-.066.017-.166.191-.049.2,1.562.125,3.265-.657,4.785-1.006,2.526-.582,4.96-1.445,7.511-1.977C454.788,121.862,454.829,121.745,454.754,121.753Z" transform="translate(-442.387 -121.753)" fill="#c2c2c2"/>
        </g>
        <g id="Grupo_1069081" data-name="Grupo 1069081" transform="translate(2384.466 -6968.99)">
          <path id="Trazado_813186" data-name="Trazado 813186" d="M457.895,119.029c-1.612.191-3.117.457-4.754.531s-3.282.823-4.919.857c-.049,0-.1.108-.032.116a17.211,17.211,0,0,0,4.868-.465c.874-.149,1.82,0,2.7-.117a11.008,11.008,0,0,0,2.119-.64c.116-.032.191-.308.017-.291Z" transform="translate(-448.157 -119.019)" fill="#c2c2c2"/>
        </g>
        <g id="Grupo_1069082" data-name="Grupo 1069082" transform="translate(2386.833 -6971.309)">
          <path id="Trazado_813187" data-name="Trazado 813187" d="M454.866,117.234a13.673,13.673,0,0,0-2.385.308,13.378,13.378,0,0,1-2.419.515c-.066,0-.125.142-.042.158a8.455,8.455,0,0,0,2.368-.117,5.6,5.6,0,0,0,2.5-.382c.166-.1.249-.474-.025-.474Z" transform="translate(-449.98 -117.234)" fill="#c2c2c2"/>
        </g>
        <g id="Grupo_1069083" data-name="Grupo 1069083" transform="translate(2359.872 -6987.029)" opacity="0.6">
          <path id="Trazado_813188" data-name="Trazado 813188" d="M487.966,121.619a23.269,23.269,0,0,0,1.679-6.981c-.083-.457-3.14-9.513-3.14-9.513s-28.76,2.3-29.332,2.568-15.207,19.543-15.207,19.543c.084.457-12.24,17.134-12.729,17.848s7.213-1.313,10.146-3.091,4.953-2.617,8.367-2.617,14.651-.506,15.7-.7,25.659-6.547,26.283-6.514a6.526,6.526,0,0,0,2.169-.856s-5.06-7.3-3.939-9.681Zm-1.529,7.969c-4.936,2.593-10.361,3.947-15.712,5.385-1.779.474-3.689,1.154-5.393.1-1.662-1.04-2.891-2.6-4.437-3.765a39.594,39.594,0,0,0,1.048,3.839.439.439,0,0,1-.358.515c-2.517.382-5.1.142-7.595.7a10.4,10.4,0,0,1-4.7.448c-2.525-.623-4.187-1.611-6.73-.149-2.086,1.2-4.056,2.585-6.182,3.706a.452.452,0,0,1-.565-.657c1.943-2.859,3.673-6.216,6.407-8.425,3.124-2.526,7.145-3.614,10.378-6a.423.423,0,0,1,.349-.083c1.379-1.28,2.625-2.751,3.805-3.931a.427.427,0,0,1,.44-.083c1.363.682,4.879,1.962,5.876.325a10.1,10.1,0,0,1,2.974-3.5c.3-.2.665.134.64.44-.232,3.117-.765,6.182-1.2,9.273a85.158,85.158,0,0,1,8.318-2.683c2.983-.848,5.816-2.119,8.866-2.751a.449.449,0,0,1,.5.591c-.457,1.462.232,3.182-1.346,4.088a26.92,26.92,0,0,1-3.581,1.479c2.75.025,5.467-.78,8.167.315A.452.452,0,0,1,486.436,129.587Z" transform="translate(-429.213 -105.125)" fill="#c2c2c2"/>
        </g>
        <path id="Trazado_813189" data-name="Trazado 813189" d="M406.2,127.184c0,.466-15.115,14.658-15.729,15.274s7.328,0,10.536-1.222,5.342-1.679,8.707-1.063,14.509,2.136,15.572,2.136,26.416-1.837,27.03-1.679a6.713,6.713,0,0,0,2.294-.457s-3.665-8.094-2.136-10.23a22.753,22.753,0,0,0,2.9-6.564c0-.457-1.371-9.921-1.371-9.921s-28.71-2.9-29.324-2.751-18.472,16.486-18.472,16.486Z" transform="translate(1919.097 -7090.491)" fill="#e4e0c5"/>
        <g id="Grupo_1069084" data-name="Grupo 1069084" transform="translate(2316.931 -6953.604)">
          <path id="Trazado_813190" data-name="Trazado 813190" d="M446.029,132.47c-4.5.042-8.991.325-13.5.491-1.919.074-3.78.415-5.716.357a57.8,57.8,0,0,1-6.981-.906c-2.069-.323-4.122-.689-6.174-1.071-2.177-.415-4.328-.241-6.505-.449a11.023,11.023,0,0,0-4.488,1c-2.126.731-4.4,1.022-6.489,1.862-.058.025-.067.132.016.108,7.919-2.85,17.009-2.543,25.187-.922,8.2,1.62,16.352.032,24.595-.317C446.054,132.62,446.128,132.47,446.029,132.47Z" transform="translate(-396.136 -130.872)" fill="#c2c2c2"/>
        </g>
        <g id="Grupo_1069085" data-name="Grupo 1069085" transform="translate(2322.534 -6957.403)">
          <path id="Trazado_813191" data-name="Trazado 813191" d="M444.185,128.7c-1.629,0-3.249.108-4.877.225-1.937.132-3.74.889-5.717.939-1.77.051-3.565-.582-5.334-.689-2-.108-3.973.042-5.984-.166-3.854-.408-7.619-1.172-11.524-1.048-3.44.117-6.856,1.023-10.246,1.522-.041,0-.075.1-.025.091a28.965,28.965,0,0,0,3.407-.149,50.69,50.69,0,0,1,6.631-.814c3.871-.175,7.71.631,11.558.939a46.911,46.911,0,0,0,6.1-.132c1.8-.092,3.565.465,5.351.631a19.434,19.434,0,0,0,4.844-.465c1.9-.317,3.84-.349,5.751-.608.116-.016.24-.282.066-.282Z" transform="translate(-400.452 -127.945)" fill="#c2c2c2"/>
        </g>
        <g id="Grupo_1069086" data-name="Grupo 1069086" transform="translate(2346.94 -6958.894)">
          <path id="Trazado_813192" data-name="Trazado 813192" d="M438.337,126.8c-3.082.225-6.141.108-9.223.083-3.266-.025-6.531.382-9.8.2-.049,0-.1.083-.032.091a73.154,73.154,0,0,0,19.011-.183C438.379,126.98,438.454,126.789,438.337,126.8Z" transform="translate(-419.252 -126.797)" fill="#c2c2c2"/>
        </g>
        <g id="Grupo_1069087" data-name="Grupo 1069087" transform="translate(2329.131 -6960.886)">
          <path id="Trazado_813193" data-name="Trazado 813193" d="M418.249,125.344c-2.319-.058-4.6-.141-6.914-.017-1.877.1-3.814.665-5.667.672-.075,0-.2.151-.091.183,1.513.408,3.331-.057,4.885-.125,2.593-.116,5.136-.531,7.745-.589.057,0,.116-.117.042-.117Z" transform="translate(-405.534 -125.262)" fill="#c2c2c2"/>
        </g>
        <g id="Grupo_1069088" data-name="Grupo 1069088" transform="translate(2337.411 -6963.802)">
          <path id="Trazado_813194" data-name="Trazado 813194" d="M421.764,123.412c-1.62-.108-3.15-.116-4.779-.332s-3.382.208-4.993-.042c-.051,0-.117.092-.058.117a17.649,17.649,0,0,0,4.87.415c.888.009,1.786.332,2.683.383a11.615,11.615,0,0,0,2.2-.249c.117-.017.249-.266.066-.283Z" transform="translate(-411.911 -123.016)" fill="#c2c2c2"/>
        </g>
        <g id="Grupo_1069089" data-name="Grupo 1069089" transform="translate(2340.262 -6966.274)">
          <path id="Trazado_813195" data-name="Trazado 813195" d="M419.081,121.247a13.628,13.628,0,0,0-2.4-.134,13.621,13.621,0,0,1-2.468.066c-.066,0-.149.117-.074.151a8.217,8.217,0,0,0,2.351.306,5.572,5.572,0,0,0,2.534.075C419.206,121.637,419.355,121.289,419.081,121.247Z" transform="translate(-414.108 -121.111)" fill="#c2c2c2"/>
        </g>
        <g id="Grupo_1069090" data-name="Grupo 1069090" transform="translate(2309.539 -6979.798)" opacity="0.5">
          <path id="Trazado_813196" data-name="Trazado 813196" d="M452.471,129.937a22.772,22.772,0,0,0,2.9-6.565c0-.457-1.371-9.921-1.371-9.921s-28.709-2.9-29.324-2.751S406.2,127.186,406.2,127.186c0,.466-15.115,14.658-15.729,15.274s7.328,0,10.536-1.222,5.342-1.679,8.707-1.065,14.509,2.136,15.572,2.136,26.416-1.836,27.03-1.679a6.681,6.681,0,0,0,2.294-.457s-3.665-8.093-2.136-10.229Zm-2.933,7.57c-5.327,1.654-10.9,2.019-16.428,2.468-1.836.149-3.839.474-5.317-.872-1.454-1.322-2.368-3.075-3.69-4.5a38.009,38.009,0,0,0,.34,3.963.45.45,0,0,1-.448.448c-2.543-.083-5.045-.772-7.6-.672a10.568,10.568,0,0,1-4.7-.4c-2.377-1.065-3.831-2.336-6.6-1.355-2.269.806-4.446,1.812-6.748,2.535a.451.451,0,0,1-.431-.749c2.426-2.459,4.727-5.459,7.81-7.138,3.523-1.928,7.678-2.276,11.293-4.037a.448.448,0,0,1,.357-.017c1.586-1.014,3.082-2.236,4.445-3.191a.419.419,0,0,1,.449,0c1.222.923,4.445,2.808,5.716,1.38a10.2,10.2,0,0,1,3.557-2.909c.332-.132.623.249.548.549-.789,3.025-1.869,5.941-2.859,8.907a86.832,86.832,0,0,1,8.667-1.146c3.091-.3,6.108-1.048,9.215-1.114a.455.455,0,0,1,.383.674c-.706,1.362-.341,3.182-2.052,3.78a26.944,26.944,0,0,1-3.79.814c2.7.523,5.517.217,7.978,1.779a.449.449,0,0,1-.108.814Z" transform="translate(-390.443 -110.695)" fill="#d3d0b7"/>
        </g>
        <path id="Trazado_813197" data-name="Trazado 813197" d="M465.044,102.651s4.737-.615,9.165-1.38,10.686-.308,11.758-.308a5,5,0,0,1,2.136.606s-7.328,12.366-7.944,15.731-8.858,14.051-9.007,14.508-3.208,5.651-3.208,5.651l-.149.614s-21.222-9.007-40.159-6.722Z" transform="translate(1930.189 -7093.435)" fill="#779c97"/>
        <g id="Grupo_1069091" data-name="Grupo 1069091" transform="translate(2357.825 -6992.599)" opacity="0.4">
          <path id="Trazado_813198" data-name="Trazado 813198" d="M485.968,100.97c-1.072,0-7.328-.457-11.758.306s-9.165,1.38-9.165,1.38l-37.408,28.7c18.937-2.294,40.159,6.722,40.159,6.722l.149-.615s3.059-5.185,3.208-5.65,8.4-11.144,9.007-14.509,7.944-15.729,7.944-15.729A5.051,5.051,0,0,0,485.968,100.97Zm-1.288,1.686a29.108,29.108,0,0,1-3.174,2.143c2.168,1.446-1.131,4.737-2.077,6.3a77.588,77.588,0,0,0-4.188,7.5c-.906,1.928-1.688,4.113-3.323,5.575-.989.889-2.052,1.554-2.419,2.917-.215.772-.374,1.562-.565,2.336-.266,1.088-.557,2.742-1.546,3.465-2.027,1.462-5.875-1.28-7.761-2.1a.451.451,0,0,1,0-.772,20.455,20.455,0,0,1,3.889-1.877c1.229-.4,2.925-.217,3.605-1.554,1.089-2.12,1.372-4.628,1.754-6.956.291-1.762.291-4.088,1.471-5.525,1.562-1.894,3.69-3.157,5.476-4.819a16,16,0,0,0-3.606,1.928.449.449,0,0,1-.657-.266c-.548-1.928-1-3.889-1.487-5.842a.459.459,0,0,1,.306-.548c2.311-.774,11.726-3.4,14.094-2.634a.452.452,0,0,1,.2.748Z" transform="translate(-427.636 -100.834)" fill="#779c97"/>
        </g>
        <path id="Trazado_813199" data-name="Trazado 813199" d="M466.009,114.771l1.379,4.885a18.6,18.6,0,0,1-6.415,3.208c-3.357.765-12.98,3.822-14.509,3.357s-24.121,1.986-24.121,1.986l6.415-10.079,16.951-3.665,20.308.308Z" transform="translate(1928.61 -7089.369)" fill="#d0cdb4"/>
        <path id="Trazado_813200" data-name="Trazado 813200" d="M430.965,118.034s-5.194,8.093-4.737,7.636,12.215-1.529,14.351-1.529,15.115-3.207,16.029-3.664,5.8-1.986,5.8-1.986l-5.948-1.679s-4.737.149-5.194.457-4.578,2.294-4.578,2.294S439.813,122,439.357,122a13.266,13.266,0,0,1-2.293-.763l-3.823-.466-2.293-2.742Z" transform="translate(1929.76 -7088.668)" fill="#b7b5a0"/>
        <path id="Trazado_813201" data-name="Trazado 813201" d="M389.208,126,386,129.661a70,70,0,0,0,15.572.149c7.935-.914,11.758-2.136,12.672-2.751s8.093-6.256,10.229-7.17,5.8-3.516,7.478-2.751,8.65,5.443,12.115,5.085c0,0-4.179-9.97-14.708-10.586S389.2,125.989,389.2,125.989Z" transform="translate(1917.772 -7090.217)" fill="#b9b7a2"/>
        <g id="Grupo_1069092" data-name="Grupo 1069092" transform="translate(2305.01 -6978.589)" opacity="0.4">
          <path id="Trazado_813202" data-name="Trazado 813202" d="M405.708,127.923a25.914,25.914,0,0,0,9.381-3.54c2.709-1.76,5.185-3.905,7.969-5.567,2.394-1.42,5.194-2.95,8.044-3.108a13.873,13.873,0,0,1,6.69,1.612,50.988,50.988,0,0,1,4.753,2.634c-1.92-2.983-6.167-7.885-13.461-8.31-10.536-.614-40.159,14.351-40.159,14.351l-1.969,2.243C392.987,129.892,399.683,129.12,405.708,127.923Z" transform="translate(-386.954 -111.626)" fill="#c2c2c2"/>
        </g>
        <path id="Trazado_813203" data-name="Trazado 813203" d="M389.506,122.423c0,.457-3.507,5.193-3.507,5.193s13.437,1.222,18.779.765,8.708-2.136,10.079-3.507a77.743,77.743,0,0,1,11.758-7.636c2.443-1.063,3.506-1.828,5.344-1.222a26.065,26.065,0,0,1,5.948,3.822,57.143,57.143,0,0,0,5.5,2.593s-6.714-10.993-13.586-12.066-26.566,9.316-26.566,9.316l-13.744,2.75Z" transform="translate(1917.772 -7090.614)" fill="#d3d0b7"/>
        <g id="Grupo_1069093" data-name="Grupo 1069093" transform="translate(2305.367 -6980.327)" opacity="0.4">
          <path id="Trazado_813204" data-name="Trazado 813204" d="M403.083,126.66c6.707-.865,12.406-4.271,17.949-7.978,2.21-1.479,4.611-3.864,7.27-4.478a9.815,9.815,0,0,1,6.008.573,27.827,27.827,0,0,1,5.434,3.091c-2.6-3.157-6.416-6.905-10.287-7.5-6.873-1.071-26.566,9.316-26.566,9.316l-13.744,2.75a19.021,19.021,0,0,1-1.919,3,36.323,36.323,0,0,0,15.854,1.237Z" transform="translate(-387.229 -110.287)" fill="#c2c2c2"/>
        </g>
        <path id="Trazado_813205" data-name="Trazado 813205" d="M403.054,102.844C407.94,97.352,418.477,80.7,418.477,80.7l-8.858,2.6s-4.43,16.029-10.079,22.743c-3.066,3.639-6.881,10.329-9.789,16.153.058-.083.116-.174.174-.274,1.986-3.507,8.244-13.594,13.129-19.086Z" transform="translate(1918.891 -7099.438)" fill="#d3d0b7"/>
        <g id="Grupo_1069094" data-name="Grupo 1069094" transform="translate(2308.641 -6992.04)">
          <path id="Trazado_813206" data-name="Trazado 813206" d="M392.21,111.975a116.618,116.618,0,0,1,6.265-10.71,105.612,105.612,0,0,0-8.724,14.808c.058-.083.116-.175.174-.274.515-.906,1.3-2.245,2.285-3.831Z" transform="translate(-389.751 -101.265)" fill="#d3d0b7"/>
        </g>
        <g id="Grupo_1069095" data-name="Grupo 1069095" transform="translate(2319.319 -7018.738)">
          <path id="Trazado_813207" data-name="Trazado 813207" d="M414.153,81.257a42.791,42.791,0,0,1-5.418,8.717c-2.708,3.714-5.093,7.628-7.653,11.434-1.039,1.546-2.077,3.083-3.107,4.637.9-1.164,1.777-2.252,2.617-3.2,4.885-5.493,15.422-22.144,15.422-22.144l-1.869.548Z" transform="translate(-397.976 -80.7)" fill="#d3d0b7"/>
        </g>
        <path id="Trazado_813208" data-name="Trazado 813208" d="M452.462,72c-11.3.15-14.351,5.193-17.408,5.65a28.05,28.05,0,0,1-6.108.15l-9.772,4.279.308,1.221s-10.536,16.644-15.422,22.144-11.152,15.58-13.129,19.087c-.058.1-.117.191-.175.274-2.459,4.928-4.262,9.241-4.4,10.57,0,0,11.143,2.593,17.251,1.836s11.45-4.121,14.815-6.415,9.156-9.007,13.437-6.257,9.622,9.008,11.45,9.316c0,0,.24.083.665.2l26.823-53.047S463.77,71.844,452.462,72Z" transform="translate(1917.877 -7102.032)" fill="#e4e0c5"/>
        <path id="Trazado_813209" data-name="Trazado 813209" d="M482.6,89.677s-4.579-11.143-8.709-12.215-16.336,1.986-16.336,1.986l-26.823,53.039c1.628.457,5.958,1.4,9.721-.051,4.737-1.836,10.993-6.722,14.509-5.5s9.921,3.822,9.921,3.822,3.208-11.757,3.208-14.349-2.593-5.8.149-8.7,14.351-18.023,14.351-18.023Z" transform="translate(1931.113 -7100.471)" fill="#d3d0b7"/>
        <path id="Trazado_813210" data-name="Trazado 813210" d="M426.221,87.8a35.167,35.167,0,0,1,23.059,1.529l5.493-8.55s-7.787-10.536-24.43-3.515Z" transform="translate(1929.767 -7101.183)" fill="#aaa995"/>
        <path id="Trazado_813211" data-name="Trazado 813211" d="M408.527,90.115l-3.357,5.8,14.051,1.679,2.593-5.642Z" transform="translate(1923.489 -7096.63)" fill="#aaa995"/>
        <g id="Grupo_1069096" data-name="Grupo 1069096" transform="translate(2336.977 -7024.23)">
          <path id="Trazado_813212" data-name="Trazado 813212" d="M411.577,80.749l8.941,3.664.831-7.944Z" transform="translate(-411.577 -76.469)" fill="#e4e0c5"/>
        </g>
        <g id="Grupo_1069103" data-name="Grupo 1069103" transform="translate(2347.679 -7008.881)" opacity="0.5">
          <g id="Grupo_1069097" data-name="Grupo 1069097" transform="translate(0 27.153)">
            <path id="Trazado_813213" data-name="Trazado 813213" d="M427.54,110.471a11.084,11.084,0,0,0-1.629-.6.4.4,0,0,1-.265.017c-.682-.174-1.388-.34-2.1-.465-.822-.092-1.645-.151-2.485-.217h-.332c-.306.017-.606.058-.9.1a40.654,40.654,0,0,1,6.573,1.562c1.2.5,2.368,1.072,3.531,1.637a5.905,5.905,0,0,1,1.529,1.148,6.417,6.417,0,0,1,1.811,1.063,16.034,16.034,0,0,0-5.725-4.263Z" transform="translate(-419.821 -109.208)" fill="#c2c2c2"/>
          </g>
          <g id="Grupo_1069098" data-name="Grupo 1069098" transform="translate(8.086 25.665)">
            <path id="Trazado_813214" data-name="Trazado 813214" d="M431,110.331c.682.216,1.371.415,2.062.589a.13.13,0,0,0-.083-.116,21.358,21.358,0,0,0-3.349-2.011,22.769,22.769,0,0,0-3.49-.732c-.058-.008-.134.109-.058.125a30.2,30.2,0,0,1,3.249,1.106A11.585,11.585,0,0,1,431,110.331Z" transform="translate(-426.05 -108.062)" fill="#c2c2c2"/>
          </g>
          <g id="Grupo_1069099" data-name="Grupo 1069099" transform="translate(10.28 23.115)">
            <path id="Trazado_813215" data-name="Trazado 813215" d="M434.136,108.74c-1.612-1.986-3.989-2.294-6.374-2.642-.016,0-.032.025-.016.032a27.37,27.37,0,0,1,6.148,2.859c.141.091.341-.117.232-.249Z" transform="translate(-427.74 -106.098)" fill="#c2c2c2"/>
          </g>
          <g id="Grupo_1069100" data-name="Grupo 1069100" transform="translate(11.974 20.095)">
            <path id="Trazado_813216" data-name="Trazado 813216" d="M435.866,106.792c-.731-.432-1-1.28-1.762-1.7a16.032,16.032,0,0,0-2.693-1.022c-.191-.068-.382-.125-.573-.2a11.728,11.728,0,0,0-1.8-.1,14.577,14.577,0,0,1,2.593,1.006,6.617,6.617,0,0,1,2.825,1.611c.44.532.591.691,1.238.748C435.866,107.149,436.04,106.891,435.866,106.792Z" transform="translate(-429.044 -103.771)" fill="#c2c2c2"/>
          </g>
          <g id="Grupo_1069101" data-name="Grupo 1069101" transform="translate(18.179 20.273)">
            <path id="Trazado_813217" data-name="Trazado 813217" d="M434.822,104.332a5.112,5.112,0,0,0-.931-.423c-.032-.009-.091.049-.057.083.265.223.448.54.763.7C434.773,104.789,435.022,104.432,434.822,104.332Z" transform="translate(-433.824 -103.908)" fill="#c2c2c2"/>
          </g>
          <g id="Grupo_1069102" data-name="Grupo 1069102" transform="translate(7.959)">
            <path id="Trazado_813218" data-name="Trazado 813218" d="M436.588,88.665a16.439,16.439,0,0,0-5.484-.233c-1.329.183-2.659.366-3.988.482a3.661,3.661,0,0,0-1.164.366,14.42,14.42,0,0,0,2.519.449c.291-.025.582-.05.856-.066a13.565,13.565,0,0,0,3.108-.507,15.387,15.387,0,0,1,4.047-.174c.158,0,.332-.283.117-.324Z" transform="translate(-425.952 -88.293)" fill="#c2c2c2"/>
          </g>
        </g>
        <g id="Grupo_1069104" data-name="Grupo 1069104" transform="translate(2373.703 -6987.885)" opacity="0.5">
          <path id="Trazado_813219" data-name="Trazado 813219" d="M457.575,112.7a.363.363,0,0,1-.166-.091c-.765-.151-1.562-.249-2.434-.341a23.134,23.134,0,0,0-2.851-.573c-.806.025-1.662.274-2.485.34-1.686.125-3.407.249-5.118.357-1.554.366-3.1.806-4.654,1.231,2.02-.075,5.177-.582,5.7-.64,1.155-.134,2.277-.125,3.432-.308a10.1,10.1,0,0,1,4.511-.191,17.363,17.363,0,0,0,3.4.489,29.61,29.61,0,0,1,3.348,1,.253.253,0,0,0,.234-.14c-.965-.391-1.92-.806-2.909-1.123Z" transform="translate(-439.867 -102.31)" fill="#c2c2c2"/>
          <path id="Trazado_813220" data-name="Trazado 813220" d="M444.891,110.175c-.682.025-1.337.174-2.011.257a8.082,8.082,0,0,1-2.634.374c-.042,0-.091.075-.042.092a3.368,3.368,0,0,0,1.962.1,15.376,15.376,0,0,0,2.676-.4C444.991,110.549,445.157,110.158,444.891,110.175Z" transform="translate(-439.772 -102.762)" fill="#c2c2c2"/>
          <path id="Trazado_813221" data-name="Trazado 813221" d="M456.8,110.942a22.211,22.211,0,0,0-3.54-1.146,5.667,5.667,0,0,0-2.211.074c-.132.026-.3.068-.473.1.191.042.374.075.523.1.315.066.631.117.946.183a8.066,8.066,0,0,1,2.7.748,3.122,3.122,0,0,0,1.9.34C456.791,111.316,457.007,111.008,456.8,110.942Z" transform="translate(-436.673 -102.898)" fill="#c2c2c2"/>
          <path id="Trazado_813222" data-name="Trazado 813222" d="M460.122,108.974a3.66,3.66,0,0,1-1.279-.623c-.482-.223-.965-.44-1.454-.648a13.525,13.525,0,0,0-1.737-.323c-1.671-.234-3.465-.308-5.144-.425-2.776-.208-7.113-.432-9.49,1.329a1.587,1.587,0,0,1,.283.017,13.688,13.688,0,0,1,4.953-.657,27.606,27.606,0,0,1,5.368.325c1.454.257,2.916.149,4.379.34,1.711.217,2.957,1.571,4.7,1.172.051,0,.1-.049.141-.1-.24-.141-.489-.274-.739-.4Z" transform="translate(-439.523 -103.764)" fill="#c2c2c2"/>
          <path id="Trazado_813223" data-name="Trazado 813223" d="M448.2,104.565a.5.5,0,0,1-.232-.058c-.648.051-1.3.068-1.953.151a12.086,12.086,0,0,1-3.066.365c-.049,0-.116.092-.058.108a10.869,10.869,0,0,0,2.983.068,6.541,6.541,0,0,0,3.349-.325.492.492,0,0,0,.225-.408c-.417.034-.832.092-1.255.1Z" transform="translate(-438.971 -104.465)" fill="#c2c2c2"/>
        </g>
        <path id="Trazado_813224" data-name="Trazado 813224" d="M465.128,86.166a9.328,9.328,0,0,1,4.661,4.786,12.676,12.676,0,0,0,1.363-2.31,7.04,7.04,0,0,0-2.326-5.152A13.15,13.15,0,0,0,457.076,81.5c-.608,1-1.231,1.986-1.845,2.983a2.66,2.66,0,0,0-.092.349A19.281,19.281,0,0,1,465.128,86.166Z" transform="translate(1938.391 -7099.379)" fill="#aaa995"/>
        <path id="Trazado_813225" data-name="Trazado 813225" d="M411.641,80.749l7.935,2.593,1.837-6.872Z" transform="translate(1925.419 -7100.699)" fill="#e3e3e1"/>
        <g id="Grupo_1069105" data-name="Grupo 1069105" transform="translate(2304.229 -7030.032)" opacity="0.4">
          <path id="Trazado_813226" data-name="Trazado 813226" d="M452.462,72c-11.3.15-14.351,5.193-17.408,5.65a28.05,28.05,0,0,1-6.108.15l-9.772,4.279.308,1.221s-10.536,16.644-15.422,22.144-11.152,15.58-13.129,19.087c-.058.1-.117.191-.175.274-2.459,4.928-4.262,9.241-4.4,10.57,0,0,11.143,2.593,17.251,1.836s11.45-4.121,14.815-6.415,9.156-9.007,13.437-6.257,9.622,9.008,11.45,9.316c0,0,.24.083.665.2l26.823-53.047S463.77,71.844,452.462,72Zm-33.288,35.98c-1.129,2.917-3.614,5.468-6.016,7.37a67.248,67.248,0,0,1-8.4,5.46,33.664,33.664,0,0,1-8.973,3.988.452.452,0,0,1-.549-.549c1-5.076,4.53-9.215,7.621-13.2,3.822-4.9,7.976-9.8,11.358-15.006,1.588-2.443,3.548-4.878,4.537-7.636.34-.956.839-3.116,2.077-3.34,1.4-.241,4.337.083,5.708,1.338a.38.38,0,0,1,.557.283c.623,3.6,1.671,7.429,1.172,11.1-.508,3.723-2.868,6.714-4.728,9.855-.183.3-.765.3-.815-.108a36,36,0,0,0-2.094-8.127,26.612,26.612,0,0,1-1.445,8.567Zm43.583-18.646c-6.224,8.924-10.586,19-15.4,28.709a44.417,44.417,0,0,1-4.13,7.164c-.54.714-1.288,1.279-2.185.914-1.438-.574-2.269-2.585-3.648-3.408a26.95,26.95,0,0,0-6.881-2.493.454.454,0,0,1-.315-.548,34.093,34.093,0,0,0,1.271-4.4c-3.39,2.3-5.982,5.61-9.464,7.811a.445.445,0,0,1-.606-.606c3.954-6.565,8.592-13.112,11.25-20.358,2.551-6.955,1.131-14.425,2.052-21.638a.41.41,0,0,1-.025-.457c.032-.058.066-.108.1-.166v-.033a.342.342,0,0,1,.2-.282c1.7-2.385,5.219-3.407,7.778-4.454a22.219,22.219,0,0,1,14.251-.756c2.917.8,6.739,2.244,8.168,5.169,1.728,3.54-.4,6.93-2.426,9.847Z" transform="translate(-386.352 -72)" fill="#c2c2c2"/>
        </g>
        <g id="Grupo_1069106" data-name="Grupo 1069106" transform="translate(2361.847 -7023.237)" opacity="0.4">
          <path id="Trazado_813227" data-name="Trazado 813227" d="M482.6,89.677s-4.579-11.143-8.709-12.215-16.336,1.986-16.336,1.986l-26.823,53.039c1.628.457,5.958,1.4,9.721-.051,4.737-1.836,10.993-6.722,14.509-5.5s9.921,3.822,9.921,3.822,3.208-11.757,3.208-14.349-2.593-5.8.149-8.7,14.351-18.023,14.351-18.023Zm-19.12,5.418c-1.237,2.1-2.767,4.662-2.857,7.163-.109,2.817,2.126,5.377,3.3,7.828.839,1.762,2.036,3.939,1.637,5.95a17.936,17.936,0,0,1-2.094,5.525c-.64,1.08-1.646,2.617-3.091,2.568a31.843,31.843,0,0,1-7.961-1.346.461.461,0,0,1-.315-.549c.34-1.437.8-2.842,1.129-4.27a22.168,22.168,0,0,1-16.885,9.879c-.374.032-.506-.391-.382-.674,1.694-3.947,2.617-8.55,6.132-11.358.857-.682,1.771-1.3,2.593-2.028.432-.382-.682-1.4-.8-1.786-.391-1.28.523-2.834,1.039-3.963,2.143-4.745,4.528-9.415,7.038-13.985a.16.16,0,0,1,.017-.042c1.354-2.725,3.066-5.343,4.5-8.052a.457.457,0,0,1-.058-.465c.6-1.346,1.08-3.365,2.294-4.429a.316.316,0,0,1,.249-.2,2.074,2.074,0,0,1,.415-.249,20.362,20.362,0,0,1,7.71-1.546c5.277-.224,8.684,3.266,10.005,8.218a.451.451,0,0,1-.317.548c-2.659.573-6.265-.066-8.55,1.579a18.282,18.282,0,0,0-4.736,5.7Z" transform="translate(-430.734 -77.235)" fill="#c2c2c2"/>
        </g>
        <g id="Grupo_1069110" data-name="Grupo 1069110" transform="translate(2320.856 -7020.998)" opacity="0.6">
          <g id="Grupo_1069107" data-name="Grupo 1069107" transform="translate(17.496)">
            <path id="Trazado_813228" data-name="Trazado 813228" d="M425.81,78.959c-.448,1.014-.889,2.036-1.3,3.066a38.882,38.882,0,0,0-.872,4.238,47.506,47.506,0,0,0-.108,9.539c.257,4.038-1.437,8.2-3.44,11.583-1.96,3.3-4.877,5.659-7.421,8.459-.074.075.017.158.092.083,2.509-2.542,5.06-4.719,7.328-7.495,2.169-2.651,3.142-6,3.922-9.249.84-3.473.732-7.271,1.023-10.836.14-1.745-.083-3.5.057-5.243C425.2,81.693,425.636,80.33,425.81,78.959Z" transform="translate(-412.637 -78.959)" fill="#c2c2c2"/>
          </g>
          <g id="Grupo_1069108" data-name="Grupo 1069108" transform="translate(0 29.503)">
            <path id="Trazado_813229" data-name="Trazado 813229" d="M413.743,101.8c-.748,3.764-2.925,6.241-5.825,8.533a51.605,51.605,0,0,1-8.758,5.859c.125.016.249.025.374.032,6.29-2.825,13.934-6.805,14.4-14.466,0-.134-.166-.051-.183.032Z" transform="translate(-399.16 -101.685)" fill="#c2c2c2"/>
          </g>
          <g id="Grupo_1069109" data-name="Grupo 1069109" transform="translate(74.02 13.295)">
            <path id="Trazado_813230" data-name="Trazado 813230" d="M458.976,107.614a.185.185,0,0,0,.125-.217,16.174,16.174,0,0,1-1.628-6.115,14.414,14.414,0,0,1,1.462-5.235c1.039-2.468,3.382-4.379,4.42-6.847q-1.533,1.072-2.983,2.235c-.24.233-.482.482-.706.74a17.182,17.182,0,0,0-3.074,5.069c-.931,2.194-.149,5.119.914,7.578.482.939.965,1.869,1.479,2.792Z" transform="translate(-456.177 -89.2)" fill="#c2c2c2"/>
          </g>
        </g>
        <g id="Grupo_1069117" data-name="Grupo 1069117" transform="translate(2320.009 -7020.167)" opacity="0.6">
          <g id="Grupo_1069111" data-name="Grupo 1069111" transform="translate(0 7.138)" opacity="0.5">
            <path id="Trazado_813231" data-name="Trazado 813231" d="M415.507,85.105A36.031,36.031,0,0,1,413,91.952a23.048,23.048,0,0,1-2.717,3.207c-1.08,1.263-2.168,2.518-3.24,3.789-3.108,3.681-5.8,7.628-8.533,11.567.216-.234.423-.474.64-.706a16.409,16.409,0,0,1,2.193-2.411q2.419-2.654,4.837-5.326c3.407-3.756,8.226-8.26,9.247-13.478.009-.881.092-1.737.175-2.609a8.767,8.767,0,0,0-.1-.889Z" transform="translate(-398.507 -85.097)" fill="#fff"/>
          </g>
          <g id="Grupo_1069112" data-name="Grupo 1069112" transform="translate(22.895)" opacity="0.5">
            <path id="Trazado_813232" data-name="Trazado 813232" d="M427.931,79.6a30.538,30.538,0,0,0-.217,3.382c.058,1.762-.025,3.507-.066,5.268a55.38,55.38,0,0,1-1.163,8.351c-.657,3.623-2.957,6.406-4.911,9.4-2,3.075-3.539,6.44-5.384,9.606-.175.3.183.5.374.232,2.3-3,4.47-6.1,6.647-9.182,2.16-3.049,4.271-5.725,5.236-9.414a36.744,36.744,0,0,0,1.055-7c-.432-3.556-.972-7.1-1.58-10.636Z" transform="translate(-416.143 -79.599)" fill="#fff"/>
          </g>
          <g id="Grupo_1069113" data-name="Grupo 1069113" transform="translate(43.407 19.551)" opacity="0.5">
            <path id="Trazado_813233" data-name="Trazado 813233" d="M435.617,105.1a50.853,50.853,0,0,0,4.071-10.379c.025-.092-.075-.067-.1,0-2.4,5.119-6.241,9.663-7.645,15.207,1.222-1.621,2.468-3.208,3.674-4.82Z" transform="translate(-431.943 -94.659)" fill="#fff"/>
          </g>
          <g id="Grupo_1069114" data-name="Grupo 1069114" transform="translate(18.504 59.223)" opacity="0.5">
            <path id="Trazado_813234" data-name="Trazado 813234" d="M425.05,132.445c-1.113-1.7-3.248-2.776-4.977-3.782-2.3-1.32-4.819-2.26-7.2-3.44-.057-.032-.157.083-.1.134,1.96,1.728,3.947,3.382,6,5.019,1.862,1.488,3.208,2.634,5.634,2.916.348.042.872-.489.648-.846Z" transform="translate(-412.76 -125.218)" fill="#fff"/>
          </g>
          <g id="Grupo_1069115" data-name="Grupo 1069115" transform="translate(58.1 2.765)" opacity="0.5">
            <path id="Trazado_813235" data-name="Trazado 813235" d="M455.732,82.445c.042-.224.091-.457.117-.681,0-.058-.075-.033-.092,0a29.673,29.673,0,0,1-1.845,3.615A32.907,32.907,0,0,1,451.852,89a55.977,55.977,0,0,0-3.665,7.7c-1.271,2.809-2.634,5.576-3.939,8.368a7.635,7.635,0,0,0-.872,3.382c.075,1.545.441,2.459-.116,3.9.648-1.3,1.379-2.56,2.127-3.806a8.4,8.4,0,0,1,.158-1.953c.756-3.05,2.825-6.066,4.047-8.974,1.246-2.983,2.659-5.9,3.847-8.908.491-1.246,1.114-2.6,1.612-3.972.225-.773.449-1.546.689-2.318Z" transform="translate(-443.26 -81.729)" fill="#fff"/>
          </g>
          <g id="Grupo_1069116" data-name="Grupo 1069116" transform="translate(83.576 32.061)" opacity="0.5">
            <path id="Trazado_813236" data-name="Trazado 813236" d="M469.432,104.342a28.028,28.028,0,0,0-2.419,3.731c-.731,1.379-1.671,2.434-2.476,3.747a22.824,22.824,0,0,0-1.488,3.682c-.051.125-.117.257-.166.391.108-.117.215-.234.325-.349a9.392,9.392,0,0,1,3.124-3.739c2.685-1.646,1.986-4.879,3.225-7.438C469.606,104.267,469.474,104.283,469.432,104.342Z" transform="translate(-462.884 -104.295)" fill="#fff"/>
          </g>
        </g>
        <g id="Grupo_1069118" data-name="Grupo 1069118" transform="translate(2320.031 -6994.191)" opacity="0.6">
          <path id="Trazado_813237" data-name="Trazado 813237" d="M414.331,108.548a4.759,4.759,0,0,1-1.139-2.243c-.132-2.485,2.434-3.274.215-5.667-1.645-1.778-3.216-1.13-3.83,1-.058.191-2.219-.349-2.643-.149a3.133,3.133,0,0,0-1.769,1.737,2.3,2.3,0,0,0,.432,2.368c1.586,2.136-2.343,1.953-3.149,1.919a2.173,2.173,0,0,0-1.371.508c-.972.806-3.348,3.773-2.285,5.144,2.434,3.165,5.716-1.679,8.467-.051,2.119,1.263,5.41-.5,6.764-2.152a1.812,1.812,0,0,0,.325-2.41Z" transform="translate(-398.524 -99.608)" fill="#bd9a7a"/>
        </g>
        <g id="Grupo_1069119" data-name="Grupo 1069119" transform="translate(2318.893 -6975.092)" opacity="0.6">
          <path id="Trazado_813238" data-name="Trazado 813238" d="M400.533,114.332a16.132,16.132,0,0,0-1.711.656,2.139,2.139,0,0,0-1.165,1.837c.109.806,1.055.806,1.671.631a3.315,3.315,0,0,0,2.028-1.736c.282-.666.058-1.512-.815-1.388Zm-2.319,1.894a1.513,1.513,0,0,1,.225-.465,1.35,1.35,0,0,0-.091.963C398.214,116.649,398.14,116.492,398.214,116.226Z" transform="translate(-397.648 -114.32)" fill="#bd9a7a"/>
        </g>
        <g id="Grupo_1069120" data-name="Grupo 1069120" transform="translate(2363.954 -7010.096)" opacity="0.6">
          <path id="Trazado_813239" data-name="Trazado 813239" d="M460.928,90.9c-2.311-1.13-3.64,1.712-5.842,1.147-1.662-.432,1.163-3.706-1.371-4.429a6.03,6.03,0,0,0-5.053.7,2.006,2.006,0,0,0-.822,1.188,2.206,2.206,0,0,0,.083,1.321c.116.515-1.9.224-2.094.216a3.763,3.763,0,0,0-2.95,1.462c-.682,1.105-.141,1.762.315,2.651a3.725,3.725,0,0,1-1.562.814c-1.155.033-2.128-.474-3.274-.482-.857,0-1.446-.6-2.211-.042-1.337.964-1.288,1.836-.174,2.942,1.5,1.479-1.155,1.953-1.862,2.21a2.584,2.584,0,0,0-1.429,1.537c-.756,1.612-.158,2.792,1.363,3.523,1.894.922,3.14.008,4.4-1.562,1.837-2.3,4.32.274,6.141-1.106.315-.241.715-.565.715-1.014a2.267,2.267,0,0,0-.109-1.014c-.2-.69,1.629.042,1.8.108a2.5,2.5,0,0,0,3.316-1.363,1.482,1.482,0,0,0,.049-.806c-.3-1.221,1.28-1.113,2.094-.964a5.755,5.755,0,0,0,3.282-.931,16.224,16.224,0,0,1,4.322-1.022,2.5,2.5,0,0,0,1.4-1.047c.632-1.163.956-3.282-.556-4.022Z" transform="translate(-432.357 -87.356)" fill="#bd9a7a"/>
        </g>
        <path id="Trazado_813240" data-name="Trazado 813240" d="M475.372,46.5l9.778,12.435-43.467,2.538-9.419-17.989Z" transform="translate(1931.569 -7110.536)" fill="#d0d0cd"/>
        <g id="Grupo_1069121" data-name="Grupo 1069121" transform="translate(2363.833 -7067.05)" opacity="0.4">
          <path id="Trazado_813241" data-name="Trazado 813241" d="M432.264,43.486l9.419,17.989,43.467-2.538L475.372,46.5Zm9.351,11.721c-.073-.1-.068-.281.079-.3a20.086,20.086,0,0,1,4.575.174c1.868.169,3.775.113,5.655.118,2.852.006,5.812.422,8.676.214a27.494,27.494,0,0,1-1.423-2.993c-.71-1.682-1.716-3.292-2.273-5.025a.18.18,0,0,1,.264-.2c3.934,2.093,7.766,4.445,12,5.9a38.445,38.445,0,0,1-5.154-4.079.185.185,0,0,1,.079-.3c3.409-1.339,7.861,1.243,10.877-1.311a.183.183,0,0,1,.253,0c.062.073.118.152.174.225a.145.145,0,0,1,.125.09c1.615,3.067,3.939,5.666,5.885,8.513.125.18-.135.349-.282.219-1.862-1.632-3.775-3.2-5.767-4.665a46.134,46.134,0,0,1,3.061,4.355.184.184,0,0,1-.108.264,26.658,26.658,0,0,1-7.456,1.66,10.807,10.807,0,0,1-3.066.2,23.391,23.391,0,0,1-2.672-.782,5.4,5.4,0,0,1,.1.8.181.181,0,0,1-.18.18c-4.845.461-9.712.1-14.567.287-1.12.045-2.229.113-3.343.2-.619.056-1.249.1-1.863.214a1.466,1.466,0,0,1-.866.017c-.462-.163-.732-.838-.923-1.227A15.111,15.111,0,0,0,441.6,55.2Z" transform="translate(-432.264 -43.486)" fill="#d0d0cd"/>
        </g>
        <path id="Trazado_813242" data-name="Trazado 813242" d="M487.376,44.909l2.172,2.3s-20.408-.484-26.2-.726-61.7,1.688-63.031,1.446l-.6-2.774s80.9-1.57,87.661-.242Z" transform="translate(1921.86 -7110.271)" fill="#d3d0b7"/>
        <path id="Trazado_813243" data-name="Trazado 813243" d="M461.956,41.579c0,.36,5.553,13.583,5.553,13.583l-65.563-1.328,1.085-8.935Z" transform="translate(1922.527 -7111.105)" fill="#c2c2c2"/>
        <g id="Grupo_1069122" data-name="Grupo 1069122" transform="translate(2324.478 -7069.526)" opacity="0.4">
          <path id="Trazado_813244" data-name="Trazado 813244" d="M403.03,44.9l58.925-3.32c0,.157,1.052,2.746,2.239,5.621-3.179.017-6.376-.214-9.543-.321a37.707,37.707,0,0,0-5.228-.079,6.082,6.082,0,0,0-1.772.478,1.943,1.943,0,0,1-2.476-.22.168.168,0,0,0-.174-.045c-2.336.85-4.885.489-7.315.6a.184.184,0,0,0-.1.338c1.846,1,3.838,1.694,5.751,2.549-2.532-.445-4.84-1.761-7.376-2.223-2.938-.534-6.06-.219-9.032-.146a61.867,61.867,0,0,0-17.072,2.386,26.108,26.108,0,0,0,4.665,1.435,11.784,11.784,0,0,0,3.353.253,8.334,8.334,0,0,0,2.516-.867,2.514,2.514,0,0,1,2.245-.163,5.681,5.681,0,0,0,1.232.658,190.726,190.726,0,0,0,19.475,1.227c7.979-.152,15.907.872,23.864,1.379.191.45.3.72.3.72L401.95,53.828l1.087-8.935Z" transform="translate(-401.95 -41.579)" fill="#c2c2c2"/>
        </g>
        <path id="Trazado_813245" data-name="Trazado 813245" d="M487.52,43.424l2.3,2.9s-15.457,0-19.8-.36-62.064.242-66.048.844a21.3,21.3,0,0,1-5.553.366l.483-3.747a21.577,21.577,0,0,1,2.3-.36c1.209-.124,82.709-.484,86.332.36Z" transform="translate(1921.474 -7110.716)" fill="#d3d0b7"/>
        <path id="Trazado_813246" data-name="Trazado 813246" d="M488.181,42.04a22.573,22.573,0,0,1,2.538,2.414c.241.484-2.538.484-5.07.726s-12.2.242-13.646.242c0,0-9.3-1.328-12.193-1.328s-31.274,1.21-31.274,1.21l-28.978.484-.118-3.866s68.219-3.866,88.752.118Z" transform="translate(1921.78 -7111.504)" fill="#e4e0c5"/>
        <g id="Grupo_1069123" data-name="Grupo 1069123" transform="translate(2321.209 -7071.266)" opacity="0.5">
          <path id="Trazado_813247" data-name="Trazado 813247" d="M443.051,43.7c-5.041-.169-10.1-.1-15.136.068-5.262.174-10.505-.09-15.767-.146-2.515-.028-5.036-.034-7.545.045-1.654.051-3.409.326-5.109.3l-.062-2.042s68.219-3.866,88.752.118c0,0,1.227,1.03,1.975,1.772a9.023,9.023,0,0,1-1.592.045c-.974-.028-1.947-.068-2.915-.113-2.69-.129-5.358-.225-8.053-.18a59.181,59.181,0,0,1-8.474-.315,38.851,38.851,0,0,0-7.883-.084c-3.2.242-6.4.45-9.6.715-2.864.017-5.728-.09-8.586-.186Z" transform="translate(-399.432 -40.239)" fill="#d3d0b7"/>
        </g>
        <path id="Trazado_813248" data-name="Trazado 813248" d="M489.573,41.037l2.054,3.14s-5.913-.962-8.936-.484-11.714-.968-13.4-.844-14.854.962-19.8,1.21-21.978-.484-23.064-.242-28.011-.242-28.377-.36,1.446-5.677,1.694-5.312,7.005-.726,7.849-.608,81.983,3.505,81.983,3.505Z" transform="translate(1921.35 -7112.313)" fill="#d3d0b7"/>
        <g id="Grupo_1069124" data-name="Grupo 1069124" transform="translate(2319.848 -7074.802)" opacity="0.5">
          <path id="Trazado_813249" data-name="Trazado 813249" d="M484.614,41.918a35.554,35.554,0,0,0-7.129-.416c-2.487.1-4.975.321-7.467.321s-5.019,0-7.534-.011c-11.9-.028-23.8-.112-35.7-.112-5.778,0-11.552-.174-17.33-.259-3.675-.056-7.395.017-11.069-.31.462-1.525,1.1-3.2,1.239-3,.241.36,7.005-.726,7.849-.608s81.983,3.505,81.983,3.505l1.119,1.716a59.61,59.61,0,0,1-5.964-.833Z" transform="translate(-398.383 -37.515)" fill="#d3d0b7"/>
        </g>
        <path id="Trazado_813250" data-name="Trazado 813250" d="M488.247,36.827l4.108,5.554s-9.419-.608-12.559-.608-23.667.726-28.377.36a147.511,147.511,0,0,0-16.058-.6c-4.226.242-35.743-.726-35.743-.726l1.93-4.952,86.7.962Z" transform="translate(1921.833 -7112.813)" fill="#e4e0c5"/>
        <g id="Grupo_1069125" data-name="Grupo 1069125" transform="translate(2322.183 -7076.942)" opacity="0.5">
          <path id="Trazado_813251" data-name="Trazado 813251" d="M462.8,40.992c-5.858-.332-11.7-.934-17.551-1.322s-11.709-.411-17.578-.45c-5.785-.034-11.563-.287-17.347-.214-3.382.039-6.77.09-10.146-.056l1.2-3.084,86.7.962,1.88,2.549C488.4,40.3,468.018,41.3,462.808,41Z" transform="translate(-400.182 -35.866)" fill="#d3d0b7"/>
        </g>
        <path id="Trazado_813252" data-name="Trazado 813252" d="M456.895,16.141l20.043,1.452,14.37,26.682s-12.434,1.936-16.542,1.812-9.3.242-13.161.242-16.177-1.936-19.2-1.57-31.634-.242-34.3-.118-7.005.484-7.005.484l.726-3.624S457.5,15.9,456.895,16.141Z" transform="translate(1922.276 -7118.691)" fill="#d3d0b7"/>
        <g id="Grupo_1069126" data-name="Grupo 1069126" transform="translate(2323.382 -7102.556)" opacity="0.5">
          <path id="Trazado_813253" data-name="Trazado 813253" d="M401.11,45.121s4.35-.36,7.007-.484,31.273.484,34.3.118,15.333,1.57,19.2,1.57,9.054-.36,13.161-.242,16.543-1.812,16.543-1.812L476.938,17.589l-20.043-1.452c-.377.208-55.064,25.354-55.064,25.354l-.726,3.624Zm70.161-11.074c-2.16-4.44-4.428-8.84-6.342-13.392-.067-.169.142-.253.265-.2,2.622,1.114,4.806,3,7.191,4.541-1.294-1.9-3.252-3.292-4.3-5.379a.186.186,0,0,1,.106-.264c2.543-1,5.363-.388,8.019-.613a.18.18,0,0,1,.174.129c.219.647.473,1.283.737,1.907,1,1.6,2.014,3.2,2.97,4.828,1.109,1.885,2.4,3.944,2.724,6.139a21.939,21.939,0,0,1,.1,3.382c0,.366.6.6.854.793a10.494,10.494,0,0,1,1.031.9l.179.18c.327.236.624.478.894.686,1.75,1.379,1.863,3.556,2.842,5.419a.182.182,0,0,1-.106.264c-1.88.321-3.978.917-5.694-.18a11.667,11.667,0,0,1-2.678-2.588c.078,1.137.073,2.279.169,3.41a.182.182,0,0,1-.135.174,10.6,10.6,0,0,1-3.743.793c-1,0-1.49-.867-1.834-1.694-.534-1.283-.8-2.656-1.345-3.939-.731-1.75-1.333-3.551-2.081-5.295ZM454.239,44.1c5.363-.276,10.782-.512,16.076.551a.181.181,0,0,1,0,.349,17.025,17.025,0,0,1-2.611.36,14.7,14.7,0,0,1-5.61-.028c-2.6-.439-5.245-.54-7.861-.867a.18.18,0,0,1,0-.36Z" transform="translate(-401.105 -16.137)" fill="#d3d0b7"/>
        </g>
        <g id="Grupo_1069127" data-name="Grupo 1069127" transform="translate(2323.899 -7102.55)" opacity="0.5">
          <path id="Trazado_813254" data-name="Trazado 813254" d="M467.821,43.431c-3.421-.27-6.853-.27-10.279-.36-5.908-.163-11.816-.428-17.725-.6-5.874-.174-11.727-.045-17.6-.017-5.74.028-11.479-.107-17.218,0q-1.737.034-3.494.062l.2-1.018S456.4,16.349,456.776,16.141l3.365.242c.878,1.666,2.138,3.207,2.953,4.817,1.885,3.686,3.652,7.433,5.532,11.119q2.861,5.6,5.621,11.248a31.3,31.3,0,0,1-6.42-.135Z" transform="translate(-401.504 -16.141)" fill="#d3d0b7"/>
        </g>
        <g id="Grupo_1069128" data-name="Grupo 1069128" transform="translate(2385.518 -7099.953)">
          <path id="Trazado_813255" data-name="Trazado 813255" d="M458.667,19.024a.137.137,0,0,1,.005-.039c.045.062.091.124.135.186.332.76.856,1.592,1.081,2.043.388.771.776,1.542,1.153,2.318a55.237,55.237,0,0,0,2.938,5.728c2.267,3.573,3.877,7.574,5.756,11.344a.165.165,0,0,1,0,.169c-.265-.248-.53-.506-.771-.782a47.744,47.744,0,0,1-2.251-4.434c-1.22-2.391-2.177-4.867-3.527-7.191-1.21-2.093-2.2-4.316-3.275-6.476a16.6,16.6,0,0,1-1.407-2.729.139.139,0,0,0,.169-.129Z" transform="translate(-446.124 -17.89)" fill="#d3d0b7"/>
          <path id="Trazado_813256" data-name="Trazado 813256" d="M456.5,18.474c.608,1.879,1.812,3.612,2.606,5.43.062.158-.14.141-.2.045a12.918,12.918,0,0,1-1.237-2.566,25.212,25.212,0,0,1-1.244-2.9c-.017-.068.068-.056.084-.006Z" transform="translate(-446.746 -18.055)" fill="#d3d0b7"/>
          <path id="Trazado_813257" data-name="Trazado 813257" d="M455.2,18.923c.962,1.739,2.1,3.365,2.931,5.188.861,1.891,1.6,3.826,2.533,5.689.9,1.806,1.418,3.77,2.284,5.587a34.248,34.248,0,0,1,1.964,4.575c-1.249-2.571-2.645-5.075-3.91-7.641-.383-.928-.759-1.857-1.21-2.757-.293-.585-.557-1.176-.81-1.767-.1-.264-.2-.523-.3-.788a.2.2,0,0,0-.068-.084c-.3-.731-.585-1.469-.889-2.223-.782-1.953-1.878-3.793-2.616-5.762-.023-.068.061-.068.09-.022Z" transform="translate(-447.136 -17.92)" fill="#d3d0b7"/>
          <path id="Trazado_813258" data-name="Trazado 813258" d="M453.948,19.608a14.2,14.2,0,0,1,.726,1.221,7.247,7.247,0,0,1,.585,1.936.165.165,0,0,1-.022.135C454.758,21.831,454.4,20.694,453.948,19.608Z" transform="translate(-447.482 -17.704)" fill="#d3d0b7"/>
          <path id="Trazado_813259" data-name="Trazado 813259" d="M454.042,23.68c.626,1.756,1.335,3.494,2.06,5.2.878,2.076,1.738,4.2,2.757,6.212a39.49,39.49,0,0,1,1.885,5.3c.022.068,0,.107-.034.124q-.508-.861-.946-1.756a37.954,37.954,0,0,0-1.671-4.063c-.889-1.682-1.615-3.489-2.363-5.239-.81-1.885-1.475-3.815-2.268-5.706-.366-.872-.591-1.834-.889-2.746C453.07,21.913,453.6,22.791,454.042,23.68Z" transform="translate(-447.892 -17.285)" fill="#d3d0b7"/>
          <path id="Trazado_813260" data-name="Trazado 813260" d="M449.913,18.212a14.683,14.683,0,0,0,1.271,2.87,21.959,21.959,0,0,1,1.311,3.258c.084.332-.27.287-.415.1a10.2,10.2,0,0,1-1.374-3.32,15.171,15.171,0,0,1-.906-2.926C449.795,18.1,449.908,18.155,449.913,18.212Z" transform="translate(-448.719 -18.142)" fill="#d3d0b7"/>
          <path id="Trazado_813261" data-name="Trazado 813261" d="M449.075,20.425a9.17,9.17,0,0,0,.412.844,11.611,11.611,0,0,0,.557,1.272,7.98,7.98,0,0,1,.894,2.042c.051.276-.321.18-.405.028a12.028,12.028,0,0,1-.839-2.043,12.835,12.835,0,0,1-.726-2.144c-.012-.079.1-.045.113.006Z" transform="translate(-448.967 -17.475)" fill="#d3d0b7"/>
          <path id="Trazado_813262" data-name="Trazado 813262" d="M452.267,25.958a.157.157,0,0,1,.04.034,43.79,43.79,0,0,1,2.211,5.39c.8,1.947,1.407,4.04,2.336,5.925.106.225-.135.27-.26.1-.962-1.35-1.394-3.32-1.975-4.867-.765-2.037-1.355-4.361-2.312-6.313-.017-.09-.029-.18-.045-.27Z" transform="translate(-447.985 -15.811)" fill="#d3d0b7"/>
        </g>
        <path id="Trazado_813263" data-name="Trazado 813263" d="M458.515,14s-14.248,3.382-20.887,3.14-27.774-1.446-30.064-.844l-7.849,27.65s12.316-1.688,18.957-1.812,18.113-.484,19.8-.484,33.328.844,33.328.844Z" transform="translate(1921.862 -7119.33)" fill="#e4e0c5"/>
        <g id="Grupo_1069129" data-name="Grupo 1069129" transform="translate(2321.576 -7105.33)" opacity="0.5">
          <path id="Trazado_813264" data-name="Trazado 813264" d="M399.714,43.946s12.316-1.688,18.957-1.812,18.113-.484,19.8-.484,33.328.844,33.328.844L458.515,14s-14.248,3.382-20.887,3.14-27.774-1.446-30.064-.844Zm4.771-4.108c.27-2.92,2.2-5.284,3.129-7.99,1.092-3.185-.528-6.55.022-9.808.023-.146.209-.163.3-.084a15.307,15.307,0,0,1,1.227,1.215c-.106-1.1-.456-2.2-.591-3.3-.106-.872-.315-2.02.563-2.543a6.867,6.867,0,0,1,3.3-.529c1.5-.017,3,.113,4.5.236,3.348.281,6.742-.141,10.05.506,4.085.793,6.949,4.271,10.9,5.345-.692-1.288-1.779-2.318-2.465-3.612a.184.184,0,0,1,.108-.265,35,35,0,0,1,9.11-1.272,24.648,24.648,0,0,0,8.428-1.756c1.345-.574,3.495-1.812,4.789-.568,1.131,1.086,1.457,2.954,1.806,4.552,2.555,6.06,5.532,11.946,7.484,18.242.051.163-.186.321-.3.174a70.488,70.488,0,0,0-4.835-5.537c1.053,2.088,2.634,3.877,3.444,6.083a.18.18,0,0,1-.123.225,23.905,23.905,0,0,1-7.754.1,21.465,21.465,0,0,1-8.153-3.23c-5.5-3.247-11.13-6.358-16.864-9.183a50.451,50.451,0,0,1,10.061,9.509c.106.141-.068.287-.2.264a20.039,20.039,0,0,0-4.226-.174,33.4,33.4,0,0,1-3.343.253,2.324,2.324,0,0,1-1.362-.568c-.326-.264-.759-.928-1.109-.473a7.844,7.844,0,0,1-1.131,1.277.184.184,0,0,1-.287-.034,8.881,8.881,0,0,1-.839-3.624c-3.455,2.47-7.129,5.143-11.349,6.032-2.233.473-4.479.118-6.73.1-2.476-.022-4.877.8-7.365.608-.09-.011-.191-.073-.18-.18Z" transform="translate(-399.714 -14)" fill="#d3d0b7"/>
        </g>
        <g id="Grupo_1069130" data-name="Grupo 1069130" transform="translate(2328.46 -7103.207)">
          <path id="Trazado_813265" data-name="Trazado 813265" d="M443.486,15.684c.652,2.014,1.873,3.837,2.678,5.8.709,1.727,1.71,3.325,2.435,5.047,1.677,3.984,3.777,7.748,5.464,11.726.068.169-.164.169-.225.051-1.986-3.669-3.905-7.41-5.672-11.192-1.706-3.64-3.989-7.467-4.777-11.445C443.379,15.606,443.475,15.639,443.486,15.684Z" transform="translate(-393.574 -15.635)" fill="#e4e0c5"/>
          <path id="Trazado_813266" data-name="Trazado 813266" d="M441.658,16.968a3.69,3.69,0,0,1,.709,2.161c-.017.225-.332.028-.349-.112a5.417,5.417,0,0,0-.5-1.992C441.455,16.906,441.6,16.878,441.658,16.968Z" transform="translate(-394.137 -15.253)" fill="#e4e0c5"/>
          <path id="Trazado_813267" data-name="Trazado 813267" d="M439.52,16.637c.343,1.829,1.429,3.714,2.081,5.452.626,1.671,1.368,3.309,1.925,5,.962,2.943,2.239,5.734,3.105,8.716.074.253-.247.264-.343.079a80.554,80.554,0,0,1-3.3-8.755c-.682-1.891-1.441-3.753-2.077-5.661-.517-1.564-1.44-3.207-1.541-4.856-.006-.113.129-.045.145.028Z" transform="translate(-394.773 -15.361)" fill="#e4e0c5"/>
          <path id="Trazado_813268" data-name="Trazado 813268" d="M441.388,24.9c.393,1.384.871,2.735,1.316,4.108.034.107-.1.085-.135.011a38.806,38.806,0,0,1-1.345-4.1c-.034-.129.135-.112.164-.011Z" transform="translate(-394.221 -12.895)" fill="#e4e0c5"/>
          <path id="Trazado_813269" data-name="Trazado 813269" d="M434.27,17.9c.275.822.653,1.615.991,2.38,1.024,2.313,5.4,14.011,6.825,17.432a19.788,19.788,0,0,1-2.02-.141,16.382,16.382,0,0,1-2.7-.461c-.079-.214-.147-.428-.214-.619-.613-1.744-5.875-16.61-6.656-18.861Q432.381,17.83,434.27,17.9Z" transform="translate(-397.418 -15.041)" fill="#bec0b7"/>
          <path id="Trazado_813270" data-name="Trazado 813270" d="M429.429,18.948a54.4,54.4,0,0,0,1.075,5.52,54.564,54.564,0,0,0,1.232,5.452c.022.079-.079.062-.1.011a31.416,31.416,0,0,1-1.271-4.856c-.27-2.06-.957-4.057-1.013-6.145C429.356,18.875,429.423,18.9,429.429,18.948Z" transform="translate(-397.759 -14.661)" fill="#e4e0c5"/>
          <path id="Trazado_813271" data-name="Trazado 813271" d="M426.928,19.416c.169.974.461,1.93.569,2.915.022.191-.243.084-.265-.051-.152-.957-.31-1.919-.395-2.881-.005-.062.079-.028.091.023Z" transform="translate(-398.51 -14.522)" fill="#e4e0c5"/>
          <path id="Trazado_813272" data-name="Trazado 813272" d="M417.2,18.832c0-.034.057-.006.057.022.027,2.667.326,5.362.23,8.024-.005.174-.27.034-.275-.09A78.572,78.572,0,0,1,417.2,18.832Z" transform="translate(-401.413 -14.686)" fill="#e4e0c5"/>
          <path id="Trazado_813273" data-name="Trazado 813273" d="M414.748,21.895c0-.062.1-.011.1.034.01.36.017.726.027,1.092,0,.124-.162.045-.157-.051C414.731,22.609,414.736,22.255,414.748,21.895Z" transform="translate(-402.124 -13.777)" fill="#e4e0c5"/>
          <path id="Trazado_813274" data-name="Trazado 813274" d="M408.091,26.583a54.525,54.525,0,0,1,1.361-9.149c.017-.056.1-.006.091.039-.456,2.864-.54,5.8-.856,8.677-.338,3.1-.253,6.313-.952,9.369-.044.2-.331.045-.337-.113-.027-2.937.489-5.9.693-8.828Z" transform="translate(-404.307 -15.106)" fill="#e4e0c5"/>
          <path id="Trazado_813275" data-name="Trazado 813275" d="M407.4,25.613c.027-.1.162-.011.145.062a23.93,23.93,0,0,0-.461,4c-.012.118-.186.022-.186-.062a12.445,12.445,0,0,1,.506-4Z" transform="translate(-404.459 -12.672)" fill="#e4e0c5"/>
          <path id="Trazado_813276" data-name="Trazado 813276" d="M405.818,27.58a33.792,33.792,0,0,1,1.559-8.491c.022-.062.123.017.113.062a43.574,43.574,0,0,0-1.222,8.632c-.219,2.785-.6,5.542-1.018,8.3-.023.135-.214.028-.219-.068-.118-2.78.545-5.661.793-8.435Z" transform="translate(-405.017 -14.612)" fill="#e4e0c5"/>
        </g>
        <g id="Grupo_1069131" data-name="Grupo 1069131" transform="translate(2347.427 -7093.368)" opacity="0.4">
          <path id="Trazado_813277" data-name="Trazado 813277" d="M420.627,31.371c1.372,1.047,2.656.731,4.248.467,1.738-.287,3.2,1.412,4.98,1.238,1.176-.113,1.08-1.227.545-1.953a2.916,2.916,0,0,0-1.355-.855c-.557-.2-1.593-.18-1.789-.866-.383-1.334-1.463-1.6-2.663-1.851a2.456,2.456,0,0,0-1.529.416,1.206,1.206,0,0,0-.389.439,2.515,2.515,0,0,1-1.428.54,2.01,2.01,0,0,0-1.244.146c-.889.625,0,1.8.624,2.273Z" transform="translate(-419.627 -21.928)" fill="#a6a79f"/>
          <path id="Trazado_813278" data-name="Trazado 813278" d="M430.366,30.122a1.935,1.935,0,0,0,1.829.613c.731-.174.461-.872-.068-1.1a5.561,5.561,0,0,0-.721-.3c-.005-.034-.039-.085-.067-.09-.574-.113-1.458.174-.967.872Z" transform="translate(-416.465 -21.422)" fill="#c2969a"/>
          <path id="Trazado_813279" data-name="Trazado 813279" d="M430.918,27.834c.3-.022.608-.051.918-.09.027.2.051.4.073.6-.2.022-.405.051-.608.073-.045.006-.012.068.022.068.2-.011.4-.028.6-.056.017.129.034.253.051.383,0,.039.078.068.073.017-.012-.135-.022-.27-.034-.405a5.005,5.005,0,0,0,.58-.1,3.16,3.16,0,0,0,.439-.113,7.06,7.06,0,0,0,.162.822c.012.039.091.062.084.006-.022-.3-.051-.608-.073-.912.029-.022.056-.045.079-.068.005-.011-.012-.022-.017-.017a.284.284,0,0,1-.068.051c-.017-.174-.029-.349-.045-.529.282-.051.569-.1.849-.163.062.377.125.754.18,1.131,0,.028.057.045.051.011-.039-.388-.09-.777-.152-1.159.636-.135,1.261-.293,1.846-.473.01-.006,0-.017-.006-.017-.6.163-1.22.293-1.851.411-.056-.366-.123-.731-.191-1.1.7-.129,1.39-.293,2.054-.484.012,0,0-.022-.012-.017-.68.146-1.378.259-2.071.366-.068-.343-.135-.692-.2-1.035a2.051,2.051,0,0,0,.524-.169c.01-.006,0-.022-.012-.022a2.415,2.415,0,0,1-.535.09c-.113-.568-.219-1.137-.309-1.711,0-.006-.017-.011-.012,0,.084.574.18,1.148.275,1.722l-.213.017c-.231.022-.462.039-.692.056a4.892,4.892,0,0,1-.209-1.457c0-.017-.022-.028-.022-.017a11.332,11.332,0,0,0,.366,2.628.249.249,0,0,0,.005.062c-.343.051-.687.107-1.029.169-.007,0-.007,0-.012.006-.012-.068-.017-.141-.029-.208.142-.034.287-.062.428-.1.012,0,0-.028-.012-.028-.14.034-.282.051-.427.073-.113-.85-.214-1.7-.253-2.549,0-.011-.023-.023-.023,0a25,25,0,0,0,.175,2.566c-.186.028-.366.056-.547.1-.034.011,0,.068.029.062.174-.028.349-.056.528-.1.051.478.113.951.175,1.424-.315.039-.624.084-.928.118-.045.006-.012.073.027.073Zm2.864-1.75-.8.118c-.062-.338-.175-.715-.27-1.1a4.1,4.1,0,0,0,.894-.056C433.664,25.392,433.721,25.741,433.782,26.084Zm-.781.264c.27-.039.54-.084.8-.129.061.36.129.726.191,1.092-.282.051-.569.1-.849.141-.034-.366-.079-.737-.141-1.1Zm-1.058,1.384c.338-.039.675-.09,1.013-.141.023.191.045.388.074.58a3.481,3.481,0,0,1-.732.124c-.095.017-.191.028-.287.039-.017-.2-.039-.4-.062-.6Zm-.152-1.249s.022.017.034.011c.332-.034.675-.068,1.013-.118.045.366.074.737.108,1.1-.337.051-.675.1-1.014.141-.044-.383-.095-.76-.14-1.142Z" transform="translate(-416.274 -23.214)" fill="#c7b78e"/>
        </g>
        <path id="Trazado_813280" data-name="Trazado 813280" d="M458.443,53.279a.4.4,0,0,1,.073-.011.164.164,0,0,1,.125.129v.011c0,.084-.051.1-.108.073a.15.15,0,0,1-.106-.079.083.083,0,0,1,.022-.129Z" transform="translate(1939.365 -7107.619)" fill="#98c9ca"/>
        <g id="Grupo_1069132" data-name="Grupo 1069132" transform="translate(2378.574 -7103.064)" opacity="0.5">
          <path id="Trazado_813281" data-name="Trazado 813281" d="M443.7,15.775c-.012-.039.034-.039.051-.011.388.754.731,3.41.878,3.483a6.46,6.46,0,0,1,2.336,2.526c.236.653-.332,1.4-.1,2.189a18.731,18.731,0,0,0,1.355,3.078c.894,1.75,1.868,3.438,2.589,5.267.044.118-.113.1-.147.011a77.233,77.233,0,0,0-3.888-7.163c-.878-1.615-.844-4.063-2.633-4.969a.9.9,0,0,1-.518-.675c-.068-1.3.434-2.4.084-3.742Z" transform="translate(-443.619 -15.744)" fill="#fff"/>
        </g>
        <g id="Grupo_1069133" data-name="Grupo 1069133" transform="translate(2353.317 -7094.972)" opacity="0.5">
          <path id="Trazado_813282" data-name="Trazado 813282" d="M424.389,21.985a50.071,50.071,0,0,1,8.85,3.871c1.564.8,3.118,1.615,4.654,2.47,1.514.838,3.269,2.4,5,2.718.022,0,.034.045,0,.045a10.016,10.016,0,0,1-3.2-1.35c-1.806-.867-3.59-1.784-5.4-2.628-3.309-1.536-6.556-3.174-9.909-4.614-.219-.1-.343-.608,0-.506Z" transform="translate(-424.164 -21.978)" fill="#fff"/>
        </g>
        <g id="Grupo_1069134" data-name="Grupo 1069134" transform="translate(2365.644 -7061.877)" opacity="0.5">
          <path id="Trazado_813283" data-name="Trazado 813283" d="M433.767,47.48a44.559,44.559,0,0,1,5.193,1.35,8.183,8.183,0,0,0,3.264.7,26.413,26.413,0,0,1,2.909-.062,60.147,60.147,0,0,1,11.108,1.694c.051.011.118.129.029.129a28.955,28.955,0,0,1-4.446-.4c-2.334-.231-4.665-.461-7.016-.518-1.436-.034-2.938.332-4.317-.231a61.081,61.081,0,0,0-6.69-2.408c-.13-.034-.225-.3-.034-.264Z" transform="translate(-433.659 -47.47)" fill="#fff"/>
        </g>
        <g id="Grupo_1069135" data-name="Grupo 1069135" transform="translate(2356.315 -7060.086)" opacity="0.5">
          <path id="Trazado_813284" data-name="Trazado 813284" d="M426.569,48.852c1.581-.039,3.061.467,4.619.574.062.006.141.135.051.135-1.519.028-3.038-.3-4.552-.394C426.535,49.156,426.361,48.858,426.569,48.852Z" transform="translate(-426.473 -48.85)" fill="#fff"/>
        </g>
      </g>
    </g>
  </g>
</svg>
