<svg xmlns="http://www.w3.org/2000/svg" width="295" height="243.496" viewBox="0 0 295 243.496">
  <g id="Grupo_1069908" data-name="Grupo 1069908" transform="translate(-1124.855 -1505.697)">
    <rect id="Rectángulo_375341" data-name="Rectángulo 375341" width="295" height="243.496" transform="translate(1124.855 1505.697)" fill="#fff"/>
    <g id="Grupo_1069907" data-name="Grupo 1069907" transform="translate(1012.343 1351.722)">
      <g id="Grupo_1068981" data-name="Grupo 1068981" transform="translate(131.498 154.176)">
        <path id="Trazado_812627" data-name="Trazado 812627" d="M323.374,175.1c15.748,18.392,4.33,32.694,15.076,77.184,11.284,46.718,29.5,49.744,25.307,73.655-7.342,41.856-50.717,65.772-84.4,70.459-23.457,3.265-63.5.165-78.561-24.273-13.867-22.5,5.666-43.27-9.6-63.633C175.1,287,144.224,297.936,134.248,277.26c-6.062-12.564-1.633-31.055,8.658-39.608,13.422-11.156,27.7,2.169,44.681-7.807,15.677-9.211,10.02-24.4,29.256-48.059,4.215-5.183,17.81-20.484,39.72-25.726C279.208,150.644,307.772,156.875,323.374,175.1Z" transform="translate(-131.498 -154.176)" fill="#3b5620"/>
        <circle id="Elipse_5768" data-name="Elipse 5768" cx="7.481" cy="7.481" r="7.481" transform="translate(42.283 175.28)" fill="#3b5620"/>
        <circle id="Elipse_5769" data-name="Elipse 5769" cx="11.604" cy="11.604" r="11.604" transform="translate(32.827 53.306) rotate(-45)" fill="#3b5620"/>
        <circle id="Elipse_5770" data-name="Elipse 5770" cx="9.952" cy="9.952" r="9.952" transform="translate(205.055 94.031) rotate(-45)" fill="#3b5620"/>
        <circle id="Elipse_5771" data-name="Elipse 5771" cx="3.426" cy="3.426" r="3.426" transform="translate(206.564 77.682) rotate(-45)" fill="#3b5620"/>
      </g>
      <g id="Grupo_1068984" data-name="Grupo 1068984" transform="translate(218.65 183.258)">
        <path id="Trazado_812628" data-name="Trazado 812628" d="M1601.079,726.661c0-4.015-2.773-7.27-6.193-7.27h-87.942c-3.42,0-6.193,3.255-6.193,7.27V888.424c0,4.015,2.773,7.27,6.193,7.27h87.942c3.421,0,6.193-3.255,6.193-7.27" transform="translate(-1496.062 -710.563)" opacity="0.3"/>
        <g id="Grupo_1068983" data-name="Grupo 1068983" transform="translate(0 0)">
          <g id="Grupo_1068982" data-name="Grupo 1068982">
            <path id="Trazado_812629" data-name="Trazado 812629" d="M1531.19,595.037V756.8c0,4.015-2.773,7.27-6.193,7.27h-87.942c-3.421,0-6.193-3.255-6.193-7.27V595.037c0-4.015,2.773-7.27,6.193-7.27H1525C1528.417,587.767,1531.19,591.022,1531.19,595.037Z" transform="translate(-1430.861 -587.767)" fill="#fffad0"/>
            <path id="Trazado_812630" data-name="Trazado 812630" d="M1575.648,647.624V809.387c0,1.924-1.233,3.49-2.75,3.49h-87.943a2.334,2.334,0,0,1-1.505-.572,3.8,3.8,0,0,1-1.244-2.918V647.624c0-1.924,1.233-3.489,2.749-3.489H1572.9a2.6,2.6,0,0,1,2.181,1.369A4.1,4.1,0,0,1,1575.648,647.624Z" transform="translate(-1478.762 -640.354)" fill="#fffad0"/>
          </g>
          <path id="Trazado_812631" data-name="Trazado 812631" d="M1592.948,666.659V828.422c0,1.924-1.233,3.49-2.749,3.49h-87.943a2.335,2.335,0,0,1-1.506-.572l91.63-166.8A4.093,4.093,0,0,1,1592.948,666.659Z" transform="translate(-1496.062 -659.389)" fill="#c1e8be"/>
        </g>
      </g>
      <g id="Grupo_1068989" data-name="Grupo 1068989" transform="translate(192.341 217.237)">
        <g id="Grupo_1068987" data-name="Grupo 1068987" transform="translate(10.636 9.396)">
          <rect id="Rectángulo_375180" data-name="Rectángulo 375180" width="88.547" height="111.587" transform="translate(3.187 2.591)" opacity="0.3"/>
          <rect id="Rectángulo_375181" data-name="Rectángulo 375181" width="88.547" height="111.587" fill="#fff"/>
          <path id="Trazado_812632" data-name="Trazado 812632" d="M1664.313,1790.481h-28.6a2.355,2.355,0,0,0-2.454,2.24h0a2.355,2.355,0,0,0,2.454,2.24h28.6a2.355,2.355,0,0,0,2.454-2.24h0A2.355,2.355,0,0,0,1664.313,1790.481Z" transform="translate(-1604.006 -1753.186)" fill="#d4d4d4"/>
          <path id="Trazado_812633" data-name="Trazado 812633" d="M1888,1336.683h-30.942c-1.7,0-3.078,1-3.078,2.24h0c0,1.237,1.378,2.24,3.078,2.24H1888c1.7,0,3.078-1,3.078-2.24h0C1891.079,1337.686,1889.7,1336.683,1888,1336.683Z" transform="translate(-1809.927 -1329.825)" fill="#d4d4d4"/>
          <rect id="Rectángulo_375182" data-name="Rectángulo 375182" width="17.351" height="4.811" rx="2.406" transform="translate(63.801 14.893)" fill="#d4d4d4"/>
          <g id="Grupo_1068985" data-name="Grupo 1068985" transform="translate(10.857 52.326)">
            <path id="Trazado_812634" data-name="Trazado 812634" d="M1406.034,2014.83a.97.97,0,0,0-1.37.072l-5.443,6.048-2.17-2.4a.97.97,0,0,0-1.439,1.3l3.612,3.992,6.881-7.646A.971.971,0,0,0,1406.034,2014.83Z" transform="translate(-1392.927 -2014.581)" fill="#00eb98"/>
            <path id="Trazado_812635" data-name="Trazado 812635" d="M1613.713,2047.778h-52.056a2.406,2.406,0,0,0-2.406,2.406h0a2.406,2.406,0,0,0,2.406,2.406h52.056a2.406,2.406,0,0,0,2.406-2.406h0A2.406,2.406,0,0,0,1613.713,2047.778Z" transform="translate(-1545.823 -2045.551)" fill="#d4d4d4"/>
            <path id="Trazado_812636" data-name="Trazado 812636" d="M1426.943,2178.632h-65.484a2.406,2.406,0,0,0-2.406,2.406h0a2.406,2.406,0,0,0,2.406,2.406h65.484a2.406,2.406,0,0,0,2.406-2.406h0A2.406,2.406,0,0,0,1426.943,2178.632Z" transform="translate(-1359.054 -2167.629)" fill="#d4d4d4"/>
            <path id="Trazado_812637" data-name="Trazado 812637" d="M1613.713,2303.009h-52.056a2.406,2.406,0,0,0-2.406,2.406h0a2.406,2.406,0,0,0,2.406,2.406h52.056a2.406,2.406,0,0,0,2.406-2.406h0A2.406,2.406,0,0,0,1613.713,2303.009Z" transform="translate(-1545.823 -2283.663)" fill="#d4d4d4"/>
            <path id="Trazado_812638" data-name="Trazado 812638" d="M1406.034,2270.061a.969.969,0,0,0-1.37.072l-5.443,6.048-2.17-2.4a.97.97,0,0,0-1.439,1.3l3.612,3.992,6.881-7.646A.97.97,0,0,0,1406.034,2270.061Z" transform="translate(-1392.927 -2252.692)" fill="#00eb98"/>
          </g>
          <g id="Grupo_1068986" data-name="Grupo 1068986" transform="translate(10.857 80.823)">
            <path id="Trazado_812639" data-name="Trazado 812639" d="M1426.943,2439.444h-65.484a2.406,2.406,0,0,0-2.406,2.406h0a2.406,2.406,0,0,0,2.406,2.406h65.484a2.406,2.406,0,0,0,2.406-2.406h0A2.406,2.406,0,0,0,1426.943,2439.444Z" transform="translate(-1359.054 -2439.444)" fill="#d4d4d4"/>
            <path id="Trazado_812640" data-name="Trazado 812640" d="M1613.713,2563.821h-52.056a2.406,2.406,0,0,0-2.406,2.406h0a2.406,2.406,0,0,0,2.406,2.406h52.056a2.406,2.406,0,0,0,2.406-2.406h0A2.406,2.406,0,0,0,1613.713,2563.821Z" transform="translate(-1545.823 -2555.479)" fill="#d4d4d4"/>
            <path id="Trazado_812641" data-name="Trazado 812641" d="M1406.034,2530.873a.969.969,0,0,0-1.37.072l-5.443,6.048-2.17-2.4a.97.97,0,0,0-1.439,1.3l3.612,3.993,6.881-7.646A.97.97,0,0,0,1406.034,2530.873Z" transform="translate(-1392.927 -2524.508)" fill="#00eb98"/>
          </g>
        </g>
        <g id="Grupo_1068988" data-name="Grupo 1068988">
          <path id="Trazado_812642" data-name="Trazado 812642" d="M1038.623,1247.457h0a.622.622,0,0,0,.574.666l6.863.513a.622.622,0,0,0,.666-.574h0a.622.622,0,0,0-.574-.667l-6.863-.513A.622.622,0,0,0,1038.623,1247.457Z" transform="translate(-1038.622 -1236.651)" fill="#fff"/>
          <path id="Trazado_812643" data-name="Trazado 812643" d="M1172.733,1094.372h0a.622.622,0,0,0-.467.745l1.535,6.709a.622.622,0,0,0,.745.467h0a.622.622,0,0,0,.468-.745l-1.535-6.709A.622.622,0,0,0,1172.733,1094.372Z" transform="translate(-1163.287 -1094.356)" fill="#fff"/>
          <path id="Trazado_812644" data-name="Trazado 812644" d="M1055.248,1131.667h0a.622.622,0,0,0,.095.874l6.948,5.592a.622.622,0,0,0,.874-.095h0a.621.621,0,0,0-.095-.874l-6.948-5.592A.622.622,0,0,0,1055.248,1131.667Z" transform="translate(-1054.004 -1128.948)" fill="#fff"/>
        </g>
      </g>
      <g id="Grupo_1068994" data-name="Grupo 1068994" transform="translate(173.78 200.182)">
        <g id="Grupo_1068992" data-name="Grupo 1068992" transform="translate(10.636 9.396)">
          <rect id="Rectángulo_375183" data-name="Rectángulo 375183" width="88.547" height="111.587" transform="translate(3.187 2.591)" opacity="0.3"/>
          <rect id="Rectángulo_375184" data-name="Rectángulo 375184" width="88.547" height="111.587" fill="#fff"/>
          <path id="Trazado_812645" data-name="Trazado 812645" d="M1387.58,1536.208h-28.6a2.354,2.354,0,0,0-2.454,2.24h0a2.354,2.354,0,0,0,2.454,2.24h28.6a2.354,2.354,0,0,0,2.454-2.24h0A2.354,2.354,0,0,0,1387.58,1536.208Z" transform="translate(-1327.274 -1498.912)" fill="#d4d4d4"/>
          <path id="Trazado_812646" data-name="Trazado 812646" d="M1611.268,1082.409h-30.943c-1.7,0-3.078,1-3.078,2.24h0c0,1.237,1.378,2.24,3.078,2.24h30.943c1.7,0,3.078-1,3.078-2.24h0C1614.346,1083.412,1612.968,1082.409,1611.268,1082.409Z" transform="translate(-1533.194 -1075.551)" fill="#d4d4d4"/>
          <rect id="Rectángulo_375185" data-name="Rectángulo 375185" width="17.351" height="4.811" rx="2.406" transform="translate(63.801 14.893)" fill="#d4d4d4"/>
          <g id="Grupo_1068990" data-name="Grupo 1068990" transform="translate(10.857 52.327)">
            <path id="Trazado_812647" data-name="Trazado 812647" d="M1129.3,1760.557a.97.97,0,0,0-1.37.072l-5.443,6.048-2.17-2.4a.97.97,0,0,0-1.439,1.3l3.612,3.992,6.881-7.646A.971.971,0,0,0,1129.3,1760.557Z" transform="translate(-1116.194 -1760.308)" fill="#3b5620"/>
            <path id="Trazado_812648" data-name="Trazado 812648" d="M1336.98,1793.5h-52.056a2.406,2.406,0,0,0-2.406,2.406h0a2.406,2.406,0,0,0,2.406,2.406h52.056a2.406,2.406,0,0,0,2.406-2.406h0A2.406,2.406,0,0,0,1336.98,1793.5Z" transform="translate(-1269.09 -1791.278)" fill="#d4d4d4"/>
            <path id="Trazado_812649" data-name="Trazado 812649" d="M1150.21,1924.359h-65.484a2.406,2.406,0,0,0-2.406,2.405h0a2.406,2.406,0,0,0,2.406,2.406h65.484a2.406,2.406,0,0,0,2.406-2.406h0A2.406,2.406,0,0,0,1150.21,1924.359Z" transform="translate(-1082.321 -1913.356)" fill="#d4d4d4"/>
            <path id="Trazado_812650" data-name="Trazado 812650" d="M1336.98,2048.736h-52.056a2.406,2.406,0,0,0-2.406,2.406h0a2.406,2.406,0,0,0,2.406,2.406h52.056a2.406,2.406,0,0,0,2.406-2.406h0A2.406,2.406,0,0,0,1336.98,2048.736Z" transform="translate(-1269.09 -2029.39)" fill="#d4d4d4"/>
            <path id="Trazado_812651" data-name="Trazado 812651" d="M1129.3,2015.788a.97.97,0,0,0-1.37.072l-5.443,6.048-2.17-2.4a.97.97,0,0,0-1.439,1.3l3.612,3.992,6.881-7.646A.971.971,0,0,0,1129.3,2015.788Z" transform="translate(-1116.194 -1998.42)" fill="#3b5620"/>
          </g>
          <g id="Grupo_1068991" data-name="Grupo 1068991" transform="translate(10.857 80.823)">
            <path id="Trazado_812652" data-name="Trazado 812652" d="M1150.21,2185.171h-65.484a2.406,2.406,0,0,0-2.406,2.405h0a2.406,2.406,0,0,0,2.406,2.406h65.484a2.406,2.406,0,0,0,2.406-2.406h0A2.406,2.406,0,0,0,1150.21,2185.171Z" transform="translate(-1082.321 -2185.171)" fill="#d4d4d4"/>
            <path id="Trazado_812653" data-name="Trazado 812653" d="M1336.98,2309.548h-52.056a2.406,2.406,0,0,0-2.406,2.406h0a2.406,2.406,0,0,0,2.406,2.406h52.056a2.406,2.406,0,0,0,2.406-2.406h0A2.406,2.406,0,0,0,1336.98,2309.548Z" transform="translate(-1269.09 -2301.205)" fill="#d4d4d4"/>
            <path id="Trazado_812654" data-name="Trazado 812654" d="M1129.3,2276.6a.97.97,0,0,0-1.37.072l-5.443,6.048-2.17-2.4a.97.97,0,0,0-1.439,1.3l3.612,3.992,6.881-7.646A.971.971,0,0,0,1129.3,2276.6Z" transform="translate(-1116.194 -2270.235)" fill="#3b5620"/>
          </g>
        </g>
        <g id="Grupo_1068993" data-name="Grupo 1068993">
          <path id="Trazado_812655" data-name="Trazado 812655" d="M761.889,993.184h0a.622.622,0,0,0,.574.666l6.863.513a.622.622,0,0,0,.666-.574h0a.622.622,0,0,0-.574-.666l-6.863-.513A.622.622,0,0,0,761.889,993.184Z" transform="translate(-761.888 -982.378)" fill="#fff"/>
          <path id="Trazado_812656" data-name="Trazado 812656" d="M896,840.1h0a.622.622,0,0,0-.467.745l1.535,6.709a.622.622,0,0,0,.745.467h0a.621.621,0,0,0,.467-.745l-1.535-6.708A.622.622,0,0,0,896,840.1Z" transform="translate(-886.554 -840.083)" fill="#fff"/>
          <path id="Trazado_812657" data-name="Trazado 812657" d="M778.514,877.395h0a.622.622,0,0,0,.095.874l6.949,5.592a.622.622,0,0,0,.874-.095h0a.622.622,0,0,0-.095-.874l-6.948-5.592A.622.622,0,0,0,778.514,877.395Z" transform="translate(-777.271 -874.676)" fill="#fff"/>
        </g>
      </g>
    </g>
  </g>
</svg>
