<svg xmlns="http://www.w3.org/2000/svg" width="130" height="130" viewBox="0 0 130 130">
  <g id="Grupo_1070290" data-name="Grupo 1070290" transform="translate(-380 -4695.145)">
    <circle id="Elipse_5777" data-name="Elipse 5777" cx="65" cy="65" r="65" transform="translate(380 4695.145)" fill="#3b5620"/>
    <g id="Grupo_1069910" data-name="Grupo 1069910" transform="translate(3893.106 2842.297)">
      <path id="Trazado_814825" data-name="Trazado 814825" d="M59.894,0A59.894,59.894,0,1,1,0,59.894,59.894,59.894,0,0,1,59.894,0Z" transform="translate(-3508 1857.955)" fill="#fff"/>
      <g id="telefono-de-emergencia" transform="translate(-3482.304 1895.455)">
        <path id="Trazado_811885" data-name="Trazado 811885" d="M74.024,15a5.381,5.381,0,0,1,5.365,5.366V50.415a5.381,5.381,0,0,1-5.365,5.365H20.366A5.381,5.381,0,0,1,15,50.415V20.366A5.382,5.382,0,0,1,20.366,15Zm0,0" transform="translate(-12.996 -12.996)" fill="#ff5b5b"/>
        <path id="Trazado_811886" data-name="Trazado 811886" d="M282.829,15H256V55.78h26.829a5.381,5.381,0,0,0,5.365-5.365V20.366A5.381,5.381,0,0,0,282.829,15Zm0,0" transform="translate(-221.801 -12.996)" fill="#ff0059"/>
        <path id="Trazado_811887" data-name="Trazado 811887" d="M61.028,0H7.37A7.378,7.378,0,0,0,0,7.37V37.418a7.378,7.378,0,0,0,7.37,7.369H61.028A7.378,7.378,0,0,0,68.4,37.418V7.37A7.378,7.378,0,0,0,61.028,0ZM64.39,37.418a3.366,3.366,0,0,1-3.362,3.362H7.37a3.366,3.366,0,0,1-3.362-3.362V34.57l1.849-.616c2.981-.994,4.59-5.039,4.59-8.34V19.175c0-3.3-1.608-7.347-4.59-8.34l-1.849-.616V7.37A3.366,3.366,0,0,1,7.37,4.008H61.028A3.366,3.366,0,0,1,64.39,7.37Zm0,0" transform="translate(0 0)" fill="#613d5c"/>
        <path id="Trazado_811888" data-name="Trazado 811888" d="M282.829,0H256V4.008h26.829a3.366,3.366,0,0,1,3.362,3.362V37.418a3.366,3.366,0,0,1-3.362,3.362H256v4.008h26.829a7.378,7.378,0,0,0,7.369-7.369V7.37A7.378,7.378,0,0,0,282.829,0Zm0,0" transform="translate(-221.801 0)" fill="#4b2746"/>
        <path id="Trazado_811889" data-name="Trazado 811889" d="M132.465,109.516c-1.332-.565-2.148-.945-2.148-1.6,0-.915,1.143-1.051,1.824-1.051a3.7,3.7,0,0,1,1.927.487,2.233,2.233,0,0,0,1.035.328c1.12,0,1.717-1.209,1.717-2.082,0-2.207-3.9-2.318-4.679-2.318-2.683,0-5.817,1.282-5.817,4.894,0,3.224,2.433,4.3,4.389,5.173,1.551.689,2.5,1.161,2.5,2.147,0,1.143-1.261,1.266-1.8,1.266a3.216,3.216,0,0,1-2.262-.959,2.213,2.213,0,0,0-1.388-.694c-1.1,0-1.824,1.266-1.824,2.1,0,1.738,2.6,3.263,5.56,3.263,3.522,0,5.71-2.015,5.71-5.259,0-3.684-2.741-4.847-4.742-5.7Zm0,0" transform="translate(-109.114 -89.48)" fill="#e7f0ef"/>
        <path id="Trazado_811890" data-name="Trazado 811890" d="M219.925,104.082c-3.574,0-5.624,2.011-5.624,5.517v5.989c0,3.506,2.05,5.516,5.624,5.516s5.645-2.011,5.645-5.516V109.6C225.57,106.093,223.512,104.082,219.925,104.082Zm-1.631,5.517c0-1.645.824-1.868,1.631-1.868,1.143,0,1.653.576,1.653,1.868v5.989c0,1.291-.51,1.867-1.653,1.867-.807,0-1.631-.222-1.631-1.867Zm0,0" transform="translate(-185.672 -90.178)" fill="#e7f0ef"/>
        <g id="Grupo_1068477" data-name="Grupo 1068477" transform="translate(34.263 13.797)">
          <path id="Trazado_811891" data-name="Trazado 811891" d="M308.231,109.516c-1.332-.565-2.148-.945-2.148-1.6,0-.915,1.143-1.051,1.824-1.051a3.7,3.7,0,0,1,1.927.487,2.229,2.229,0,0,0,1.035.328c1.12,0,1.717-1.209,1.717-2.082,0-2.207-3.9-2.318-4.679-2.318-2.684,0-5.817,1.282-5.817,4.894,0,3.224,2.433,4.3,4.388,5.173,1.551.689,2.5,1.161,2.5,2.147,0,1.143-1.261,1.266-1.8,1.266a3.217,3.217,0,0,1-2.263-.959,2.211,2.211,0,0,0-1.387-.694c-1.1,0-1.825,1.266-1.825,2.1,0,1.738,2.6,3.263,5.56,3.263,3.522,0,5.71-2.015,5.71-5.259,0-3.684-2.741-4.847-4.742-5.7Zm0,0" transform="translate(-295.662 -103.277)" fill="#c5e1e6"/>
          <path id="Trazado_811892" data-name="Trazado 811892" d="M256.48,104.082v3.65c1.135,0,1.642.58,1.642,1.867v5.989c0,1.287-.507,1.863-1.642,1.867V121.1c3.581,0,5.635-2.014,5.635-5.516V109.6C262.115,106.1,260.061,104.086,256.48,104.082Zm0,0" transform="translate(-256.48 -103.974)" fill="#c5e1e6"/>
        </g>
      </g>
    </g>
  </g>
</svg>
