<svg xmlns="http://www.w3.org/2000/svg" width="130" height="130" viewBox="0 0 130 130">
  <g id="Grupo_1070289" data-name="Grupo 1070289" transform="translate(-729.855 -4694.697)">
    <path id="Trazado_814827" data-name="Trazado 814827" d="M65,0A65,65,0,1,1,0,65,65,65,0,0,1,65,0Z" transform="translate(729.855 4694.697)" fill="#3b5620"/>
    <g id="Grupo_1069913" data-name="Grupo 1069913" transform="translate(4242.855 2842.297)">
      <path id="Trazado_814826" data-name="Trazado 814826" d="M59.894,0A59.894,59.894,0,1,1,0,59.894,59.894,59.894,0,0,1,59.894,0Z" transform="translate(-3508 1857.955)" fill="#fff"/>
    </g>
    <g id="Grupo_1069911" data-name="Grupo 1069911" transform="translate(4243.991 2673.879)">
      <g id="riesgo-biologico" transform="translate(-3486.128 2050.587)">
        <path id="Trazado_811893" data-name="Trazado 811893" d="M67.393,167.844l-31.354,5.138,5.747,37.688a7.243,7.243,0,0,0,7.131,5.973H85.869A7.242,7.242,0,0,0,93,210.669l5.747-37.688Zm0,0" transform="translate(-30.902 -143.919)" fill="#efbe3b"/>
        <path id="Trazado_811894" data-name="Trazado 811894" d="M46.192,210.668,40.445,172.98,69.6,168.2l-2.2-.361L36.04,172.98l5.747,37.688a7.243,7.243,0,0,0,7.131,5.973h4.406a7.243,7.243,0,0,1-7.131-5.973Zm0,0" transform="translate(-30.902 -143.918)" fill="#e4a401"/>
        <path id="Trazado_811895" data-name="Trazado 811895" d="M93.619,4.942A7.572,7.572,0,0,0,86.519,0H48.269a7.572,7.572,0,0,0-7.1,4.942L36.039,18.788l31.354,5.138,31.354-5.138Zm0,0" transform="translate(-30.902)" fill="#e6e6e6"/>
        <path id="Trazado_811896" data-name="Trazado 811896" d="M40.445,18.788,45.574,4.942A7.572,7.572,0,0,1,52.674,0H48.268a7.572,7.572,0,0,0-7.1,4.942L36.039,18.788l31.354,5.138,2.2-.361Zm0,0" transform="translate(-30.902 0)" fill="#d0cfd5"/>
        <g id="Grupo_1068478" data-name="Grupo 1068478" transform="translate(21.553 7.197)">
          <path id="Trazado_811897" data-name="Trazado 811897" d="M152.3,55.2a1.1,1.1,0,0,1-1.1-1.1v-2.5a1.1,1.1,0,0,1,2.2,0v2.5A1.1,1.1,0,0,1,152.3,55.2Zm0,0" transform="translate(-151.203 -50.488)" fill="#334151"/>
          <path id="Trazado_811898" data-name="Trazado 811898" d="M346.445,55.2a1.1,1.1,0,0,1-1.1-1.1v-2.5a1.1,1.1,0,0,1,2.2,0v2.5A1.1,1.1,0,0,1,346.445,55.2Zm0,0" transform="translate(-317.67 -50.488)" fill="#334151"/>
          <path id="Trazado_811899" data-name="Trazado 811899" d="M228.831,70.547a5.616,5.616,0,0,1-4.244-1.888,1.1,1.1,0,1,1,1.658-1.449,3.515,3.515,0,0,0,5.172,0,1.1,1.1,0,1,1,1.658,1.449A5.616,5.616,0,0,1,228.831,70.547Zm0,0" transform="translate(-213.893 -64.503)" fill="#334151"/>
        </g>
        <path id="Trazado_811900" data-name="Trazado 811900" d="M197.288,312.706a9.761,9.761,0,1,1,9.761-9.761A9.7,9.7,0,0,1,197.288,312.706Zm0,0" transform="translate(-160.796 -251.392)" fill="#f1e34e"/>
        <path id="Trazado_811901" data-name="Trazado 811901" d="M153.855,270a7.129,7.129,0,0,0,2.621,2.637,7.258,7.258,0,0,0,4.446.933.364.364,0,0,1,.2.689,11.446,11.446,0,0,1-10.787-.361c-.164-.094-.325-.193-.482-.293-.156.1-.317.2-.481.293a11.444,11.444,0,0,1-10.786.361.364.364,0,0,1,.2-.689,7.258,7.258,0,0,0,4.445-.933,7.3,7.3,0,1,0-7.3-12.636,7.266,7.266,0,0,0-3.03,3.384.364.364,0,0,1-.7-.172,11.446,11.446,0,0,1,5.7-9.161c.162-.094.323-.182.489-.267-.014-.227-.022-.457-.022-.688a11.448,11.448,0,0,1,5.081-9.522.364.364,0,0,1,.5.518,7.294,7.294,0,0,0,5.88,11.612,7.384,7.384,0,0,0,6.415-3.819,7.293,7.293,0,0,0-.535-7.794.364.364,0,0,1,.5-.518A11.448,11.448,0,0,1,161.3,253.1q0,.34-.019.674c.173.09.345.183.516.281a11.446,11.446,0,0,1,5.7,9.162.364.364,0,0,1-.7.172A7.261,7.261,0,0,0,163.77,260a7.276,7.276,0,0,0-9.916,10Zm0,0" transform="translate(-113.362 -208.8)" fill="#3d4f61"/>
        <path id="Trazado_811902" data-name="Trazado 811902" d="M247.7,350.706a1.655,1.655,0,1,1-1.655-1.655A1.655,1.655,0,0,1,247.7,350.706Zm0,0" transform="translate(-209.554 -299.295)" fill="#f1e34e"/>
        <path id="Trazado_811903" data-name="Trazado 811903" d="M67.845,131.8H5.137a5.137,5.137,0,0,0,0,10.275H67.845a5.137,5.137,0,1,0,0-10.275Zm0,0" transform="translate(0 -113.013)" fill="#f1e34e"/>
        <path id="Trazado_811904" data-name="Trazado 811904" d="M4.406,136.939A5.138,5.138,0,0,1,9.543,131.8H5.137a5.137,5.137,0,0,0,0,10.275H9.543a5.137,5.137,0,0,1-5.137-5.137Zm0,0" transform="translate(0 -113.013)" fill="#efbe3b"/>
      </g>
    </g>
  </g>
</svg>
