<svg xmlns="http://www.w3.org/2000/svg" width="130" height="130" viewBox="0 0 130 130">
  <g id="Grupo_1070287" data-name="Grupo 1070287" transform="translate(-1795.229 7004.855)">
    <circle id="Elipse_5787" data-name="Elipse 5787" cx="65" cy="65" r="65" transform="translate(1795.229 -7004.855)" fill="#3b5620"/>
    <g id="Grupo_1070278" data-name="Grupo 1070278" transform="translate(5308 -8857.955)">
      <path id="Trazado_814825" data-name="Trazado 814825" d="M59.894,0A59.894,59.894,0,1,1,0,59.894,59.894,59.894,0,0,1,59.894,0Z" transform="translate(-3508 1857.955)" fill="#fff"/>
    </g>
    <g id="pruebas" transform="translate(1770.694 -6978.308)">
      <path id="Trazado_811905" data-name="Trazado 811905" d="M324.184,333.892a5.246,5.246,0,0,1-1.887,7.143h0a5.231,5.231,0,0,1-7.188-1.913l-7.642-12.487a11.437,11.437,0,0,1-1.283-3.352l-1.918-8.352,4.061-1.858,5.926,5.546a11.43,11.43,0,0,1,2.258,2.788Z" transform="translate(-205.728 -264.228)" fill="#632059"/>
      <path id="Trazado_811906" data-name="Trazado 811906" d="M311.648,316.175a30.386,30.386,0,0,1-6.273,3.562l-1.1-4.808,4.061-1.859Z" transform="translate(-205.732 -264.225)" fill="#1b3f5e"/>
      <g id="Grupo_1068481" data-name="Grupo 1068481" transform="translate(100.782 55.281)">
        <g id="Grupo_1068479" data-name="Grupo 1068479" transform="translate(0)">
          <path id="Trazado_811907" data-name="Trazado 811907" d="M328.664,356.244l-9.045,5.227,0,0a11.391,11.391,0,0,1-.956-2.141l8.625-4.985a11.383,11.383,0,0,1,1.375,1.9Z" transform="translate(-318.66 -354.34)" fill="#1b3f5e"/>
        </g>
        <g id="Grupo_1068480" data-name="Grupo 1068480" transform="translate(0)">
          <path id="Trazado_811908" data-name="Trazado 811908" d="M328.664,356.244l-9.045,5.227,0,0a11.391,11.391,0,0,1-.956-2.141l8.625-4.985a11.383,11.383,0,0,1,1.375,1.9Z" transform="translate(-318.66 -354.34)" fill="#1b3f5e"/>
        </g>
      </g>
      <ellipse id="Elipse_5763" data-name="Elipse 5763" cx="27.333" cy="27.369" rx="27.333" ry="27.369" transform="translate(60.529 0.029)" fill="#632059"/>
      <ellipse id="Elipse_5764" data-name="Elipse 5764" cx="20.815" cy="20.843" rx="20.815" ry="20.843" transform="translate(67.047 6.555)" fill="#f9f8f8"/>
      <path id="Trazado_811909" data-name="Trazado 811909" d="M139.321,100.881A20.831,20.831,0,1,1,110.04,71.57a20.831,20.831,0,0,0,29.281,29.311Z" transform="translate(-35.261 -60.385)" fill="#ede8e5"/>
      <path id="Trazado_811910" data-name="Trazado 811910" d="M176.052,103.528v-2.623a.78.78,0,0,0-.543-.743l-1.934-.618a.773.773,0,0,1-.507-.511A10.963,10.963,0,0,0,172.226,97a.774.774,0,0,1,0-.72l.932-1.806a.78.78,0,0,0-.141-.909l-1.854-1.855a.78.78,0,0,0-.909-.142l-1.8.932a.773.773,0,0,1-.72,0,10.982,10.982,0,0,0-1.453-.651.769.769,0,0,1-.456-.46l-.809-2.205a.78.78,0,0,0-.732-.511h-3.529a.78.78,0,0,0-.732.511l-.8,2.193a.775.775,0,0,1-.473.467,9.707,9.707,0,0,0-1.445.644.773.773,0,0,1-.731.008l-1.79-.924a.78.78,0,0,0-.909.142l-1.854,1.855a.78.78,0,0,0-.141.909l.932,1.806a.773.773,0,0,1,0,.72,10.952,10.952,0,0,0-.843,2.033.773.773,0,0,1-.507.511l-1.934.618a.78.78,0,0,0-.543.743v2.623a.78.78,0,0,0,.543.743l1.937.618a.775.775,0,0,1,.5.507,13.056,13.056,0,0,0,.855,2.034.777.777,0,0,1,0,.709l-.939,1.82a.78.78,0,0,0,.141.909l1.854,1.855a.78.78,0,0,0,.909.142l1.8-.932a.772.772,0,0,1,.721,0,10.95,10.95,0,0,0,2.032.843.773.773,0,0,1,.511.507l.617,1.935a.78.78,0,0,0,.743.543h2.622a.779.779,0,0,0,.743-.543l.617-1.935a.773.773,0,0,1,.511-.507,10.943,10.943,0,0,0,2.032-.843.773.773,0,0,1,.721,0l1.8.932a.78.78,0,0,0,.909-.142l1.854-1.855a.78.78,0,0,0,.141-.909l-.932-1.806a.773.773,0,0,1,0-.72,10.952,10.952,0,0,0,.843-2.033.773.773,0,0,1,.507-.511l1.934-.618A.779.779,0,0,0,176.052,103.528Z" transform="translate(-74.649 -74.818)" fill="#d0cdd3"/>
      <ellipse id="Elipse_5765" data-name="Elipse 5765" cx="5.336" cy="5.338" rx="5.336" ry="5.338" transform="translate(82.526 22.061)" fill="#f9f8f8"/>
      <path id="Trazado_811911" data-name="Trazado 811911" d="M211.683,152.208a5.337,5.337,0,1,1-7.175-7.178,5.338,5.338,0,0,0,7.175,7.178Z" transform="translate(-119.064 -122.389)" fill="#ede8e5"/>
    </g>
  </g>
</svg>
