<svg xmlns="http://www.w3.org/2000/svg" width="130" height="130" viewBox="0 0 130 130">
  <g id="Grupo_1070285" data-name="Grupo 1070285" transform="translate(-2496.084 7005.303)">
    <circle id="Elipse_5786" data-name="Elipse 5786" cx="65" cy="65" r="65" transform="translate(2496.084 -7005.303)" fill="#3b5620"/>
    <g id="Grupo_1070275" data-name="Grupo 1070275" transform="translate(6009.084 -8857.258)">
      <circle id="Elipse_5755" data-name="Elipse 5755" cx="59.894" cy="59.894" r="59.894" transform="translate(-3508 1857.955)" fill="#fff"/>
    </g>
    <g id="animales" transform="translate(2524.573 -6975.379)">
      <path id="Trazado_811922" data-name="Trazado 811922" d="M103.45,9.105v4.226h4.93V29.915a15.156,15.156,0,0,1-30.313,0V13.331h5.018V9.105H73.842V29.915A19.409,19.409,0,0,0,91.111,49.181V65.243a10.3,10.3,0,0,1-20.595,0V37.25a11.567,11.567,0,1,0-23.134,0V64.681h4.226V37.25a7.341,7.341,0,1,1,14.683,0V65.243a14.523,14.523,0,0,0,29.045,0V49.181a19.409,19.409,0,0,0,17.27-19.266V9.105Zm0,0" transform="translate(-40.295 -7.826)" fill="#68824f"/>
      <path id="Trazado_811923" data-name="Trazado 811923" d="M285.764,511.945c-.149,0-.3.008-.447.008C285.466,511.953,285.615,511.949,285.764,511.945Zm0,0" transform="translate(-244.798 -440.014)" fill="#cef369"/>
      <path id="Trazado_811924" data-name="Trazado 811924" d="M293.138,511.477c-.141.014-.282.026-.423.036C292.857,511.5,293,511.491,293.138,511.477Zm0,0" transform="translate(-251.157 -439.611)" fill="#cef369"/>
      <path id="Trazado_811925" data-name="Trazado 811925" d="M289.769,511.793c-.109.007-.217.012-.327.016C289.552,511.805,289.66,511.8,289.769,511.793Zm0,0" transform="translate(-248.344 -439.883)" fill="#cef369"/>
      <path id="Trazado_811926" data-name="Trazado 811926" d="M303.42,509.938c-.136.027-.272.052-.408.076C303.148,509.99,303.285,509.965,303.42,509.938Zm0,0" transform="translate(-260.007 -438.289)" fill="#cef369"/>
      <path id="Trazado_811927" data-name="Trazado 811927" d="M300.149,510.625c-.108.018-.216.034-.324.049Q299.987,510.651,300.149,510.625Zm0,0" transform="translate(-257.268 -438.879)" fill="#cef369"/>
      <path id="Trazado_811928" data-name="Trazado 811928" d="M296.276,511.1c-.145.019-.291.037-.437.052Q296.059,511.128,296.276,511.1Zm0,0" transform="translate(-253.843 -439.286)" fill="#cef369"/>
      <path id="Trazado_811929" data-name="Trazado 811929" d="M76.906,145.648l.132-.109Zm0,0" transform="translate(-65.671 -125.09)" fill="#cef369"/>
      <path id="Trazado_811930" data-name="Trazado 811930" d="M63.379,159.792l.114-.151Zm0,0" transform="translate(-54.044 -137.21)" fill="#cef369"/>
      <path id="Trazado_811931" data-name="Trazado 811931" d="M306.479,509.234c-.142.033-.284.066-.428.095C306.194,509.3,306.336,509.267,306.479,509.234Zm0,0" transform="translate(-262.619 -437.684)" fill="#cef369"/>
      <path id="Trazado_811932" data-name="Trazado 811932" d="M71.2,150.811l.124-.123Zm0,0" transform="translate(-60.769 -129.515)" fill="#cef369"/>
      <path id="Trazado_811933" data-name="Trazado 811933" d="M73.824,148.4l.111-.1Zm0,0" transform="translate(-63.022 -127.457)" fill="#cef369"/>
      <path id="Trazado_811934" data-name="Trazado 811934" d="M68.277,153.865l.12-.134Zm0,0" transform="translate(-58.254 -132.131)" fill="#cef369"/>
      <path id="Trazado_811935" data-name="Trazado 811935" d="M80.289,143.143l.105-.077Zm0,0" transform="translate(-68.578 -122.964)" fill="#cef369"/>
      <path id="Trazado_811936" data-name="Trazado 811936" d="M65.871,156.594c.041-.05.082-.1.123-.148C65.953,156.495,65.912,156.544,65.871,156.594Zm0,0" transform="translate(-56.186 -134.464)" fill="#cef369"/>
      <path id="Trazado_811937" data-name="Trazado 811937" d="M345.955,490.715q-.17.131-.345.257Q345.784,490.846,345.955,490.715Zm0,0" transform="translate(-296.62 -421.767)" fill="#cef369"/>
      <path id="Trazado_811938" data-name="Trazado 811938" d="M340.985,492.6q-.363.262-.743.5Q340.621,492.859,340.985,492.6Zm0,0" transform="translate(-292.006 -423.385)" fill="#cef369"/>
      <path id="Trazado_811939" data-name="Trazado 811939" d="M332.409,498.031q-.381.221-.776.42Q332.027,498.253,332.409,498.031Zm0,0" transform="translate(-284.607 -428.055)" fill="#cef369"/>
      <path id="Trazado_811940" data-name="Trazado 811940" d="M337.764,496.4c-.113.071-.227.139-.341.207Q337.594,496.508,337.764,496.4Zm0,0" transform="translate(-289.583 -426.655)" fill="#cef369"/>
      <path id="Trazado_811941" data-name="Trazado 811941" d="M369.613,461.172q-.356.6-.766,1.162Q369.257,461.772,369.613,461.172Zm0,0" transform="translate(-316.593 -396.375)" fill="#cef369"/>
      <path id="Trazado_811942" data-name="Trazado 811942" d="M310.188,508.453q-.161.044-.324.083Q310.026,508.5,310.188,508.453Zm0,0" transform="translate(-265.896 -437.012)" fill="#cef369"/>
      <path id="Trazado_811943" data-name="Trazado 811943" d="M363.535,469.457q-.408.559-.867,1.076Q363.126,470.016,363.535,469.457Zm0,0" transform="translate(-311.281 -403.496)" fill="#cef369"/>
      <path id="Trazado_811944" data-name="Trazado 811944" d="M349.349,484.289q-.5.461-1.033.875Q348.853,484.75,349.349,484.289Zm0,0" transform="translate(-298.946 -416.244)" fill="#cef369"/>
      <path id="Trazado_811945" data-name="Trazado 811945" d="M319.833,505.328q-.163.062-.329.12Q319.67,505.39,319.833,505.328Zm0,0" transform="translate(-274.182 -434.326)" fill="#cef369"/>
      <path id="Trazado_811946" data-name="Trazado 811946" d="M316.321,506.4c-.138.048-.278.094-.418.137C316.043,506.5,316.182,506.45,316.321,506.4Zm0,0" transform="translate(-271.087 -435.25)" fill="#cef369"/>
      <path id="Trazado_811947" data-name="Trazado 811947" d="M313.368,507.406c-.132.041-.265.08-.4.117C313.1,507.486,313.236,507.447,313.368,507.406Zm0,0" transform="translate(-268.565 -436.112)" fill="#cef369"/>
      <path id="Trazado_811948" data-name="Trazado 811948" d="M322.923,503.934c-.131.055-.263.108-.4.159C322.66,504.042,322.792,503.989,322.923,503.934Zm0,0" transform="translate(-276.781 -433.128)" fill="#cef369"/>
      <path id="Trazado_811949" data-name="Trazado 811949" d="M325.756,502.652c-.136.061-.271.122-.408.18C325.485,502.774,325.621,502.713,325.756,502.652Zm0,0" transform="translate(-279.205 -432.026)" fill="#cef369"/>
      <path id="Trazado_811950" data-name="Trazado 811950" d="M329.039,501.289c-.111.055-.223.109-.336.161Q328.873,501.372,329.039,501.289Zm0,0" transform="translate(-282.089 -430.855)" fill="#cef369"/>
      <path id="Trazado_811951" data-name="Trazado 811951" d="M104.918,130.694l.114-.035Zm0,0" transform="translate(-89.747 -112.301)" fill="#cef369"/>
      <path id="Trazado_811952" data-name="Trazado 811952" d="M112.695,128.719l.114-.024Zm0,0" transform="translate(-96.431 -110.613)" fill="#cef369"/>
      <path id="Trazado_811953" data-name="Trazado 811953" d="M108.961,129.681l.035-.009Zm0,0" transform="translate(-93.222 -111.452)" fill="#cef369"/>
      <path id="Trazado_811954" data-name="Trazado 811954" d="M93.582,135.084l.125-.061Zm0,0" transform="translate(-80.003 -116.052)" fill="#cef369"/>
      <path id="Trazado_811955" data-name="Trazado 811955" d="M100.938,132.043l.105-.04Zm0,0" transform="translate(-86.326 -113.456)" fill="#cef369"/>
      <path id="Trazado_811956" data-name="Trazado 811956" d="M117.012,128l.082-.012Zm0,0" transform="translate(-100.141 -110.001)" fill="#cef369"/>
      <path id="Trazado_811957" data-name="Trazado 811957" d="M383.867,9.1V13.33h4.93V29.914A15.174,15.174,0,0,1,373.641,45.07h.093V72.623a14.435,14.435,0,0,0,2.02-7.381V49.18a19.409,19.409,0,0,0,17.269-19.266V9.1Zm0,0" transform="translate(-320.712 -7.825)" fill="#769855"/>
      <path id="Trazado_811958" data-name="Trazado 811958" d="M90.066,137.013l.079-.044Zm0,0" transform="translate(-76.982 -117.724)" fill="#cef369"/>
      <path id="Trazado_811959" data-name="Trazado 811959" d="M355.8,478.16q.5-.468.956-.981Q356.306,477.692,355.8,478.16Zm0,0" transform="translate(-305.383 -410.133)" fill="#cef369"/>
      <path id="Trazado_811960" data-name="Trazado 811960" d="M125.133,127.189l.111,0Zm0,0" transform="translate(-107.121 -109.314)" fill="#cef369"/>
      <path id="Trazado_811961" data-name="Trazado 811961" d="M120.875,127.506l.088-.01Zm0,0" transform="translate(-103.462 -109.582)" fill="#cef369"/>
      <path id="Trazado_811962" data-name="Trazado 811962" d="M97.512,133.42l.091-.037Zm0,0" transform="translate(-83.381 -114.641)" fill="#cef369"/>
      <path id="Trazado_811963" data-name="Trazado 811963" d="M83.156,141.046l.123-.085Zm0,0" transform="translate(-71.043 -121.155)" fill="#cef369"/>
      <path id="Trazado_811964" data-name="Trazado 811964" d="M86.707,138.785l.125-.075Zm0,0" transform="translate(-74.094 -119.221)" fill="#cef369"/>
      <g id="Grupo_1068488" data-name="Grupo 1068488" transform="translate(9.092 17.856)">
        <path id="Trazado_811965" data-name="Trazado 811965" d="M331.169,501.023l-.075.037Zm0,0" transform="translate(-293.235 -448.483)" fill="#95d441"/>
        <path id="Trazado_811966" data-name="Trazado 811966" d="M72.086,149.264c.08-.078.162-.156.244-.233C72.248,149.108,72.166,149.186,72.086,149.264Zm0,0" transform="translate(-70.619 -145.948)" fill="#95d441"/>
        <path id="Trazado_811967" data-name="Trazado 811967" d="M337.194,497.875l-.037.022Zm0,0" transform="translate(-298.446 -445.777)" fill="#95d441"/>
        <path id="Trazado_811968" data-name="Trazado 811968" d="M113.5,128.158c.164-.032.327-.063.493-.088C113.831,128.1,113.668,128.125,113.5,128.158Zm0,0" transform="translate(-106.218 -127.932)" fill="#95d441"/>
        <path id="Trazado_811969" data-name="Trazado 811969" d="M117.594,127.625q.229-.034.461-.059Q117.823,127.591,117.594,127.625Zm0,0" transform="translate(-109.733 -127.499)" fill="#95d441"/>
        <path id="Trazado_811970" data-name="Trazado 811970" d="M84.031,139.484c.124-.083.249-.163.376-.241C84.28,139.321,84.155,139.4,84.031,139.484Zm0,0" transform="translate(-80.886 -137.534)" fill="#95d441"/>
        <path id="Trazado_811971" data-name="Trazado 811971" d="M121.5,127.258q.254-.025.51-.039Q121.758,127.233,121.5,127.258Zm0,0" transform="translate(-113.094 -127.2)" fill="#95d441"/>
        <path id="Trazado_811972" data-name="Trazado 811972" d="M328.317,502.438l-.063.03Zm0,0" transform="translate(-290.794 -449.699)" fill="#95d441"/>
        <path id="Trazado_811973" data-name="Trazado 811973" d="M321.939,505.066l-.1.037Zm0,0" transform="translate(-285.284 -451.958)" fill="#95d441"/>
        <path id="Trazado_811974" data-name="Trazado 811974" d="M362.618,477.117l-.008.009Zm0,0" transform="translate(-320.323 -427.936)" fill="#95d441"/>
        <path id="Trazado_811975" data-name="Trazado 811975" d="M368.838,469.441l0,0Zm0,0" transform="translate(-325.675 -421.338)" fill="#95d441"/>
        <path id="Trazado_811976" data-name="Trazado 811976" d="M81.039,141.773c.1-.072.2-.143.3-.211C81.236,141.631,81.137,141.7,81.039,141.773Zm0,0" transform="translate(-78.315 -139.528)" fill="#95d441"/>
        <path id="Trazado_811977" data-name="Trazado 811977" d="M339.906,496.156l-.055.035Zm0,0" transform="translate(-300.762 -444.3)" fill="#95d441"/>
        <path id="Trazado_811978" data-name="Trazado 811978" d="M355.688,484.16l-.019.018Zm0,0" transform="translate(-314.357 -433.989)" fill="#95d441"/>
        <path id="Trazado_811979" data-name="Trazado 811979" d="M345.542,492.543l-.011.008Zm0,0" transform="translate(-305.644 -441.194)" fill="#95d441"/>
        <path id="Trazado_811980" data-name="Trazado 811980" d="M74.617,146.591c.105-.094.213-.187.321-.278C74.83,146.4,74.723,146.5,74.617,146.591Zm0,0" transform="translate(-72.795 -143.611)" fill="#95d441"/>
        <path id="Trazado_811981" data-name="Trazado 811981" d="M125.926,127.1c.176-.008.353-.014.531-.014C126.279,127.086,126.1,127.092,125.926,127.1Zm0,0" transform="translate(-116.895 -127.086)" fill="#95d441"/>
        <path id="Trazado_811982" data-name="Trazado 811982" d="M348.1,490.52l-.036.027Zm0,0" transform="translate(-307.819 -439.455)" fill="#95d441"/>
        <path id="Trazado_811983" data-name="Trazado 811983" d="M98.156,132.44c.129-.054.26-.105.391-.154C98.416,132.334,98.285,132.386,98.156,132.44Zm0,0" transform="translate(-93.027 -131.555)" fill="#95d441"/>
        <path id="Trazado_811984" data-name="Trazado 811984" d="M295.743,511.469h0Zm0,0" transform="translate(-262.837 -457.461)" fill="#95d441"/>
        <path id="Trazado_811985" data-name="Trazado 811985" d="M77.844,143.884c.113-.092.227-.183.344-.271C78.071,143.7,77.957,143.792,77.844,143.884Zm0,0" transform="translate(-75.568 -141.291)" fill="#95d441"/>
        <path id="Trazado_811986" data-name="Trazado 811986" d="M291.9,511.734l-.133.008Zm0,0" transform="translate(-259.436 -457.689)" fill="#95d441"/>
        <path id="Trazado_811987" data-name="Trazado 811987" d="M61.648,161.06c.079-.116.16-.229.243-.342C61.809,160.831,61.727,160.945,61.648,161.06Zm0,0" transform="translate(-61.648 -155.993)" fill="#95d441"/>
        <path id="Trazado_811988" data-name="Trazado 811988" d="M299.072,510.977l-.123.017Zm0,0" transform="translate(-265.607 -457.038)" fill="#95d441"/>
        <path id="Trazado_811989" data-name="Trazado 811989" d="M64.188,157.8c.077-.1.156-.2.237-.3C64.343,157.6,64.265,157.7,64.188,157.8Zm0,0" transform="translate(-63.831 -153.227)" fill="#95d441"/>
        <path id="Trazado_811990" data-name="Trazado 811990" d="M87.594,137.489c.115-.069.23-.136.347-.2C87.824,137.353,87.709,137.42,87.594,137.489Zm0,0" transform="translate(-83.948 -135.856)" fill="#95d441"/>
        <path id="Trazado_811991" data-name="Trazado 811991" d="M90.629,135.67c.137-.074.275-.144.415-.212C90.9,135.526,90.766,135.6,90.629,135.67Zm0,0" transform="translate(-86.557 -134.281)" fill="#95d441"/>
        <path id="Trazado_811992" data-name="Trazado 811992" d="M288.632,511.91l-.132,0Zm0,0" transform="translate(-256.626 -457.84)" fill="#95d441"/>
        <path id="Trazado_811993" data-name="Trazado 811993" d="M94.473,133.841c.141-.067.283-.132.427-.193C94.756,133.709,94.614,133.774,94.473,133.841Zm0,0" transform="translate(-89.861 -132.726)" fill="#95d441"/>
        <path id="Trazado_811994" data-name="Trazado 811994" d="M309.2,509.047l-.108.026Zm0,0" transform="translate(-274.326 -455.379)" fill="#95d441"/>
        <path id="Trazado_811995" data-name="Trazado 811995" d="M315.821,507.379l-.013,0Zm0,0" transform="translate(-280.097 -453.946)" fill="#95d441"/>
        <path id="Trazado_811996" data-name="Trazado 811996" d="M302.257,510.477l-.124.021Zm0,0" transform="translate(-268.344 -456.608)" fill="#95d441"/>
        <path id="Trazado_811997" data-name="Trazado 811997" d="M318.967,506.184l-.088.031Zm0,0" transform="translate(-282.737 -452.919)" fill="#95d441"/>
        <path id="Trazado_811998" data-name="Trazado 811998" d="M109.207,128.977c.162-.042.325-.078.49-.114C109.532,128.9,109.369,128.935,109.207,128.977Zm0,0" transform="translate(-102.525 -128.614)" fill="#95d441"/>
        <path id="Trazado_811999" data-name="Trazado 811999" d="M105.73,129.867c.15-.046.3-.089.454-.129C106.031,129.778,105.88,129.821,105.73,129.867Zm0,0" transform="translate(-99.536 -129.365)" fill="#95d441"/>
        <path id="Trazado_812000" data-name="Trazado 812000" d="M312.284,508.238l-.112.03Zm0,0" transform="translate(-276.972 -454.684)" fill="#95d441"/>
        <path id="Trazado_812001" data-name="Trazado 812001" d="M101.688,131.061c.15-.055.3-.106.454-.154C101.989,130.955,101.838,131.006,101.688,131.061Zm0,0" transform="translate(-96.062 -130.37)" fill="#95d441"/>
        <path id="Trazado_812002" data-name="Trazado 812002" d="M305.937,509.91l-.019,0Zm0,0" transform="translate(-271.597 -456.121)" fill="#95d441"/>
        <path id="Trazado_812003" data-name="Trazado 812003" d="M66.75,154.931q.105-.125.215-.248Q66.855,154.806,66.75,154.931Zm0,0" transform="translate(-66.033 -150.806)" fill="#95d441"/>
        <path id="Trazado_812004" data-name="Trazado 812004" d="M69.133,151.867q.142-.155.291-.3Q69.276,151.712,69.133,151.867Zm0,0" transform="translate(-68.081 -148.123)" fill="#95d441"/>
      </g>
      <path id="Trazado_812005" data-name="Trazado 812005" d="M289.775,6.785a3.392,3.392,0,1,1,3.392-3.392A3.4,3.4,0,0,1,289.775,6.785Zm0,0" transform="translate(-245.714)" fill="#fc4a8d"/>
      <path id="Trazado_812006" data-name="Trazado 812006" d="M9.092,406.75a8.592,8.592,0,1,1,8.591-8.592A8.6,8.6,0,0,1,9.092,406.75Zm0,0" transform="translate(0 -334.83)" fill="#fc4a8d"/>
      <path id="Trazado_812007" data-name="Trazado 812007" d="M61.648,406.749V389.566a8.592,8.592,0,0,1,0,17.183Zm0,0" transform="translate(-52.557 -334.83)" fill="#d52d78"/>
      <path id="Trazado_812008" data-name="Trazado 812008" d="M48.715,439.905a2.113,2.113,0,1,0-2.113-2.113A2.137,2.137,0,0,0,48.715,439.905Zm0,0" transform="translate(-39.623 -374.464)" fill="#fee548"/>
      <path id="Trazado_812009" data-name="Trazado 812009" d="M61.652,439.905a2.113,2.113,0,0,0,0-4.226Zm0,0" transform="translate(-52.56 -374.464)" fill="#fdbb45"/>
      <path id="Trazado_812010" data-name="Trazado 812010" d="M416.533,6.785a3.392,3.392,0,1,1,3.392-3.392A3.4,3.4,0,0,1,416.533,6.785Zm0,0" transform="translate(-354.662)" fill="#d52d78"/>
    </g>
  </g>
</svg>
