<svg xmlns="http://www.w3.org/2000/svg" width="100.505" height="74.014" viewBox="0 0 100.505 74.014">
  <g id="puerta-de-salida" transform="translate(0 -67.477)">
    <path id="Trazado_811415" data-name="Trazado 811415" d="M94.034,141.49H6.471A6.471,6.471,0,0,1,0,135.019V73.948a6.471,6.471,0,0,1,6.471-6.471H94.034a6.471,6.471,0,0,1,6.471,6.471V135.02A6.471,6.471,0,0,1,94.034,141.49Z" fill="#00c27a"/>
    <path id="Trazado_811416" data-name="Trazado 811416" d="M31.31,160.263a.4.4,0,0,1-.4-.4V98.787a.4.4,0,0,1,.4-.4h87.562a.4.4,0,0,1,.4.4v61.071a.4.4,0,0,1-.4.4Z" transform="translate(-24.839 -24.839)" fill="#46cc8d"/>
    <path id="Trazado_811417" data-name="Trazado 811417" d="M174.074,301.156l12.942-8.7a1.516,1.516,0,0,0,0-2.518l-12.942-8.7a1.518,1.518,0,0,0-1.848.12,1.563,1.563,0,0,0-.515,1.183v4.405a.2.2,0,0,1-.2.2H141.884a.809.809,0,0,0-.809.809v6.471a.809.809,0,0,0,.809.809H171.51a.2.2,0,0,1,.2.2v4.405a1.563,1.563,0,0,0,.515,1.183,1.519,1.519,0,0,0,1.848.119Z" transform="translate(-113.382 -171.6)" fill="#eef5f6"/>
    <g id="Grupo_1068248" data-name="Grupo 1068248" transform="translate(10.22 77.682)">
      <path id="Trazado_811418" data-name="Trazado 811418" d="M54.576,119.894a1.472,1.472,0,1,0-2.082,2.082l.786.786a1.472,1.472,0,1,0,2.082-2.082Z" transform="translate(-52.062 -119.463)" fill="#08b865"/>
      <path id="Trazado_811419" data-name="Trazado 811419" d="M443.449,373.965a1.472,1.472,0,1,0-2.082,2.082l.786.786a1.472,1.472,0,0,0,2.082-2.082Z" transform="translate(-364.6 -323.66)" fill="#08b865"/>
      <path id="Trazado_811420" data-name="Trazado 811420" d="M442.409,123.193a1.467,1.467,0,0,0,1.041-.431l.786-.786a1.472,1.472,0,1,0-2.082-2.082l-.786.786a1.472,1.472,0,0,0,1.041,2.513Z" transform="translate(-364.601 -119.463)" fill="#08b865"/>
      <path id="Trazado_811421" data-name="Trazado 811421" d="M53.279,373.965l-.786.786a1.472,1.472,0,0,0,2.082,2.082l.786-.786a1.472,1.472,0,1,0-2.082-2.082Z" transform="translate(-52.062 -323.66)" fill="#08b865"/>
    </g>
    <g id="Grupo_1068250" data-name="Grupo 1068250" transform="translate(4.594 72.071)">
      <path id="Trazado_811422" data-name="Trazado 811422" d="M112.844,90.882H25.282a1.879,1.879,0,0,0-1.877,1.877V153.83a1.879,1.879,0,0,0,1.877,1.877h87.562a1.879,1.879,0,0,0,1.877-1.877V92.759A1.879,1.879,0,0,0,112.844,90.882Zm-1.068,61.88H26.349V93.826h85.427v58.936Z" transform="translate(-23.405 -90.882)" fill="#eef5f6"/>
      <g id="Grupo_1068249" data-name="Grupo 1068249" transform="translate(19.661 9.303)">
        <path id="Trazado_811423" data-name="Trazado 811423" d="M307.99,138.276a1.472,1.472,0,0,0-1.472,1.472v18.2a1.472,1.472,0,0,0,2.944,0v-18.2A1.472,1.472,0,0,0,307.99,138.276Z" transform="translate(-270.604 -138.276)" fill="#eef5f6"/>
        <path id="Trazado_811424" data-name="Trazado 811424" d="M132.632,142.067a1.472,1.472,0,1,0,0-2.944h-7.6a1.472,1.472,0,0,0-1.472,1.472v18.032a1.472,1.472,0,0,0,1.472,1.472h7.6a1.472,1.472,0,1,0,0-2.944h-6.125v-6.072h5.565a1.472,1.472,0,0,0,0-2.944h-5.565v-6.071Z" transform="translate(-123.562 -138.957)" fill="#eef5f6"/>
        <path id="Trazado_811425" data-name="Trazado 811425" d="M208.911,148.2l5.358-7.605a1.472,1.472,0,0,0-2.407-1.7l-4.75,6.743-4.743-6.742a1.472,1.472,0,1,0-2.408,1.694l5.35,7.6-6.268,8.9a1.472,1.472,0,1,0,2.407,1.7l5.661-8.035,5.652,8.035a1.472,1.472,0,1,0,2.408-1.694Z" transform="translate(-184.009 -138.276)" fill="#eef5f6"/>
        <path id="Trazado_811426" data-name="Trazado 811426" d="M348.72,138.276H338.67a1.472,1.472,0,1,0,0,2.944H342.2v16.726a1.472,1.472,0,0,0,2.944,0V141.22h3.573a1.472,1.472,0,1,0,0-2.944Z" transform="translate(-295.262 -138.276)" fill="#eef5f6"/>
      </g>
    </g>
  </g>
</svg>
