<svg xmlns="http://www.w3.org/2000/svg" width="111.965" height="75.391" viewBox="0 0 111.965 75.391">
  <g id="_x33_2" transform="translate(-2.5 -10.34)">
    <g id="Grupo_1068297" data-name="Grupo 1068297" transform="translate(55.126 10.34)">
      <g id="Grupo_1068254" data-name="Grupo 1068254" transform="translate(5.299 0)">
        <g id="Grupo_1068251" data-name="Grupo 1068251" transform="translate(0 0.003)">
          <path id="Trazado_811427" data-name="Trazado 811427" d="M31.1,15.441a1.3,1.3,0,0,1-1.73.389c-.361-.322-.274-.764-.27-3.143,0-.622-.388-.676-.745-.319-.9.9-.426,1.755-.749,1.8-.341.054-.28-1.444-.234-1.783.321-2.382,2.736-2.708,3.551-.861a7.931,7.931,0,0,1,.348,2.729c.041.888.109.858-.172,1.184Z" transform="translate(-27.333 -10.341)" fill="#5b5e8b"/>
        </g>
        <g id="Grupo_1068252" data-name="Grupo 1068252">
          <path id="Trazado_811428" data-name="Trazado 811428" d="M29.57,10.371c-.833.169-1.636,1-1.636,2.6a2.093,2.093,0,0,0-.2.9c0,.122-.017.282-.136.3-.341.054-.28-1.444-.234-1.783C27.571,10.89,28.642,10.177,29.57,10.371Z" transform="translate(-27.333 -10.34)" fill="#312e4b"/>
        </g>
        <g id="Grupo_1068253" data-name="Grupo 1068253" transform="translate(1.693 1.808)">
          <path id="Trazado_811429" data-name="Trazado 811429" d="M30.13,14.41a1.583,1.583,0,0,1-.935.558c-1.385.213-1.068-1.176-1.064-3.312a.794.794,0,0,0-.071-.386c.314-.275.674-.21.674.386q0,.009,0,.018a1.476,1.476,0,0,0,1.541,1.472H30.3c.025.916.138.908-.169,1.264Z" transform="translate(-28.059 -11.115)" fill="#312e4b"/>
        </g>
      </g>
      <g id="Grupo_1068258" data-name="Grupo 1068258" transform="translate(10.22)">
        <g id="Grupo_1068255" data-name="Grupo 1068255" transform="translate(0 0.003)">
          <path id="Trazado_811430" data-name="Trazado 811430" d="M33.3,14.085c-.091.152-.3.132-.292-.213a2.113,2.113,0,0,0-.611-1.5c-.165-.165-.385-.3-.579-.17-.464.3.168,3.093-.436,3.632-.646.573-1.915-.258-1.937-.776-.011-.263.021-.486.039-.878a7.676,7.676,0,0,1,.345-2.648c.816-1.847,3.231-1.52,3.551.861a4.747,4.747,0,0,1-.08,1.7Z" transform="translate(-29.443 -10.341)" fill="#5b5e8b"/>
        </g>
        <g id="Grupo_1068256" data-name="Grupo 1068256" transform="translate(1.735)">
          <path id="Trazado_811431" data-name="Trazado 811431" d="M30.187,10.371c.838.17,1.636,1.007,1.636,2.6a2.093,2.093,0,0,1,.2.9c-.008.4.3.4.339.034a3.686,3.686,0,0,0-.539-2.9A1.786,1.786,0,0,0,30.5,10.34a1.454,1.454,0,0,0-.316.031Z" transform="translate(-30.187 -10.34)" fill="#312e4b"/>
        </g>
        <g id="Grupo_1068257" data-name="Grupo 1068257" transform="translate(0 1.808)">
          <path id="Trazado_811432" data-name="Trazado 811432" d="M31.657,13.678c-.006.272.048.833-.275,1.121-.638.566-1.914-.231-1.937-.776-.012-.29.03-.589.038-.877h.026a1.476,1.476,0,0,0,1.541-1.472q0-.009,0-.018c0-.591.358-.662.674-.386-.112.194-.07.464-.066,2.407Z" transform="translate(-29.443 -11.115)" fill="#312e4b"/>
        </g>
      </g>
      <g id="Grupo_1068259" data-name="Grupo 1068259" transform="translate(46.498 30.478)">
        <path id="Trazado_811433" data-name="Trazado 811433" d="M47.789,23.406a10.444,10.444,0,0,0,1.751,6.97,2.117,2.117,0,0,1,.42,1.306l-.255,11.644a.362.362,0,0,1-.362.354h-2.2a.361.361,0,0,1-.351-.447c1.062-4.364.4-7.187-.686-9.215-1.818-5.164-1.52-8.88,1.678-10.612Z" transform="translate(-44.995 -23.406)" fill="#c6c6f7"/>
      </g>
      <g id="Grupo_1068260" data-name="Grupo 1068260" transform="translate(48.29 48.968)">
        <path id="Trazado_811434" data-name="Trazado 811434" d="M46.054,31.333c-.075.429-.167.873-.28,1.336a.361.361,0,0,0,.351.447h2.2a.362.362,0,0,0,.362-.354l.031-1.429Z" transform="translate(-45.763 -31.333)" fill="#312e4b"/>
      </g>
      <g id="Grupo_1068261" data-name="Grupo 1068261" transform="translate(16.003 32.399)">
        <path id="Trazado_811435" data-name="Trazado 811435" d="M36.767,42.485a.361.361,0,0,0,.361-.387c-.087-1.239-.146-3.162-.175-4.232-.31-11.344,1.273-11.5.45-12.78a2.373,2.373,0,0,0-1.844-.787c-1.209-.131-2.616-.2-3.319.965-.824,1.364.151,3.108.7,4.278,1.587,3.377,1.754,8.74,1.033,12.515a.361.361,0,0,0,.355.429h2.438Z" transform="translate(-31.922 -24.229)" fill="#c6c6f7"/>
      </g>
      <g id="Grupo_1068262" data-name="Grupo 1068262" transform="translate(8.696 9.652)">
        <path id="Trazado_811436" data-name="Trazado 811436" d="M74.783,27.124a2.832,2.832,0,0,1-1.769-1.23,4.243,4.243,0,0,0-1.6-1.488,1.133,1.133,0,0,0-.808-.047.661.661,0,0,0-.457.621c.012.351.328.586.527.855a2.9,2.9,0,0,1,.352,2.085,30.445,30.445,0,0,1-1.746,7.7,21.6,21.6,0,0,1-1.113,2.355,4.487,4.487,0,0,0-.539,2.753c.094.738.375,1.453.457,2.191a8.45,8.45,0,0,1-.375,3c-.75,3.022-1.488,6.045-2.249,9.056a1.647,1.647,0,0,1-.4.867,1.732,1.732,0,0,1-1.195.293c-.633-.012-1.265-.012-1.9-.023-.234,0-.527-.047-.586-.269-.059-.2.105-.375.246-.515a6.787,6.787,0,0,0,1.23-1.933,13.738,13.738,0,0,0,1.113-7.017,14,14,0,0,0-2.624-6.678,22.11,22.11,0,0,1-14.691.48c-5.914-1.935-7.666-3.9-8.119-1.336-.5,2.964-1.3,13.742-1.242,16.261a.354.354,0,0,1-.363.375c-3.275-.055-2.833.6-2.144-2.425.221-.953.166-.709.328-13.742.124-8.016-4.864-2.359-5.658-14.269-.012-.27-.023-.551-.047-.82-.2-.07-.41-.176-.621-.269V15.924A4.575,4.575,0,0,1,32.6,14.519c1.966.293,3.292,1.978,5,2.847,1.047.523,8.765,2.815,11.036,2.952,4.285.266,12.639-2.311,15.394-1.816A5.169,5.169,0,0,1,67.6,20.939c1.16.2,2.32.4,3.491.6a4.131,4.131,0,0,1,2,.715,3.794,3.794,0,0,1,1.078,2.05,28.832,28.832,0,0,1,.609,2.823Z" transform="translate(-28.789 -14.478)" fill="#deddff"/>
      </g>
      <g id="Grupo_1068263" data-name="Grupo 1068263" transform="translate(8.693 9.651)">
        <path id="Trazado_811437" data-name="Trazado 811437" d="M36.573,39.3c-.148,13.57-.132,12.917-.323,13.747-.383,1.665-.747,2.3-.224,2.427-2.283.018-1.857.294-1.232-2.427.2-.886.176-.3.323-13.747.061-4.262-1.073-4.417-2.623-5.779a8.507,8.507,0,0,1-2.459-4.311,25.39,25.39,0,0,1-.62-4.994c-.2-.076-.413-.172-.627-.275V15.928A4.584,4.584,0,0,1,32.6,14.516a6.658,6.658,0,0,1,2.911,1.444c.01,3.036-.786,6.129-3.13,8.04a3.415,3.415,0,0,0-1.264,3.074c.646,5.949,3.376,6.529,4.5,7.919.944,1.171.972,2.8.95,4.312Z" transform="translate(-28.788 -14.477)" fill="#c6c6f7"/>
      </g>
      <g id="Grupo_1068264" data-name="Grupo 1068264" transform="translate(18.048 48.928)">
        <path id="Trazado_811438" data-name="Trazado 811438" d="M33.009,31.315c-.057.448-.125.883-.2,1.3a.361.361,0,0,0,.355.429H35.6a.361.361,0,0,0,.361-.387c-.028-.394-.053-.857-.075-1.339Z" transform="translate(-32.799 -31.315)" fill="#312e4b"/>
      </g>
      <g id="Grupo_1068265" data-name="Grupo 1068265" transform="translate(14.214 48.928)">
        <path id="Trazado_811439" data-name="Trazado 811439" d="M34.159,31.315H31.465c-.58,2.227-.612,1.694,2.314,1.722a.361.361,0,0,0,.364-.371c-.008-.325,0-.787.015-1.351Z" transform="translate(-31.155 -31.315)" fill="#312e4b"/>
      </g>
      <g id="Grupo_1068266" data-name="Grupo 1068266" transform="translate(41.272 48.928)">
        <path id="Trazado_811440" data-name="Trazado 811440" d="M44.069,31.315a6.16,6.16,0,0,1-1.053,1.565c-.145.145-.31.324-.248.523.062.22.351.262.585.269l1.9.021a1.71,1.71,0,0,0,1.2-.3,1.689,1.689,0,0,0,.4-.861q.152-.61.3-1.22Z" transform="translate(-42.755 -31.315)" fill="#312e4b"/>
      </g>
      <g id="Grupo_1068267" data-name="Grupo 1068267" transform="translate(13.1 2.5)">
        <path id="Trazado_811441" data-name="Trazado 811441" d="M37.057,12.355a4.392,4.392,0,0,1-1.117,2.688,7.663,7.663,0,0,1-5.262,1.729l.362-2.04c2.377-2.3,2.205-2.4,4.953-3.232a.953.953,0,0,1,.85.024.909.909,0,0,1,.215.831Z" transform="translate(-30.677 -11.412)" fill="#deddff"/>
      </g>
      <g id="Grupo_1068268" data-name="Grupo 1068268" transform="translate(13.1 5.242)">
        <path id="Trazado_811442" data-name="Trazado 811442" d="M32.68,15.034a8.092,8.092,0,0,1-2,.171l.362-2.04c.2-.193.4-.387.6-.579a4.729,4.729,0,0,1,1.044,2.447Z" transform="translate(-30.677 -12.587)" fill="#c6c6f7"/>
      </g>
      <g id="Grupo_1068269" data-name="Grupo 1068269" transform="translate(13.82 3.15)">
        <path id="Trazado_811443" data-name="Trazado 811443" d="M36.046,11.918v0a3.879,3.879,0,0,1-.946,2.324,6.889,6.889,0,0,1-4.114,1.545v-.962l1.472-1.406c1.386-1.347,1.776-1.135,3.321-1.726a.209.209,0,0,1,.268.219Z" transform="translate(-30.986 -11.69)" fill="#f879ca"/>
      </g>
      <g id="Grupo_1068270" data-name="Grupo 1068270" transform="translate(13.82 3.151)">
        <path id="Trazado_811444" data-name="Trazado 811444" d="M36.046,11.914v.008a3.879,3.879,0,0,1-.946,2.324,6.923,6.923,0,0,1-4.114,1.545V14.83l.589-.563.006.008a1.2,1.2,0,0,0,1.48.48,3.431,3.431,0,0,0,2.487-2.987l.233-.071a.211.211,0,0,1,.265.217Z" transform="translate(-30.986 -11.691)" fill="#f44aaf"/>
      </g>
      <g id="Grupo_1068271" data-name="Grupo 1068271" transform="translate(0 2.512)">
        <path id="Trazado_811445" data-name="Trazado 811445" d="M31.453,16.765a7.67,7.67,0,0,1-5.262-1.729,4.406,4.406,0,0,1-1.118-2.688c-.144-1.424,1.023-.9,2.206-.485,1.547.54,1.589.706,3.813,2.862Z" transform="translate(-25.061 -11.417)" fill="#deddff"/>
      </g>
      <g id="Grupo_1068272" data-name="Grupo 1068272" transform="translate(4.39 5.242)">
        <path id="Trazado_811446" data-name="Trazado 811446" d="M28.945,15.205a8.087,8.087,0,0,1-2-.171,4.732,4.732,0,0,1,1.044-2.447c.2.192.4.386.6.579Z" transform="translate(-26.943 -12.587)" fill="#c6c6f7"/>
      </g>
      <g id="Grupo_1068273" data-name="Grupo 1068273" transform="translate(0.61 3.15)">
        <path id="Trazado_811447" data-name="Trazado 811447" d="M30.384,14.831v.962a6.9,6.9,0,0,1-4.114-1.545,3.938,3.938,0,0,1-.946-2.329.209.209,0,0,1,.268-.219c1.565.6,1.936.38,3.321,1.726l1.472,1.406Z" transform="translate(-25.323 -11.69)" fill="#f879ca"/>
      </g>
      <g id="Grupo_1068274" data-name="Grupo 1068274" transform="translate(0.611 3.151)">
        <path id="Trazado_811448" data-name="Trazado 811448" d="M30.384,14.83v.962a6.938,6.938,0,0,1-4.114-1.545,3.922,3.922,0,0,1-.946-2.333.211.211,0,0,1,.265-.217l.233.071c.229,1.5.855,2.372,2.716,3.079a.965.965,0,0,0,1.172-.435c.028-.047.057-.1.087-.143Z" transform="translate(-25.323 -11.691)" fill="#f44aaf"/>
      </g>
      <g id="Grupo_1068275" data-name="Grupo 1068275" transform="translate(14.211 48.928)">
        <path id="Trazado_811449" data-name="Trazado 811449" d="M34.145,32.667a.361.361,0,0,1-.364.371c-.559,0-.837,0-1.07,0-1.863.022-1.732.2-1.244-1.726H34.16c-.018.564-.024,1.026-.016,1.351Z" transform="translate(-31.154 -31.315)" fill="#312e4b"/>
      </g>
      <g id="Grupo_1068276" data-name="Grupo 1068276" transform="translate(14.212 48.928)">
        <path id="Trazado_811450" data-name="Trazado 811450" d="M32.872,33.041c-2.023,0-1.912.278-1.406-1.725h1.456c-.112.432-.228.863-.318,1.3A.364.364,0,0,0,32.872,33.041Z" transform="translate(-31.154 -31.315)" fill="#21203a"/>
      </g>
      <g id="Grupo_1068278" data-name="Grupo 1068278" transform="translate(25.36 13.606)" opacity="0.3">
        <g id="Grupo_1068277" data-name="Grupo 1068277">
          <path id="Trazado_811451" data-name="Trazado 811451" d="M65.263,24.865a2.832,2.832,0,0,1-1.769-1.23,4.243,4.243,0,0,0-1.6-1.488,1.133,1.133,0,0,0-.808-.047.661.661,0,0,0-.457.621c.012.351.328.586.527.855a2.9,2.9,0,0,1,.352,2.085,30.445,30.445,0,0,1-1.746,7.7,29.332,29.332,0,0,0-7.709-1.324c-3.351-.246-6.807-.375-9.864-1.359s-5.694-3.058-6.174-5.94c-.363-2.226.6-4.627,1.945-6.818,4.593.835,13.405-2.241,16.554-1.675a5.169,5.169,0,0,1,3.573,2.437c1.16.2,2.32.4,3.491.6a4.131,4.131,0,0,1,2,.715,3.794,3.794,0,0,1,1.078,2.05A28.83,28.83,0,0,1,65.263,24.865Z" transform="translate(-35.933 -16.173)" fill="#fff"/>
        </g>
      </g>
      <g id="Grupo_1068279" data-name="Grupo 1068279" transform="translate(4.017 4.433)">
        <path id="Trazado_811452" data-name="Trazado 811452" d="M37.626,19.383a6.52,6.52,0,0,0-1.03,2.76,13.408,13.408,0,0,1-2.371,4.4,2.442,2.442,0,0,1-1.979.5,1.825,1.825,0,0,1-1.447-.5,13.331,13.331,0,0,1-2.374-4.4,6.493,6.493,0,0,0-1.03-2.76,5.958,5.958,0,0,1-.038-5.2,5.1,5.1,0,0,1,5.155-1.823,5.431,5.431,0,0,1,3.855.629c1.566.944,1.8,2.014,1.863,3.64a5.654,5.654,0,0,1-.6,2.757Z" transform="translate(-26.783 -12.24)" fill="#deddff"/>
      </g>
      <g id="Grupo_1068284" data-name="Grupo 1068284" transform="translate(7.895 15.406)">
        <g id="Grupo_1068280" data-name="Grupo 1068280">
          <path id="Trazado_811453" data-name="Trazado 811453" d="M31.64,16.945a.51.51,0,0,1,.475.694,1.946,1.946,0,0,1-3.635,0,.51.51,0,0,1,.475-.694Z" transform="translate(-28.446 -16.945)" fill="#5b5e8b"/>
        </g>
        <g id="Grupo_1068281" data-name="Grupo 1068281" transform="translate(0.052 1.62)">
          <path id="Trazado_811454" data-name="Trazado 811454" d="M32.066,18.057s-.02,1.1-1.8,1.193c-1.779-.094-1.8-1.193-1.8-1.193,1.438.791,1.152-.418,1.152-.418h1.294S30.628,18.848,32.066,18.057Z" transform="translate(-28.468 -17.639)" fill="#5b5e8b"/>
        </g>
        <g id="Grupo_1068282" data-name="Grupo 1068282" transform="translate(2.251 0.484)">
          <path id="Trazado_811455" data-name="Trazado 811455" d="M29.434,18.107c-.184-.187.746-1.118.931-.931C30.442,17.254,29.619,18.292,29.434,18.107Z" transform="translate(-29.411 -17.152)"/>
        </g>
        <g id="Grupo_1068283" data-name="Grupo 1068283" transform="translate(0.493 0.484)">
          <path id="Trazado_811456" data-name="Trazado 811456" d="M29.593,18.107c.184-.187-.746-1.118-.931-.931C28.585,17.254,29.408,18.292,29.593,18.107Z" transform="translate(-28.657 -17.152)"/>
        </g>
      </g>
      <g id="Grupo_1068293" data-name="Grupo 1068293" transform="translate(5.672 9.225)">
        <g id="Grupo_1068288" data-name="Grupo 1068288" transform="translate(6.403)">
          <g id="Grupo_1068285" data-name="Grupo 1068285">
            <path id="Trazado_811457" data-name="Trazado 811457" d="M30.245,15.855a2.79,2.79,0,0,1,.574-1.118c.967-.734.939-.243,1.418-.44a.038.038,0,0,1,.035.067c-.024.019-.053.518-.089.631a.786.786,0,0,1-.309.512,1.4,1.4,0,0,1-1,.215c-.124.042-.237.083-.266.19C30.546,16.144,30.184,16.09,30.245,15.855Z" transform="translate(-30.238 -14.294)" fill="#312e4b"/>
          </g>
          <g id="Grupo_1068286" data-name="Grupo 1068286" transform="translate(0.826 1.04)">
            <path id="Trazado_811458" data-name="Trazado 811458" d="M30.65,14.884a.072.072,0,1,0-.01-.143C30.6,14.746,30.552,14.893,30.65,14.884Z" transform="translate(-30.592 -14.74)" fill="#fff"/>
          </g>
          <g id="Grupo_1068287" data-name="Grupo 1068287" transform="translate(0.678 0.617)">
            <path id="Trazado_811459" data-name="Trazado 811459" d="M30.642,14.837a.139.139,0,1,0-.02-.277C30.541,14.569,30.452,14.859,30.642,14.837Z" transform="translate(-30.529 -14.559)" fill="#fff"/>
          </g>
        </g>
        <g id="Grupo_1068292" data-name="Grupo 1068292">
          <g id="Grupo_1068289" data-name="Grupo 1068289">
            <path id="Trazado_811460" data-name="Trazado 811460" d="M29.536,15.855a2.928,2.928,0,0,0-.235-.61,1.512,1.512,0,0,0-.339-.508c-.967-.734-.939-.243-1.418-.44a.038.038,0,0,0-.035.067c.024.019.053.518.089.631a.786.786,0,0,0,.309.512,1.4,1.4,0,0,0,1,.215c.124.042.237.083.266.19C29.235,16.144,29.6,16.09,29.536,15.855Z" transform="translate(-27.493 -14.294)" fill="#312e4b"/>
          </g>
          <g id="Grupo_1068290" data-name="Grupo 1068290" transform="translate(1.096 1.04)">
            <path id="Trazado_811461" data-name="Trazado 811461" d="M28.032,14.884a.072.072,0,1,1,.01-.143C28.083,14.746,28.13,14.893,28.032,14.884Z" transform="translate(-27.963 -14.74)" fill="#fff"/>
          </g>
          <g id="Grupo_1068291" data-name="Grupo 1068291" transform="translate(1.123 0.617)">
            <path id="Trazado_811462" data-name="Trazado 811462" d="M28.109,14.837a.139.139,0,1,1,.02-.277C28.21,14.569,28.3,14.859,28.109,14.837Z" transform="translate(-27.974 -14.559)" fill="#fff"/>
          </g>
        </g>
      </g>
      <g id="Grupo_1068296" data-name="Grupo 1068296" transform="translate(7.12 8.705)">
        <g id="Grupo_1068294" data-name="Grupo 1068294" transform="translate(3.546)">
          <path id="Trazado_811463" data-name="Trazado 811463" d="M29.882,14.071c.1,2.279-.116,4.872,1.458,5.38C29.409,19.359,29.438,15.875,29.882,14.071Z" transform="translate(-29.634 -14.071)" fill="#c6c6f7"/>
        </g>
        <g id="Grupo_1068295" data-name="Grupo 1068295">
          <path id="Trazado_811464" data-name="Trazado 811464" d="M29.572,14.071c.445,1.805.472,5.287-1.458,5.38C29.644,18.958,29.453,16.725,29.572,14.071Z" transform="translate(-28.114 -14.071)" fill="#c6c6f7"/>
        </g>
      </g>
    </g>
    <g id="Grupo_1068328" data-name="Grupo 1068328" transform="translate(2.5 27.329)">
      <g id="Grupo_1068298" data-name="Grupo 1068298" transform="translate(1.516)">
        <path id="Trazado_811465" data-name="Trazado 811465" d="M111.243,40.04V57.394H3.15V52.379a3.2,3.2,0,0,1,3.2-3.2H7.582V45.614a5.6,5.6,0,0,1,5.6-5.575h5.108c2.031,0,2.4-2.156,2.636-2.5A33.816,33.816,0,0,1,51.762,17.623h3.289A2.449,2.449,0,0,1,57.5,20.073V40.04Z" transform="translate(-3.15 -17.623)" fill="#65b9ff"/>
      </g>
      <g id="Grupo_1068299" data-name="Grupo 1068299" transform="translate(1.521 36.657)">
        <path id="Trazado_811466" data-name="Trazado 811466" d="M3.152,33.338H111.245v3.126H3.152Z" transform="translate(-3.152 -33.338)" fill="#3e7fff"/>
      </g>
      <g id="Grupo_1068300" data-name="Grupo 1068300" transform="translate(25.595 3.989)">
        <path id="Trazado_811467" data-name="Trazado 811467" d="M39.755,20.5V32.582a1.155,1.155,0,0,1-1.166,1.166H14.633a1.169,1.169,0,0,1-.933-1.866A29.875,29.875,0,0,1,38.006,19.333h.583A1.155,1.155,0,0,1,39.755,20.5Z" transform="translate(-13.473 -19.333)" fill="#e4e3ff"/>
      </g>
      <g id="Grupo_1068301" data-name="Grupo 1068301" transform="translate(0 39.771)">
        <path id="Trazado_811468" data-name="Trazado 811468" d="M114.465,35.536v4.782a.861.861,0,0,1-.863.863H3.386a.866.866,0,0,1-.886-.863V35.536a.866.866,0,0,1,.886-.863H113.6A.861.861,0,0,1,114.465,35.536Z" transform="translate(-2.5 -34.673)" fill="#5b5e8b"/>
      </g>
      <g id="Grupo_1068302" data-name="Grupo 1068302" transform="translate(7.507 33.285)">
        <path id="Trazado_811469" data-name="Trazado 811469" d="M33.126,44.886H5.718a12.461,12.461,0,0,1,.863-4.175c4.486-11.8,21.206-11.715,25.659,0A13.073,13.073,0,0,1,33.126,44.886Z" transform="translate(-5.718 -31.893)" fill="#deddff"/>
      </g>
      <g id="Grupo_1068303" data-name="Grupo 1068303" transform="translate(5.948 26.219)">
        <path id="Trazado_811470" data-name="Trazado 811470" d="M9.179,31.546A2.668,2.668,0,0,1,6.5,34.228L5.05,34.2V30.636a4.968,4.968,0,0,1,.3-1.773H6.5a2.668,2.668,0,0,1,2.683,2.682Z" transform="translate(-5.05 -28.863)" fill="#fcb73e"/>
      </g>
      <g id="Grupo_1068304" data-name="Grupo 1068304" transform="translate(106.185 32.261)">
        <path id="Trazado_811471" data-name="Trazado 811471" d="M51.446,31.453v5.621H49.068a1.049,1.049,0,0,1-1.046-1.046V32.5a1.049,1.049,0,0,1,1.046-1.046h2.379Z" transform="translate(-48.022 -31.453)" fill="#e83d62"/>
      </g>
      <g id="Grupo_1068311" data-name="Grupo 1068311" transform="translate(10.077 35.594)">
        <g id="Grupo_1068310" data-name="Grupo 1068310">
          <g id="Grupo_1068309" data-name="Grupo 1068309">
            <g id="Grupo_1068305" data-name="Grupo 1068305">
              <path id="Trazado_811472" data-name="Trazado 811472" d="M29.627,44.277a10.938,10.938,0,0,1-.269,2.44,11.375,11.375,0,1,1,.269-2.44Z" transform="translate(-6.82 -32.883)" fill="#5b5e8b"/>
            </g>
            <g id="Grupo_1068306" data-name="Grupo 1068306" transform="translate(0.004 1.831)">
              <path id="Trazado_811473" data-name="Trazado 811473" d="M27.745,49.483A11.4,11.4,0,1,1,12.023,33.668,11.188,11.188,0,0,0,10.157,39.9a10.464,10.464,0,0,0,.28,2.426,11.39,11.39,0,0,0,17.308,7.161Z" transform="translate(-6.822 -33.668)" fill="#312e4b"/>
            </g>
            <g id="Grupo_1068307" data-name="Grupo 1068307" transform="translate(5.905 6.259)">
              <path id="Trazado_811474" data-name="Trazado 811474" d="M14.573,46.023a5.229,5.229,0,1,1,5.237-5.236A5.249,5.249,0,0,1,14.573,46.023Z" transform="translate(-9.351 -35.566)" fill="#deddff"/>
            </g>
            <g id="Grupo_1068308" data-name="Grupo 1068308" transform="translate(5.906 6.987)">
              <path id="Trazado_811475" data-name="Trazado 811475" d="M19.079,43.016A5.226,5.226,0,0,1,9.352,40.38a5.137,5.137,0,0,1,2.589-4.5,5.236,5.236,0,0,0,7.138,7.138Z" transform="translate(-9.352 -35.878)" fill="#c6c6f7"/>
            </g>
          </g>
        </g>
      </g>
      <g id="Grupo_1068319" data-name="Grupo 1068319" transform="translate(76.925 33.263)">
        <g id="Grupo_1068312" data-name="Grupo 1068312">
          <path id="Trazado_811476" data-name="Trazado 811476" d="M62.886,44.9H35.478a12.461,12.461,0,0,1,.863-4.175,13.729,13.729,0,0,1,25.659,0A13.074,13.074,0,0,1,62.886,44.9Z" transform="translate(-35.478 -31.883)" fill="#deddff"/>
        </g>
        <g id="Grupo_1068318" data-name="Grupo 1068318" transform="translate(2.286 2.331)">
          <g id="Grupo_1068317" data-name="Grupo 1068317">
            <g id="Grupo_1068313" data-name="Grupo 1068313">
              <path id="Trazado_811477" data-name="Trazado 811477" d="M59.265,44.277A10.938,10.938,0,0,1,59,46.717a11.395,11.395,0,0,1-22.269,0,10.933,10.933,0,0,1-.269-2.44,11.4,11.4,0,0,1,22.807,0Z" transform="translate(-36.458 -32.883)" fill="#5b5e8b"/>
            </g>
            <g id="Grupo_1068314" data-name="Grupo 1068314" transform="translate(0.009 1.831)">
              <path id="Trazado_811478" data-name="Trazado 811478" d="M57.409,49.436a11.391,11.391,0,0,1-20.69-3.755,10.648,10.648,0,0,1-.257-2.449,11.418,11.418,0,0,1,5.2-9.564A11.187,11.187,0,0,0,39.8,39.9a10.456,10.456,0,0,0,.28,2.426,11.377,11.377,0,0,0,11.1,8.98,11.187,11.187,0,0,0,6.228-1.866Z" transform="translate(-36.462 -33.668)" fill="#312e4b"/>
            </g>
            <g id="Grupo_1068315" data-name="Grupo 1068315" transform="translate(5.905 6.259)">
              <path id="Trazado_811479" data-name="Trazado 811479" d="M44.211,46.023a5.229,5.229,0,1,1,5.237-5.236A5.249,5.249,0,0,1,44.211,46.023Z" transform="translate(-38.989 -35.566)" fill="#deddff"/>
            </g>
            <g id="Grupo_1068316" data-name="Grupo 1068316" transform="translate(5.91 6.987)">
              <path id="Trazado_811480" data-name="Trazado 811480" d="M48.719,43.016a5.223,5.223,0,0,1-9.727-2.636,5.137,5.137,0,0,1,2.589-4.5c-2.57,4.463,2.428,9.849,7.138,7.138Z" transform="translate(-38.992 -35.878)" fill="#c6c6f7"/>
            </g>
          </g>
        </g>
      </g>
      <g id="Grupo_1068321" data-name="Grupo 1068321" transform="translate(44.109 20.65)">
        <g id="Grupo_1068320" data-name="Grupo 1068320">
          <path id="Trazado_811481" data-name="Trazado 811481" d="M29.178,27.96a1.482,1.482,0,0,1-1.484,1.484h-4.8a1.484,1.484,0,1,1,0-2.968h4.8A1.483,1.483,0,0,1,29.178,27.96Z" transform="translate(-21.41 -26.476)" fill="#3e7fff"/>
        </g>
      </g>
      <g id="Grupo_1068327" data-name="Grupo 1068327" transform="translate(55.861 4.301)">
        <g id="Grupo_1068322" data-name="Grupo 1068322">
          <path id="Trazado_811482" data-name="Trazado 811482" d="M26.448,19.467H80.2v4.364H26.448Z" transform="translate(-26.448 -19.467)" fill="#ab604b"/>
        </g>
        <g id="Grupo_1068323" data-name="Grupo 1068323" transform="translate(0 9.046)">
          <path id="Trazado_811483" data-name="Trazado 811483" d="M26.448,23.345H80.2v4.364H26.448Z" transform="translate(-26.448 -23.345)" fill="#ab604b"/>
        </g>
        <g id="Grupo_1068324" data-name="Grupo 1068324" transform="translate(0)">
          <path id="Trazado_811484" data-name="Trazado 811484" d="M26.448,19.467h4.364V37.561H26.448Z" transform="translate(-26.448 -19.467)" fill="#c7754f"/>
        </g>
        <g id="Grupo_1068325" data-name="Grupo 1068325" transform="translate(24.693)">
          <path id="Trazado_811485" data-name="Trazado 811485" d="M37.034,19.467H41.4V37.561H37.034Z" transform="translate(-37.034 -19.467)" fill="#c7754f"/>
        </g>
        <g id="Grupo_1068326" data-name="Grupo 1068326" transform="translate(49.384)">
          <path id="Trazado_811486" data-name="Trazado 811486" d="M47.619,19.467h4.364V37.561H47.619Z" transform="translate(-47.619 -19.467)" fill="#c7754f"/>
        </g>
      </g>
    </g>
  </g>
</svg>
