<svg xmlns="http://www.w3.org/2000/svg" width="85" height="85" viewBox="0 0 85 85">
  <g id="Grupo_1070368" data-name="Grupo 1070368" transform="translate(-285 -3523.071)">
    <circle id="Elipse_5749" data-name="Elipse 5749" cx="42.5" cy="42.5" r="42.5" transform="translate(285 3523.071)" fill="#afc797"/>
    <g id="calma" transform="translate(302.345 3540.394)">
      <circle id="Elipse_5748" data-name="Elipse 5748" cx="25.155" cy="25.155" r="25.155" fill="#ffe17d"/>
      <path id="Trazado_811856" data-name="Trazado 811856" d="M28.831,98.432A25.174,25.174,0,0,1,9.3,57.376,25.174,25.174,0,1,0,44.711,92.789,25.068,25.068,0,0,1,28.831,98.432Z" transform="translate(0 -51.733)" fill="#ffd164"/>
      <path id="Trazado_811857" data-name="Trazado 811857" d="M196.657,347.339a36.783,36.783,0,0,1-6.091-.494c-.244-.041-.454.138-.379.326.869,2.161,3.435,3.729,6.47,3.729s5.6-1.568,6.47-3.729c.075-.187-.135-.367-.379-.326A36.778,36.778,0,0,1,196.657,347.339Z" transform="translate(-171.469 -312.728)" fill="#9c6846"/>
      <g id="Grupo_1068466" data-name="Grupo 1068466" transform="translate(10.355 16.04)">
        <path id="Trazado_811858" data-name="Trazado 811858" d="M126.067,232.817a5.2,5.2,0,0,1-4.04-2,1.015,1.015,0,0,1,1.583-1.272,3.047,3.047,0,0,0,4.914,0,1.015,1.015,0,0,1,1.583,1.272A5.2,5.2,0,0,1,126.067,232.817Z" transform="translate(-120.179 -222.665)" fill="#aa7346"/>
        <path id="Trazado_811859" data-name="Trazado 811859" d="M307.777,232.817a5.2,5.2,0,0,1-4.04-2,1.015,1.015,0,0,1,1.583-1.272,3.047,3.047,0,0,0,4.914,0,1.015,1.015,0,0,1,1.583,1.272A5.2,5.2,0,0,1,307.777,232.817Z" transform="translate(-284.018 -222.665)" fill="#aa7346"/>
        <path id="Trazado_811860" data-name="Trazado 811860" d="M106.3,167.563a1.015,1.015,0,0,1-.291-1.988l8.122-2.436a1.015,1.015,0,1,1,.584,1.945L106.6,167.52A1.012,1.012,0,0,1,106.3,167.563Z" transform="translate(-105.288 -163.095)" fill="#aa7346"/>
        <path id="Trazado_811861" data-name="Trazado 811861" d="M312.619,167.563a1.012,1.012,0,0,1-.293-.043l-8.122-2.436a1.015,1.015,0,1,1,.584-1.945l8.122,2.436a1.015,1.015,0,0,1-.291,1.988Z" transform="translate(-283.99 -163.095)" fill="#aa7346"/>
      </g>
      <path id="Trazado_811862" data-name="Trazado 811862" d="M203.129,347.17c.075-.187-.135-.367-.379-.326a37.78,37.78,0,0,1-12.182,0c-.244-.041-.454.138-.379.326a5.138,5.138,0,0,0,1.258,1.783,42.3,42.3,0,0,0,10.424,0A5.138,5.138,0,0,0,203.129,347.17Z" transform="translate(-171.471 -312.728)" fill="#7d5046"/>
    </g>
  </g>
</svg>
