<svg xmlns="http://www.w3.org/2000/svg" width="85" height="85" viewBox="0 0 85 85">
  <g id="Grupo_1070369" data-name="Grupo 1070369" transform="translate(-285 -3672.742)">
    <circle id="Elipse_5750" data-name="Elipse 5750" cx="42.5" cy="42.5" r="42.5" transform="translate(285 3672.742)" fill="#afc797"/>
    <g id="_x33_2" transform="translate(296.382 3685.938)">
      <g id="Grupo_1068297" data-name="Grupo 1068297" transform="translate(29.538 10.34)">
        <g id="Grupo_1068254" data-name="Grupo 1068254" transform="translate(2.723 0)">
          <g id="Grupo_1068251" data-name="Grupo 1068251" transform="translate(0 0.002)">
            <path id="Trazado_811427" data-name="Trazado 811427" d="M29.267,12.961a.668.668,0,0,1-.889.2c-.185-.165-.141-.392-.139-1.615,0-.32-.2-.348-.383-.164-.464.464-.219.9-.385.927s-.144-.742-.12-.916c.165-1.224,1.405-1.391,1.825-.442a4.075,4.075,0,0,1,.179,1.4c.021.456.056.441-.089.608Z" transform="translate(-27.333 -10.341)" fill="#5b5e8b"/>
          </g>
          <g id="Grupo_1068252" data-name="Grupo 1068252">
            <path id="Trazado_811428" data-name="Trazado 811428" d="M28.483,10.356c-.428.087-.84.515-.84,1.337a1.075,1.075,0,0,0-.1.463c0,.063-.009.145-.07.154-.175.028-.144-.742-.12-.916C27.455,10.623,28.006,10.256,28.483,10.356Z" transform="translate(-27.333 -10.34)" fill="#312e4b"/>
          </g>
          <g id="Grupo_1068253" data-name="Grupo 1068253" transform="translate(0.87 0.929)">
            <path id="Trazado_811429" data-name="Trazado 811429" d="M29.123,12.808a.813.813,0,0,1-.481.287c-.711.109-.549-.6-.547-1.7a.408.408,0,0,0-.037-.2c.162-.141.346-.108.346.2t0,.009a.758.758,0,0,0,.792.756h.013c.013.471.071.467-.087.649Z" transform="translate(-28.059 -11.115)" fill="#312e4b"/>
          </g>
        </g>
        <g id="Grupo_1068258" data-name="Grupo 1068258" transform="translate(5.251)">
          <g id="Grupo_1068255" data-name="Grupo 1068255" transform="translate(0 0.002)">
            <path id="Trazado_811430" data-name="Trazado 811430" d="M31.425,12.265c-.047.078-.152.068-.15-.11a1.085,1.085,0,0,0-.314-.772c-.085-.085-.2-.152-.3-.087-.238.156.086,1.589-.224,1.866-.332.294-.984-.133-1-.4-.006-.135.011-.25.02-.451a3.944,3.944,0,0,1,.177-1.361c.419-.949,1.66-.781,1.825.442a2.439,2.439,0,0,1-.041.871Z" transform="translate(-29.443 -10.341)" fill="#5b5e8b"/>
          </g>
          <g id="Grupo_1068256" data-name="Grupo 1068256" transform="translate(0.892)">
            <path id="Trazado_811431" data-name="Trazado 811431" d="M30.187,10.356c.43.087.84.517.84,1.337a1.075,1.075,0,0,1,.1.463c0,.207.152.206.174.017a1.894,1.894,0,0,0-.277-1.492.918.918,0,0,0-.676-.341.747.747,0,0,0-.162.016Z" transform="translate(-30.187 -10.34)" fill="#312e4b"/>
          </g>
          <g id="Grupo_1068257" data-name="Grupo 1068257" transform="translate(0 0.929)">
            <path id="Trazado_811432" data-name="Trazado 811432" d="M30.58,12.432c0,.14.025.428-.141.576-.328.291-.984-.119-1-.4-.006-.149.016-.3.019-.451h.013a.758.758,0,0,0,.792-.756s0-.006,0-.009c0-.3.184-.34.346-.2-.058.1-.036.238-.034,1.237Z" transform="translate(-29.443 -11.115)" fill="#312e4b"/>
          </g>
        </g>
        <g id="Grupo_1068259" data-name="Grupo 1068259" transform="translate(23.89 15.659)">
          <path id="Trazado_811433" data-name="Trazado 811433" d="M46.431,23.406a5.366,5.366,0,0,0,.9,3.581,1.087,1.087,0,0,1,.216.671l-.131,5.982a.186.186,0,0,1-.186.182H46.1a.186.186,0,0,1-.18-.23,6.366,6.366,0,0,0-.353-4.734c-.934-2.653-.781-4.562.862-5.452Z" transform="translate(-44.995 -23.406)" fill="#c6c6f7"/>
        </g>
        <g id="Grupo_1068260" data-name="Grupo 1068260" transform="translate(24.811 25.159)">
          <path id="Trazado_811434" data-name="Trazado 811434" d="M45.913,31.333c-.039.22-.086.449-.144.686a.186.186,0,0,0,.18.23h1.128a.186.186,0,0,0,.186-.182l.016-.734Z" transform="translate(-45.763 -31.333)" fill="#312e4b"/>
        </g>
        <g id="Grupo_1068261" data-name="Grupo 1068261" transform="translate(8.222 16.646)">
          <path id="Trazado_811435" data-name="Trazado 811435" d="M34.411,33.609a.186.186,0,0,0,.185-.2c-.045-.636-.075-1.624-.09-2.174-.159-5.828.654-5.906.231-6.566a1.219,1.219,0,0,0-.948-.4c-.621-.067-1.344-.1-1.705.5-.423.7.077,1.6.36,2.2a11.8,11.8,0,0,1,.531,6.43.185.185,0,0,0,.182.22h1.253Z" transform="translate(-31.922 -24.229)" fill="#c6c6f7"/>
        </g>
        <g id="Grupo_1068262" data-name="Grupo 1068262" transform="translate(4.468 4.959)">
          <path id="Trazado_811436" data-name="Trazado 811436" d="M52.42,20.975a1.455,1.455,0,0,1-.909-.632,2.18,2.18,0,0,0-.825-.764.582.582,0,0,0-.415-.024.34.34,0,0,0-.235.319c.006.181.169.3.271.439a1.491,1.491,0,0,1,.181,1.071,15.642,15.642,0,0,1-.9,3.954,11.1,11.1,0,0,1-.572,1.21,2.305,2.305,0,0,0-.277,1.414c.048.379.193.746.235,1.126a4.342,4.342,0,0,1-.193,1.541c-.385,1.553-.764,3.106-1.156,4.653a.846.846,0,0,1-.2.445.89.89,0,0,1-.614.15c-.325-.006-.65-.006-.975-.012-.12,0-.271-.024-.3-.138s.054-.193.126-.265a3.487,3.487,0,0,0,.632-.993,7.059,7.059,0,0,0,.572-3.605,7.192,7.192,0,0,0-1.348-3.431,11.36,11.36,0,0,1-7.548.247c-3.039-.994-3.939-2-4.171-.686-.259,1.523-.668,7.06-.638,8.354a.182.182,0,0,1-.187.193c-1.683-.028-1.456.307-1.1-1.246.114-.489.085-.364.169-7.06.064-4.118-2.5-1.212-2.907-7.331-.006-.138-.012-.283-.024-.421-.1-.036-.211-.09-.319-.138V15.221a2.351,2.351,0,0,1,1.956-.722c1.01.15,1.691,1.016,2.57,1.463a32.337,32.337,0,0,0,5.67,1.517c2.2.137,6.493-1.187,7.909-.933A2.656,2.656,0,0,1,48.73,17.8l1.794.307a2.123,2.123,0,0,1,1.029.367,1.949,1.949,0,0,1,.554,1.053,14.815,14.815,0,0,1,.313,1.451Z" transform="translate(-28.789 -14.478)" fill="#deddff"/>
        </g>
        <g id="Grupo_1068263" data-name="Grupo 1068263" transform="translate(4.466 4.959)">
          <path id="Trazado_811437" data-name="Trazado 811437" d="M32.788,27.233c-.076,6.972-.068,6.636-.166,7.063-.2.856-.384,1.182-.115,1.247-1.173.009-.954.151-.633-1.247.1-.455.091-.154.166-7.063.032-2.19-.551-2.269-1.348-2.969a4.371,4.371,0,0,1-1.263-2.215,13.045,13.045,0,0,1-.318-2.566c-.1-.039-.212-.089-.322-.141V15.223a2.355,2.355,0,0,1,1.96-.725,3.421,3.421,0,0,1,1.5.742,5.149,5.149,0,0,1-1.608,4.131,1.754,1.754,0,0,0-.649,1.579c.332,3.057,1.735,3.355,2.313,4.069a3.384,3.384,0,0,1,.488,2.215Z" transform="translate(-28.788 -14.477)" fill="#c6c6f7"/>
        </g>
        <g id="Grupo_1068264" data-name="Grupo 1068264" transform="translate(9.273 25.138)">
          <path id="Trazado_811438" data-name="Trazado 811438" d="M32.907,31.315c-.029.23-.064.454-.1.667a.185.185,0,0,0,.182.22h1.253a.186.186,0,0,0,.185-.2c-.014-.2-.027-.44-.038-.688Z" transform="translate(-32.799 -31.315)" fill="#312e4b"/>
        </g>
        <g id="Grupo_1068265" data-name="Grupo 1068265" transform="translate(7.303 25.138)">
          <path id="Trazado_811439" data-name="Trazado 811439" d="M32.7,31.315H31.314c-.3,1.144-.315.87,1.189.885a.185.185,0,0,0,.187-.191c0-.167,0-.4.008-.694Z" transform="translate(-31.155 -31.315)" fill="#312e4b"/>
        </g>
        <g id="Grupo_1068266" data-name="Grupo 1068266" transform="translate(21.205 25.138)">
          <path id="Trazado_811440" data-name="Trazado 811440" d="M43.43,31.315a3.165,3.165,0,0,1-.541.8c-.074.074-.159.166-.127.269s.18.134.3.138l.977.011a.879.879,0,0,0,.616-.152.868.868,0,0,0,.205-.442l.155-.627Z" transform="translate(-42.755 -31.315)" fill="#312e4b"/>
        </g>
        <g id="Grupo_1068267" data-name="Grupo 1068267" transform="translate(6.731 1.285)">
          <path id="Trazado_811441" data-name="Trazado 811441" d="M33.955,11.9a2.256,2.256,0,0,1-.574,1.381,3.937,3.937,0,0,1-2.7.888l.186-1.048c1.221-1.184,1.133-1.233,2.545-1.661a.49.49,0,0,1,.437.012.467.467,0,0,1,.11.427Z" transform="translate(-30.677 -11.412)" fill="#deddff"/>
        </g>
        <g id="Grupo_1068268" data-name="Grupo 1068268" transform="translate(6.731 2.693)">
          <path id="Trazado_811442" data-name="Trazado 811442" d="M31.706,13.844a4.157,4.157,0,0,1-1.029.088l.186-1.048.307-.3a2.43,2.43,0,0,1,.536,1.257Z" transform="translate(-30.677 -12.587)" fill="#c6c6f7"/>
        </g>
        <g id="Grupo_1068269" data-name="Grupo 1068269" transform="translate(7.1 1.618)">
          <path id="Trazado_811443" data-name="Trazado 811443" d="M33.586,11.807v0A1.993,1.993,0,0,1,33.1,13a3.54,3.54,0,0,1-2.114.794V13.3l.756-.722c.712-.692.912-.583,1.706-.887A.107.107,0,0,1,33.586,11.807Z" transform="translate(-30.986 -11.69)" fill="#f879ca"/>
        </g>
        <g id="Grupo_1068270" data-name="Grupo 1068270" transform="translate(7.1 1.619)">
          <path id="Trazado_811444" data-name="Trazado 811444" d="M33.586,11.805v0A1.993,1.993,0,0,1,33.1,13a3.557,3.557,0,0,1-2.114.794V13.3l.3-.289,0,0a.616.616,0,0,0,.761.247A1.763,1.763,0,0,0,33.33,11.73l.12-.037a.109.109,0,0,1,.136.111Z" transform="translate(-30.986 -11.691)" fill="#f44aaf"/>
        </g>
        <g id="Grupo_1068271" data-name="Grupo 1068271" transform="translate(0 1.291)">
          <path id="Trazado_811445" data-name="Trazado 811445" d="M28.345,14.164a3.941,3.941,0,0,1-2.7-.888,2.264,2.264,0,0,1-.574-1.381c-.074-.732.526-.461,1.133-.249.795.277.817.363,1.959,1.47Z" transform="translate(-25.061 -11.417)" fill="#deddff"/>
        </g>
        <g id="Grupo_1068272" data-name="Grupo 1068272" transform="translate(2.256 2.693)">
          <path id="Trazado_811446" data-name="Trazado 811446" d="M27.972,13.932a4.155,4.155,0,0,1-1.028-.088,2.431,2.431,0,0,1,.536-1.257l.307.3Z" transform="translate(-26.943 -12.587)" fill="#c6c6f7"/>
        </g>
        <g id="Grupo_1068273" data-name="Grupo 1068273" transform="translate(0.313 1.618)">
          <path id="Trazado_811447" data-name="Trazado 811447" d="M27.923,13.3V13.8A3.543,3.543,0,0,1,25.809,13a2.023,2.023,0,0,1-.486-1.2.107.107,0,0,1,.137-.113c.8.307.995.2,1.706.887l.756.722Z" transform="translate(-25.323 -11.69)" fill="#f879ca"/>
        </g>
        <g id="Grupo_1068274" data-name="Grupo 1068274" transform="translate(0.314 1.619)">
          <path id="Trazado_811448" data-name="Trazado 811448" d="M27.923,13.3V13.8A3.565,3.565,0,0,1,25.809,13a2.015,2.015,0,0,1-.486-1.2.109.109,0,0,1,.136-.111l.12.037a1.807,1.807,0,0,0,1.4,1.582.5.5,0,0,0,.6-.224l.045-.074Z" transform="translate(-25.323 -11.691)" fill="#f44aaf"/>
        </g>
        <g id="Grupo_1068275" data-name="Grupo 1068275" transform="translate(7.302 25.138)">
          <path id="Trazado_811449" data-name="Trazado 811449" d="M32.69,32.01a.185.185,0,0,1-.187.191c-.287,0-.43,0-.55,0-.957.011-.89.1-.639-.887H32.7c-.009.29-.012.527-.008.694Z" transform="translate(-31.154 -31.315)" fill="#312e4b"/>
        </g>
        <g id="Grupo_1068276" data-name="Grupo 1068276" transform="translate(7.302 25.138)">
          <path id="Trazado_811450" data-name="Trazado 811450" d="M32.036,32.2c-1.039,0-.982.143-.722-.886h.748c-.058.222-.117.443-.164.668A.187.187,0,0,0,32.036,32.2Z" transform="translate(-31.154 -31.315)" fill="#21203a"/>
        </g>
        <g id="Grupo_1068278" data-name="Grupo 1068278" transform="translate(13.029 6.991)" opacity="0.3">
          <g id="Grupo_1068277" data-name="Grupo 1068277">
            <path id="Trazado_811451" data-name="Trazado 811451" d="M51,20.639a1.455,1.455,0,0,1-.909-.632,2.18,2.18,0,0,0-.825-.764.582.582,0,0,0-.415-.024.34.34,0,0,0-.235.319c.006.181.169.3.271.439a1.491,1.491,0,0,1,.181,1.071,15.642,15.642,0,0,1-.9,3.954,15.07,15.07,0,0,0-3.96-.68,22.09,22.09,0,0,1-5.068-.7,4.3,4.3,0,0,1-3.172-3.052,5.353,5.353,0,0,1,1-3.5c2.36.429,6.887-1.151,8.5-.861a2.656,2.656,0,0,1,1.836,1.252l1.794.307a2.123,2.123,0,0,1,1.029.367,1.949,1.949,0,0,1,.554,1.053A14.81,14.81,0,0,1,51,20.639Z" transform="translate(-35.933 -16.173)" fill="#fff"/>
          </g>
        </g>
        <g id="Grupo_1068279" data-name="Grupo 1068279" transform="translate(2.064 2.278)">
          <path id="Trazado_811452" data-name="Trazado 811452" d="M32.354,15.91a3.35,3.35,0,0,0-.529,1.418,6.889,6.889,0,0,1-1.218,2.258,1.255,1.255,0,0,1-1.017.255.938.938,0,0,1-.743-.255,6.849,6.849,0,0,1-1.22-2.258A3.336,3.336,0,0,0,27.1,15.91a3.061,3.061,0,0,1-.019-2.673,2.619,2.619,0,0,1,2.648-.937,2.79,2.79,0,0,1,1.981.323,1.9,1.9,0,0,1,.957,1.87,2.9,2.9,0,0,1-.311,1.417Z" transform="translate(-26.783 -12.24)" fill="#deddff"/>
        </g>
        <g id="Grupo_1068284" data-name="Grupo 1068284" transform="translate(4.056 7.915)">
          <g id="Grupo_1068280" data-name="Grupo 1068280">
            <path id="Trazado_811453" data-name="Trazado 811453" d="M30.087,16.945a.262.262,0,0,1,.244.357,1,1,0,0,1-1.867,0,.262.262,0,0,1,.244-.357Z" transform="translate(-28.446 -16.945)" fill="#5b5e8b"/>
          </g>
          <g id="Grupo_1068281" data-name="Grupo 1068281" transform="translate(0.027 0.832)">
            <path id="Trazado_811454" data-name="Trazado 811454" d="M30.317,17.854s-.011.565-.924.613c-.914-.048-.925-.613-.925-.613.739.406.592-.215.592-.215h.665S29.578,18.26,30.317,17.854Z" transform="translate(-28.468 -17.639)" fill="#5b5e8b"/>
          </g>
          <g id="Grupo_1068282" data-name="Grupo 1068282" transform="translate(1.156 0.249)">
            <path id="Trazado_811455" data-name="Trazado 811455" d="M29.423,17.643c-.094-.1.383-.574.478-.478C29.941,17.2,29.518,17.738,29.423,17.643Z" transform="translate(-29.411 -17.152)"/>
          </g>
          <g id="Grupo_1068283" data-name="Grupo 1068283" transform="translate(0.253 0.249)">
            <path id="Trazado_811456" data-name="Trazado 811456" d="M29.138,17.643c.094-.1-.383-.574-.478-.478C28.62,17.2,29.043,17.738,29.138,17.643Z" transform="translate(-28.657 -17.152)"/>
          </g>
        </g>
        <g id="Grupo_1068293" data-name="Grupo 1068293" transform="translate(2.914 4.739)">
          <g id="Grupo_1068288" data-name="Grupo 1068288" transform="translate(3.29)">
            <g id="Grupo_1068285" data-name="Grupo 1068285">
              <path id="Trazado_811457" data-name="Trazado 811457" d="M30.241,15.1a1.433,1.433,0,0,1,.3-.574c.5-.377.483-.125.728-.226a.02.02,0,0,1,.018.035c-.012.01-.027.266-.046.324a.4.4,0,0,1-.159.263.717.717,0,0,1-.514.111c-.064.022-.122.043-.137.1C30.4,15.245,30.21,15.217,30.241,15.1Z" transform="translate(-30.238 -14.294)" fill="#312e4b"/>
            </g>
            <g id="Grupo_1068286" data-name="Grupo 1068286" transform="translate(0.424 0.535)">
              <path id="Trazado_811458" data-name="Trazado 811458" d="M30.622,14.814a.037.037,0,1,0-.005-.074C30.6,14.743,30.571,14.819,30.622,14.814Z" transform="translate(-30.592 -14.74)" fill="#fff"/>
            </g>
            <g id="Grupo_1068287" data-name="Grupo 1068287" transform="translate(0.349 0.317)">
              <path id="Trazado_811459" data-name="Trazado 811459" d="M30.587,14.7a.072.072,0,1,0-.011-.143C30.535,14.564,30.489,14.713,30.587,14.7Z" transform="translate(-30.529 -14.559)" fill="#fff"/>
            </g>
          </g>
          <g id="Grupo_1068292" data-name="Grupo 1068292">
            <g id="Grupo_1068289" data-name="Grupo 1068289">
              <path id="Trazado_811460" data-name="Trazado 811460" d="M28.542,15.1a1.5,1.5,0,0,0-.121-.313.777.777,0,0,0-.174-.261c-.5-.377-.483-.125-.728-.226a.02.02,0,0,0-.018.035c.012.01.027.266.046.324a.4.4,0,0,0,.159.263.717.717,0,0,0,.514.111c.064.022.122.043.137.1C28.388,15.245,28.574,15.217,28.542,15.1Z" transform="translate(-27.493 -14.294)" fill="#312e4b"/>
            </g>
            <g id="Grupo_1068290" data-name="Grupo 1068290" transform="translate(0.563 0.535)">
              <path id="Trazado_811461" data-name="Trazado 811461" d="M28,14.814A.037.037,0,1,1,28,14.741C28.025,14.743,28.049,14.819,28,14.814Z" transform="translate(-27.963 -14.74)" fill="#fff"/>
            </g>
            <g id="Grupo_1068291" data-name="Grupo 1068291" transform="translate(0.577 0.317)">
              <path id="Trazado_811462" data-name="Trazado 811462" d="M28.043,14.7a.072.072,0,1,1,.011-.143C28.1,14.564,28.141,14.713,28.043,14.7Z" transform="translate(-27.974 -14.559)" fill="#fff"/>
            </g>
          </g>
        </g>
        <g id="Grupo_1068296" data-name="Grupo 1068296" transform="translate(3.658 4.472)">
          <g id="Grupo_1068294" data-name="Grupo 1068294" transform="translate(1.822)">
            <path id="Trazado_811463" data-name="Trazado 811463" d="M29.761,14.071c.053,1.171-.06,2.5.749,2.764C29.518,16.788,29.533,15,29.761,14.071Z" transform="translate(-29.634 -14.071)" fill="#c6c6f7"/>
          </g>
          <g id="Grupo_1068295" data-name="Grupo 1068295">
            <path id="Trazado_811464" data-name="Trazado 811464" d="M28.863,14.071c.228.928.242,2.716-.749,2.764C28.9,16.582,28.8,15.435,28.863,14.071Z" transform="translate(-28.114 -14.071)" fill="#c6c6f7"/>
          </g>
        </g>
      </g>
      <g id="Grupo_1068328" data-name="Grupo 1068328" transform="translate(2.5 19.068)">
        <g id="Grupo_1068298" data-name="Grupo 1068298" transform="translate(0.779)">
          <path id="Trazado_811465" data-name="Trazado 811465" d="M58.686,29.14v8.916H3.15V35.48a1.644,1.644,0,0,1,1.642-1.642h.635V32A2.874,2.874,0,0,1,8.3,29.14h2.625c1.044,0,1.235-1.108,1.354-1.282A17.374,17.374,0,0,1,28.126,17.623h1.69a1.258,1.258,0,0,1,1.258,1.258V29.14Z" transform="translate(-3.15 -17.623)" fill="#65b9ff"/>
        </g>
        <g id="Grupo_1068299" data-name="Grupo 1068299" transform="translate(0.781 18.833)">
          <path id="Trazado_811466" data-name="Trazado 811466" d="M3.152,33.338H58.688v1.606H3.152Z" transform="translate(-3.152 -33.338)" fill="#3e7fff"/>
        </g>
        <g id="Grupo_1068300" data-name="Grupo 1068300" transform="translate(13.15 2.049)">
          <path id="Trazado_811467" data-name="Trazado 811467" d="M26.976,19.932V26.14a.593.593,0,0,1-.6.6H14.069a.6.6,0,0,1-.479-.959,15.349,15.349,0,0,1,12.488-6.448h.3a.593.593,0,0,1,.6.6Z" transform="translate(-13.473 -19.333)" fill="#e4e3ff"/>
        </g>
        <g id="Grupo_1068301" data-name="Grupo 1068301" transform="translate(0 20.434)">
          <path id="Trazado_811468" data-name="Trazado 811468" d="M60.025,35.117v2.457a.442.442,0,0,1-.443.443H2.955a.445.445,0,0,1-.455-.443V35.117a.445.445,0,0,1,.455-.443H59.582A.442.442,0,0,1,60.025,35.117Z" transform="translate(-2.5 -34.673)" fill="#5b5e8b"/>
        </g>
        <g id="Grupo_1068302" data-name="Grupo 1068302" transform="translate(3.857 17.101)">
          <path id="Trazado_811469" data-name="Trazado 811469" d="M19.8,38.569H5.718a6.4,6.4,0,0,1,.443-2.145,7.06,7.06,0,0,1,13.183,0A6.717,6.717,0,0,1,19.8,38.569Z" transform="translate(-5.718 -31.893)" fill="#deddff"/>
        </g>
        <g id="Grupo_1068303" data-name="Grupo 1068303" transform="translate(3.056 13.471)">
          <path id="Trazado_811470" data-name="Trazado 811470" d="M7.171,30.241A1.371,1.371,0,0,1,5.793,31.62l-.743-.012V29.774a2.552,2.552,0,0,1,.156-.911h.587a1.371,1.371,0,0,1,1.378,1.378Z" transform="translate(-5.05 -28.863)" fill="#fcb73e"/>
        </g>
        <g id="Grupo_1068304" data-name="Grupo 1068304" transform="translate(54.555 16.575)">
          <path id="Trazado_811471" data-name="Trazado 811471" d="M49.781,31.453v2.888H48.559a.539.539,0,0,1-.537-.537V31.991a.539.539,0,0,1,.537-.537h1.222Z" transform="translate(-48.022 -31.453)" fill="#e83d62"/>
        </g>
        <g id="Grupo_1068311" data-name="Grupo 1068311" transform="translate(5.177 18.288)">
          <g id="Grupo_1068310" data-name="Grupo 1068310">
            <g id="Grupo_1068309" data-name="Grupo 1068309">
              <g id="Grupo_1068305" data-name="Grupo 1068305">
                <path id="Trazado_811472" data-name="Trazado 811472" d="M18.538,38.737a5.62,5.62,0,0,1-.138,1.254,5.844,5.844,0,1,1,.138-1.254Z" transform="translate(-6.82 -32.883)" fill="#5b5e8b"/>
              </g>
              <g id="Grupo_1068306" data-name="Grupo 1068306" transform="translate(0.002 0.941)">
                <path id="Trazado_811473" data-name="Trazado 811473" d="M17.572,41.793a5.855,5.855,0,1,1-8.078-8.125,5.748,5.748,0,0,0-.959,3.2,5.376,5.376,0,0,0,.144,1.246,5.852,5.852,0,0,0,8.893,3.679Z" transform="translate(-6.822 -33.668)" fill="#312e4b"/>
              </g>
              <g id="Grupo_1068307" data-name="Grupo 1068307" transform="translate(3.034 3.216)">
                <path id="Trazado_811474" data-name="Trazado 811474" d="M12.034,40.939a2.686,2.686,0,1,1,2.691-2.69A2.7,2.7,0,0,1,12.034,40.939Z" transform="translate(-9.351 -35.566)" fill="#deddff"/>
              </g>
              <g id="Grupo_1068308" data-name="Grupo 1068308" transform="translate(3.034 3.59)">
                <path id="Trazado_811475" data-name="Trazado 811475" d="M14.349,39.545a2.685,2.685,0,0,1-5-1.354,2.64,2.64,0,0,1,1.33-2.313,2.69,2.69,0,0,0,3.667,3.667Z" transform="translate(-9.352 -35.878)" fill="#c6c6f7"/>
              </g>
            </g>
          </g>
        </g>
        <g id="Grupo_1068319" data-name="Grupo 1068319" transform="translate(39.522 17.09)">
          <g id="Grupo_1068312" data-name="Grupo 1068312">
            <path id="Trazado_811476" data-name="Trazado 811476" d="M49.56,38.571H35.478a6.4,6.4,0,0,1,.443-2.145,7.054,7.054,0,0,1,13.183,0A6.717,6.717,0,0,1,49.56,38.571Z" transform="translate(-35.478 -31.883)" fill="#deddff"/>
          </g>
          <g id="Grupo_1068318" data-name="Grupo 1068318" transform="translate(1.174 1.198)">
            <g id="Grupo_1068317" data-name="Grupo 1068317">
              <g id="Grupo_1068313" data-name="Grupo 1068313">
                <path id="Trazado_811477" data-name="Trazado 811477" d="M48.176,38.737a5.62,5.62,0,0,1-.138,1.254,5.854,5.854,0,0,1-11.441,0,5.617,5.617,0,0,1-.138-1.254,5.859,5.859,0,0,1,11.718,0Z" transform="translate(-36.458 -32.883)" fill="#5b5e8b"/>
              </g>
              <g id="Grupo_1068314" data-name="Grupo 1068314" transform="translate(0.004 0.941)">
                <path id="Trazado_811478" data-name="Trazado 811478" d="M47.224,41.769a5.852,5.852,0,0,1-10.63-1.929,5.471,5.471,0,0,1-.132-1.258,5.866,5.866,0,0,1,2.673-4.914,5.748,5.748,0,0,0-.959,3.2,5.372,5.372,0,0,0,.144,1.246,5.845,5.845,0,0,0,5.7,4.614,5.748,5.748,0,0,0,3.2-.959Z" transform="translate(-36.462 -33.668)" fill="#312e4b"/>
              </g>
              <g id="Grupo_1068315" data-name="Grupo 1068315" transform="translate(3.034 3.216)">
                <path id="Trazado_811479" data-name="Trazado 811479" d="M41.672,40.939a2.686,2.686,0,1,1,2.691-2.69A2.7,2.7,0,0,1,41.672,40.939Z" transform="translate(-38.989 -35.566)" fill="#deddff"/>
              </g>
              <g id="Grupo_1068316" data-name="Grupo 1068316" transform="translate(3.036 3.59)">
                <path id="Trazado_811480" data-name="Trazado 811480" d="M43.989,39.545a2.683,2.683,0,0,1-5-1.354,2.639,2.639,0,0,1,1.33-2.313,2.692,2.692,0,0,0,3.667,3.667Z" transform="translate(-38.992 -35.878)" fill="#c6c6f7"/>
              </g>
            </g>
          </g>
        </g>
        <g id="Grupo_1068321" data-name="Grupo 1068321" transform="translate(22.662 10.609)">
          <g id="Grupo_1068320" data-name="Grupo 1068320">
            <path id="Trazado_811481" data-name="Trazado 811481" d="M25.4,27.238a.762.762,0,0,1-.763.763H22.172a.763.763,0,1,1,0-1.525h2.466A.762.762,0,0,1,25.4,27.238Z" transform="translate(-21.41 -26.476)" fill="#3e7fff"/>
          </g>
        </g>
        <g id="Grupo_1068327" data-name="Grupo 1068327" transform="translate(28.7 2.21)">
          <g id="Grupo_1068322" data-name="Grupo 1068322">
            <path id="Trazado_811482" data-name="Trazado 811482" d="M26.448,19.467H54.063v2.242H26.448Z" transform="translate(-26.448 -19.467)" fill="#ab604b"/>
          </g>
          <g id="Grupo_1068323" data-name="Grupo 1068323" transform="translate(0 4.648)">
            <path id="Trazado_811483" data-name="Trazado 811483" d="M26.448,23.345H54.063v2.242H26.448Z" transform="translate(-26.448 -23.345)" fill="#ab604b"/>
          </g>
          <g id="Grupo_1068324" data-name="Grupo 1068324" transform="translate(0)">
            <path id="Trazado_811484" data-name="Trazado 811484" d="M26.448,19.467H28.69v9.3H26.448Z" transform="translate(-26.448 -19.467)" fill="#c7754f"/>
          </g>
          <g id="Grupo_1068325" data-name="Grupo 1068325" transform="translate(12.687)">
            <path id="Trazado_811485" data-name="Trazado 811485" d="M37.034,19.467h2.242v9.3H37.034Z" transform="translate(-37.034 -19.467)" fill="#c7754f"/>
          </g>
          <g id="Grupo_1068326" data-name="Grupo 1068326" transform="translate(25.372)">
            <path id="Trazado_811486" data-name="Trazado 811486" d="M47.619,19.467h2.242v9.3H47.619Z" transform="translate(-47.619 -19.467)" fill="#c7754f"/>
          </g>
        </g>
      </g>
    </g>
  </g>
</svg>
