<svg xmlns="http://www.w3.org/2000/svg" width="224.049" height="214.314" viewBox="0 0 224.049 214.314">
  <g id="Grupo_1070365" data-name="Grupo 1070365" transform="translate(-268.257 -1429.801)">
    <g id="Grupo_1070263" data-name="Grupo 1070263" transform="translate(268.257 1429.801)">
      <circle id="Elipse_5783" data-name="Elipse 5783" cx="34.159" cy="34.159" r="34.159" transform="translate(0 7.487)" fill="#3b5620"/>
      <circle id="Elipse_5780" data-name="Elipse 5780" cx="107.157" cy="107.157" r="107.157" transform="translate(9.599)" fill="#fff" opacity="0.83"/>
      <g id="Grupo_1070246" data-name="Grupo 1070246" transform="translate(166.835 157.1)">
        <path id="Trazado_265723" data-name="Trazado 265723" d="M1090.628,102.5a1.9,1.9,0,1,1-1.905-1.9,1.906,1.906,0,0,1,1.905,1.9" transform="translate(-1086.817 -100.592)" fill="#3b5620"/>
        <path id="Trazado_265724" data-name="Trazado 265724" d="M1113.354,102.5a1.9,1.9,0,1,1-1.905-1.9,1.906,1.906,0,0,1,1.905,1.9" transform="translate(-1096.192 -100.592)" fill="#3b5620"/>
        <path id="Trazado_265725" data-name="Trazado 265725" d="M1136.08,102.5a1.9,1.9,0,1,1-1.905-1.9,1.906,1.906,0,0,1,1.905,1.9" transform="translate(-1105.568 -100.592)" fill="#3b5620"/>
        <path id="Trazado_265726" data-name="Trazado 265726" d="M1158.806,102.5a1.9,1.9,0,1,1-1.905-1.9,1.906,1.906,0,0,1,1.905,1.9" transform="translate(-1114.943 -100.592)" fill="#3b5620"/>
        <path id="Trazado_265727" data-name="Trazado 265727" d="M1181.532,102.5a1.9,1.9,0,1,1-1.905-1.9,1.906,1.906,0,0,1,1.905,1.9" transform="translate(-1124.318 -100.592)" fill="#3b5620"/>
        <path id="Trazado_265728" data-name="Trazado 265728" d="M1088.722,127.128a1.9,1.9,0,1,1,1.905-1.905,1.905,1.905,0,0,1-1.905,1.905" transform="translate(-1086.817 -109.967)" fill="#3b5620"/>
        <path id="Trazado_265729" data-name="Trazado 265729" d="M1088.722,149.854a1.9,1.9,0,1,1,1.905-1.905,1.905,1.905,0,0,1-1.905,1.905" transform="translate(-1086.817 -119.341)" fill="#3b5620"/>
        <path id="Trazado_265730" data-name="Trazado 265730" d="M1088.722,172.58a1.9,1.9,0,1,1,1.905-1.905,1.905,1.905,0,0,1-1.905,1.905" transform="translate(-1086.817 -128.717)" fill="#3b5620"/>
        <path id="Trazado_265731" data-name="Trazado 265731" d="M1088.722,195.306a1.9,1.9,0,1,1,1.905-1.9,1.9,1.9,0,0,1-1.905,1.9" transform="translate(-1086.817 -138.092)" fill="#3b5620"/>
        <path id="Trazado_265732" data-name="Trazado 265732" d="M1111.448,127.128a1.9,1.9,0,1,1,1.905-1.905,1.905,1.905,0,0,1-1.905,1.905" transform="translate(-1096.192 -109.967)" fill="#3b5620"/>
        <path id="Trazado_265733" data-name="Trazado 265733" d="M1111.448,149.854a1.9,1.9,0,1,1,1.905-1.905,1.905,1.905,0,0,1-1.905,1.905" transform="translate(-1096.192 -119.341)" fill="#3b5620"/>
        <path id="Trazado_265734" data-name="Trazado 265734" d="M1111.448,172.58a1.9,1.9,0,1,1,1.905-1.905,1.905,1.905,0,0,1-1.905,1.905" transform="translate(-1096.192 -128.717)" fill="#3b5620"/>
        <path id="Trazado_265735" data-name="Trazado 265735" d="M1111.448,195.306a1.9,1.9,0,1,1,1.905-1.9,1.9,1.9,0,0,1-1.905,1.9" transform="translate(-1096.192 -138.092)" fill="#3b5620"/>
        <path id="Trazado_265736" data-name="Trazado 265736" d="M1134.174,127.128a1.9,1.9,0,1,1,1.905-1.905,1.905,1.905,0,0,1-1.905,1.905" transform="translate(-1105.567 -109.967)" fill="#3b5620"/>
        <path id="Trazado_265737" data-name="Trazado 265737" d="M1134.174,149.854a1.9,1.9,0,1,1,1.905-1.905,1.905,1.905,0,0,1-1.905,1.905" transform="translate(-1105.567 -119.341)" fill="#3b5620"/>
        <path id="Trazado_265738" data-name="Trazado 265738" d="M1134.174,172.58a1.9,1.9,0,1,1,1.905-1.905,1.905,1.905,0,0,1-1.905,1.905" transform="translate(-1105.567 -128.717)" fill="#3b5620"/>
        <path id="Trazado_265739" data-name="Trazado 265739" d="M1134.174,195.306a1.9,1.9,0,1,1,1.905-1.9,1.9,1.9,0,0,1-1.905,1.9" transform="translate(-1105.567 -138.092)" fill="#3b5620"/>
        <path id="Trazado_265740" data-name="Trazado 265740" d="M1156.9,127.128a1.9,1.9,0,1,1,1.905-1.905,1.905,1.905,0,0,1-1.905,1.905" transform="translate(-1114.942 -109.967)" fill="#3b5620"/>
        <path id="Trazado_265741" data-name="Trazado 265741" d="M1156.9,149.854a1.9,1.9,0,1,1,1.905-1.905,1.905,1.905,0,0,1-1.905,1.905" transform="translate(-1114.942 -119.341)" fill="#3b5620"/>
        <path id="Trazado_265742" data-name="Trazado 265742" d="M1156.9,172.58a1.9,1.9,0,1,1,1.905-1.905,1.905,1.905,0,0,1-1.905,1.905" transform="translate(-1114.942 -128.717)" fill="#3b5620"/>
        <path id="Trazado_265743" data-name="Trazado 265743" d="M1156.9,195.306a1.9,1.9,0,1,1,1.905-1.9,1.9,1.9,0,0,1-1.905,1.9" transform="translate(-1114.942 -138.092)" fill="#3b5620"/>
        <path id="Trazado_265744" data-name="Trazado 265744" d="M1179.626,127.128a1.9,1.9,0,1,1,1.905-1.905,1.905,1.905,0,0,1-1.905,1.905" transform="translate(-1124.318 -109.967)" fill="#3b5620"/>
        <path id="Trazado_265745" data-name="Trazado 265745" d="M1179.626,149.854a1.9,1.9,0,1,1,1.905-1.905,1.905,1.905,0,0,1-1.905,1.905" transform="translate(-1124.318 -119.341)" fill="#3b5620"/>
        <path id="Trazado_265746" data-name="Trazado 265746" d="M1179.626,172.58a1.9,1.9,0,1,1,1.905-1.905,1.905,1.905,0,0,1-1.905,1.905" transform="translate(-1124.318 -128.717)" fill="#3b5620"/>
        <path id="Trazado_265747" data-name="Trazado 265747" d="M1179.626,195.306a1.9,1.9,0,1,1,1.905-1.9,1.9,1.9,0,0,1-1.905,1.9" transform="translate(-1124.318 -138.092)" fill="#3b5620"/>
      </g>
    </g>
    <g id="_052---Death-Zone" data-name="052---Death-Zone" transform="translate(305.257 1464.428)">
      <path id="Shape" d="M39.689,32.445,1.879,70.255a6.43,6.43,0,0,0,0,9.079L14.594,92.049,39.25,116.706l3.791,3.791,10.6,10.6,16.61,16.61a6.414,6.414,0,0,0,9.079,0L95.94,131.1l10.6-10.6,3.791-3.791,24.657-24.657L147.7,79.334a6.43,6.43,0,0,0,0-9.079l-37.81-37.81L94.031,16.584l-14.7-14.7a6.414,6.414,0,0,0-9.079,0l-14.7,14.7Z" transform="translate(-0.003 0)" fill="#e64c3c"/>
      <g id="Grupo_1068214" data-name="Grupo 1068214" transform="translate(74.788)">
        <path id="Shape-2" data-name="Shape" d="M101.912,59.469,89.2,72.184a9.027,9.027,0,0,0-15.862,7.789,6.706,6.706,0,0,0,.413,1.212L29,92.559V80.979a50.261,50.261,0,0,0,13.824-1.934c1.161-.438,2.3-.7,3.276-1.186a2.646,2.646,0,0,0,1.341-2.373,29.8,29.8,0,0,1,.671-7.093,6.311,6.311,0,0,1,5.829-5.236,26.731,26.731,0,0,0,4.539-.929A8.184,8.184,0,0,0,64,54.929a13.383,13.383,0,0,0-.464-6.216A21.634,21.634,0,0,1,63.3,35.921a53.249,53.249,0,0,0,2.244-11.555A29.688,29.688,0,0,0,64.1,12.58l37.81,37.81a6.43,6.43,0,0,1,0,9.079Z" transform="translate(-29 19.866)" fill="#c03a2b"/>
        <path id="Shape-3" data-name="Shape" d="M48.24,16.584c-1.135-.49-2.321-.9-3.508-1.29A51.2,51.2,0,0,0,29,12.9V0a6.322,6.322,0,0,1,4.539,1.883Z" transform="translate(-29 0)" fill="#c03a2b"/>
        <path id="Shape-4" data-name="Shape" d="M50.149,54.115l-16.61,16.61A6.322,6.322,0,0,1,29,72.607V48.75Z" transform="translate(-29 76.983)" fill="#c03a2b"/>
      </g>
      <path id="Shape-5" data-name="Shape" d="M85.736,47.891a21.634,21.634,0,0,0,.232,12.793,13.383,13.383,0,0,1,.464,6.216,8.184,8.184,0,0,1-5.519,7.3,26.734,26.734,0,0,1-4.539.928,6.311,6.311,0,0,0-5.829,5.236,29.8,29.8,0,0,0-.671,7.093,2.646,2.646,0,0,1-1.341,2.373c-.98.49-2.115.748-3.276,1.186-.309.077-.619.181-.928.258-1.7.438-3.43.8-5.158,1.083A51.061,51.061,0,0,1,43.7,92.33a44.726,44.726,0,0,1-5.158-1.083,3.772,3.772,0,0,1-.516-.129l-.413-.1c-1.161-.438-2.3-.7-3.276-1.186a2.646,2.646,0,0,1-1.341-2.373,29.8,29.8,0,0,0-.671-7.093,6.311,6.311,0,0,0-5.829-5.236,26.733,26.733,0,0,1-4.539-.928,8.184,8.184,0,0,1-5.519-7.3,13.383,13.383,0,0,1,.464-6.216,21.634,21.634,0,0,0,.232-12.793,53.249,53.249,0,0,1-2.244-11.555A29.688,29.688,0,0,1,16.332,24.55a24.455,24.455,0,0,1,5.6-8.975A30.364,30.364,0,0,1,32.193,8.688c1.135-.49,2.321-.9,3.508-1.29a52.8,52.8,0,0,1,31.465,0c1.186.387,2.373.8,3.508,1.29a30.364,30.364,0,0,1,10.265,6.886,24.455,24.455,0,0,1,5.6,8.975A29.689,29.689,0,0,1,87.98,36.337a53.25,53.25,0,0,1-2.244,11.555Z" transform="translate(23.355 7.896)" fill="#f5efca"/>
      <path id="Shape-6" data-name="Shape" d="M19.021,29.539a10.182,10.182,0,0,0,1.29,5.158,5.989,5.989,0,0,0,4.872,2.669A20.556,20.556,0,0,0,35.4,35.8a6.613,6.613,0,0,0,3.688-3.4,6.982,6.982,0,0,0-4.6-9.465,20.117,20.117,0,0,0-10.755-.387,6.582,6.582,0,0,0-4.71,6.987Z" transform="translate(29.976 34.741)" fill="#5f5346"/>
      <path id="Shape-7" data-name="Shape" d="M46.92,22.554a20.117,20.117,0,0,0-10.755.387,6.982,6.982,0,0,0-4.6,9.465,6.613,6.613,0,0,0,3.688,3.4,20.556,20.556,0,0,0,10.216,1.566A5.989,5.989,0,0,0,50.329,34.7a10.182,10.182,0,0,0,1.29-5.158,6.582,6.582,0,0,0-4.7-6.987Z" transform="translate(48.961 34.744)" fill="#5f5346"/>
      <path id="Shape-8" data-name="Shape" d="M33.718,38.227a5.14,5.14,0,0,1-3.647-1.509l-3.335-3.335a2.579,2.579,0,0,1,3.647-3.647l3.335,3.335,3.335-3.335A2.579,2.579,0,0,1,40.7,33.383l-3.335,3.335a5.14,5.14,0,0,1-3.647,1.509Z" transform="translate(41.07 45.815)" fill="#5f5346"/>
      <path id="Shape-9" data-name="Shape" d="M29.158,38.579v4.8A44.723,44.723,0,0,1,24,42.293V38.579a2.579,2.579,0,1,1,5.158,0Z" transform="translate(37.893 56.849)" fill="#cbb292"/>
      <path id="Shape-10" data-name="Shape" d="M33.158,38.579v5.339a43.025,43.025,0,0,1-5.158,0V38.579a2.579,2.579,0,0,1,5.158,0Z" transform="translate(44.209 56.849)" fill="#cbb292"/>
      <path id="Shape-11" data-name="Shape" d="M37.158,38.579v3.74c-1.7.438-3.43.8-5.158,1.083V38.579a2.579,2.579,0,0,1,5.158,0Z" transform="translate(50.526 56.849)" fill="#cbb292"/>
      <path id="Shape-12" data-name="Shape" d="M135,73.563a8.934,8.934,0,0,1-6.164,6.4,9.027,9.027,0,1,1-15.14,4.152,6.343,6.343,0,0,1,.413-1.238l-23.6-6.009L69.359,71.5,43.207,64.846h-.026l-9.362-2.373-12.38-3.147a7.245,7.245,0,0,1-.232,1.264A9.02,9.02,0,1,1,9.884,49.732a9.027,9.027,0,0,1-2.347-8.589,8.723,8.723,0,0,1,1.625-3.327,9.027,9.027,0,0,1,15.862,7.789,6.706,6.706,0,0,1-.413,1.212L69.333,58.192h.026l26.127,6.654h.026l5.6,1.419,16.171,4.127a7.529,7.529,0,0,1,.232-1.29,9.048,9.048,0,0,1,10.961-6.525,8.769,8.769,0,0,1,4.049,2.3A8.947,8.947,0,0,1,135,73.563Z" transform="translate(5.429 54.233)" fill="#f9eab0"/>
      <path id="Shape-13" data-name="Shape" d="M48.528,45.25l-3.791,3.791-5.6-1.419Z" transform="translate(61.801 71.456)" fill="#c03a2b"/>
      <path id="Shape-14" data-name="Shape" d="M92.163,64.872a8.769,8.769,0,0,0-4.049-2.3,9.027,9.027,0,0,0-8.485,2.27,9.05,9.05,0,0,1-2.476-4.256,7.245,7.245,0,0,1-.232-1.264l-12.38,3.147-9.388,2.373h-.026L29,58.192,73.748,46.818a6.705,6.705,0,0,1-.413-1.212A9.027,9.027,0,0,1,89.2,37.816a8.723,8.723,0,0,1,1.625,3.327,9.027,9.027,0,0,1-2.347,8.589,9.027,9.027,0,0,1,3.688,15.14Z" transform="translate(45.788 54.233)" fill="#cbb292"/>
      <path id="Shape-15" data-name="Shape" d="M48.21,58.189,24.611,64.2a6.342,6.342,0,0,1,.413,1.238,9.027,9.027,0,1,1-15.14-4.152A8.983,8.983,0,0,1,6.2,46.2,9.027,9.027,0,0,0,18.73,46.17a9.05,9.05,0,0,1,2.476,4.256,7.529,7.529,0,0,1,.232,1.29L37.61,47.589l5.571-1.419h.026l26.152,6.654Z" transform="translate(5.429 72.909)" fill="#cbb292"/>
      <path id="Shape-16" data-name="Shape" d="M20.385,30.478h-.07a2.579,2.579,0,0,1-2.51-2.646,17.394,17.394,0,0,1,4.939-12.346A24.541,24.541,0,0,1,33.283,9.314c.91-.289,1.829-.552,2.755-.774a2.579,2.579,0,1,1,1.235,5.009q-1.22.3-2.422.683a19.6,19.6,0,0,0-8.4,4.841,12.38,12.38,0,0,0-3.492,8.9,2.579,2.579,0,0,1-2.577,2.507Z" transform="translate(28.109 13.367)" fill="#fff"/>
      <path id="Shape-17" data-name="Shape" d="M11.689,44.621a2.579,2.579,0,0,1-1.823-.756L4.225,38.224a2.579,2.579,0,0,1,0-3.647l9.509-9.509a2.58,2.58,0,1,1,3.647,3.649L9.7,36.4l3.817,3.815a2.579,2.579,0,0,1-1.823,4.405Z" transform="translate(5.473 38.394)" fill="#fff"/>
      <path id="Shape-18" data-name="Shape" d="M55.291,44.621a2.579,2.579,0,0,1-1.823-4.405L57.285,36.4,49.6,28.718a2.58,2.58,0,0,1,3.647-3.649l9.509,9.509a2.579,2.579,0,0,1,0,3.647l-5.641,5.641a2.579,2.579,0,0,1-1.823.756Z" transform="translate(77.123 38.394)" fill="#fff"/>
    </g>
  </g>
</svg>
