<svg xmlns="http://www.w3.org/2000/svg" width="224.049" height="214.314" viewBox="0 0 224.049 214.314">
  <g id="Grupo_1070366" data-name="Grupo 1070366" transform="translate(-689.257 -1429.801)">
    <g id="Grupo_1070351" data-name="Grupo 1070351" transform="translate(689.257 1429.801)">
      <circle id="Elipse_5783" data-name="Elipse 5783" cx="34.159" cy="34.159" r="34.159" transform="translate(0 7.487)" fill="#3b5620"/>
      <circle id="Elipse_5780" data-name="Elipse 5780" cx="107.157" cy="107.157" r="107.157" transform="translate(9.599)" fill="#fff" opacity="0.83"/>
      <g id="Grupo_1070246" data-name="Grupo 1070246" transform="translate(166.835 157.1)">
        <path id="Trazado_265723" data-name="Trazado 265723" d="M1090.628,102.5a1.9,1.9,0,1,1-1.905-1.9,1.906,1.906,0,0,1,1.905,1.9" transform="translate(-1086.817 -100.592)" fill="#3b5620"/>
        <path id="Trazado_265724" data-name="Trazado 265724" d="M1113.354,102.5a1.9,1.9,0,1,1-1.905-1.9,1.906,1.906,0,0,1,1.905,1.9" transform="translate(-1096.192 -100.592)" fill="#3b5620"/>
        <path id="Trazado_265725" data-name="Trazado 265725" d="M1136.08,102.5a1.9,1.9,0,1,1-1.905-1.9,1.906,1.906,0,0,1,1.905,1.9" transform="translate(-1105.568 -100.592)" fill="#3b5620"/>
        <path id="Trazado_265726" data-name="Trazado 265726" d="M1158.806,102.5a1.9,1.9,0,1,1-1.905-1.9,1.906,1.906,0,0,1,1.905,1.9" transform="translate(-1114.943 -100.592)" fill="#3b5620"/>
        <path id="Trazado_265727" data-name="Trazado 265727" d="M1181.532,102.5a1.9,1.9,0,1,1-1.905-1.9,1.906,1.906,0,0,1,1.905,1.9" transform="translate(-1124.318 -100.592)" fill="#3b5620"/>
        <path id="Trazado_265728" data-name="Trazado 265728" d="M1088.722,127.128a1.9,1.9,0,1,1,1.905-1.905,1.905,1.905,0,0,1-1.905,1.905" transform="translate(-1086.817 -109.967)" fill="#3b5620"/>
        <path id="Trazado_265729" data-name="Trazado 265729" d="M1088.722,149.854a1.9,1.9,0,1,1,1.905-1.905,1.905,1.905,0,0,1-1.905,1.905" transform="translate(-1086.817 -119.341)" fill="#3b5620"/>
        <path id="Trazado_265730" data-name="Trazado 265730" d="M1088.722,172.58a1.9,1.9,0,1,1,1.905-1.905,1.905,1.905,0,0,1-1.905,1.905" transform="translate(-1086.817 -128.717)" fill="#3b5620"/>
        <path id="Trazado_265731" data-name="Trazado 265731" d="M1088.722,195.306a1.9,1.9,0,1,1,1.905-1.9,1.9,1.9,0,0,1-1.905,1.9" transform="translate(-1086.817 -138.092)" fill="#3b5620"/>
        <path id="Trazado_265732" data-name="Trazado 265732" d="M1111.448,127.128a1.9,1.9,0,1,1,1.905-1.905,1.905,1.905,0,0,1-1.905,1.905" transform="translate(-1096.192 -109.967)" fill="#3b5620"/>
        <path id="Trazado_265733" data-name="Trazado 265733" d="M1111.448,149.854a1.9,1.9,0,1,1,1.905-1.905,1.905,1.905,0,0,1-1.905,1.905" transform="translate(-1096.192 -119.341)" fill="#3b5620"/>
        <path id="Trazado_265734" data-name="Trazado 265734" d="M1111.448,172.58a1.9,1.9,0,1,1,1.905-1.905,1.905,1.905,0,0,1-1.905,1.905" transform="translate(-1096.192 -128.717)" fill="#3b5620"/>
        <path id="Trazado_265735" data-name="Trazado 265735" d="M1111.448,195.306a1.9,1.9,0,1,1,1.905-1.9,1.9,1.9,0,0,1-1.905,1.9" transform="translate(-1096.192 -138.092)" fill="#3b5620"/>
        <path id="Trazado_265736" data-name="Trazado 265736" d="M1134.174,127.128a1.9,1.9,0,1,1,1.905-1.905,1.905,1.905,0,0,1-1.905,1.905" transform="translate(-1105.567 -109.967)" fill="#3b5620"/>
        <path id="Trazado_265737" data-name="Trazado 265737" d="M1134.174,149.854a1.9,1.9,0,1,1,1.905-1.905,1.905,1.905,0,0,1-1.905,1.905" transform="translate(-1105.567 -119.341)" fill="#3b5620"/>
        <path id="Trazado_265738" data-name="Trazado 265738" d="M1134.174,172.58a1.9,1.9,0,1,1,1.905-1.905,1.905,1.905,0,0,1-1.905,1.905" transform="translate(-1105.567 -128.717)" fill="#3b5620"/>
        <path id="Trazado_265739" data-name="Trazado 265739" d="M1134.174,195.306a1.9,1.9,0,1,1,1.905-1.9,1.9,1.9,0,0,1-1.905,1.9" transform="translate(-1105.567 -138.092)" fill="#3b5620"/>
        <path id="Trazado_265740" data-name="Trazado 265740" d="M1156.9,127.128a1.9,1.9,0,1,1,1.905-1.905,1.905,1.905,0,0,1-1.905,1.905" transform="translate(-1114.942 -109.967)" fill="#3b5620"/>
        <path id="Trazado_265741" data-name="Trazado 265741" d="M1156.9,149.854a1.9,1.9,0,1,1,1.905-1.905,1.905,1.905,0,0,1-1.905,1.905" transform="translate(-1114.942 -119.341)" fill="#3b5620"/>
        <path id="Trazado_265742" data-name="Trazado 265742" d="M1156.9,172.58a1.9,1.9,0,1,1,1.905-1.905,1.905,1.905,0,0,1-1.905,1.905" transform="translate(-1114.942 -128.717)" fill="#3b5620"/>
        <path id="Trazado_265743" data-name="Trazado 265743" d="M1156.9,195.306a1.9,1.9,0,1,1,1.905-1.9,1.9,1.9,0,0,1-1.905,1.9" transform="translate(-1114.942 -138.092)" fill="#3b5620"/>
        <path id="Trazado_265744" data-name="Trazado 265744" d="M1179.626,127.128a1.9,1.9,0,1,1,1.905-1.905,1.905,1.905,0,0,1-1.905,1.905" transform="translate(-1124.318 -109.967)" fill="#3b5620"/>
        <path id="Trazado_265745" data-name="Trazado 265745" d="M1179.626,149.854a1.9,1.9,0,1,1,1.905-1.905,1.905,1.905,0,0,1-1.905,1.905" transform="translate(-1124.318 -119.341)" fill="#3b5620"/>
        <path id="Trazado_265746" data-name="Trazado 265746" d="M1179.626,172.58a1.9,1.9,0,1,1,1.905-1.905,1.905,1.905,0,0,1-1.905,1.905" transform="translate(-1124.318 -128.717)" fill="#3b5620"/>
        <path id="Trazado_265747" data-name="Trazado 265747" d="M1179.626,195.306a1.9,1.9,0,1,1,1.905-1.9,1.9,1.9,0,0,1-1.905,1.9" transform="translate(-1124.318 -138.092)" fill="#3b5620"/>
      </g>
    </g>
    <g id="Layer_x0020_1" transform="translate(880.555 1611.344) rotate(180)">
      <g id="_252842912" transform="translate(0 0)">
        <path id="_252843632" d="M135.378,0H22.856A22.592,22.592,0,0,0,3.133,11.433a22.716,22.716,0,0,0-.056,22.93c1.771,3.068,4.767,8.468,8.56,15.305,22.915,41.3,48.034,85.758,56.07,90.455a23.324,23.324,0,0,0,11.611,3.049,21.368,21.368,0,0,0,11.431-3.132c8.037-4.775,33.079-49.131,55.916-90.331,3.805-6.865,6.811-12.288,8.578-15.347a22.788,22.788,0,0,0,3.054-11.42A23.026,23.026,0,0,0,135.388,0h-.011Z" fill="#57555c" fill-rule="evenodd"/>
        <path id="_252843416" d="M127.329,0H14.8A14.634,14.634,0,0,0,2.042,7.437a14.732,14.732,0,0,0-.056,14.871c2.895,5.014,5.691,10.083,8.488,15.152q1.6,2.89,3.195,5.778Q22.49,59.12,31.481,74.908c6.337,11.063,12.775,22.081,19.59,32.858l.489.774q.74,1.17,1.486,2.337c1.812,2.83,3.661,5.66,5.628,8.385a33.5,33.5,0,0,0,4.833,5.707,1.419,1.419,0,0,0,.525.359,15.312,15.312,0,0,0,7.18,1.74,14.047,14.047,0,0,0,7-1.748,1.422,1.422,0,0,0,.459-.323,33.509,33.509,0,0,0,4.817-5.705c1.964-2.727,3.811-5.557,5.623-8.387q.741-1.155,1.474-2.315l.527-.832c6.824-10.773,13.253-21.8,19.595-32.859q9.043-15.775,17.842-31.689,1.611-2.9,3.211-5.8c2.792-5.052,5.584-10.1,8.469-15.1a14.424,14.424,0,0,0,1.978-7.462,14.609,14.609,0,0,0-4.261-10.453A14.863,14.863,0,0,0,127.328,0Z" transform="translate(8.049 8.037)" fill="#47454a" fill-rule="evenodd"/>
        <path id="_252843320" d="M126.092,0H13.568A13.4,13.4,0,0,0,1.876,6.818a13.5,13.5,0,0,0-.056,13.635c2.891,5.007,5.742,10.174,8.5,15.172q1.6,2.891,3.193,5.775c5.218,9.4,11.414,20.5,17.8,31.657,6.091,10.636,12.676,21.971,19.562,32.812l.489.774c4.2,6.638,8.88,13.746,11.7,16.145a1.842,1.842,0,0,0,.314.215,13.985,13.985,0,0,0,6.592,1.591,12.824,12.824,0,0,0,6.385-1.583,1.9,1.9,0,0,0,.277-.2c2.807-2.386,7.474-9.489,11.669-16.125l.527-.832c6.879-10.84,13.47-22.176,19.566-32.812,6.428-11.213,12.623-22.3,17.834-31.675q1.607-2.893,3.209-5.8c2.753-4.981,5.6-10.132,8.481-15.124a13.168,13.168,0,0,0,1.813-6.852,13.37,13.37,0,0,0-3.9-9.574A13.623,13.623,0,0,0,126.092,0Z" transform="translate(9.286 9.274)" fill="#fedb41" fill-rule="evenodd"/>
        <g id="Grupo_1068215" data-name="Grupo 1068215" transform="translate(40.486 20.476)">
          <path id="_252843704" d="M27.874,0a1.853,1.853,0,0,0-1.466.72,6.566,6.566,0,0,1-5.225,2.562A6.566,6.566,0,0,1,15.96.72a1.854,1.854,0,0,0-3.049.17L.272,21.594A1.855,1.855,0,0,0,.737,24.04c5.033,3.8,12.486,5.982,20.446,5.982S36.6,27.841,41.629,24.04a1.853,1.853,0,0,0,.465-2.446L29.455.89A1.858,1.858,0,0,0,27.975,0c-.031,0-.066,0-.1,0Z" transform="translate(17.488 42.791)" fill="#57555c" fill-rule="evenodd"/>
          <path id="_252843560" d="M8.285,0a8.286,8.286,0,1,0,8.287,8.285A8.3,8.3,0,0,0,8.285,0Z" transform="translate(30.388 25.896)" fill="#57555c" fill-rule="evenodd"/>
          <path id="_252843872" d="M13.47,0a1.857,1.857,0,0,0-1.631.967L.227,22.265A1.854,1.854,0,0,0,1.6,24.991a6.565,6.565,0,0,1,4.832,3.242,6.572,6.572,0,0,1,.393,5.807A1.854,1.854,0,0,0,8.5,36.594l24.25.593H32.8a1.854,1.854,0,0,0,1.839-1.628C36.255,22.49,26.319,5.279,14.191.147A1.842,1.842,0,0,0,13.47,0Z" transform="translate(42.536)" fill="#57555c" fill-rule="evenodd"/>
          <path id="_252843944" d="M21.342,0a1.855,1.855,0,0,0-.722.147C8.491,5.281-1.445,22.491.173,35.56A1.854,1.854,0,0,0,2.06,37.187l24.25-.592a1.854,1.854,0,0,0,1.673-2.554,6.6,6.6,0,0,1,5.223-9.049,1.854,1.854,0,0,0,1.377-2.726L22.971.968A1.854,1.854,0,0,0,21.342,0Z" transform="translate(0 0)" fill="#57555c" fill-rule="evenodd"/>
        </g>
      </g>
    </g>
  </g>
</svg>
