<svg xmlns="http://www.w3.org/2000/svg" width="96" height="96" viewBox="0 0 96 96">
  <g id="Grupo_1070239" data-name="Grupo 1070239" transform="translate(-921.333 -418)">
    <g id="Grupo_1070349" data-name="Grupo 1070349">
      <g id="Grupo_246409" data-name="Grupo 246409" transform="translate(-430 123)">
        <circle id="Elipse_4282" data-name="Elipse 4282" cx="48" cy="48" r="48" transform="translate(1351.333 295)" fill="#fffad0"/>
      </g>
      <g id="Grupo_1070244" data-name="Grupo 1070244" transform="translate(930.656 431.369)">
        <g id="Grupo_1070348" data-name="Grupo 1070348" transform="translate(3.63 9.271)">
          <path id="Trazado_814734" data-name="Trazado 814734" d="M14.829,149.963a5.722,5.722,0,0,0-1.843,2.51c-.6,2.191,1.376,4.188,3.229,5.5,8.319,5.91,18.568,9.527,28.724,8.525A60.437,60.437,0,0,0,58.594,163.1q8.92-3.076,17.58-6.845a14.621,14.621,0,0,0,5.246-3.27c1.388-1.545,2.068-3.922,1.069-5.744-.9-1.64-2.827-2.38-4.613-2.939a97.8,97.8,0,0,0-51.72-1.753,12.575,12.575,0,0,0-5.481,2.487q-3.034,2.329-5.846,4.929" transform="translate(-12.875 -115.95)" fill="#fbb245"/>
          <path id="Trazado_814735" data-name="Trazado 814735" d="M18.449,150.171a2.768,2.768,0,0,0,.038,4.392A36.012,36.012,0,0,0,41.33,165.135c11.549.839,22.7-3.931,33.165-8.888a52.979,52.979,0,0,0,6.219-3.306,9.292,9.292,0,0,0,3.085-2.9,4.054,4.054,0,0,0,.189-4.066,5.844,5.844,0,0,0-3.034-2.1,45.59,45.59,0,0,0-5.3-1.724,85.4,85.4,0,0,0-14.636-2.084c-10.067-.806-20.358-1.368-30.123,1.213a23.076,23.076,0,0,0-12.45,8.895" transform="translate(-16.4 -115.564)" fill="#fcc246"/>
          <path id="Trazado_814736" data-name="Trazado 814736" d="M114.7,64.077a7.351,7.351,0,0,1-3,3.641c-3.209,2.226-7.157,3.066-11.008,3.7a149.3,149.3,0,0,1-20.451,1.96,27.57,27.57,0,0,1-7.413-.534,30.372,30.372,0,0,1-7.079-3.12A54.683,54.683,0,0,1,60.958,66.9a6.819,6.819,0,0,1-1.715-1.535,6.939,6.939,0,0,1-.855-4.7,29.66,29.66,0,0,1,4.68-13.591,28.958,28.958,0,0,1,2.155-2.9,29.66,29.66,0,0,1,12.086-8.535,17.463,17.463,0,0,1,6.647-1.092l9.335.209a28.7,28.7,0,0,1,4.068.284c5.627.934,9.893,5.788,12.786,10.416a32.358,32.358,0,0,1,1.624,2.928,31.223,31.223,0,0,1,3.2,12.841c0,.052,0,.1,0,.154a8.4,8.4,0,0,1-.276,2.705" transform="translate(-48.161 -34.166)" fill="#fbb245"/>
          <path id="Trazado_814737" data-name="Trazado 814737" d="M125.647,48.378a28.365,28.365,0,0,1-.511,4.6,21.9,21.9,0,0,1-9.429,13.373,31.352,31.352,0,0,1-15.837,4.9,28.81,28.81,0,0,1-12.218-1.8,18.519,18.519,0,0,1-9.324-7.882,16.746,16.746,0,0,1-1.971-6.321,20.95,20.95,0,0,1,.589-8.178,29.028,29.028,0,0,1,2.155-2.9,29.659,29.659,0,0,1,12.086-8.535,17.465,17.465,0,0,1,6.647-1.092l9.335.209a28.759,28.759,0,0,1,4.068.284c5.627.934,9.893,5.788,12.786,10.416a32.31,32.31,0,0,1,1.625,2.928" transform="translate(-62.04 -34.166)" fill="#facb48"/>
          <path id="Trazado_814738" data-name="Trazado 814738" d="M100.324,35.467a18.684,18.684,0,0,0-10.757.188,27.035,27.035,0,0,0-9.44,5.333,22.765,22.765,0,0,0-5.4,6.332A24.914,24.914,0,0,0,72.1,58.4c-.144,3.826.18,7.655.138,11.483a4.787,4.787,0,0,1-.456,2.377,3.211,3.211,0,0,1-2.995,1.406,4.622,4.622,0,0,1-2.164-.6c-1.724-1.024-3.538-1.97-5.2-3.091-1.379-.93-2.943-1.535-4.359-2.429-1.456-.92-1.039-2.7-.791-4.241,1.845-11.433,9.976-21.284,20.14-26.836a33.961,33.961,0,0,1,5.935-2.581,25.573,25.573,0,0,1,14.065-.028q.362.094.721.2a16.087,16.087,0,0,1,2.843,1.265,3.033,3.033,0,0,1,.349.15" transform="translate(-46.368 -32.882)" fill="#fbb245"/>
          <path id="Trazado_814739" data-name="Trazado 814739" d="M184.462,68.252c-.43,1.119-1.881.007-2.656-.131a11.958,11.958,0,0,0-3.7-.05A20.338,20.338,0,0,0,171.24,70.5a28.161,28.161,0,0,0-9.607,7.86,33.664,33.664,0,0,1-2.895,3.936,1.586,1.586,0,0,1-.752.5,1.713,1.713,0,0,1-.973-.177q-1.148-.455-2.276-.955c-.533-.236-1.6-.352-1.955-.856-.381-.543.012-1.64.274-2.391.047-.135.091-.259.124-.366,1.388-4.443,4.472-7.412,8.224-10.018a27.933,27.933,0,0,1,14.266-5.056,11.234,11.234,0,0,1,4.427.6,8.1,8.1,0,0,1,2.856,1.517,6.4,6.4,0,0,1,1.456,2.206,1.44,1.44,0,0,1,.054.948" transform="translate(-121.364 -56.231)" fill="#fbb245"/>
          <path id="Trazado_814740" data-name="Trazado 814740" d="M185.91,67.3a.619.619,0,0,1-.221.156,18.045,18.045,0,0,0-1.9-.84,17.345,17.345,0,0,0-1.884-.15c-5.156-.208-10.222,2.036-14.314,5.058a24.9,24.9,0,0,0-2.439,2.053A24.341,24.341,0,0,0,160,79.915a1.831,1.831,0,0,1-.605.818c-1.258.781-3.867-.722-4.6-1.719a1.428,1.428,0,0,1-.239-.6c.047-.134.091-.259.124-.366,1.388-4.443,4.472-7.412,8.224-10.018a27.935,27.935,0,0,1,14.266-5.057,11.234,11.234,0,0,1,4.427.6,8.1,8.1,0,0,1,2.856,1.517A6.4,6.4,0,0,1,185.91,67.3" transform="translate(-122.865 -56.231)" fill="#fbdc48"/>
          <path id="Trazado_814741" data-name="Trazado 814741" d="M96.411,33.855c-.185.019-.376.034-.574.042A25.879,25.879,0,0,0,79.3,40.62a27.1,27.1,0,0,0-7.91,11.139,40,40,0,0,0-1.734,7.671A47.18,47.18,0,0,0,69,67.176,31.655,31.655,0,0,1,68.947,73a4.252,4.252,0,0,1-.162.666,4.622,4.622,0,0,1-2.164-.6c-1.724-1.024-3.538-1.97-5.2-3.092-1.379-.929-2.943-1.535-4.359-2.429-1.456-.92-1.039-2.7-.791-4.241,1.845-11.433,9.976-21.284,20.14-26.836a33.968,33.968,0,0,1,5.935-2.581,25.573,25.573,0,0,1,14.065-.028" transform="translate(-46.368 -32.882)" fill="#fbdc48"/>
        </g>
      </g>
    </g>
  </g>
</svg>
