<svg xmlns="http://www.w3.org/2000/svg" width="80.502" height="73.983" viewBox="0 0 80.502 73.983">
  <g id="evento" transform="translate(0 -20.731)">
    <path id="Trazado_811165" data-name="Trazado 811165" d="M428.3,166.37l-11.93-55.112-3.582,59.749h11.771A3.827,3.827,0,0,0,428.3,166.37Z" transform="translate(-347.885 -76.293)" fill="#e2e2e2"/>
    <path id="Trazado_811166" data-name="Trazado 811166" d="M419.777,167.425V127l-3.409-15.747-3.582,59.749H416.2A3.592,3.592,0,0,0,419.777,167.425Z" transform="translate(-347.885 -76.293)" fill="#bababa"/>
    <path id="Trazado_811167" data-name="Trazado 811167" d="M65.065,88.479H3.582A3.592,3.592,0,0,0,0,92.061v56.167a3.592,3.592,0,0,0,3.582,3.582H65.065a3.592,3.592,0,0,0,3.582-3.582V92.061A3.592,3.592,0,0,0,65.065,88.479Z" transform="translate(0 -57.096)" fill="#efefef"/>
    <path id="Trazado_811168" data-name="Trazado 811168" d="M3.246,148.228V92.061a3.592,3.592,0,0,1,3.582-3.582H3.582A3.592,3.592,0,0,0,0,92.061v56.167a3.592,3.592,0,0,0,3.582,3.582H6.828A3.592,3.592,0,0,1,3.246,148.228Z" transform="translate(0 -57.096)" fill="#e2e2e2"/>
    <path id="Trazado_811169" data-name="Trazado 811169" d="M149.044,243.454l-4.32-5.509a15.53,15.53,0,1,0,4.32,5.509Z" transform="translate(-100.637 -180.141)" fill="#85c2ef"/>
    <path id="Trazado_811170" data-name="Trazado 811170" d="M122.659,250.12a15.55,15.55,0,0,1,13.91-15.462,15.547,15.547,0,1,0,.014,30.926A15.55,15.55,0,0,1,122.659,250.12Z" transform="translate(-100.638 -180.22)" fill="#69afeb"/>
    <path id="Trazado_811171" data-name="Trazado 811171" d="M174.254,267.8l-4.577-5.949a3.432,3.432,0,1,1,5.441-4.185l2,2.6,9.492-11.089a3.432,3.432,0,1,1,5.215,4.464l-12.242,14.3A3.434,3.434,0,0,1,174.254,267.8Z" transform="translate(-142.399 -191.517)" fill="#ffa92c"/>
    <path id="Trazado_811172" data-name="Trazado 811172" d="M191.566,253.924l-11.983,14a3.434,3.434,0,0,1-5.328-.139l-4.226-5.493a3.432,3.432,0,0,0-.351,4.576l4.577,5.949a3.433,3.433,0,0,0,5.328.139l12.242-14.3A3.43,3.43,0,0,0,191.566,253.924Z" transform="translate(-142.401 -196.528)" fill="#f2961d"/>
    <path id="Trazado_811173" data-name="Trazado 811173" d="M65.065,88.479H3.582A3.592,3.592,0,0,0,0,92.061v10.5H68.646v-10.5A3.592,3.592,0,0,0,65.065,88.479Z" transform="translate(0 -57.096)" fill="#ff4b4b"/>
    <path id="Trazado_811174" data-name="Trazado 811174" d="M6.83,88.479H3.582A3.592,3.592,0,0,0,0,92.061v10.5H3.248v-10.5A3.592,3.592,0,0,1,6.83,88.479Z" transform="translate(0 -57.096)" fill="#c83741"/>
    <g id="Grupo_1068165" data-name="Grupo 1068165" transform="translate(9.625 20.731)">
      <path id="Trazado_811175" data-name="Trazado 811175" d="M67.092,38.425H63.106a1.892,1.892,0,0,1-1.887-1.887V22.618a1.892,1.892,0,0,1,1.887-1.887h3.987a1.892,1.892,0,0,1,1.887,1.887V36.538A1.893,1.893,0,0,1,67.092,38.425Z" transform="translate(-61.219 -20.731)" fill="#ffcf65"/>
      <path id="Trazado_811176" data-name="Trazado 811176" d="M331.9,38.425h-3.987a1.892,1.892,0,0,1-1.887-1.887V22.618a1.892,1.892,0,0,1,1.887-1.887H331.9a1.892,1.892,0,0,1,1.887,1.887V36.538A1.892,1.892,0,0,1,331.9,38.425Z" transform="translate(-284.39 -20.731)" fill="#ffcf65"/>
      <path id="Trazado_811177" data-name="Trazado 811177" d="M199.5,38.425h-3.987a1.892,1.892,0,0,1-1.887-1.887V22.618a1.892,1.892,0,0,1,1.887-1.887H199.5a1.892,1.892,0,0,1,1.887,1.887V36.538A1.892,1.892,0,0,1,199.5,38.425Z" transform="translate(-172.804 -20.731)" fill="#ffcf65"/>
    </g>
    <g id="Grupo_1068166" data-name="Grupo 1068166" transform="translate(9.625 20.731)">
      <path id="Trazado_811178" data-name="Trazado 811178" d="M64.465,36.478v-13.8a1.953,1.953,0,0,1,1.948-1.948H63.167a1.954,1.954,0,0,0-1.948,1.948v13.8a1.953,1.953,0,0,0,1.948,1.948h3.246A1.954,1.954,0,0,1,64.465,36.478Z" transform="translate(-61.219 -20.731)" fill="#ffb450"/>
      <path id="Trazado_811179" data-name="Trazado 811179" d="M329.272,36.478v-13.8a1.953,1.953,0,0,1,1.948-1.948h-3.246a1.954,1.954,0,0,0-1.948,1.948v13.8a1.953,1.953,0,0,0,1.948,1.948h3.246A1.954,1.954,0,0,1,329.272,36.478Z" transform="translate(-284.39 -20.731)" fill="#ffb450"/>
      <path id="Trazado_811180" data-name="Trazado 811180" d="M196.868,36.478v-13.8a1.954,1.954,0,0,1,1.948-1.948H195.57a1.954,1.954,0,0,0-1.948,1.948v13.8a1.954,1.954,0,0,0,1.948,1.948h3.246A1.954,1.954,0,0,1,196.868,36.478Z" transform="translate(-172.804 -20.731)" fill="#ffb450"/>
    </g>
  </g>
</svg>
