<svg xmlns="http://www.w3.org/2000/svg" width="76.927" height="76.922" viewBox="0 0 76.927 76.922">
  <g id="Water_Cycle" data-name="Water Cycle" transform="translate(0.01 0.009)">
    <path id="Trazado_811186" data-name="Trazado 811186" d="M50.447,36.562a19.223,19.223,0,0,1-38.447,0c0-10.973,11.069-23.6,19.223-29.892C31.223,6.67,50.447,21.616,50.447,36.562Z" transform="translate(7.23 4.02)" fill="#8bd1ea"/>
    <path id="Trazado_811187" data-name="Trazado 811187" d="M48.641,36.562A19.063,19.063,0,0,1,45.2,47.536,19.223,19.223,0,0,1,15,31.756C15,22.946,22.5,12.02,29.418,6.67,29.418,6.67,48.641,21.616,48.641,36.562Z" transform="translate(9.035 4.02)" fill="#b2e5fb"/>
    <path id="Trazado_811188" data-name="Trazado 811188" d="M24.6,40.349a1.6,1.6,0,0,1,0-3.2A11.214,11.214,0,0,0,35.816,25.932a1.6,1.6,0,0,1,1.6-1.6C41.839,24.33,37.594,40.349,24.6,40.349Z" transform="translate(13.851 14.651)" fill="#edebf2"/>
    <g id="Grupo_1068170" data-name="Grupo 1068170" transform="translate(-0.01 -0.009)">
      <path id="Trazado_811189" data-name="Trazado 811189" d="M17.261,5.34a35.115,35.115,0,0,1,37.806,9.083h-6.52a1.6,1.6,0,1,0,0,3.2h9.612a1.6,1.6,0,0,0,1.6-1.6V6.413a1.6,1.6,0,1,0-3.2,0v4.918a38.319,38.319,0,0,0-40.385-9A1.6,1.6,0,0,0,17.261,5.34Z" transform="translate(9.14 0.009)" fill="#84b749"/>
      <path id="Trazado_811190" data-name="Trazado 811190" d="M3.21,36.641A35,35,0,0,1,17.628,8.222v5.991a1.6,1.6,0,1,0,3.2,0V4.6A1.6,1.6,0,0,0,19.23,3H9.618a1.6,1.6,0,0,0,0,3.2h5.367A38.335,38.335,0,0,0,2.329,49.793a1.6,1.6,0,0,0,2.05.961c2.851-1.041-1.169-3.7-1.169-14.113Z" transform="translate(0.01 1.82)" fill="#84b749"/>
      <path id="Trazado_811191" data-name="Trazado 811191" d="M47.5,49.287A35.115,35.115,0,0,1,9.694,40.2h6.52a1.6,1.6,0,1,0,0-3.2H6.6A1.6,1.6,0,0,0,5,38.6v9.612a1.6,1.6,0,0,0,3.2,0V43.3a38.319,38.319,0,0,0,40.385,9A1.6,1.6,0,0,0,47.5,49.287Z" transform="translate(3.027 22.286)" fill="#84b749"/>
      <path id="Trazado_811192" data-name="Trazado 811192" d="M46.214,59.776H40.847A38.335,38.335,0,0,0,53.5,16.187a1.6,1.6,0,0,0-2.05-.961c-2.851,1.041,1.169,3.7,1.169,14.113A35,35,0,0,1,38.2,57.758V51.766a1.6,1.6,0,0,0-3.2,0v9.612a1.6,1.6,0,0,0,1.6,1.6h9.612a1.6,1.6,0,0,0,0-3.2Z" transform="translate(21.085 9.122)" fill="#84b749"/>
    </g>
  </g>
</svg>
