<svg xmlns="http://www.w3.org/2000/svg" width="76.057" height="75.98" viewBox="0 0 76.057 75.98">
  <g id="ensenar" transform="translate(0 -0.257)">
    <g id="Grupo_1068190" data-name="Grupo 1068190" transform="translate(0 0.257)">
      <g id="Grupo_1068189" data-name="Grupo 1068189" transform="translate(0 0)">
        <path id="Trazado_811193" data-name="Trazado 811193" d="M201.4,47.715V16.809H161.053V47.715a1.7,1.7,0,0,0,1.7,1.7H199.7A1.7,1.7,0,0,0,201.4,47.715Z" transform="translate(-137.129 -14.35)" fill="#bed8fb"/>
        <path id="Trazado_811194" data-name="Trazado 811194" d="M414.712,16.809V47.715a1.7,1.7,0,0,1-1.7,1.7H423a1.7,1.7,0,0,0,1.7-1.7V16.809Z" transform="translate(-351.66 -14.35)" fill="#9dc6fb"/>
        <path id="Trazado_811195" data-name="Trazado 811195" d="M215.43,89.649h-6.851a1.427,1.427,0,0,1-1.427-1.427v-9.53a1.427,1.427,0,0,1,1.427-1.427h6.851a1.427,1.427,0,0,1,1.427,1.427v9.53A1.427,1.427,0,0,1,215.43,89.649Z" transform="translate(-176.38 -65.826)" fill="#fff"/>
        <path id="Trazado_811196" data-name="Trazado 811196" d="M60.221,147.311l-.036-.078a14.128,14.128,0,0,1-1.284-5.944l0-4.3a13.789,13.789,0,0,0-8.35-12.671,13.435,13.435,0,0,0-9.213,12.753l0,4.19a13.757,13.757,0,0,1-1.251,5.79l-.035.076a6.7,6.7,0,0,0,5.135,9.427,9.645,9.645,0,0,0,1.313.089H56.35A6.9,6.9,0,0,0,60.221,147.311Z" transform="translate(-33.58 -105.887)" fill="#89808c"/>
        <path id="Trazado_811197" data-name="Trazado 811197" d="M128.713,143.249l-.035-.076a13.761,13.761,0,0,1-1.251-5.789l0-4.19A13.435,13.435,0,0,0,109,120.723a13.433,13.433,0,0,1,8.437,12.47l0,4.19a13.759,13.759,0,0,0,1.251,5.789l.035.076a6.7,6.7,0,0,1-5.135,9.427,9.647,9.647,0,0,1-1.313.089h9.985a9.648,9.648,0,0,0,1.313-.089A6.7,6.7,0,0,0,128.713,143.249Z" transform="translate(-92.812 -102.011)" fill="#756e78"/>
        <g id="Grupo_1068188" data-name="Grupo 1068188">
          <path id="Trazado_811198" data-name="Trazado 811198" d="M186.8,3.3V1.807A1.549,1.549,0,0,0,185.25.258H142.313a1.549,1.549,0,0,0-1.549,1.549V3.3a1.549,1.549,0,0,0,1.549,1.549H185.25A1.549,1.549,0,0,0,186.8,3.3Z" transform="translate(-119.854 -0.258)" fill="#88a8d8"/>
          <path id="Trazado_811199" data-name="Trazado 811199" d="M444.306.257h-9.991a1.549,1.549,0,0,1,1.549,1.549V3.294a1.549,1.549,0,0,1-1.549,1.549h9.991a1.549,1.549,0,0,0,1.549-1.549V1.806A1.549,1.549,0,0,0,444.306.257Z" transform="translate(-369.798 -0.257)" fill="#7296d1"/>
          <g id="Grupo_1068175" data-name="Grupo 1068175" transform="translate(45.445 10.292)">
            <g id="Grupo_1068174" data-name="Grupo 1068174">
              <g id="Grupo_1068171" data-name="Grupo 1068171" transform="translate(0 0)">
                <path id="Trazado_811200" data-name="Trazado 811200" d="M327.037,71.839H307.079a1.147,1.147,0,1,1,0-2.294h19.958a1.147,1.147,0,1,1,0,2.294Z" transform="translate(-305.932 -69.545)" fill="#fff"/>
              </g>
              <g id="Grupo_1068172" data-name="Grupo 1068172" transform="translate(0 6.192)">
                <path id="Trazado_811201" data-name="Trazado 811201" d="M327.037,113.522H307.079a1.147,1.147,0,0,1,0-2.294h19.958a1.147,1.147,0,0,1,0,2.294Z" transform="translate(-305.932 -111.228)" fill="#fff"/>
              </g>
              <path id="Trazado_811202" data-name="Trazado 811202" d="M427.952,69.544h-3.5v2.294h3.5a1.147,1.147,0,0,0,0-2.294Z" transform="translate(-406.847 -69.544)" fill="#f7f4f7"/>
              <path id="Trazado_811203" data-name="Trazado 811203" d="M427.952,111.228h-3.5v2.294h3.5a1.147,1.147,0,0,0,0-2.294Z" transform="translate(-406.847 -105.036)" fill="#f7f4f7"/>
              <g id="Grupo_1068173" data-name="Grupo 1068173" transform="translate(0 12.384)">
                <path id="Trazado_811204" data-name="Trazado 811204" d="M314.021,155.2h-6.943a1.147,1.147,0,1,1,0-2.294h6.943a1.147,1.147,0,1,1,0,2.294Z" transform="translate(-305.931 -152.911)" fill="#fff"/>
              </g>
            </g>
          </g>
          <g id="Grupo_1068187" data-name="Grupo 1068187" transform="translate(0 26.234)">
            <path id="Trazado_811205" data-name="Trazado 811205" d="M23.385,344.552a2.253,2.253,0,0,0-.271-.1,16.961,16.961,0,0,1-8.1-1.053,4.205,4.205,0,0,1-1.46.583l-1.389.267A15,15,0,0,0,0,358.973v6.657A2.775,2.775,0,0,0,2.775,368.4H6.419a1.146,1.146,0,0,1,1.175-1.111A1.177,1.177,0,0,1,8.707,368.4h21.1a4.461,4.461,0,0,0,4.461-4.461v-4.97a15,15,0,0,0-10.883-14.42Z" transform="translate(0 -318.658)" fill="#ccf49f"/>
            <path id="Trazado_811206" data-name="Trazado 811206" d="M171.393,344.989l-3.517-.994a1.184,1.184,0,0,0-1.444.762l-2.078,6.19a14.979,14.979,0,0,0-9.832-6.7l-1.389-.267a4.2,4.2,0,0,1-1.46-.583A16.864,16.864,0,0,1,146,344.552a15,15,0,0,1,10.883,14.42v4.97a4.462,4.462,0,0,1-4.461,4.461h12.45a4.13,4.13,0,0,0,4.067-3.412l3.3-18.659A1.184,1.184,0,0,0,171.393,344.989Z" transform="translate(-124.314 -318.658)" fill="#b3e59f"/>
            <g id="Grupo_1068176" data-name="Grupo 1068176" transform="translate(15.595 15.605)">
              <path id="Trazado_811207" data-name="Trazado 811207" d="M115.816,290.239a3.976,3.976,0,0,1-.967-2.424q0-.094,0-.189v-5.717H106.3v5.717q0,.095,0,.189a3.975,3.975,0,0,1-.967,2.424,18.913,18.913,0,0,0-.1,6.633,13.944,13.944,0,0,0,10.688,0A18.9,18.9,0,0,0,115.816,290.239Z" transform="translate(-104.981 -281.908)" fill="#ffddce"/>
            </g>
            <g id="Grupo_1068184" data-name="Grupo 1068184" transform="translate(7.756 5.91)">
              <g id="Grupo_1068183" data-name="Grupo 1068183">
                <g id="Grupo_1068182" data-name="Grupo 1068182">
                  <g id="Grupo_1068180" data-name="Grupo 1068180" transform="translate(8.575 23.873)">
                    <g id="Grupo_1068179" data-name="Grupo 1068179">
                      <g id="Grupo_1068178" data-name="Grupo 1068178">
                        <g id="Grupo_1068177" data-name="Grupo 1068177">
                          <path id="Trazado_811208" data-name="Trazado 811208" d="M110.268,378.925c1.489,5.661,3.525,8.74,4.522,12,1-3.261,3.033-6.34,4.522-12,.137-.52.246-1.045.332-1.572a12.665,12.665,0,0,1-9.708,0C110.022,377.88,110.131,378.405,110.268,378.925Z" transform="translate(-109.936 -377.353)" fill="#fff"/>
                        </g>
                      </g>
                    </g>
                  </g>
                  <g id="Grupo_1068181" data-name="Grupo 1068181">
                    <path id="Trazado_811209" data-name="Trazado 811209" d="M196.587,216.643H194.3v4.374a9.261,9.261,0,0,1-.272,2.088h2.564a3.231,3.231,0,0,0,0-6.462Z" transform="translate(-172.957 -216.643)" fill="#ffddce"/>
                    <path id="Trazado_811210" data-name="Trazado 811210" d="M57.712,221.075v-3.769a2.068,2.068,0,0,1,.084-.579H55.424a3.212,3.212,0,1,0,0,6.424h2.559a9.224,9.224,0,0,1-.271-2.076Z" transform="translate(-52.212 -216.714)" fill="#ffddce"/>
                  </g>
                </g>
              </g>
            </g>
            <path id="Trazado_811211" data-name="Trazado 811211" d="M82.121,325.034l-4.673,2.329a1.432,1.432,0,0,0-.555,2.072l.85,1.285a1.432,1.432,0,0,1-.126,1.745l-.513.574a1.432,1.432,0,0,0-.312,1.342c1.162,4.139,9.66,12,9.66,12-1-3.261-3.033-6.34-4.522-12A17.178,17.178,0,0,1,82.121,325.034Z" transform="translate(-65.268 -303.023)" fill="#95d6a4"/>
            <path id="Trazado_811212" data-name="Trazado 811212" d="M146.944,325.034l4.673,2.329a1.432,1.432,0,0,1,.555,2.072l-.85,1.285a1.432,1.432,0,0,0,.126,1.745l.513.574a1.432,1.432,0,0,1,.312,1.342c-1.162,4.139-9.66,12-9.66,12,1-3.261,3.033-6.34,4.522-12A17.18,17.18,0,0,0,146.944,325.034Z" transform="translate(-121.428 -303.023)" fill="#95d6a4"/>
            <g id="Grupo_1068186" data-name="Grupo 1068186" transform="translate(46.102)">
              <g id="Grupo_1068185" data-name="Grupo 1068185">
                <path id="Trazado_811213" data-name="Trazado 811213" d="M311.5,199.433a1.148,1.148,0,0,1-1.073-1.553L318.1,177.6a1.147,1.147,0,0,1,2.145.812l-7.678,20.281a1.147,1.147,0,0,1-1.073.741Z" transform="translate(-310.348 -176.857)" fill="#c1a0a0"/>
              </g>
            </g>
            <path id="Trazado_811214" data-name="Trazado 811214" d="M45.493,470.02v-6.079a1.182,1.182,0,0,0-1.117-1.2,1.147,1.147,0,0,0-1.177,1.147v6.132Z" transform="translate(-36.782 -420.274)" fill="#b3e59f"/>
          </g>
        </g>
      </g>
      <path id="Trazado_811215" data-name="Trazado 811215" d="M89.862,197.247a9.163,9.163,0,0,0,6.014-2.24,6.9,6.9,0,0,0-.557-1.907l-.036-.078A14.128,14.128,0,0,1,94,187.079l0-4.3a13.758,13.758,0,0,0-.816-4.683,3.28,3.28,0,0,0-1.566.858,11.9,11.9,0,0,1-8.343,3.4q-.229,0-.456-.008a2.072,2.072,0,0,0-2.156,2.068v3.769A9.205,9.205,0,0,0,89.862,197.247Z" transform="translate(-68.677 -151.678)" fill="#ffece4"/>
      <path id="Trazado_811216" data-name="Trazado 811216" d="M167.051,182.678a2.064,2.064,0,0,0-.55-1.4,19.959,19.959,0,0,1-1.833-2.284,3.334,3.334,0,0,0-4.162-1.148,13.4,13.4,0,0,1,.786,4.537l0,4.19a13.759,13.759,0,0,0,1.251,5.789l.035.076a6.679,6.679,0,0,1,.606,2.625,9.194,9.194,0,0,0,3.865-7.357v-5.023Z" transform="translate(-136.663 -151.197)" fill="#ffddce"/>
    </g>
    <path id="Trazado_811217" data-name="Trazado 811217" d="M294.856,289.033l-.283-.276a1.75,1.75,0,0,0-2.418-.024l-2.036,1.908a2.793,2.793,0,0,0-.8,1.608,3.463,3.463,0,0,1-.141.643l-1.268,3.77a1.144,1.144,0,0,1,.634,0l3.417.966a1.147,1.147,0,0,1,.657.489l.181-1.025a4.6,4.6,0,0,1,1.285-2.461l.008-.008.836-.871A3.347,3.347,0,0,0,294.856,289.033Z" transform="translate(-245.146 -245.221)" fill="#ffece4"/>
  </g>
</svg>
