<svg xmlns="http://www.w3.org/2000/svg" width="349" height="251.19" viewBox="0 0 349 251.19">
  <g id="Group_91" data-name="Group 91" transform="translate(0 -0.998)">
    <path id="Trazado_811286" data-name="Trazado 811286" d="M333.942,265.938c-22.015,0-319.645-.642-319.645-.678-.123-.288-37.783-46.447,9.638-94.705,23.5-23.912-21.578-54.891,0-81.49,36.963-45.563,73.535-19.9,104-32.717a48.957,48.957,0,0,0,16.193-11.49,60.185,60.185,0,0,1,9.95-8.261q.822-.548,1.66-1.068a66.184,66.184,0,0,1,6.639-3.6q2.3-1.085,4.689-2.007a76.777,76.777,0,0,1,7.771-2.53,88.045,88.045,0,0,1,11.59-2.274q2.585-.337,5.213-.532c34.043-2.56,72.354,11.836,92.125,32.876,3.98,4.237,22.08,26.158,7.813,56.29-9.008,19.024,28.731,37.193,42.141,58.918,34.1,55.232.532,92.551.221,93.272Z" transform="translate(0 -14.304)" fill="#ecf2e4"/>
    <g id="Grupo_1068228" data-name="Grupo 1068228" transform="translate(172.959 65.148)" opacity="0.8">
      <path id="Trazado_811287" data-name="Trazado 811287" d="M532.209,225.324a43.528,43.528,0,0,1-3.32,7.086,43.287,43.287,0,0,1-80.533-18.928,42.448,42.448,0,0,1,.055-6.6,43.579,43.579,0,0,1,6.526-19.445c.018-.03.037-.058.055-.088a43.4,43.4,0,0,1,24.669-18.424c1.057-.3,2.129-.566,3.208-.786a43.045,43.045,0,0,1,23.456,1.731q1.551.564,3.032,1.233a42.972,42.972,0,0,1,17.54,14.481h0a43.472,43.472,0,0,1,6.922,15.706q.4,1.816.641,3.668a43.069,43.069,0,0,1-2.252,20.37Z" transform="translate(-448.253 -167.253)" fill="#d7e5ff"/>
      <path id="Trazado_811288" data-name="Trazado 811288" d="M494.977,188.723c-2.557,1.98-1.879,7.279-6.306,4.293s-7.205-4.611-8.459-2,2.668,4.033,1.636,6.874-3.133,3.14-5.347.808-2.28-4.577-5.866-4.5-5.118-1.4-4.942-4.094a3.8,3.8,0,0,0-.117-1.249c.018-.03.037-.058.055-.088A43.4,43.4,0,0,1,490.3,170.336c1.056-.3,2.129-.566,3.208-.786a5.69,5.69,0,0,1,3.3,3.607c1.562,4.55,4.094,3.479,1.943,7.291s-1.266,4.746,1.082,5.446,5.054,1.683,4.685,3.54S497.536,186.741,494.977,188.723Z" transform="translate(-458.891 -168.664)" fill="#647552"/>
      <path id="Trazado_811289" data-name="Trazado 811289" d="M617.286,279.789a43.527,43.527,0,0,1-3.32,7.086,43.033,43.033,0,0,1-12.091,13.269,4.939,4.939,0,0,1-3.221-1.27c-4.334-3.873,1.41-7.985,4.435-9.987s-2.591-2.665-5.422-6.565,3.8-9.185-.462-9.47-9.443-.562-10.31-5.125,3.614-3.625,2.83-7.47,2.922-4.565,6.887-3.467,4.454-1.826,9.368-.5,2.6,7.376,8.024,8.888,4.742,2.643,4.742,2.643a2.622,2.622,0,0,1,1.018.632,43.437,43.437,0,0,1-2.478,11.335Z" transform="translate(-533.331 -221.718)" fill="#647552"/>
      <path id="Trazado_811290" data-name="Trazado 811290" d="M636.377,232.42c-5.162.539-4.813-5.905-9.2-5.522-4.42.385-2.529-2.757-4.715-6s-9.566-1.486-8.067-4.77,5.618-.715,7.548-3.074,6.012-.112,6.012-.112a3.165,3.165,0,0,1,.853.107s0,0,0,0a43.458,43.458,0,0,1,6.921,15.706q.4,1.816.642,3.668Z" transform="translate(-550.169 -194.718)" fill="#647552"/>
      <path id="Trazado_811291" data-name="Trazado 811291" d="M570.985,187.876s3.5-2.481.209-4.788-3.695-1-6.424-2.335-4.646.457-3.387,3.632,1.307,8.409,4.127,6.654,3.124-3.75,5.476-3.163Z" transform="translate(-517.489 -175.269)" fill="#647552"/>
    </g>
    <path id="Trazado_811292" data-name="Trazado 811292" d="M61.333,622.46H76.426c.808-.687-.56-2.245-1.989-2.349a8.84,8.84,0,0,0-2.3.272c-.208-2.759-1.393-15.16-5.864-14.661-5.026.558,0,5.461,1.42,8.364a68.512,68.512,0,0,1,2.67,6.69c-.409.088-.83.175-1.263.254-.666-2.045-3.145-8.925-6.3-8.524-3.7.47-2.214,3.228.41,4.865,1.924,1.2,4.287,2.916,5.41,3.742a15.941,15.941,0,0,1-2.952.236c-2.585-.061-3.848.7-4.336,1.11Z" transform="translate(-37.206 -371.381)" fill="#bdc7af"/>
    <path id="Trazado_811293" data-name="Trazado 811293" d="M662.383,624.355H648.364c-.752-.637.52-2.084,1.848-2.182a8.231,8.231,0,0,1,2.139.253c.193-2.563,1.294-14.082,5.446-13.618,4.669.518,0,5.073-1.319,7.769A64.465,64.465,0,0,0,654,622.789c.379.082.771.162,1.172.236.62-1.9,2.92-8.291,5.849-7.918,3.438.437,2.056,3-.38,4.519-1.787,1.118-3.983,2.708-5.026,3.476a14.842,14.842,0,0,0,2.741.22,5.914,5.914,0,0,1,4.027,1.031Z" transform="translate(-398.054 -373.276)" fill="#bdc7af"/>
    <path id="Trazado_811294" data-name="Trazado 811294" d="M705.519,405.859s.334-3.319-1.4-3.2-2.2.909-2,1.548A18.1,18.1,0,0,0,704,406.951l1.521-1.091Z" transform="translate(-431.178 -246.674)" fill="#ffb27d"/>
    <path id="Trazado_811295" data-name="Trazado 811295" d="M734.687,416.785a28.29,28.29,0,0,1-6.052,4.862q-.586.372-1.231.747a45.941,45.941,0,0,1-5.66,2.785c-.239.1-.52.206-.837.321a40.845,40.845,0,0,1-9.854,2.276c-.245.01-.478.01-.7,0-4.3-.174-4.821-16.849-4.821-16.849s.479-1.669,2.686-1.248c0,0,3.353,9.419,4.553,10.187,1.067.682,7.2-8.615,12.48-9.266,3.554-.438,9.431,6.187,9.431,6.187Z" transform="translate(-433.304 -250.95)" fill="#d1dbc3"/>
    <path id="Trazado_811296" data-name="Trazado 811296" d="M734.631,636.7s.318,3.671-.459,4.053l-9.931-.021s0-1.147,1.6-1.4,4.4-1.188,4.871-3.268S734.631,636.7,734.631,636.7Z" transform="translate(-444.791 -389.543)" fill="#283a17"/>
    <path id="Trazado_811297" data-name="Trazado 811297" d="M732.224,505.512c.049,2.4.165,4.877.391,7.1,1.072,10.56,1.45,23.317,1.6,25.778.267,4.27,1.111,11.091,1.111,11.091s1.673,1.588,4.933.83a110.972,110.972,0,0,0,3.305-20.17c.009-.169.018-.34.027-.511.07-1.368.142-2.931.218-4.617.5-11.3,1.037-28.075,1.037-28.075l-12.463-2.926s-.287,5.514-.165,11.5Z" transform="translate(-449.675 -302.785)" fill="#354d1d"/>
    <path id="Trazado_811298" data-name="Trazado 811298" d="M732.224,505.507c3.158,5.449,9.178,15.488,11.591,19.5.5-11.295,1.037-28.074,1.037-28.074l-12.463-2.927S732.1,499.521,732.224,505.507Z" transform="translate(-449.675 -302.78)" fill="#2c3f19"/>
    <path id="Trazado_811299" data-name="Trazado 811299" d="M729.686,444.166a40.868,40.868,0,0,1-9.854,2.276c.433-.08,3.576-.7,4.737-2.107,1.248-1.509,3.35-5.607,5.023-3.934.787.788.555,2.343.094,3.766Z" transform="translate(-442.083 -269.616)" fill="#475d37"/>
    <path id="Trazado_811300" data-name="Trazado 811300" d="M795.2,518.914a19.274,19.274,0,0,1,.646,3.708,13.252,13.252,0,0,1-1.353,3.524c-.471.566-.49-2.462-.8-2.939s-.144,1.131-.4,1.263-.67-1.217-.856-1.695.668-2.142.749-3.335,2.011-.526,2.011-.526Z" transform="translate(-486.66 -317.963)" fill="#ffb27d"/>
    <path id="Trazado_811301" data-name="Trazado 811301" d="M805.093,626.931s1.768,1.613,1.423,2.758-1.94,1.91-2.156,3.311-1.077,2.165-1.854,2.165h-3.7s-.572-.987.808-1.284,1.9-1.943,1.814-3.471a26.954,26.954,0,0,1,.129-3.566l2.931-.679.6.764Z" transform="translate(-490.514 -383.945)" fill="#283a17"/>
    <path id="Trazado_811302" data-name="Trazado 811302" d="M737.789,496.217s11.666,24.96,17.875,35.912,8.149,14.009,8.149,14.009,3.556-1.4,3.88-2.356c0,0-2.374-21.144-6.532-26.3-2.349-2.912-5.109-11.653-5.238-14.709s-2.855-10.352-2.855-10.352Z" transform="translate(-453.112 -301.808)" fill="#354d1d"/>
    <path id="Trazado_811303" data-name="Trazado 811303" d="M732.123,444.533a20.218,20.218,0,0,0,10.253,5.323c2.833.542,8.584,1.066,10.01-.951a3.618,3.618,0,0,0,.263-2.27c-.192-2.845-.908-8.346,2.323-19.4a18.758,18.758,0,0,0,.621-2.955c.705-5.655.628-9.924-4.277-12.2-7.352-3.417-10.37-.606-10.37-.606a12.315,12.315,0,0,0-5.7,7.151c-3.573,10.65-3.129,25.91-3.129,25.91Z" transform="translate(-449.62 -251.423)" fill="#d1dbc3"/>
    <path id="Trazado_811304" data-name="Trazado 811304" d="M761.518,400.645a5.455,5.455,0,0,1-5.491.36,6.263,6.263,0,0,1-.1-2.257c.04-1.058.14-2.1.14-2.1l2.616-1.717,2.5-1.637c-.3,5.631.9,6.949.34,7.347Z" transform="translate(-464.234 -240.929)" fill="#ffb27d"/>
    <path id="Trazado_811305" data-name="Trazado 811305" d="M760.781,398.229a8.041,8.041,0,0,1-4.812,3.127c.04-1.058.153-2.224.153-2.224l2.6-1.59,2.058.688Z" transform="translate(-464.277 -243.536)" fill="#ed985f"/>
    <path id="Trazado_811306" data-name="Trazado 811306" d="M749.176,383.956s6.328,2.362,7.737-1.538,3.173-6.22-.808-7.893-5.308-.466-6.1.721S747.565,383.242,749.176,383.956Z" transform="translate(-459.686 -228.896)" fill="#ffb27d"/>
    <path id="Trazado_811307" data-name="Trazado 811307" d="M759.6,370.873c.073-.056.22-.084.529-.04a1.268,1.268,0,0,0-.538-.273,1.563,1.563,0,0,0-.75-1.557.934.934,0,0,1,.313.747c-.673-1.034-2.359-2.023-7.449-2.618-6.709-.783-5.368,3.876-4.611,4.549s3.181-.284,4.749.157,1.417,2.8,1.894,3.225.376-.178,1.172-.364.626,1.04.26,1.786.432,1.985.432,1.985l1.231-.893c1.232-.893,3.1-5.336,2.838-6.415-.024-.095-.046-.192-.07-.288Z" transform="translate(-458.433 -224.806)" fill="#354d1d"/>
    <path id="Trazado_811308" data-name="Trazado 811308" d="M779.113,468.433c-.192-2.845-.908-8.346,2.323-19.4a18.728,18.728,0,0,0,.621-2.955c-2.4-.792-6.774.969-6.774.969s-1.028,14.612,3.831,21.385Z" transform="translate(-476.083 -273.219)" fill="#475d37"/>
    <path id="Trazado_811309" data-name="Trazado 811309" d="M768.552,416.687s2.953,1.074,4.838,8.9c1.245,5.167,3.537,12.763,3.8,15.15s-2.62,16.361-2.62,16.361a1.875,1.875,0,0,1-1.4.1,2.307,2.307,0,0,1-1.395-.835s-.688-9.313-.511-13.712c.074-1.827-8.457-13.381-13.063-14.869-1.808-.584,10.356-11.088,10.356-11.088Z" transform="translate(-465.532 -255.293)" fill="#d1dbc3"/>
    <path id="Trazado_811310" data-name="Trazado 811310" d="M678.247,368.084a98.289,98.289,0,0,1,18.39,1.572l1.029-2.594,1.129-2.842s-9.891-4.258-15.836-10.188Z" transform="translate(-416.544 -216.815)" fill="#647552"/>
    <path id="Trazado_811311" data-name="Trazado 811311" d="M681.517,353.529,676.614,368a1.3,1.3,0,0,1-.858-1.686l4.314-12.158A1.077,1.077,0,0,1,681.517,353.529Z" transform="translate(-414.968 -216.45)" fill="#263238"/>
    <path id="Trazado_811312" data-name="Trazado 811312" d="M700.674,399.351a1.774,1.774,0,0,0,2.08-1.386l1.688-8.445a1.767,1.767,0,1,0-3.466-.694l-1.688,8.445A1.774,1.774,0,0,0,700.674,399.351Z" transform="translate(-429.445 -237.311)" fill="#263238"/>
    <path id="Trazado_811313" data-name="Trazado 811313" d="M678.247,387.807a98.279,98.279,0,0,1,18.39,1.572l1.029-2.594C688.409,384.894,678.247,387.807,678.247,387.807Z" transform="translate(-416.544 -236.538)" fill="#d1dbc3"/>
    <path id="Trazado_811314" data-name="Trazado 811314" d="M718.847,383l2.668.47a2.941,2.941,0,0,0,3.3-1.743,1.8,1.8,0,0,0,.159-.482c.642-2.782-.885-3.295-.885-3.295l-3.433-1.339-1.09,3.861v.013L718.85,383Z" transform="translate(-441.478 -230.685)" fill="#263238"/>
    <path id="Trazado_811315" data-name="Trazado 811315" d="M718.847,389.148l2.668.47a2.942,2.942,0,0,0,3.3-1.743c-1.509-1.1-5.251-1.255-5.251-1.255v.013l-.719,2.514Z" transform="translate(-441.478 -236.829)" fill="#354d1d"/>
    <path id="Trazado_811316" data-name="Trazado 811316" d="M701.674,397.053s1.306.52,1.065,1.095-1.9,1.365-2.16.912.273-2.491,1.095-2.005Z" transform="translate(-430.218 -243.192)" fill="#ffb27d"/>
    <path id="Trazado_811317" data-name="Trazado 811317" d="M710.449,404.7a18.226,18.226,0,0,0,.261-1.949c.015-.614.088-1.114-.056-1.132s-.25.1-.308.293-.285,1.42-.285,1.42l.114,1.181.275.186Z" transform="translate(-436.082 -246.04)" fill="#ffb27d"/>
    <path id="Trazado_811318" data-name="Trazado 811318" d="M364.656,406.028l-7.394,87.916s-.774,5.329,3.189,5.339c6.517.015,32.442,0,32.442,0s-4.905-1.11-4.846-3.605c.07-2.941,8.642-90.482,8.642-90.482Z" transform="translate(-219.375 -248.237)" fill="#475d37"/>
    <path id="Trazado_811319" data-name="Trazado 811319" d="M398.723,495.182c-1.282,0-26.379.046-32.727-.036-2.766-.034-3.252-2.46-3.274-4.029a7.773,7.773,0,0,1,.084-1.309l.192-2.285.49-5.823.432-5.146.557-6.612.468-5.581,5.254-62.471,32.033-.832s-3.61,36.636-6.164,63.3c-.285,2.971-.556,5.821-.806,8.48-.082.85-.159,1.679-.237,2.487-.236,2.523-.453,4.84-.642,6.885-.1,1.078-.191,2.08-.273,3-.325,3.6-.517,5.893-.52,6.33a3.815,3.815,0,0,0,.063.711c.526,2.8,4.587,2.928,5.068,2.928Z" transform="translate(-222.764 -245.695)" fill="#94a483"/>
    <path id="Trazado_811320" data-name="Trazado 811320" d="M174.907,283.363l18.01,72.345,2.466,9.909,8.389,33.7H359.616L328.7,283.363Z" transform="translate(-107.419 -173.414)" fill="#647552"/>
    <path id="Trazado_811321" data-name="Trazado 811321" d="M170.932,283.363l-2.5.832,28.043,117.634,3.319-2.517Z" transform="translate(-103.444 -173.414)" fill="#94a483"/>
    <path id="Trazado_811322" data-name="Trazado 811322" d="M241.113,586.382H396l4.277-2.517H244.432Z" transform="translate(-148.079 -357.966)" fill="#475d37"/>
    <path id="Trazado_811323" data-name="Trazado 811323" d="M382.074,646.587h33.535v-1.594H382.074Z" transform="translate(-234.65 -395.508)" fill="#647552"/>
    <path id="Trazado_811324" data-name="Trazado 811324" d="M396.421,590.383l-.172,1.22-31.538,6.37.432-5.145.206-2.445Z" transform="translate(-223.986 -361.969)" fill="#475d37"/>
    <path id="Trazado_811325" data-name="Trazado 811325" d="M398.724,629.129c-1.282,0-26.379.046-32.727-.036-2.766-.034-3.252-2.46-3.274-4.029l31.389-5.905c-.325,3.6-.517,5.893-.52,6.33a3.828,3.828,0,0,0,.062.711c.526,2.8,4.587,2.928,5.069,2.928Z" transform="translate(-222.766 -379.642)" fill="#475d37" opacity="0.4"/>
    <path id="Trazado_811326" data-name="Trazado 811326" d="M174.907,283.363H328.7l24.953,93.186H198.106Z" transform="translate(-107.419 -173.414)" fill="#647552"/>
    <path id="Trazado_811327" data-name="Trazado 811327" d="M356.532,380.456h-144l-5.145-20.5-1.991-7.932-.813-3.234L199.3,327.727l-.273-1.1-2.8-11.135-1.251-4.982-1.067-4.25-2.5-9.962h141.92l2.747,9.962,1.171,4.25,1.374,4.982,9.049,32.822v0l.767,2.781.357,1.291,6.247,22.661Z" transform="translate(-117.555 -181.359)" fill="#d1dbc3"/>
    <path id="Trazado_811328" data-name="Trazado 811328" d="M336.081,306.264H193.916l-2.5-9.964H333.334Z" transform="translate(-117.558 -181.359)" fill="#475d37"/>
    <path id="Trazado_811329" data-name="Trazado 811329" d="M206.571,305.988a.94.94,0,0,1,.934-1.245,1.7,1.7,0,0,1,1.555,1.245.941.941,0,0,1-.934,1.245A1.7,1.7,0,0,1,206.571,305.988Z" transform="translate(-126.842 -186.544)" fill="#e9f3fe"/>
    <path id="Trazado_811330" data-name="Trazado 811330" d="M217.3,305.988a.94.94,0,0,1,.935-1.245,1.7,1.7,0,0,1,1.555,1.245.941.941,0,0,1-.935,1.245A1.7,1.7,0,0,1,217.3,305.988Z" transform="translate(-133.429 -186.544)" fill="#e9f3fe"/>
    <path id="Trazado_811331" data-name="Trazado 811331" d="M228.844,305.988a.94.94,0,0,1,.934-1.245,1.7,1.7,0,0,1,1.555,1.245.941.941,0,0,1-.934,1.245A1.7,1.7,0,0,1,228.844,305.988Z" transform="translate(-140.521 -186.544)" fill="#e9f3fe"/>
    <path id="Trazado_811332" data-name="Trazado 811332" d="M472.657,57.017c5.821-6.833,14.8-20.56,20.837-27.589a2.229,2.229,0,0,0-1.7-3.68H480.8L491.172,2.3a.92.92,0,0,0-1.578-.923L464.518,34.937a1.388,1.388,0,0,0,1.282,2.208l12.448-1.533-7.405,20.343a1.068,1.068,0,0,0,1.815,1.061Z" transform="translate(-285.111 0)" fill="#263238"/>
    <path id="Trazado_811333" data-name="Trazado 811333" d="M330.13,184.169c1.309-6.717,2.137-19.189,3.519-26.118a1.7,1.7,0,0,0-2.5-1.81l-7.3,4.112L321.958,140.9a.7.7,0,0,0-1.392-.022l-4.1,31.671a1.058,1.058,0,0,0,1.677.987l7.694-5.674,2.69,16.282a.814.814,0,0,0,1.6.025Z" transform="translate(-194.35 -85.531)" fill="#647552"/>
    <path id="Trazado_811334" data-name="Trazado 811334" d="M414.864,307.7l-125.12,10.542a12.524,12.524,0,0,1-12.487-17.589l53.008-118.634a12.524,12.524,0,0,1,21.853-1.841l72.112,108.092a12.524,12.524,0,0,1-9.367,19.431Z" transform="translate(-169.597 -106.619)" fill="#e6efff"/>
    <path id="Trazado_811335" data-name="Trazado 811335" d="M407.7,304.869,282.58,315.411a17.273,17.273,0,0,1-17.221-24.259l53.008-118.633a17.273,17.273,0,0,1,30.14-2.539L420.62,278.071a17.272,17.272,0,0,1-12.919,26.8ZM333.486,171.817a7.675,7.675,0,0,0-6.446,4.575L274.032,295.026a7.776,7.776,0,0,0,7.752,10.919L406.9,295.4a7.774,7.774,0,0,0,5.814-12.061L340.607,175.25A7.678,7.678,0,0,0,333.486,171.817Z" transform="translate(-162.033 -99.056)" fill="#263238"/>
    <path id="Trazado_811336" data-name="Trazado 811336" d="M426.53,338.122a11.438,11.438,0,0,1,.487-4.545,10.485,10.485,0,0,1,2.141-3.76,11.235,11.235,0,0,1,3.6-2.665,14.032,14.032,0,0,1,4.923-1.264,14.358,14.358,0,0,1,5.1.419,11.168,11.168,0,0,1,4.027,2.023,10.493,10.493,0,0,1,2.74,3.348,11.472,11.472,0,0,1,1.24,4.4,11.2,11.2,0,0,1-.49,4.507,10.562,10.562,0,0,1-2.143,3.725,11.153,11.153,0,0,1-3.632,2.668,14.32,14.32,0,0,1-4.961,1.267,14.014,14.014,0,0,1-5.064-.422,11.22,11.22,0,0,1-3.99-2.026,10.547,10.547,0,0,1-2.736-3.313A11.2,11.2,0,0,1,426.53,338.122Zm19.344-22.636L427.85,317l-7.741-61.364,23.129-1.949Z" transform="translate(-258.009 -155.191)" fill="#263238"/>
    <path id="Trazado_811337" data-name="Trazado 811337" d="M235.388,419.29s.392-.882.646-1.3,1.34-1.641,1.524-1.365.924,2.142.532,2.665.025,1.431-1.927,1.982l-.774-1.982Z" transform="translate(-144.563 -255.232)" fill="#ffb27d"/>
    <path id="Trazado_811338" data-name="Trazado 811338" d="M179.15,409.158s10,8.344,13.893,7.572c3.048-.6,7.866-2.132,7.866-2.132a3.074,3.074,0,0,1,.912,2.659s-6.139,5.776-10.512,5.813c-6.836.058-10.06-3.387-10.06-3.387l-2.1-10.524Z" transform="translate(-110.025 -250.67)" fill="#354d1d"/>
    <path id="Trazado_811339" data-name="Trazado 811339" d="M133.714,634.858s.29,4.681,1.2,4.748c.12.009,4.593.009,4.593.009l5.711-.033a1.852,1.852,0,0,0-1.707-1.667c-1.668-.291-4.462-1.464-5.474-3.669C136.969,631.925,133.714,634.858,133.714,634.858Z" transform="translate(-82.12 -388.359)" fill="#2c4019"/>
    <path id="Trazado_811340" data-name="Trazado 811340" d="M132.859,546.117a11.89,11.89,0,0,0,3.091.581,11.338,11.338,0,0,0,2.885-.412,79.082,79.082,0,0,1,2.124-10.123c.943-3.65,2.289-8.343,4.2-14.174,5.3-16.115,6.906-25.543,7.053-26.436.008-.047.01-.07.01-.07l-.018-.007-16.283-7.149s2.013,22.211-.556,30.737a35.958,35.958,0,0,0-.931,4.084c-1.622,9.259-1.584,22.97-1.584,22.97Z" transform="translate(-81.593 -299.293)" fill="#354d1d"/>
    <path id="Trazado_811341" data-name="Trazado 811341" d="M144.94,536.157c.943-3.65,2.289-8.343,4.2-14.174,5.3-16.116,6.906-25.543,7.053-26.436,0-.027,0-.052-.006-.079l-16.283-7.149s2.013,22.211-.556,30.737c-.36,1.191,5.586,17.1,5.586,17.1Z" transform="translate(-85.574 -299.288)" fill="#2c3f19"/>
    <path id="Trazado_811342" data-name="Trazado 811342" d="M166.675,634.858s.29,4.681,1.2,4.748c.12.009,4.593.009,4.593.009l5.711-.033a1.852,1.852,0,0,0-1.707-1.667c-1.668-.291-4.463-1.464-5.474-3.669C169.93,631.925,166.675,634.858,166.675,634.858Z" transform="translate(-102.363 -388.359)" fill="#354d1d"/>
    <path id="Trazado_811343" data-name="Trazado 811343" d="M163.048,489.677a231.953,231.953,0,0,1-2.279,32.065c-2.49,17.672-1.646,25.173-1.646,25.173a17.079,17.079,0,0,1-2.4.611,10.911,10.911,0,0,1-3.563-.413s-3.564-17.678-2.542-26.524-4.88-30.352-4.88-30.352l17.312-.562Z" transform="translate(-89.505 -300.12)" fill="#354d1d"/>
    <path id="Trazado_811344" data-name="Trazado 811344" d="M160.675,391.066l3.178,2.084,2.9-.818a6.918,6.918,0,0,0,.678-3.47,21.574,21.574,0,0,0-.115-2.312l-4.289-1.893-1.6-.706c0,.025.125,1.313.141,1.5a10.954,10.954,0,0,1-.89,5.613Z" transform="translate(-98.677 -235.19)" fill="#ffb27d"/>
    <path id="Trazado_811345" data-name="Trazado 811345" d="M158.85,438.15c-3.956,3.819-18.928,3.178-19.85-1.031s1.006-35.825,7.764-37.811c1.4-.412,8.9,2.011,8.9,2.011a47.512,47.512,0,0,1,1.947,7c.15.762.587,8.842.914,16.4.153,3.536.282,6.957.348,9.463a27.411,27.411,0,0,1-.022,3.972Z" transform="translate(-85.234 -244.592)" fill="#263238"/>
    <path id="Trazado_811346" data-name="Trazado 811346" d="M163.622,386.635c.871,1.47,3.922,2.758,5.54,3.348a21.511,21.511,0,0,0-.114-2.312l-4.289-1.893c-.948-.012-1.526.2-1.138.856Z" transform="translate(-100.412 -236.312)" fill="#fca56b"/>
    <path id="Trazado_811347" data-name="Trazado 811347" d="M166.734,371.91s-6.909,2.155-8.185-2.168-3.028-6.957,1.33-8.515,5.706-.163,6.483,1.177,2.138,8.836.373,9.507Z" transform="translate(-96.482 -220.811)" fill="#ffb27d"/>
    <path id="Trazado_811348" data-name="Trazado 811348" d="M161.3,358.224s-.441,5.032-1.481,4.813-2.185-.686-2.034.831-1.011,4.116-2.512,4.11c-3.218-.013-6.713-8.27-5.833-9.836C151.987,353.624,164.978,352.712,161.3,358.224Z" transform="translate(-91.697 -217.05)" fill="#354d1d"/>
    <path id="Trazado_811349" data-name="Trazado 811349" d="M166.526,396.287c-.089-.037-5.143-2.3-5.734-2.11s-1.328,2-1.328,2l8.9,2.011A4.42,4.42,0,0,0,166.526,396.287Z" transform="translate(-97.935 -241.463)" fill="#354d1d"/>
    <path id="Trazado_811350" data-name="Trazado 811350" d="M210,458.811l-28.333,26.677c-.556.523-1.255.689-1.557.37l-.957-1.016c-.3-.319-.092-1.009.463-1.532l28.333-26.676c.556-.523,1.256-.69,1.557-.37l.957,1.016C210.768,457.6,210.56,458.288,210,458.811Z" transform="translate(-109.945 -279.5)" fill="#475d37"/>
    <path id="Trazado_811351" data-name="Trazado 811351" d="M194.1,498.456l-12.433,11.706c-.556.523-1.255.689-1.557.37l-.957-1.016c-.3-.32-.092-1.009.463-1.532l12.433-11.706,2.05,2.177Z" transform="translate(-109.945 -304.175)" fill="#d1dbc3"/>
    <path id="Trazado_811352" data-name="Trazado 811352" d="M240.908,391.36a22.208,22.208,0,1,0,36.808-22.318c-.115-.113-.23-.226-.349-.336a22.209,22.209,0,0,0-36.46,22.653Zm6.348-20.5a20.455,20.455,0,1,1,.881,28.915,20.432,20.432,0,0,1-.881-28.915Z" transform="translate(-147.361 -222.122)" fill="#475d37"/>
    <g id="Grupo_1068229" data-name="Grupo 1068229" transform="translate(94.337 142.304)" opacity="0.5">
      <path id="Trazado_811353" data-name="Trazado 811353" d="M279.841,401.685a20.456,20.456,0,1,1-.881-28.912A20.375,20.375,0,0,1,279.841,401.685Z" transform="translate(-244.49 -367.216)" fill="#fff"/>
    </g>
    <path id="Trazado_811354" data-name="Trazado 811354" d="M168.022,448.422c-15.612-11.124-14.314-25.969-14.314-25.969,5.706,3.218,11.368,10.333,13.966,16.506C167.827,442.495,167.956,445.916,168.022,448.422Z" transform="translate(-94.383 -258.835)" fill="#354d1d"/>
    <path id="Trazado_811355" data-name="Trazado 811355" d="M227.8,474.664a4.257,4.257,0,0,0,1.993-1.232s.47.033-.077,1.034c-.046.083-.147.3-.224.451a.1.1,0,0,0,.082.14,10.388,10.388,0,0,1,2.5.052c.169.035.218.44.211.612a1.56,1.56,0,0,1-.328,1.066,5.457,5.457,0,0,1-1.972,1.033,5.98,5.98,0,0,1-3.053-.383l-1-.463.311-1.857.251.052c.4.083.893-.4,1.309-.505Z" transform="translate(-138.753 -290.144)" fill="#ffb27d"/>
    <path id="Trazado_811356" data-name="Trazado 811356" d="M158.08,404.6s-14.026,2.671,4.127,22.985c2.9,3.249,18.59,7.478,18.59,7.478s1.591-1.353.789-2.45c0,0-10.8-7.844-13.177-9.09-1.07-.561-4.149-12.519-5.892-15.4A7.86,7.86,0,0,0,158.08,404.6Z" transform="translate(-93.909 -247.869)" fill="#263238"/>
    <path id="Trazado_811357" data-name="Trazado 811357" d="M236.372,418.793a7.1,7.1,0,0,0,.548-1.34,7.406,7.406,0,0,1,.9-2.049c.1-.095.41.028.447.437a2.369,2.369,0,0,1-.226.887,10.025,10.025,0,0,0-.3,1.764c-.217.707-1.379.3-1.379.3Z" transform="translate(-145.166 -254.488)" fill="#ffb27d"/>
    <path id="Trazado_811358" data-name="Trazado 811358" d="M250.5,321.957a.845.845,0,0,0-.152.9.006.006,0,0,0,0,0,5.628,5.628,0,0,0,1.777,1.951c.107.086.2.165.285.238l.064.058.049.045c.781.72.487.885,1.89,2.347,1.6,1.665,2.7,1.7,3.014,1.543.266-.129-.273-1.012-.87-2.005l-.086-.144c-.08-.132-.159-.266-.238-.4-.7-1.194-.52-1.755-.354-3.532.135-1.444,2.251-8.07,2.251-8.07l-3.066-.529s-.926,5.275-1.943,6.088c-.544.432-1.153.438-1.676.759-.037.022-.073.045-.108.069a4,4,0,0,0-.839.674Z" transform="translate(-153.707 -192.455)" fill="#ffb27d"/>
    <path id="Trazado_811359" data-name="Trazado 811359" d="M250.5,332.959a.845.845,0,0,0-.152.9.006.006,0,0,0,0,0,6.534,6.534,0,0,0,1.78,1.945c.105.088.2.168.282.243l.064.058.049.045c.781.72.487.885,1.89,2.347,1.6,1.665,2.7,1.7,3.014,1.543.266-.129-.273-1.012-.87-2.005a6.823,6.823,0,0,1-2.852-2.1c-.928-1.186-1.558-2.695-2.19-3.624l-.18-.034a4.026,4.026,0,0,0-.839.674Z" transform="translate(-153.707 -203.458)" fill="#2c3f19"/>
    <path id="Trazado_811360" data-name="Trazado 811360" d="M311.03,318.574c.189.946,1.539.789,3.046.422s1.15.07,3.3-.167,2.8-1.037,2.861-1.355c.059-.284-1-.383-2.138-.514-.143-.016-.287-.034-.431-.052-1.283-.162-2.224-.991-3.39-1.671-1.1-.645-2.751-3.271-2.751-3.271l-2.943.232s1.543,2.346,2.141,3.365a3.56,3.56,0,0,1,.288,2.006,3.815,3.815,0,0,0,.022,1.007Z" transform="translate(-189.513 -190.98)" fill="#ffb27d"/>
    <path id="Trazado_811361" data-name="Trazado 811361" d="M317.908,326.945c1.508-.368,1.15.07,3.3-.167s2.8-1.037,2.861-1.355c.059-.284-1-.383-2.138-.514l-.01.022a6.038,6.038,0,0,1-3.072.953c-1.456.036-3-.383-4-.367a3.812,3.812,0,0,0,.022,1.007c.189.946,1.539.789,3.045.422Z" transform="translate(-193.346 -198.93)" fill="#2c3f19"/>
    <path id="Trazado_811362" data-name="Trazado 811362" d="M269.65,272.813l-2.753,7.4-3.593,9.662a5.814,5.814,0,0,1-1.908-.175,8.263,8.263,0,0,1-1.845-.9s1-10.377,2.863-16.332a10.608,10.608,0,0,1,1.6-3.461c2.885-3.407,5.635,3.8,5.635,3.8Z" transform="translate(-159.403 -164.035)" fill="#2c3f19"/>
    <path id="Trazado_811363" data-name="Trazado 811363" d="M236.135,247.493c-1.566-.505-5.651-.01-10.082.79a3.006,3.006,0,0,1-3.1-1.4l-11.151-.875s-3.683,8.159-1.67,13.36a1.955,1.955,0,0,0,1.949,1.258s6.739.012,8.894.012c5.546,0,11.738-3.808,12.538-3.968,1.31-.262,1.835,2.361,3.145,5.113s12.318,12.2,12.318,12.2a9.646,9.646,0,0,0,2.392-.245,2.357,2.357,0,0,0,1.026-.647S240.2,248.8,236.135,247.492Z" transform="translate(-128.68 -150.471)" fill="#354d1d"/>
    <path id="Trazado_811364" data-name="Trazado 811364" d="M212.366,162.351a3.967,3.967,0,0,0-2.13-.556,5.943,5.943,0,0,1-1.028-.062c-4.256-.625-6.82,5.556-6.972,7.423-.276,3.429-2.092,3.952-4.645,6.1-5.122,4.305-3.622,9.309-.823,11.17,1.68,1.116,4.641,0,4.641,0,.041.03,8.1-4.5,12.07-6.685,5.953-.844,1.278-15.965-1.113-17.39Z" transform="translate(-119.27 -98.688)" fill="#2c3f19"/>
    <path id="Trazado_811365" data-name="Trazado 811365" d="M226.889,193.709a5.244,5.244,0,0,1-3.271.1,5.84,5.84,0,0,1-2.16-2.589c.565-.025,1.184-.519,1.661-3.754l.241.086,4.038,1.454s-.292,1.3-.483,2.53c-.16,1.036-.245,2.028-.025,2.175Z" transform="translate(-136.008 -114.518)" fill="#ffb27d"/>
    <path id="Trazado_811366" data-name="Trazado 811366" d="M230.425,189.138s-.162.7-.4,2.006a4.563,4.563,0,0,1-3.641-3.46Z" transform="translate(-139.035 -114.653)" fill="#ed975d"/>
    <path id="Trazado_811367" data-name="Trazado 811367" d="M230.383,179.316s-5.525-.744-5.009-4.178.15-5.843,3.7-5.513,4.036,1.743,4.143,2.931-1.383,6.865-2.833,6.759Z" transform="translate(-138.392 -103.543)" fill="#ffb27d"/>
    <path id="Trazado_811368" data-name="Trazado 811368" d="M230.492,170.194s-3.539,3.047-5.944,3.292-3.318-.527-3.318-.527a9.4,9.4,0,0,0,2.273-3.077,1.689,1.689,0,0,1,1.395-1C226.616,168.738,229.874,168.671,230.492,170.194Z" transform="translate(-135.869 -103.063)" fill="#2c3f19"/>
    <path id="Trazado_811369" data-name="Trazado 811369" d="M239.5,170.632a8.7,8.7,0,0,1,1.555,1.994,6.683,6.683,0,0,1,.18,3.555s1.845-3.585.8-5.326A1.473,1.473,0,0,0,239.5,170.632Z" transform="translate(-147.091 -103.774)" fill="#2c3f19"/>
    <path id="Trazado_811370" data-name="Trazado 811370" d="M223.984,207.617c-.171,11.185-.049,8.848-1.273,9.909a4.709,4.709,0,0,1-2.215.48c-3.43.226-9.458-.34-9.687-.974-.791-2.194-.232-2.875-.89-6.232q-.1-.535-.254-1.164c-.549-2.306-1.085-3.091.869-6.8,1.773-3.356,3.612-6.079,3.778-5.981,4.671,2.775,5.048.444,5.048.444s4.709,4.859,4.624,10.316Z" transform="translate(-128.453 -120.286)" fill="#263238"/>
    <path id="Trazado_811371" data-name="Trazado 811371" d="M266.9,287.176l-3.593,9.662a5.813,5.813,0,0,1-1.908-.175,8.27,8.27,0,0,1-1.845-.9s1-10.377,2.863-16.333l4.483,7.743Z" transform="translate(-159.403 -170.999)" fill="#354d1d"/>
    <path id="Trazado_811372" data-name="Trazado 811372" d="M235.6,198.01s4.806.817,5.37,2.887,2.417,14.632,2.417,14.632-1.356,1.323-2.484.194-3.549-11.754-3.549-11.754l-1.754-5.957Z" transform="translate(-144.693 -120.994)" fill="#263238"/>
    <path id="Trazado_811373" data-name="Trazado 811373" d="M221.713,232.786c-3.43.226-9.459-.34-9.687-.974-.791-2.194-.232-2.875-.89-6.232l1.656-4.657s-.275,5.188,1.254,6.551,6.262,2.635,7.006,3.776a4.176,4.176,0,0,1,.662,1.536Z" transform="translate(-129.669 -135.066)" fill="#354d1d"/>
    <path id="Trazado_811374" data-name="Trazado 811374" d="M228.364,245.178s3.384-.752,3.929-.452a7.983,7.983,0,0,1,2.047,1.775c.166.38-1.215-.29-1.665-.41a3.965,3.965,0,0,0-1.438.315,4.774,4.774,0,0,1-2.576.257l-.3-1.486Z" transform="translate(-140.248 -149.642)" fill="#ffb27d"/>
    <path id="Trazado_811375" data-name="Trazado 811375" d="M205.052,196.855s-4.543.278-6.118,2.472c-2.215,3.087-6.612,16.246-4.1,18,2.834,1.978,12.9.522,12.9.522a4.087,4.087,0,0,0-.13-2.324c-.467-.757-8.04-1.983-8.389-2.334s4.372-6.816,4.372-7.865,1.457-8.474,1.457-8.474Z" transform="translate(-119.196 -120.285)" fill="#263238"/>
    <path id="Trazado_811376" data-name="Trazado 811376" d="M238.976,247.278a6.527,6.527,0,0,0,.941,1.024.685.685,0,0,0,.383.082l-.477-.86-.847-.247Z" transform="translate(-146.767 -151.251)" fill="#ffb27d"/>
    <path id="Trazado_811377" data-name="Trazado 811377" d="M238.551,244.839l2.06,1a.366.366,0,0,1-.341.132,4.925,4.925,0,0,1-.894-.247l-.826-.887Z" transform="translate(-146.504 -149.754)" fill="#ffb27d"/>
    <path id="Trazado_811378" data-name="Trazado 811378" d="M249.9,250.941l-21.532-.007v.475l21.34.007Z" transform="translate(-140.251 -153.497)" fill="#2c3f19"/>
    <path id="Trazado_811379" data-name="Trazado 811379" d="M241.414,232.759l16.305.006,4.908-12.195-16.28-.006Z" transform="translate(-148.264 -134.846)" fill="#2c3f19"/>
    <path id="Trazado_811380" data-name="Trazado 811380" d="M270.488,235.14a.565.565,0,0,0-.554-.777,1.114,1.114,0,0,0-1,.776.565.565,0,0,0,.554.777A1.113,1.113,0,0,0,270.488,235.14Z" transform="translate(-165.146 -143.32)" fill="#fff"/>
    <path id="Trazado_811381" data-name="Trazado 811381" d="M542.974,370.93a4.677,4.677,0,0,0-3.717.192c-6.324.26-6.559,6.743-5.818,9.155,1.043,3.389-2.647,6.06,1.445,7.431,4.748,1.591,8.732-.3,8.46.523C558.36,389.413,547.97,372.589,542.974,370.93Z" transform="translate(-327.282 -227.02)" fill="#354d1d"/>
    <path id="Trazado_811382" data-name="Trazado 811382" d="M527.13,431.7a16.636,16.636,0,0,1-1.69,2.557c-1.313,1.646-8.209-2.26-7.615-2.557s4.059-10.28,4.885-11.534,3.637-1.906,3.637-1.906Z" transform="translate(-317.998 -256.26)" fill="#263238"/>
    <path id="Trazado_811383" data-name="Trazado 811383" d="M591.332,626.275s1.9,1.736,1.531,2.971-2.089,2.057-2.321,3.565-1.16,2.331-2,2.331h-3.984s-.615-1.062.87-1.382,2.045-2.092,1.952-3.738a28.8,28.8,0,0,1,.14-3.839l3.157-.731.651.823Z" transform="translate(-358.93 -383.508)" fill="#354d1d"/>
    <path id="Trazado_811384" data-name="Trazado 811384" d="M543.3,629.492s.685,7.358-.15,7.77l-10.693-.022s0-1.235,1.717-1.508,4.734-1.281,5.245-3.519S543.3,629.492,543.3,629.492Z" transform="translate(-327.009 -385.988)" fill="#283a17"/>
    <path id="Trazado_811385" data-name="Trazado 811385" d="M551.126,425.807a42.687,42.687,0,0,1,0,4.943c-.105,1.787-1.913,4.18-2.17,4.773-.643,1.486-1.37,1.726-1.37,1.726l-5.614,1.376-1.974.483-6.226-1.86s-2.836-7.913-1.7-12.369a34.227,34.227,0,0,1,2.878-7.55,44.457,44.457,0,0,1,11.694-.422l4.477,8.9Z" transform="translate(-326.607 -255.331)" fill="#263238"/>
    <path id="Trazado_811386" data-name="Trazado 811386" d="M566.231,445.493c-.105,1.787-2.448,4.118-2.705,4.711-.643,1.486-1.37,1.726-1.37,1.726l-5.614,1.376-1.013-2.906s8.2-2.155,6.884-9.748l3.818,4.84Z" transform="translate(-341.177 -270.012)" fill="#354d1d"/>
    <path id="Trazado_811387" data-name="Trazado 811387" d="M532.7,473s-3.083,9.6-3.282,12.864,5.893,46.412,6.139,47.917c.23,1.419,1.994,2.324,1.994,2.324a2.666,2.666,0,0,0,1.967.151,4.876,4.876,0,0,0,2.113-1s2.4-30.77.915-41.762a173.914,173.914,0,0,1-1.5-20.5H532.7Z" transform="translate(-325.138 -289.877)" fill="#2c3f19"/>
    <path id="Trazado_811388" data-name="Trazado 811388" d="M552.612,472.254s4.7,6.309,5.142,10.576.688,19.247,1.622,23.405,4.366,12.161,4.366,25.13a2.589,2.589,0,0,1-1.457,1.139,12.31,12.31,0,0,1-1.282.355,2.018,2.018,0,0,1-2.255-1.07c-2.32-4.671-9.71-19.737-10.089-22.864-.267-2.214-2.6-16.861-7.692-25.455-1.223-2.063.75-10.27.75-10.27l10.9-.945Z" transform="translate(-331.988 -289.421)" fill="#354d1d"/>
    <path id="Trazado_811389" data-name="Trazado 811389" d="M536.377,469.155a6.459,6.459,0,0,0,3.7,1.028c2.937.059,10.213-.749,10.213-.749a6.009,6.009,0,0,1,.311,1.857s-8.888,2.241-14.037.327a3.254,3.254,0,0,1-.183-2.465Z" transform="translate(-329.307 -287.517)" fill="#2c3f19"/>
    <path id="Trazado_811390" data-name="Trazado 811390" d="M542.277,473.555a1.528,1.528,0,1,1,1.34-1.517A1.438,1.438,0,0,1,542.277,473.555Zm0-2.589a1.09,1.09,0,1,0,.9,1.073A1,1,0,0,0,542.277,470.965Z" transform="translate(-332.215 -288.356)" fill="#fff"/>
    <path id="Trazado_811391" data-name="Trazado 811391" d="M529.325,460.944l-13.358.125-6.574-15.448,13.358-.125Z" transform="translate(-312.843 -272.987)" fill="#4d7726"/>
    <path id="Trazado_811392" data-name="Trazado 811392" d="M545.616,463.55l-.979-1.2a3.428,3.428,0,0,0-1.144-.691c-.481-.1-1.5-.686-1.594-.521s.78,1.341.78,1.341l.045.006c-1.009.759-3.555.089-3.869.4-.38.374.524,1.185,1.01,1.641a3.573,3.573,0,0,0,2.958.878c.792-.247,2.037-.5,2.037-.5Z" transform="translate(-330.881 -282.574)" fill="#ffb27d"/>
    <path id="Trazado_811393" data-name="Trazado 811393" d="M511.859,451.877s.839-.954,1.374-.5-.14,2.709-.649,2.481S511.566,452.158,511.859,451.877Z" transform="translate(-314.304 -276.525)" fill="#ffb27d"/>
    <path id="Trazado_811394" data-name="Trazado 811394" d="M559.478,417.168s3.824.422,6.568,5.407c2.165,3.933,5.863,11.18,4.467,13.228-.612.9-6.487,4.1-17.818,2.27a3.43,3.43,0,0,1,1.092-2.095s9.536-3.062,9.519-3.671c-.031-1.151-1.288-2.147-6.615-7.476-1.448-1.448,2.786-7.666,2.786-7.666Z" transform="translate(-339.437 -255.588)" fill="#263238"/>
    <path id="Trazado_811395" data-name="Trazado 811395" d="M553.454,408.387c.13-.177-.037-.738-.248-1.784a19.6,19.6,0,0,1-.506-4.063l-.283.047-4.739.8s.108,1.267.112,2.462v.03c.006,1.037-.279,2.6.07,2.808C549.655,409.736,552.948,409.066,553.454,408.387Z" transform="translate(-336.355 -246.606)" fill="#ffb27d"/>
    <path id="Trazado_811396" data-name="Trazado 811396" d="M547.678,403.457s.094,1.787.1,2.98c2.652-.064,4.067-2.638,4.642-3.778l-4.739.8Z" transform="translate(-336.355 -246.679)" fill="#e8945b"/>
    <path id="Trazado_811397" data-name="Trazado 811397" d="M541.76,392.809s6.213-.885,5.6-4.746-.22-6.575-4.213-6.172-4.528,2-4.638,3.335S540.127,392.94,541.76,392.809Z" transform="translate(-330.722 -233.9)" fill="#ffb27d"/>
    <path id="Trazado_811398" data-name="Trazado 811398" d="M543.182,381.17s2.419,4.258,5.128,4.513,3.729-.622,3.729-.622a7.468,7.468,0,0,1-3.107-3.972s-4.815-2.278-5.752.081Z" transform="translate(-333.594 -232.824)" fill="#354d1d"/>
    <path id="Trazado_811399" data-name="Trazado 811399" d="M539.921,382.734a3.9,3.9,0,0,0-1.555,1.671,6.311,6.311,0,0,0-.274,3.677s-1.769-2.874-.609-4.844C538.712,381.149,539.921,382.734,539.921,382.734Z" transform="translate(-329.852 -234.088)" fill="#354d1d"/>
    <path id="Trazado_811400" data-name="Trazado 811400" d="M5.917,649.124H350.325a.431.431,0,0,1,.431.431v.248a.431.431,0,0,1-.431.431H5.917a.431.431,0,0,1-.431-.431v-.248A.431.431,0,0,1,5.917,649.124Z" transform="translate(-3.37 -398.045)" fill="#2c3f19"/>
  </g>
</svg>
