<svg xmlns="http://www.w3.org/2000/svg" width="130" height="130" viewBox="0 0 130 130">
  <g id="Grupo_1070284" data-name="Grupo 1070284" transform="translate(-2863.084 7005.303)">
    <path id="Trazado_814829" data-name="Trazado 814829" d="M65,0A65,65,0,1,1,0,65,65,65,0,0,1,65,0Z" transform="translate(2863.084 -7005.303)" fill="#3b5620"/>
    <g id="Grupo_1070281" data-name="Grupo 1070281" transform="translate(6376.084 -8857.703)">
      <path id="Trazado_814826" data-name="Trazado 814826" d="M59.894,0A59.894,59.894,0,1,1,0,59.894,59.894,59.894,0,0,1,59.894,0Z" transform="translate(-3508 1857.955)" fill="#fff"/>
    </g>
    <g id="botella-de-agua" transform="translate(2842.2 -6977.914)">
      <g id="Grupo_1068489" data-name="Grupo 1068489" transform="translate(84.37 25.409)">
        <path id="Trazado_812011" data-name="Trazado 812011" d="M246.7,229.137l2.239,23.817,1.222,9.5a3.623,3.623,0,0,0,3.608,3.285h14.265a3.623,3.623,0,0,0,3.608-3.285l3.1-33.321-14-4.637Z" transform="translate(-245.462 -215.93)" fill="#73c3ee"/>
        <path id="Trazado_812012" data-name="Trazado 812012" d="M322.5,224.5l-3.032,1,10.977,3.636-3.1,33.321a3.623,3.623,0,0,1-3.608,3.285h6.054a3.623,3.623,0,0,0,3.608-3.285l3.1-33.321Z" transform="translate(-307.213 -215.93)" fill="#59acd9"/>
        <path id="Trazado_812013" data-name="Trazado 812013" d="M269.015,167.878H238.5l1.242,13.207h28.044Z" transform="translate(-238.5 -167.878)" fill="#c6e7f7"/>
        <path id="Trazado_812014" data-name="Trazado 812014" d="M393.224,167.878l-1.229,13.207h6.054l1.229-13.207Z" transform="translate(-368.763 -167.878)" fill="#b5e0f5"/>
      </g>
      <g id="Grupo_1068490" data-name="Grupo 1068490" transform="translate(56.882)">
        <path id="Trazado_812015" data-name="Trazado 812015" d="M79.9,47.074H78.258V39.5H67.7v7.574H66.054a8.881,8.881,0,0,0-8.879,8.884V57.6a3.035,3.035,0,0,0,3.034,3.036H85.748A3.035,3.035,0,0,0,88.781,57.6V55.958A8.881,8.881,0,0,0,79.9,47.074Z" transform="translate(-57.131 -33.522)" fill="#c6e7f7"/>
        <path id="Trazado_812016" data-name="Trazado 812016" d="M164.169,47.074h-1.645V39.5H156.47v7.574h1.645a8.881,8.881,0,0,1,8.879,8.884V57.6a3.035,3.035,0,0,1-3.034,3.036h6.054a3.035,3.035,0,0,0,3.034-3.036V55.958A8.881,8.881,0,0,0,164.169,47.074Z" transform="translate(-141.397 -33.522)" fill="#b5e0f5"/>
        <path id="Trazado_812017" data-name="Trazado 812017" d="M85.732,195.28H60.224a3.049,3.049,0,0,1-3.049-3.049v-10.08a3.035,3.035,0,0,1,3.035-3.035H85.747a3.035,3.035,0,0,1,3.035,3.035v10.08A3.049,3.049,0,0,1,85.732,195.28Z" transform="translate(-57.131 -152.006)" fill="#73c3ee"/>
        <path id="Trazado_812018" data-name="Trazado 812018" d="M211.924,179.117H205.87a3.035,3.035,0,0,1,3.035,3.035v10.08a3.049,3.049,0,0,1-3.049,3.049h6.054a3.049,3.049,0,0,0,3.049-3.049v-10.08A3.035,3.035,0,0,0,211.924,179.117Z" transform="translate(-183.308 -152.007)" fill="#59acd9"/>
        <path id="Trazado_812019" data-name="Trazado 812019" d="M88.643,295.378a3.021,3.021,0,0,0-2.974-3.066,3.067,3.067,0,0,0,0-6.131H59.856a3.067,3.067,0,0,0,0,6.131,3.067,3.067,0,0,0,0,6.131s-2.93.041-2.93,3.834v6.928a8.881,8.881,0,0,0,8.879,8.884H79.654a8.881,8.881,0,0,0,8.879-8.884v-6.928c0-3.742-2.863-3.834-2.863-3.834a3.021,3.021,0,0,0,2.974-3.066Z" transform="translate(-56.882 -242.867)" fill="#c6e7f7"/>
        <path id="Trazado_812020" data-name="Trazado 812020" d="M182.382,295.378a3.021,3.021,0,0,0-2.974-3.066,3.067,3.067,0,0,0,0-6.131h-6.054a3.067,3.067,0,0,1,0,6.131,3.067,3.067,0,0,1,0,6.131s2.863.092,2.863,3.834v6.928a8.881,8.881,0,0,1-8.879,8.884h6.054a8.881,8.881,0,0,0,8.879-8.884v-6.928c0-3.742-2.863-3.834-2.863-3.834a3.021,3.021,0,0,0,2.974-3.066Z" transform="translate(-150.621 -242.867)" fill="#b5e0f5"/>
        <path id="Trazado_812021" data-name="Trazado 812021" d="M124.12,8.316H109.692a.755.755,0,0,1-.755-.755v-5.1A2.463,2.463,0,0,1,111.4,0h11.012a2.463,2.463,0,0,1,2.463,2.463v5.1A.755.755,0,0,1,124.12,8.316Z" transform="translate(-101.058)" fill="#73c3ee"/>
        <path id="Trazado_812022" data-name="Trazado 812022" d="M164.022,0h-6.054a2.463,2.463,0,0,1,2.463,2.463v5.1a.755.755,0,0,1-.755.755h6.054a.755.755,0,0,0,.755-.755v-5.1A2.463,2.463,0,0,0,164.022,0Z" transform="translate(-142.668)" fill="#59acd9"/>
      </g>
    </g>
  </g>
</svg>
