<svg xmlns="http://www.w3.org/2000/svg" width="86.29" height="80.537" viewBox="0 0 86.29 80.537">
  <g id="enfermedades" transform="translate(-2 -5)">
    <path id="Trazado_811401" data-name="Trazado 811401" d="M88.29,61.088a5.753,5.753,0,0,1-11.462.7L69.033,58.5a27.5,27.5,0,0,1-6.184,7.55l.561.805c.144-.014.288-.014.431-.014a5.753,5.753,0,1,1-5.753,5.753,5.536,5.536,0,0,1,.575-2.474l-.547-.805a27.26,27.26,0,0,1-12.972,3.279c-.547,0-1.079-.043-1.625-.086l-.475,2.833a5.756,5.756,0,1,1-5.681-.935l.475-2.833A27.19,27.19,0,0,1,27.973,66.5l-1.726,1.726a5.689,5.689,0,0,1,.2,1.5A5.753,5.753,0,1,1,20.7,63.965a5.689,5.689,0,0,1,1.5.2l1.726-1.726A27.066,27.066,0,0,1,18.568,51.5l-2.646.331a5.752,5.752,0,1,1-.7-5.71l2.632-.331c0-.173-.029-.345-.029-.518A27.081,27.081,0,0,1,19.589,35.7l-8.672-4.329a5.691,5.691,0,0,1-3.164.949,5.753,5.753,0,1,1,5.738-6.1l8.658,4.329a27.714,27.714,0,0,1,6.846-7.277l-3.955-6.774h-.029a5.753,5.753,0,1,1,5.753-5.753A5.659,5.659,0,0,1,30,13.6l3.955,6.774a26.9,26.9,0,0,1,11.189-2.43c.173,0,.345.029.518.029l.331-2.632a5.753,5.753,0,1,1,5.71.7l-.331,2.646a27.327,27.327,0,0,1,9.722,4.43l3.035-3.394a5.649,5.649,0,0,1-.288-1.783A5.753,5.753,0,1,1,69.594,23.7a6.306,6.306,0,0,1-1.179-.115L65.38,26.975a27.318,27.318,0,0,1,5.494,9.161l4.717-1.122a5.749,5.749,0,1,1,1.337,5.58l-4.717,1.136a26.1,26.1,0,0,1,.259,3.538,27.327,27.327,0,0,1-1.179,7.939l7.78,3.293a5.749,5.749,0,0,1,9.219,4.588Z" fill="#52a04f"/>
    <path id="Trazado_811402" data-name="Trazado 811402" d="M75.965,55.336A5.715,5.715,0,0,0,72.5,56.5l-7.78-3.293A27.327,27.327,0,0,0,65.9,45.269a26.093,26.093,0,0,0-.259-3.538l4.717-1.136a5.755,5.755,0,1,0-1.337-5.58L64.3,36.136a27.318,27.318,0,0,0-5.494-9.161l3.035-3.394a6.306,6.306,0,0,0,1.179.115,5.753,5.753,0,1,0-5.753-5.753,5.65,5.65,0,0,0,.288,1.783l-3.035,3.394a27.327,27.327,0,0,0-9.722-4.43l.331-2.646a5.752,5.752,0,1,0-5.71-.7l-.331,2.632c-.173,0-.345-.029-.518-.029a26.848,26.848,0,0,0-9.25,1.645A27.3,27.3,0,0,0,56.735,66.71l-.459-.66A27.5,27.5,0,0,0,62.46,58.5l7.795,3.293a5.753,5.753,0,1,0,5.71-6.457Z" transform="translate(6.572 0)" fill="#5bb162"/>
    <g id="Grupo_1068235" data-name="Grupo 1068235" transform="translate(32.201 25.134)">
      <circle id="Elipse_5738" data-name="Elipse 5738" cx="7" cy="7" r="7" transform="translate(2.944 0.134)" fill="#add0a0"/>
      <circle id="Elipse_5739" data-name="Elipse 5739" cx="4.5" cy="4.5" r="4.5" transform="translate(15.944 20.134)" fill="#add0a0"/>
      <circle id="Elipse_5740" data-name="Elipse 5740" cx="3" cy="3" r="3" transform="translate(-0.056 21.134)" fill="#add0a0"/>
    </g>
    <g id="Grupo_1068236" data-name="Grupo 1068236" transform="translate(45.145 59.65)">
      <path id="Trazado_811403" data-name="Trazado 811403" d="M32,43h2.876v2.876H32Z" transform="translate(-32 -43)" fill="#43525b"/>
    </g>
    <g id="Grupo_1068237" data-name="Grupo 1068237" transform="translate(42.269 62.527)">
      <path id="Trazado_811404" data-name="Trazado 811404" d="M30,45h2.876v2.876H30Z" transform="translate(-30 -45)" fill="#43525b"/>
    </g>
    <g id="Grupo_1068238" data-name="Grupo 1068238" transform="translate(48.021 62.527)">
      <path id="Trazado_811405" data-name="Trazado 811405" d="M34,45h2.876v2.876H34Z" transform="translate(-34 -45)" fill="#43525b"/>
    </g>
    <g id="Grupo_1068239" data-name="Grupo 1068239" transform="translate(45.145 65.403)">
      <path id="Trazado_811406" data-name="Trazado 811406" d="M32,47h2.876v2.876H32Z" transform="translate(-32 -47)" fill="#43525b"/>
    </g>
    <g id="Grupo_1068240" data-name="Grupo 1068240" transform="translate(60.965 32.325)">
      <path id="Trazado_811407" data-name="Trazado 811407" d="M43,24h2.876v2.876H43Z" transform="translate(-43 -24)" fill="#43525b"/>
    </g>
    <g id="Grupo_1068241" data-name="Grupo 1068241" transform="translate(58.088 35.201)">
      <path id="Trazado_811408" data-name="Trazado 811408" d="M41,26h2.876v2.876H41Z" transform="translate(-41 -26)" fill="#43525b"/>
    </g>
    <g id="Grupo_1068242" data-name="Grupo 1068242" transform="translate(63.841 35.201)">
      <path id="Trazado_811409" data-name="Trazado 811409" d="M45,26h2.876v2.876H45Z" transform="translate(-45 -26)" fill="#43525b"/>
    </g>
    <g id="Grupo_1068243" data-name="Grupo 1068243" transform="translate(60.965 38.078)">
      <path id="Trazado_811410" data-name="Trazado 811410" d="M43,28h2.876v2.876H43Z" transform="translate(-43 -28)" fill="#43525b"/>
    </g>
    <g id="Grupo_1068244" data-name="Grupo 1068244" transform="translate(25.011 36.64)">
      <path id="Trazado_811411" data-name="Trazado 811411" d="M18,27h2.876v2.876H18Z" transform="translate(-18 -27)" fill="#43525b"/>
    </g>
    <g id="Grupo_1068245" data-name="Grupo 1068245" transform="translate(22.134 39.516)">
      <path id="Trazado_811412" data-name="Trazado 811412" d="M16,29h2.876v2.876H16Z" transform="translate(-16 -29)" fill="#43525b"/>
    </g>
    <g id="Grupo_1068246" data-name="Grupo 1068246" transform="translate(27.887 39.516)">
      <path id="Trazado_811413" data-name="Trazado 811413" d="M20,29h2.876v2.876H20Z" transform="translate(-20 -29)" fill="#43525b"/>
    </g>
    <g id="Grupo_1068247" data-name="Grupo 1068247" transform="translate(25.011 42.392)">
      <path id="Trazado_811414" data-name="Trazado 811414" d="M18,31h2.876v2.876H18Z" transform="translate(-18 -31)" fill="#43525b"/>
    </g>
  </g>
</svg>
