<svg xmlns="http://www.w3.org/2000/svg" width="85" height="85" viewBox="0 0 85 85">
  <g id="Grupo_1070260" data-name="Grupo 1070260" transform="translate(-284.855 -1095)">
    <g id="Grupo_1070258" data-name="Grupo 1070258" transform="translate(-0.145 98)">
      <g id="Grupo_1070255" data-name="Grupo 1070255" transform="translate(0 -5454)">
        <circle id="Elipse_4872" data-name="Elipse 4872" cx="42.5" cy="42.5" r="42.5" transform="translate(285 6451)" fill="#dbf9bd"/>
      </g>
    </g>
    <circle id="Elipse_5784" data-name="Elipse 5784" cx="36.5" cy="36.5" r="36.5" transform="translate(290.855 1101)" fill="#3b5620"/>
    <g id="rastrillo" transform="translate(244.87 1103.661)">
      <g id="Grupo_1068196" data-name="Grupo 1068196" transform="translate(73.162 55.13)">
        <path id="Trazado_811243" data-name="Trazado 811243" d="M182.892,444.914a8.413,8.413,0,0,1,1.2.085v-2h-1.867v1.94Q182.553,444.915,182.892,444.914Z" transform="translate(-182.227 -443)" fill="#abccd3"/>
        <path id="Trazado_811244" data-name="Trazado 811244" d="M216.343,447.27a1.485,1.485,0,0,1-.408.979,5.347,5.347,0,0,1,1.217.376V443h-1.867v2.754A1.892,1.892,0,0,1,216.343,447.27Z" transform="translate(-211.172 -443)" fill="#abccd3"/>
        <path id="Trazado_811245" data-name="Trazado 811245" d="M251.667,449.876l-1.336-.888a.5.5,0,0,1-.118-.211V443h-1.867v5.778a2.259,2.259,0,0,0,.943,1.76l1.344.893a.933.933,0,1,0,1.033-1.555Z" transform="translate(-240.119 -443)" fill="#abccd3"/>
        <path id="Trazado_811246" data-name="Trazado 811246" d="M284.728,449.876l-1.336-.888a.5.5,0,0,1-.118-.211V443h-1.867v5.778a2.259,2.259,0,0,0,.943,1.76l1.344.893a.933.933,0,0,0,1.033-1.555Z" transform="translate(-269.065 -443)" fill="#abccd3"/>
        <path id="Trazado_811247" data-name="Trazado 811247" d="M317.787,449.876l-1.336-.888a.492.492,0,0,1-.117-.21V443h-1.867v5.778a2.259,2.259,0,0,0,.943,1.76l1.344.893a.933.933,0,0,0,1.033-1.555Z" transform="translate(-298.01 -443)" fill="#abccd3"/>
        <path id="Trazado_811248" data-name="Trazado 811248" d="M350.847,449.876l-1.336-.888a.5.5,0,0,1-.118-.21V443h-1.867v5.778a2.259,2.259,0,0,0,.943,1.76l1.344.893a.933.933,0,0,0,1.033-1.555Z" transform="translate(-326.956 -443)" fill="#abccd3"/>
        <path id="Trazado_811249" data-name="Trazado 811249" d="M383.908,449.876l-1.336-.888a.493.493,0,0,1-.117-.211V443h-1.867v5.778a2.259,2.259,0,0,0,.943,1.76l1.344.893a.933.933,0,1,0,1.033-1.555Z" transform="translate(-355.903 -443)" fill="#abccd3"/>
      </g>
      <rect id="Rectángulo_375138" data-name="Rectángulo 375138" width="3.316" height="42.013" transform="translate(84.786 6.969)" fill="#cb7c52"/>
      <path id="Trazado_811250" data-name="Trazado 811250" d="M260.606,392.863v-3.793a.634.634,0,0,0-.632-.632h-8.13a.634.634,0,0,0-.632.632v3.793Z" transform="translate(-169.465 -340.097)" fill="#3eaf91"/>
      <path id="Trazado_811251" data-name="Trazado 811251" d="M253.937,392.863v-3.793a.634.634,0,0,1,.632-.632h-2.725a.634.634,0,0,0-.632.632v3.793Z" transform="translate(-169.465 -340.097)" fill="#231f20" opacity="0.1"/>
      <path id="Trazado_811252" data-name="Trazado 811252" d="M249.053.33A.63.63,0,0,0,248.5,0H236.562a.63.63,0,0,0-.527.974l4.624,7.07a.63.63,0,0,0,.527.285h2.69a.629.629,0,0,0,.527-.285l4.624-7.07A.629.629,0,0,0,249.053.33Zm-6.331,5.237h-.383l-1.833-2.8h4.05Z" transform="translate(-156.087)" fill="#3eaf91"/>
      <path id="Trazado_811253" data-name="Trazado 811253" d="M157.51,312.745a.529.529,0,0,1-.231.135,5.912,5.912,0,0,1-7.287-7.287.527.527,0,0,1,.367-.367,5.912,5.912,0,0,1,7.287,7.287A.528.528,0,0,1,157.51,312.745Z" transform="translate(-80.651 -267.051)" fill="#ffaf68"/>
      <path id="Trazado_811254" data-name="Trazado 811254" d="M142.684,298.852a.93.93,0,0,1-.66-.273l-5.245-5.245a.933.933,0,1,1,1.32-1.32l5.245,5.245a.933.933,0,0,1-.66,1.593Z" transform="translate(-69.033 -255.434)" fill="#cb7c52"/>
      <path id="Trazado_811255" data-name="Trazado 811255" d="M397.077,303a.527.527,0,0,1,.135.231,5.912,5.912,0,0,1-7.287,7.287.527.527,0,0,1-.367-.366,5.912,5.912,0,0,1,7.287-7.287A.527.527,0,0,1,397.077,303Z" transform="translate(-290.404 -264.986)" fill="#ff9f3d"/>
      <path id="Trazado_811256" data-name="Trazado 811256" d="M377,330.879a.933.933,0,0,1-.66-1.593l5.245-5.245a.933.933,0,0,1,1.32,1.32l-5.245,5.245A.93.93,0,0,1,377,330.879Z" transform="translate(-278.785 -283.475)" fill="#cb7c52"/>
      <path id="Trazado_811257" data-name="Trazado 811257" d="M344.106,229.424a.531.531,0,0,1-.135-.231,5.912,5.912,0,0,1,7.287-7.287.527.527,0,0,1,.367.367,5.912,5.912,0,0,1-7.287,7.287A.528.528,0,0,1,344.106,229.424Z" transform="translate(-250.49 -194.1)" fill="#86d5b5"/>
      <path id="Trazado_811258" data-name="Trazado 811258" d="M365.8,215.533a.933.933,0,0,1-.66-1.593l5.245-5.245a.933.933,0,1,1,1.32,1.32l-5.245,5.245A.93.93,0,0,1,365.8,215.533Z" transform="translate(-268.98 -182.484)" fill="#3eaf91"/>
      <g id="Grupo_1068197" data-name="Grupo 1068197" transform="translate(57.66 57.044)">
        <path id="Trazado_811259" data-name="Trazado 811259" d="M66.673,487.83c0-1.9-2.018-3.435-4.506-3.435s-4.506,1.538-4.506,3.435Z" transform="translate(-57.66 -481.158)" fill="#ff9f3d"/>
        <ellipse id="Elipse_5737" data-name="Elipse 5737" cx="4.506" cy="2.356" rx="4.506" ry="2.356" transform="translate(11.661)" fill="#ff9f3d"/>
      </g>
      <path id="Trazado_811260" data-name="Trazado 811260" d="M128.138,487.83c0-1.9-2.018-3.435-4.506-3.435s-4.506,1.538-4.506,3.435Z" transform="translate(-53.816 -424.114)" fill="#86d5b5"/>
      <path id="Trazado_811261" data-name="Trazado 811261" d="M184.76,487.83c0-1.9-2.018-3.435-4.506-3.435s-4.506,1.538-4.506,3.435Z" transform="translate(-103.391 -424.114)" fill="#cb7c52"/>
      <path id="Trazado_811262" data-name="Trazado 811262" d="M208.147,421.742H182.86a.634.634,0,0,0-.632.632v2.683H208.78v-2.683A.634.634,0,0,0,208.147,421.742Z" transform="translate(-109.066 -369.258)" fill="#78a7af"/>
      <path id="Trazado_811263" data-name="Trazado 811263" d="M185.54,421.742h-2.681a.634.634,0,0,0-.632.632v2.683h2.681v-2.683A.634.634,0,0,1,185.54,421.742Z" transform="translate(-109.065 -369.258)" fill="#231f20" opacity="0.1"/>
    </g>
  </g>
</svg>
