<svg xmlns="http://www.w3.org/2000/svg" xmlns:xlink="http://www.w3.org/1999/xlink" width="130" height="131.89" viewBox="0 0 130 131.89">
  <defs>
    <clipPath id="clip-path">
      <rect id="Rectángulo_375601" data-name="Rectángulo 375601" width="59.735" height="83.903" fill="none"/>
    </clipPath>
    <clipPath id="clip-path-3">
      <rect id="Rectángulo_375596" data-name="Rectángulo 375596" width="33.007" height="16.867" fill="none"/>
    </clipPath>
    <clipPath id="clip-path-4">
      <rect id="Rectángulo_375598" data-name="Rectángulo 375598" width="57.246" height="5.46" fill="none"/>
    </clipPath>
    <clipPath id="clip-path-5">
      <rect id="Rectángulo_375599" data-name="Rectángulo 375599" width="10.378" height="9.369" fill="none"/>
    </clipPath>
  </defs>
  <g id="Grupo_1070373" data-name="Grupo 1070373" transform="translate(-380 -1232.918)">
    <g id="Grupo_1070297" data-name="Grupo 1070297" transform="translate(-700.855 -3461.779)">
      <circle id="Elipse_5779" data-name="Elipse 5779" cx="65" cy="65" r="65" transform="translate(1080.855 4694.697)" fill="#3b5620"/>
      <g id="Grupo_1069914" data-name="Grupo 1069914" transform="translate(4593.855 2842.742)">
        <circle id="Elipse_5755" data-name="Elipse 5755" cx="59.894" cy="59.894" r="59.894" transform="translate(-3508 1857.955)" fill="#fff"/>
      </g>
    </g>
    <rect id="Rectángulo_375335" data-name="Rectángulo 375335" width="130" height="29" rx="14.5" transform="translate(380 1335.808)" fill="#3b5620"/>
    <path id="Trazado_814891" data-name="Trazado 814891" d="M-4.586-1.437A4.068,4.068,0,0,1-6.375-.262,7.492,7.492,0,0,1-8.937.156a5.076,5.076,0,0,1-2.59-.645,4.3,4.3,0,0,1-1.719-1.871,6.585,6.585,0,0,1-.621-2.883v-.773a6.994,6.994,0,0,1,.574-2.949,4.248,4.248,0,0,1,1.656-1.906,4.771,4.771,0,0,1,2.535-.66,4.751,4.751,0,0,1,3.164.965A4.123,4.123,0,0,1-4.586-7.758H-6.867a2.268,2.268,0,0,0-.691-1.43,2.208,2.208,0,0,0-1.473-.453,2.078,2.078,0,0,0-1.82.9,4.724,4.724,0,0,0-.633,2.672v.727a4.5,4.5,0,0,0,.68,2.7,2.327,2.327,0,0,0,1.992.914A2.6,2.6,0,0,0-6.93-2.289V-4.25H-9.062V-5.977h4.477Zm6.5-4.9A6.134,6.134,0,0,0,1.1-6.4a1.654,1.654,0,0,0-1.68.867V0H-2.836V-8.453H-.7l.063,1.008A2.092,2.092,0,0,1,1.242-8.609a2.366,2.366,0,0,1,.7.1ZM5.383,0H3.117V-8.453H5.383Zm-2.4-10.641a1.112,1.112,0,0,1,.34-.836A1.277,1.277,0,0,1,4.25-11.8a1.28,1.28,0,0,1,.922.328,1.105,1.105,0,0,1,.344.836,1.108,1.108,0,0,1-.348.844,1.283,1.283,0,0,1-.918.328A1.283,1.283,0,0,1,3.332-9.8,1.108,1.108,0,0,1,2.984-10.641Zm8.836,8.3a.727.727,0,0,0-.41-.652,4.659,4.659,0,0,0-1.316-.426Q7.078-4.047,7.078-5.977a2.323,2.323,0,0,1,.934-1.879,3.766,3.766,0,0,1,2.441-.754,4.053,4.053,0,0,1,2.574.758,2.388,2.388,0,0,1,.965,1.969H11.734a1.092,1.092,0,0,0-.312-.8A1.322,1.322,0,0,0,10.445-7a1.351,1.351,0,0,0-.883.258.814.814,0,0,0-.312.656.7.7,0,0,0,.355.605,3.657,3.657,0,0,0,1.2.4,9.8,9.8,0,0,1,1.422.379A2.336,2.336,0,0,1,14.016-2.43a2.2,2.2,0,0,1-.992,1.871,4.28,4.28,0,0,1-2.562.715A4.47,4.47,0,0,1,8.574-.223,3.166,3.166,0,0,1,7.281-1.262a2.414,2.414,0,0,1-.469-1.426H8.953a1.179,1.179,0,0,0,.445.922,1.766,1.766,0,0,0,1.109.32,1.635,1.635,0,0,0,.98-.246A.766.766,0,0,0,11.82-2.336Z" transform="translate(445 1355.808)" fill="#fff"/>
    <g id="Grupo_1070346" data-name="Grupo 1070346" transform="translate(415 1251.904)">
      <g id="Grupo_1070340" data-name="Grupo 1070340" clip-path="url(#clip-path)">
        <path id="Trazado_814836" data-name="Trazado 814836" d="M15.987,5.949,11.316,7.136,9.184,19.1,8.417,29.65H5.439v5.584L7.334,36.6l4.682,45.788.675,5.176h2.742L53.566,87.1l1.756.461,4.392-46.125,1.065-5.212,2.356-.869v-6.2l-2.561-.124L57.432,9.548l-2.606-3.1Z" transform="translate(-4.249 -4.647)" fill="#c2c2c2"/>
        <g id="Grupo_1070339" data-name="Grupo 1070339">
          <g id="Grupo_1070338" data-name="Grupo 1070338" clip-path="url(#clip-path)">
            <path id="Trazado_814837" data-name="Trazado 814837" d="M119.552,179.868c.149-.283.224-.455.325-.609a1.145,1.145,0,0,1,1.545-.514,1.112,1.112,0,0,1,.658,1.484c-.35,1.03-.732,2.052-1.154,3.055a1.149,1.149,0,0,1-1.414.69q-1.4-.293-2.794-.615c-.791-.184-1.234-.7-1.184-1.336.053-.689.552-1.074,1.441-1.116a2.415,2.415,0,0,0,.3-.062c-1.289-2.228-2.538-4.427-3.835-6.6-.343-.575-.826-.473-1.25.217-1.113,1.812-2.211,3.632-3.315,5.449-.691,1.137-1.33,1.434-2.057.962-.686-.446-.7-1.145-.049-2.223,1.1-1.818,2.2-3.639,3.311-5.451,1.477-2.405,4.22-2.383,5.638.045,1.264,2.164,2.512,4.337,3.835,6.622" transform="translate(-83.025 -133.893)"/>
            <path id="Trazado_814838" data-name="Trazado 814838" d="M134.869,243.647c.007.125-.009.187.015.226.561.928.534,1.565-.091,2-.608.426-1.228.262-1.9-.519q-.85-1-1.678-2.009a1.242,1.242,0,0,1,.02-1.772c.611-.7,1.234-1.384,1.848-2.08a1.252,1.252,0,0,1,1.73-.4c.615.368.709.964.321,1.791a2.391,2.391,0,0,0-.086.3c2.4,0,4.766.017,7.129-.011.643-.008.846-.488.489-1.1-.832-1.439-1.694-2.861-2.54-4.291a3.574,3.574,0,0,1-.342-.649,1.141,1.141,0,0,1,.52-1.478,1.06,1.06,0,0,1,1.531.28,53.145,53.145,0,0,1,3.273,5.652,2.977,2.977,0,0,1-2.824,4.053c-2.236.038-4.474.01-6.711.011h-.71" transform="translate(-102.216 -182.352)"/>
            <path id="Trazado_814839" data-name="Trazado 814839" d="M81.782,223.268c-1.066,1.844-2.113,3.629-3.133,5.43-.388.685-.139,1.108.651,1.116,1.8.018,3.6.006,5.4.007.218,0,.438-.012.654.009a1.252,1.252,0,0,1,1.214,1.285,1.2,1.2,0,0,1-1.25,1.154c-2.155.018-4.312.066-6.464-.016a3.045,3.045,0,0,1-2.439-4.582c.909-1.675,1.9-3.309,2.846-4.963.133-.231.256-.468.409-.749-.3,0-.536.009-.769,0A1.119,1.119,0,0,1,77.749,221a1.044,1.044,0,0,1,.669-1.332A22.027,22.027,0,0,1,82,218.894c.354-.04.923.448,1.136.835a18.479,18.479,0,0,1,.959,2.426c.366.972.232,1.57-.425,1.923s-1.2.135-1.886-.81" transform="translate(-59.378 -170.981)"/>
            <g id="Grupo_1070331" data-name="Grupo 1070331" transform="translate(13.103 1.302)" opacity="0.32">
              <g id="Grupo_1070330" data-name="Grupo 1070330">
                <g id="Grupo_1070329" data-name="Grupo 1070329" clip-path="url(#clip-path-3)">
                  <path id="Trazado_814840" data-name="Trazado 814840" d="M59.864,5.949l1.49,16.868h7.878l23.639-.984V5.949Z" transform="translate(-59.864 -5.949)"/>
                </g>
              </g>
            </g>
            <g id="Grupo_1070334" data-name="Grupo 1070334" transform="translate(1.108 25.251)" opacity="0.32">
              <g id="Grupo_1070333" data-name="Grupo 1070333">
                <g id="Grupo_1070332" data-name="Grupo 1070332" clip-path="url(#clip-path-4)">
                  <rect id="Rectángulo_375597" data-name="Rectángulo 375597" width="57.246" height="5.46" transform="translate(0)"/>
                </g>
              </g>
            </g>
            <g id="Grupo_1070337" data-name="Grupo 1070337" transform="translate(41.643 72.963)" opacity="0.32">
              <g id="Grupo_1070336" data-name="Grupo 1070336">
                <g id="Grupo_1070335" data-name="Grupo 1070335" clip-path="url(#clip-path-5)">
                  <path id="Trazado_814841" data-name="Trazado 814841" d="M191.755,333.351h8.881l-1.444,8.872-8.934.5Z" transform="translate(-190.258 -333.351)"/>
                </g>
              </g>
            </g>
            <path id="Trazado_814842" data-name="Trazado 814842" d="M10.2,83.9c-2.162-.693-2.969-2.242-3.153-4.44-.489-5.845-1.13-11.678-1.7-17.516q-.857-8.716-1.7-17.434Q3.051,38.529,2.458,32.57a8.291,8.291,0,0,1-1.417-.439A1.907,1.907,0,0,1,.006,30.31c0-1.447-.013-2.894,0-4.341A2.052,2.052,0,0,1,2.05,23.686c.131-.02.261-.046.44-.077q.577-4.4,1.15-8.769c.4-3.029.744-6.066,1.2-9.087A6.631,6.631,0,0,1,11.554.009q18.309-.017,36.618,0a6.717,6.717,0,0,1,6.774,6.066c.7,5.575,1.444,11.145,2.172,16.717.035.269.1.534.154.823.252.04.491.073.729.117a1.973,1.973,0,0,1,1.709,1.991c.032,1.555.036,3.113,0,4.668-.03,1.266-.777,1.9-2.426,2.109-.176,1.738-.358,3.494-.532,5.251q-.88,8.92-1.755,17.84-.857,8.757-1.706,17.516c-.23,2.363-.472,4.724-.688,7.088A4.076,4.076,0,0,1,49.531,83.9Zm40.526-9.838H15.034a4.123,4.123,0,0,1-.9-.032,1.217,1.217,0,0,1,.091-2.409,6.033,6.033,0,0,1,.818-.014H50.961l3.84-39.1H4.935c.029.369.047.667.077.965q.537,5.418,1.076,10.836.859,8.76,1.708,17.52C8.377,67.753,8.97,73.673,9.54,79.6c.143,1.491.493,1.85,2,1.85H39.8q4.343,0,8.685,0c.973,0,1.5-.329,1.6-1.171.248-2.027.42-4.063.634-6.207M14.711,15.671c.185.033.264.053.343.061.923.09,1.4.539,1.372,1.281s-.591,1.183-1.482,1.178a2.681,2.681,0,0,1-2.734-2.921c-.012-3.959,0-7.919,0-11.878V2.536A4.241,4.241,0,0,0,7.234,6.347c-.349,2.733-.727,5.463-1.084,8.195-.392,3-.775,6-1.172,9.067H54.75c-.1-.761-.2-1.459-.286-2.157-.666-5.113-1.316-10.228-2-15.339A4.138,4.138,0,0,0,47.52,2.586v.878q0,5.775,0,11.55c0,2.154-1.013,3.176-3.144,3.177q-11.1,0-22.2,0a3.4,3.4,0,0,1-.815-.043,1.215,1.215,0,0,1,.1-2.4,4.849,4.849,0,0,1,.736-.016H45V2.511H14.711ZM57.229,26.182H2.529v3.782h54.7Z" transform="translate(0 0)"/>
          </g>
        </g>
      </g>
    </g>
  </g>
</svg>
