<svg xmlns="http://www.w3.org/2000/svg" width="88.243" height="89.966" viewBox="0 0 88.243 89.966">
  <g id="seguro-de-salud" transform="translate(-4.903)">
    <g id="Grupo_1068168" data-name="Grupo 1068168" transform="translate(4.903 0)">
      <g id="Grupo_1068167" data-name="Grupo 1068167" transform="translate(0)">
        <path id="Trazado_811181" data-name="Trazado 811181" d="M49.025,89.965c45.415-18.6,44.118-70.934,44.118-70.934C78.869,4.758,49.025,0,49.025,0S19.181,4.758,4.907,19.031C4.907,19.031,3.61,71.367,49.025,89.965Z" transform="translate(-4.903 0)" fill="#a2c6fd"/>
        <path id="Trazado_811182" data-name="Trazado 811182" d="M49.025,90C3.609,71.4,4.907,19.069,4.907,19.069,18.871,5.105,47.738.249,48.983.046c-.968.188-18.809,3.743-31.381,13.4A14.67,14.67,0,0,0,11.945,26.32C13.212,41.348,19.376,75.68,49.025,90Z" transform="translate(-4.903 -0.038)" fill="#7898d5"/>
        <path id="Trazado_811183" data-name="Trazado 811183" d="M95.087,125.376c-14.043-6.837-24.047-18.413-29.765-34.463a84.277,84.277,0,0,1-4.537-21.668C70.777,61.583,87.4,57.217,95.079,55.787c7.685,1.443,24.343,5.834,34.311,13.462a84.287,84.287,0,0,1-4.538,21.664C119.134,106.963,109.131,118.539,95.087,125.376Z" transform="translate(-50.966 -45.984)" fill="#f5f0f0"/>
        <path id="Trazado_811184" data-name="Trazado 811184" d="M95.089,125.377c-14.043-6.837-24.046-18.413-29.765-34.464a84.253,84.253,0,0,1-4.538-21.668C70.778,61.585,87.4,57.217,95.08,55.787a90.2,90.2,0,0,0-16.912,5.577A19.27,19.27,0,0,0,67.194,82.9c.535,2.543,1.211,5.242,2.068,8.012C74.223,106.964,82.9,118.54,95.089,125.377Z" transform="translate(-50.967 -45.984)" fill="#e8ded8"/>
      </g>
    </g>
    <g id="Grupo_1068169" data-name="Grupo 1068169" transform="translate(31.929 24.913)">
      <path id="Trazado_811185" data-name="Trazado 811185" d="M190.461,151.736q-2.679-.115-5.358-.187a2.028,2.028,0,0,1-1.975-1.975q-.073-2.679-.187-5.358a2.014,2.014,0,0,0-1.609-1.893,28.29,28.29,0,0,0-11.056,0,2.014,2.014,0,0,0-1.609,1.893q-.115,2.679-.187,5.358a2.028,2.028,0,0,1-1.975,1.975q-2.679.073-5.358.187a2.014,2.014,0,0,0-1.893,1.609,28.289,28.289,0,0,0,0,11.056,2.014,2.014,0,0,0,1.893,1.609q2.679.115,5.358.187a2.028,2.028,0,0,1,1.975,1.975q.073,2.679.187,5.358a2.014,2.014,0,0,0,1.609,1.893,28.289,28.289,0,0,0,11.056,0,2.014,2.014,0,0,0,1.609-1.893q.115-2.679.187-5.358A2.028,2.028,0,0,1,185.1,166.2q2.679-.073,5.358-.187a2.014,2.014,0,0,0,1.893-1.609,28.289,28.289,0,0,0,0-11.056,2.014,2.014,0,0,0-1.893-1.609Z" transform="translate(-158.708 -141.778)" fill="#dd636e"/>
    </g>
  </g>
</svg>
