<svg xmlns="http://www.w3.org/2000/svg" width="224.049" height="214.314" viewBox="0 0 224.049 214.314">
  <g id="Grupo_1070367" data-name="Grupo 1070367" transform="translate(-1107.257 -1429.801)">
    <g id="Grupo_1070352" data-name="Grupo 1070352" transform="translate(1107.257 1429.801)">
      <circle id="Elipse_5783" data-name="Elipse 5783" cx="34.159" cy="34.159" r="34.159" transform="translate(0 7.487)" fill="#3b5620"/>
      <circle id="Elipse_5780" data-name="Elipse 5780" cx="107.157" cy="107.157" r="107.157" transform="translate(9.599)" fill="#fff" opacity="0.83"/>
      <g id="Grupo_1070246" data-name="Grupo 1070246" transform="translate(166.835 157.1)">
        <path id="Trazado_265723" data-name="Trazado 265723" d="M1090.628,102.5a1.9,1.9,0,1,1-1.905-1.9,1.906,1.906,0,0,1,1.905,1.9" transform="translate(-1086.817 -100.592)" fill="#3b5620"/>
        <path id="Trazado_265724" data-name="Trazado 265724" d="M1113.354,102.5a1.9,1.9,0,1,1-1.905-1.9,1.906,1.906,0,0,1,1.905,1.9" transform="translate(-1096.192 -100.592)" fill="#3b5620"/>
        <path id="Trazado_265725" data-name="Trazado 265725" d="M1136.08,102.5a1.9,1.9,0,1,1-1.905-1.9,1.906,1.906,0,0,1,1.905,1.9" transform="translate(-1105.568 -100.592)" fill="#3b5620"/>
        <path id="Trazado_265726" data-name="Trazado 265726" d="M1158.806,102.5a1.9,1.9,0,1,1-1.905-1.9,1.906,1.906,0,0,1,1.905,1.9" transform="translate(-1114.943 -100.592)" fill="#3b5620"/>
        <path id="Trazado_265727" data-name="Trazado 265727" d="M1181.532,102.5a1.9,1.9,0,1,1-1.905-1.9,1.906,1.906,0,0,1,1.905,1.9" transform="translate(-1124.318 -100.592)" fill="#3b5620"/>
        <path id="Trazado_265728" data-name="Trazado 265728" d="M1088.722,127.128a1.9,1.9,0,1,1,1.905-1.905,1.905,1.905,0,0,1-1.905,1.905" transform="translate(-1086.817 -109.967)" fill="#3b5620"/>
        <path id="Trazado_265729" data-name="Trazado 265729" d="M1088.722,149.854a1.9,1.9,0,1,1,1.905-1.905,1.905,1.905,0,0,1-1.905,1.905" transform="translate(-1086.817 -119.341)" fill="#3b5620"/>
        <path id="Trazado_265730" data-name="Trazado 265730" d="M1088.722,172.58a1.9,1.9,0,1,1,1.905-1.905,1.905,1.905,0,0,1-1.905,1.905" transform="translate(-1086.817 -128.717)" fill="#3b5620"/>
        <path id="Trazado_265731" data-name="Trazado 265731" d="M1088.722,195.306a1.9,1.9,0,1,1,1.905-1.9,1.9,1.9,0,0,1-1.905,1.9" transform="translate(-1086.817 -138.092)" fill="#3b5620"/>
        <path id="Trazado_265732" data-name="Trazado 265732" d="M1111.448,127.128a1.9,1.9,0,1,1,1.905-1.905,1.905,1.905,0,0,1-1.905,1.905" transform="translate(-1096.192 -109.967)" fill="#3b5620"/>
        <path id="Trazado_265733" data-name="Trazado 265733" d="M1111.448,149.854a1.9,1.9,0,1,1,1.905-1.905,1.905,1.905,0,0,1-1.905,1.905" transform="translate(-1096.192 -119.341)" fill="#3b5620"/>
        <path id="Trazado_265734" data-name="Trazado 265734" d="M1111.448,172.58a1.9,1.9,0,1,1,1.905-1.905,1.905,1.905,0,0,1-1.905,1.905" transform="translate(-1096.192 -128.717)" fill="#3b5620"/>
        <path id="Trazado_265735" data-name="Trazado 265735" d="M1111.448,195.306a1.9,1.9,0,1,1,1.905-1.9,1.9,1.9,0,0,1-1.905,1.9" transform="translate(-1096.192 -138.092)" fill="#3b5620"/>
        <path id="Trazado_265736" data-name="Trazado 265736" d="M1134.174,127.128a1.9,1.9,0,1,1,1.905-1.905,1.905,1.905,0,0,1-1.905,1.905" transform="translate(-1105.567 -109.967)" fill="#3b5620"/>
        <path id="Trazado_265737" data-name="Trazado 265737" d="M1134.174,149.854a1.9,1.9,0,1,1,1.905-1.905,1.905,1.905,0,0,1-1.905,1.905" transform="translate(-1105.567 -119.341)" fill="#3b5620"/>
        <path id="Trazado_265738" data-name="Trazado 265738" d="M1134.174,172.58a1.9,1.9,0,1,1,1.905-1.905,1.905,1.905,0,0,1-1.905,1.905" transform="translate(-1105.567 -128.717)" fill="#3b5620"/>
        <path id="Trazado_265739" data-name="Trazado 265739" d="M1134.174,195.306a1.9,1.9,0,1,1,1.905-1.9,1.9,1.9,0,0,1-1.905,1.9" transform="translate(-1105.567 -138.092)" fill="#3b5620"/>
        <path id="Trazado_265740" data-name="Trazado 265740" d="M1156.9,127.128a1.9,1.9,0,1,1,1.905-1.905,1.905,1.905,0,0,1-1.905,1.905" transform="translate(-1114.942 -109.967)" fill="#3b5620"/>
        <path id="Trazado_265741" data-name="Trazado 265741" d="M1156.9,149.854a1.9,1.9,0,1,1,1.905-1.905,1.905,1.905,0,0,1-1.905,1.905" transform="translate(-1114.942 -119.341)" fill="#3b5620"/>
        <path id="Trazado_265742" data-name="Trazado 265742" d="M1156.9,172.58a1.9,1.9,0,1,1,1.905-1.905,1.905,1.905,0,0,1-1.905,1.905" transform="translate(-1114.942 -128.717)" fill="#3b5620"/>
        <path id="Trazado_265743" data-name="Trazado 265743" d="M1156.9,195.306a1.9,1.9,0,1,1,1.905-1.9,1.9,1.9,0,0,1-1.905,1.9" transform="translate(-1114.942 -138.092)" fill="#3b5620"/>
        <path id="Trazado_265744" data-name="Trazado 265744" d="M1179.626,127.128a1.9,1.9,0,1,1,1.905-1.905,1.905,1.905,0,0,1-1.905,1.905" transform="translate(-1124.318 -109.967)" fill="#3b5620"/>
        <path id="Trazado_265745" data-name="Trazado 265745" d="M1179.626,149.854a1.9,1.9,0,1,1,1.905-1.905,1.905,1.905,0,0,1-1.905,1.905" transform="translate(-1124.318 -119.341)" fill="#3b5620"/>
        <path id="Trazado_265746" data-name="Trazado 265746" d="M1179.626,172.58a1.9,1.9,0,1,1,1.905-1.905,1.905,1.905,0,0,1-1.905,1.905" transform="translate(-1124.318 -128.717)" fill="#3b5620"/>
        <path id="Trazado_265747" data-name="Trazado 265747" d="M1179.626,195.306a1.9,1.9,0,1,1,1.905-1.9,1.9,1.9,0,0,1-1.905,1.9" transform="translate(-1124.318 -138.092)" fill="#3b5620"/>
      </g>
    </g>
    <g id="riesgo-biologico" transform="translate(1149.257 1468.172)">
      <g id="Grupo_1068216" data-name="Grupo 1068216">
        <path id="Trazado_811279" data-name="Trazado 811279" d="M240.469,234.513a5.956,5.956,0,1,1-5.956,5.956A5.957,5.957,0,0,1,240.469,234.513Z" transform="translate(-169.509 -169.509)" fill="#fcbb29"/>
        <path id="Trazado_811280" data-name="Trazado 811280" d="M152.669,256.838a24.476,24.476,0,0,1-1.46,18.624q-.338.669-.718,1.317a35.388,35.388,0,0,1-21.756-36.863c.725-.018,1.453,0,2.175.043a24.5,24.5,0,0,1,21.76,16.878Z" transform="translate(-92.879 -173.41)" fill="#fcbb29"/>
        <path id="Trazado_811281" data-name="Trazado 811281" d="M317.106,239.913a35.385,35.385,0,0,1-21.76,36.863q-.385-.648-.721-1.317v0a24.5,24.5,0,0,1-1.45-18.653,25,25,0,0,1,2.082-4.656,24.218,24.218,0,0,1,3.324-4.485,24.466,24.466,0,0,1,16.246-7.7C315.585,239.91,316.345,239.892,317.106,239.913Z" transform="translate(-211.043 -173.406)" fill="#fcbb29"/>
        <path id="Trazado_811282" data-name="Trazado 811282" d="M221.293,134.6a23.454,23.454,0,0,1-1.289,2.11,24.475,24.475,0,0,1-41.72-2.057,35.35,35.35,0,0,1,43.009-.054Z" transform="translate(-128.866 -92.04)" fill="#fcbb29"/>
        <path id="Trazado_811283" data-name="Trazado 811283" d="M70.96,0A70.96,70.96,0,1,1,0,70.96,70.96,70.96,0,0,1,70.96,0Z" fill="#fcbb29"/>
      </g>
      <line id="Línea_909" data-name="Línea 909" y1="0.004" transform="translate(84.493 104.642)" fill="none" stroke="#333" stroke-linejoin="round" stroke-miterlimit="10" stroke-width="15"/>
      <g id="Grupo_1068217" data-name="Grupo 1068217" transform="translate(11.677 10.791)">
        <path id="Trazado_811284" data-name="Trazado 811284" d="M156.152,194.442a38.29,38.29,0,1,1,38.29-38.29A38.333,38.333,0,0,1,156.152,194.442Zm0-71.224a32.934,32.934,0,1,0,32.934,32.934A32.971,32.971,0,0,0,156.152,123.218Z" transform="translate(-96.869 -95.983)" fill="#4d4d4d"/>
        <path id="Trazado_811285" data-name="Trazado 811285" d="M114.752,131.509a24.475,24.475,0,0,0,31.55,9.737,38.45,38.45,0,0,1-43.28,3.3c-.55-.314-1.089-.646-1.617-.985-.525.339-1.064.671-1.614.985a38.443,38.443,0,0,1-43.276-3.3,24.472,24.472,0,0,0,31.547-9.737q.38-.648.718-1.317a24.471,24.471,0,0,0-20.3-35.5c-.721-.046-1.45-.061-2.175-.043a24.476,24.476,0,0,0-23.738,22.445A38.453,38.453,0,0,1,61.349,77.964c.543-.314,1.085-.611,1.639-.9-.046-.761-.072-1.532-.072-2.307A38.454,38.454,0,0,1,87.411,38.929a24.472,24.472,0,1,0,34.175,33.882,23.433,23.433,0,0,0,1.289-2.11A24.471,24.471,0,0,0,115.3,38.929,38.454,38.454,0,0,1,139.8,74.761q0,1.141-.064,2.26c.582.3,1.157.614,1.732.943a38.453,38.453,0,0,1,18.782,39.127,24.482,24.482,0,0,0-23.734-22.445c-.761-.021-1.521,0-2.278.046a24.467,24.467,0,0,0-16.246,7.7,24.211,24.211,0,0,0-3.324,4.485,24.992,24.992,0,0,0-2.082,4.656,24.5,24.5,0,0,0,1.45,18.653v0C114.256,130.638,114.5,131.077,114.752,131.509ZM107.365,99.1a5.956,5.956,0,1,0-5.956,5.956A5.957,5.957,0,0,0,107.365,99.1Z" transform="translate(-42.126 -38.929)" fill="#4d4d4d"/>
      </g>
    </g>
  </g>
</svg>
