<svg xmlns="http://www.w3.org/2000/svg" xmlns:xlink="http://www.w3.org/1999/xlink" width="400" height="199" viewBox="0 0 400 199">
  <defs>
    <clipPath id="clip-path">
      <rect id="Rect치ngulo_375554" data-name="Rect치ngulo 375554" width="290.809" height="186.1" fill="none"/>
    </clipPath>
  </defs>
  <g id="Grupo_1070245" data-name="Grupo 1070245" transform="translate(-180 -1237)">
    <rect id="Rect치ngulo_375552" data-name="Rect치ngulo 375552" width="400" height="160" rx="22" transform="translate(180 1276)" fill="#3b5620"/>
    <g id="Grupo_1070244" data-name="Grupo 1070244" transform="translate(234.596 1237)">
      <g id="Grupo_1070243" data-name="Grupo 1070243" clip-path="url(#clip-path)">
        <path id="Trazado_814734" data-name="Trazado 814734" d="M15.338,152.588a7.212,7.212,0,0,0-2.323,3.164c-.759,2.762,1.735,5.279,4.07,6.938,10.486,7.45,23.4,12.008,36.206,10.746,5.9-.582,11.61-2.361,17.213-4.293q11.243-3.877,22.159-8.628c2.4-1.045,4.863-2.174,6.613-4.122s2.606-4.943,1.347-7.24c-1.134-2.068-3.564-3-5.814-3.7a123.277,123.277,0,0,0-65.193-2.209,15.85,15.85,0,0,0-6.908,3.135q-3.824,2.936-7.369,6.213" transform="translate(-9.245 -100.444)" fill="#fbb245"/>
        <path id="Trazado_814735" data-name="Trazado 814735" d="M18.718,152.98c-.808,1.086-1.58,2.421-1.2,3.721a4.532,4.532,0,0,0,1.252,1.816,45.392,45.392,0,0,0,28.793,13.325c14.557,1.058,28.613-4.956,41.8-11.2a66.781,66.781,0,0,0,7.839-4.167,11.712,11.712,0,0,0,3.888-3.66,5.11,5.11,0,0,0,.238-5.125,7.366,7.366,0,0,0-3.824-2.648,57.468,57.468,0,0,0-6.677-2.173A107.651,107.651,0,0,0,72.38,140.24c-12.69-1.016-25.661-1.724-37.969,1.528-6.439,1.7-11.729,5.888-15.693,11.212" transform="translate(-12.505 -100.088)" fill="#fcc246"/>
        <path id="Trazado_814736" data-name="Trazado 814736" d="M129.38,71.772a9.266,9.266,0,0,1-3.785,4.589c-4.045,2.805-9.021,3.864-13.876,4.668A188.194,188.194,0,0,1,85.941,83.5a34.752,34.752,0,0,1-9.344-.673,38.283,38.283,0,0,1-8.923-3.933,68.928,68.928,0,0,1-6.031-3.569,8.6,8.6,0,0,1-2.162-1.935c-1.205-1.66-1.251-3.879-1.078-5.924a37.386,37.386,0,0,1,5.9-17.131,36.5,36.5,0,0,1,2.716-3.66A37.385,37.385,0,0,1,82.252,35.918a22.011,22.011,0,0,1,8.378-1.376l11.767.263a36.169,36.169,0,0,1,5.128.358c7.092,1.177,12.47,7.3,16.116,13.129a40.789,40.789,0,0,1,2.048,3.691,39.356,39.356,0,0,1,4.035,16.186c0,.065,0,.129,0,.195a10.6,10.6,0,0,1-.348,3.41" transform="translate(-41.883 -24.798)" fill="#fbb245"/>
        <path id="Trazado_814737" data-name="Trazado 814737" d="M138.526,51.983a35.754,35.754,0,0,1-.645,5.8A27.606,27.606,0,0,1,126,74.639a39.518,39.518,0,0,1-19.963,6.173,36.315,36.315,0,0,1-15.4-2.264,23.342,23.342,0,0,1-11.753-9.936A21.108,21.108,0,0,1,76.4,60.645a26.406,26.406,0,0,1,.742-10.308,36.589,36.589,0,0,1,2.716-3.66A37.385,37.385,0,0,1,95.089,35.918a22.014,22.014,0,0,1,8.378-1.376l11.767.263a36.25,36.25,0,0,1,5.128.358c7.092,1.177,12.47,7.3,16.116,13.129a40.725,40.725,0,0,1,2.048,3.691" transform="translate(-54.72 -24.799)" fill="#facb48"/>
        <path id="Trazado_814738" data-name="Trazado 814738" d="M111.865,36.14a23.551,23.551,0,0,0-13.559.237,34.077,34.077,0,0,0-11.9,6.722A28.7,28.7,0,0,0,79.6,51.08c-2.317,4.233-3.127,9.138-3.309,13.96s.227,9.649.174,14.474a6.034,6.034,0,0,1-.575,3,4.047,4.047,0,0,1-3.775,1.772,5.826,5.826,0,0,1-2.728-.755c-2.173-1.291-4.46-2.484-6.555-3.9-1.738-1.172-3.71-1.935-5.494-3.062-1.835-1.16-1.31-3.4-1-5.345C58.662,56.813,68.911,44.4,81.722,37.4A42.807,42.807,0,0,1,89.2,34.145a32.235,32.235,0,0,1,17.729-.036q.456.119.909.248a20.278,20.278,0,0,1,3.584,1.594,3.822,3.822,0,0,1,.44.189" transform="translate(-40.224 -23.611)" fill="#fbb245"/>
        <path id="Trazado_814739" data-name="Trazado 814739" d="M192.756,69.63c-.542,1.411-2.371.009-3.348-.165a15.073,15.073,0,0,0-4.667-.063,25.635,25.635,0,0,0-8.652,3.066c-4.626,2.5-9.019,5.652-12.109,9.907a42.433,42.433,0,0,1-3.649,4.962,2,2,0,0,1-.948.629,2.159,2.159,0,0,1-1.227-.223q-1.446-.574-2.869-1.2c-.672-.3-2.02-.444-2.464-1.079-.48-.685.015-2.068.346-3.014.06-.17.114-.326.156-.461,1.75-5.6,5.637-9.342,10.366-12.628a35.21,35.21,0,0,1,17.982-6.373,14.16,14.16,0,0,1,5.58.758,10.214,10.214,0,0,1,3.6,1.912,8.068,8.068,0,0,1,1.835,2.781,1.815,1.815,0,0,1,.068,1.2" transform="translate(-109.591 -45.208)" fill="#fbb245"/>
        <path id="Trazado_814740" data-name="Trazado 814740" d="M194.076,68.434a.78.78,0,0,1-.278.2,22.747,22.747,0,0,0-2.393-1.059,21.862,21.862,0,0,0-2.375-.189c-6.5-.262-12.884,2.566-18.042,6.375a31.391,31.391,0,0,0-3.075,2.588c-2.36,2.264-5.068,5.025-6.5,7.986a2.307,2.307,0,0,1-.763,1.031c-1.586.985-4.874-.911-5.792-2.166a1.8,1.8,0,0,1-.3-.751c.06-.169.114-.326.156-.461,1.75-5.6,5.637-9.342,10.366-12.628a35.212,35.212,0,0,1,17.982-6.374,14.16,14.16,0,0,1,5.58.759,10.205,10.205,0,0,1,3.6,1.912,8.073,8.073,0,0,1,1.835,2.78" transform="translate(-110.98 -45.207)" fill="#fbdc48"/>
        <path id="Trazado_814741" data-name="Trazado 814741" d="M106.933,34.109c-.234.024-.474.042-.724.053A32.62,32.62,0,0,0,85.36,42.636a34.16,34.16,0,0,0-9.97,14.041A50.417,50.417,0,0,0,73.2,66.346a59.469,59.469,0,0,0-.824,9.763,39.9,39.9,0,0,1-.065,7.336,5.358,5.358,0,0,1-.2.839,5.826,5.826,0,0,1-2.728-.755c-2.173-1.291-4.46-2.484-6.555-3.9-1.738-1.171-3.71-1.935-5.495-3.062-1.835-1.16-1.31-3.4-1-5.345C58.662,56.813,68.911,44.4,81.722,37.4A42.817,42.817,0,0,1,89.2,34.145a32.235,32.235,0,0,1,17.729-.036" transform="translate(-40.224 -23.611)" fill="#fbdc48"/>
        <path id="Trazado_814742" data-name="Trazado 814742" d="M443.632,559.69l.559-.125c2.157-.485,4.736-.6,6.21-2.475,1.252-1.595,1.3-3.792,1.3-5.82a5.042,5.042,0,0,0-.536-2.763,4.178,4.178,0,0,0-2.4-1.532c-4.074-1.232-8.45-.214-12.576.831-11.332,2.871-22.642,5.932-34.192,7.737a126.366,126.366,0,0,0-13.111,2.332c-1.844.492-3.447.632-4.26,2.395-.8,1.728-1.126,4.23-.06,5.9a6.8,6.8,0,0,0,3.211,2.329c8.841,3.795,18.958,2.955,28.4,1.1,5.036-.992,9.55-3.52,14.067-5.839,4.235-2.174,8.747-3.038,13.389-4.068" transform="translate(-275.654 -392.351)" fill="#231f20"/>
        <path id="Trazado_814743" data-name="Trazado 814743" d="M450.872,348.063c-1.566,6.863-2.8,13.948-1.577,20.647.984,5.328,4.226,12.134.327,17.177-1.488,1.924-3.86,2.9-6.121,3.8l-12.37,4.9c-7.383,2.926-14.859,5.877-22.73,6.929a35.762,35.762,0,0,1-18.28-1.986c-4.409-1.809-7.321-3.434-6.376-8.724a13.22,13.22,0,0,1,1.869-4.785,12.014,12.014,0,0,1,2.927-3.168c4.449-3.317,10.6-3.378,15.35-6.24a18.975,18.975,0,0,0,7.8-10.464,42.37,42.37,0,0,0,1.7-13.166c.036-10.647-2.549-21.248-1.572-31.87.209-2.258.679-2.9,2.664-3.286,2.549-.5,5.06-1.182,7.619-1.655a107.636,107.636,0,0,1,15.589-1.717,31.3,31.3,0,0,1,6.334.359c2.971.509,10.079,2.08,11.924,4.334,1.466,1.793.038,6.417-.427,8.472q-1.252,5.536-2.469,11.08c-.659,3.032-1.458,6.173-2.186,9.362" transform="translate(-275.42 -225.777)" fill="#ee423a"/>
        <path id="Trazado_814744" data-name="Trazado 814744" d="M450.464,321.828a40.369,40.369,0,0,1-2.552,8.219c-3.707,10.117-4.957,21.013-4.777,31.786.069,4.2.344,8.466-.707,12.53-1.637,6.329-6.42,11.533-12.107,14.76s-12.221,4.661-18.721,5.361a48.04,48.04,0,0,1-10.711.143c-3.095-.362-6.32-1.281-8.4-3.6a6.933,6.933,0,0,1-1.7-5,12.019,12.019,0,0,1,2.927-3.168c4.449-3.317,10.6-3.378,15.35-6.24a18.975,18.975,0,0,0,7.8-10.464,42.363,42.363,0,0,0,1.7-13.166c.036-10.647-2.549-21.248-1.572-31.87.209-2.258.68-2.9,2.664-3.286,2.549-.5,5.06-1.182,7.619-1.655a107.64,107.64,0,0,1,15.589-1.717,31.306,31.306,0,0,1,6.334.359,10.485,10.485,0,0,1,1.263,7.012" transform="translate(-280.592 -225.777)" fill="#f05957"/>
        <path id="Trazado_814745" data-name="Trazado 814745" d="M398.86,564.149a3.436,3.436,0,0,0,1.656,2.225,3.912,3.912,0,0,0,1.432.788,1.359,1.359,0,0,0,1.459-.5c.547-.9-.359-2.417-.31-3.429.052-1.061.961-2.182.129-3.116-1.768-1.985-4.482,2.506-4.366,4.034" transform="translate(-286.399 -401.833)" fill="#f2787e"/>
        <path id="Trazado_814746" data-name="Trazado 814746" d="M494.24,339.031a170.774,170.774,0,0,0-1.327,22.042c.026,5.765-1.815,15.739-5,20.543,1.4-4.771,3.059-15.2,2.4-20.126-1.259-9.362-2.743-17-.958-26.355.443.978.74,2.328,1.589,2.986,1.071.83,1.956.748,3.3.91" transform="translate(-350.346 -240.644)" fill="#f2787e"/>
        <path id="Trazado_814747" data-name="Trazado 814747" d="M426.941,416.424c1.806-2.915,5.286-4.839,8.31-6.071,4.042-1.647,8.424-2.7,11.9-5.337,5.308-4.025,7.182-11.691,7.593-18.028a50.608,50.608,0,0,0-.317-9.8c-.8-6.119-.858-10.1-1.217-16.263-.1-1.654-1.262-8.365-.639-9.9s1.294.134,2.953-.107c2.5-.363,4.575,1.712,6.51,3.312,5.126,4.238,11.983,6.022,17.075,10.3a35.72,35.72,0,0,1,7.555,9.714c2.093,3.612,4,7.447,4.474,11.581.667,5.772-1.492,11.442-3.207,17-1.611,5.222-3.036,10.86-7.085,14.575-2.484,2.28-5.7,3.577-8.81,4.917-5.3,2.284-10.533,4.844-16.179,6.06-7.881,1.7-16.07.681-24.07-.342-2.306-.295-7.331-.977-7.331-.977.4-2.968.7-6.334,1.742-9.129a8.407,8.407,0,0,1,.737-1.5" transform="translate(-304.785 -251.577)" fill="#d62c2f"/>
        <path id="Trazado_814748" data-name="Trazado 814748" d="M487.654,320.949a50.58,50.58,0,0,0,35.915.9,12.842,12.842,0,0,0,3.033-1.466c6.564-4.612-4.88-7.931-7.438-8.289a74.163,74.163,0,0,0-21.523.15c-3.49.534-7.481.919-10.81,2.473-3.448,1.61-2,5.074.822,6.235" transform="translate(-348.124 -223.586)" fill="#f1686e"/>
        <path id="Trazado_814749" data-name="Trazado 814749" d="M495.907,324.658a53.785,53.785,0,0,0,31.954.661,12.575,12.575,0,0,0,2.7-1.08c5.84-3.4-4.341-5.841-6.617-6.1a79.575,79.575,0,0,0-19.149.11c-3.1.394-6.655.677-9.617,1.822-3.068,1.186-1.775,3.737.731,4.592" transform="translate(-354.275 -228.06)" fill="#bb2026"/>
        <path id="Trazado_814750" data-name="Trazado 814750" d="M494.87,584.443l.557-.124c2.146-.482,4.711-.6,6.177-2.462,1.246-1.587,1.3-3.772,1.294-5.789a5.013,5.013,0,0,0-.533-2.748,4.155,4.155,0,0,0-2.386-1.523c-4.053-1.225-8.406-.213-12.51.826-11.273,2.855-22.523,5.9-34.012,7.7a125.685,125.685,0,0,0-13.042,2.32c-1.835.489-3.429.628-4.237,2.382-.793,1.719-1.12,4.208-.06,5.871a6.763,6.763,0,0,0,3.194,2.317c8.794,3.775,18.858,2.939,28.248,1.09,5.009-.987,9.5-3.5,13.993-5.808,4.212-2.162,8.7-3.022,13.318-4.047" transform="translate(-312.671 -410.175)" fill="#231f20"/>
        <path id="Trazado_814751" data-name="Trazado 814751" d="M502.07,373.929c-1.558,6.827-2.785,13.874-1.568,20.538.979,5.3,4.2,12.07.325,17.086-1.48,1.914-3.84,2.887-6.089,3.779l-12.3,4.876c-7.344,2.911-14.78,5.846-22.611,6.893a35.57,35.57,0,0,1-18.184-1.976c-4.385-1.8-7.283-3.416-6.342-8.678a13.154,13.154,0,0,1,1.859-4.76,11.956,11.956,0,0,1,2.912-3.151c4.426-3.3,10.541-3.36,15.27-6.207a18.875,18.875,0,0,0,7.761-10.409,42.149,42.149,0,0,0,1.691-13.1c.036-10.591-2.536-21.136-1.564-31.7.208-2.246.676-2.882,2.65-3.269,2.536-.5,5.034-1.176,7.579-1.646a107.073,107.073,0,0,1,15.507-1.708,31.148,31.148,0,0,1,6.3.357c2.955.506,10.026,2.069,11.861,4.311,1.459,1.784.038,6.383-.424,8.427q-1.246,5.507-2.456,11.022c-.655,3.016-1.451,6.14-2.175,9.312" transform="translate(-312.437 -244.477)" fill="#ee423a"/>
        <path id="Trazado_814752" data-name="Trazado 814752" d="M501.664,347.832a40.131,40.131,0,0,1-2.539,8.176c-3.687,10.064-4.931,20.9-4.752,31.619.069,4.174.342,8.422-.7,12.464-1.628,6.3-6.386,11.472-12.043,14.682S469.47,419.409,463,420.1a47.785,47.785,0,0,1-10.655.142c-3.078-.36-6.287-1.274-8.357-3.581a6.9,6.9,0,0,1-1.693-4.978,11.968,11.968,0,0,1,2.912-3.152c4.426-3.3,10.541-3.36,15.27-6.207a18.875,18.875,0,0,0,7.761-10.409,42.139,42.139,0,0,0,1.691-13.1c.036-10.591-2.536-21.136-1.564-31.7.208-2.246.676-2.881,2.65-3.269,2.536-.5,5.034-1.176,7.579-1.646a107.068,107.068,0,0,1,15.507-1.707,31.125,31.125,0,0,1,6.3.357,10.431,10.431,0,0,1,1.256,6.975" transform="translate(-317.582 -244.477)" fill="#f05957"/>
        <path id="Trazado_814753" data-name="Trazado 814753" d="M450.332,588.878a3.418,3.418,0,0,0,1.648,2.213,3.886,3.886,0,0,0,1.425.784,1.35,1.35,0,0,0,1.451-.5c.545-.9-.357-2.4-.308-3.41.051-1.056.956-2.171.129-3.1-1.758-1.974-4.459,2.492-4.343,4.013" transform="translate(-323.359 -419.608)" fill="#f2787e"/>
        <path id="Trazado_814754" data-name="Trazado 814754" d="M545.209,364.944a169.907,169.907,0,0,0-1.32,21.926c.026,5.734-1.805,15.656-4.974,20.435,1.391-4.746,3.042-15.119,2.383-20.02-1.253-9.312-2.729-16.914-.953-26.216.441.973.736,2.316,1.58,2.97,1.066.826,1.946.744,3.285.905" transform="translate(-386.968 -259.266)" fill="#f2787e"/>
        <path id="Trazado_814755" data-name="Trazado 814755" d="M538.659,346.958a50.312,50.312,0,0,0,35.726.892,12.758,12.758,0,0,0,3.017-1.458c6.53-4.588-4.853-7.89-7.4-8.246a73.781,73.781,0,0,0-21.41.149c-3.471.532-7.441.914-10.753,2.461-3.43,1.6-1.985,5.047.818,6.2" transform="translate(-384.759 -242.298)" fill="#f1686e"/>
        <path id="Trazado_814756" data-name="Trazado 814756" d="M546.868,350.648a53.5,53.5,0,0,0,31.785.657,12.507,12.507,0,0,0,2.685-1.074c5.81-3.379-4.318-5.811-6.583-6.073a79.14,79.14,0,0,0-19.048.11c-3.089.391-6.62.673-9.567,1.812-3.052,1.18-1.766,3.717.727,4.568" transform="translate(-390.878 -246.749)" fill="#bb2026"/>
        <path id="Trazado_814757" data-name="Trazado 814757" d="M212.635,375.55c.367-6.073,6.888-22.256,10.855-8.675,1.337,4.578.829,9.834,2.856,14.2,2.088,4.5,7.278,11.017,7.732,15.852.769,8.2-19.03-2.191-20.907-8.889-1.057-3.774-.778-8.49-.536-12.488" transform="translate(-152.522 -259.641)" fill="#f05d22"/>
        <path id="Trazado_814758" data-name="Trazado 814758" d="M15.63,366.273c.57,6.38-1.707,14.967-3.844,21.014-1.945,5.507-7.051,10.625-8.108,16.17,10.877.883,20.128-6.917,23.84-16.632,1.6-4.184,3.438-11.094.89-15.421-1.867-3.171-8-6.356-11.065-5.131Z" transform="translate(-2.642 -262.81)" fill="#f05d22"/>
        <path id="Trazado_814759" data-name="Trazado 814759" d="M98.033,354.557c2.162,4.779,11.2,2.587,15,1.393,2.255-.709,4.024-2.516,6-.714,2.506,2.287,3.2,11.985,3.4,14.633.763,9.817,1.408,19.639,2.344,29.272.683,7.026,2.067,14.1,3.135,21.16.947,6.264,1.547,11.119-4.538,14.63-5.548,3.2-11.14,1.753-17.338,1.462-5.133-.24-14.03,1.4-14.629-4.859a33.885,33.885,0,0,1,.355-5.129c.21-4.108-.834-8-1.06-12.074-.361-6.5-.19-13.306.094-19.8.366-8.367-1.23-18.28.27-26.386.851-4.6,4.33-8,6.314-12.217-.3-.4-.3.131-.74.025Z" transform="translate(-64.919 -254.521)" fill="#f05d22"/>
        <path id="Trazado_814760" data-name="Trazado 814760" d="M37.211,413.837q0,1.034-.01,2.073-.029,2.728-.151,5.455c-.016.38-.035.758-.054,1.136,0,.026,0,.054,0,.082-.18,3.739.648,8.663-2.04,11.721-2.863,3.26-5.771,2.41-9.553,2.661-4.842.319-9.189,1.132-14.048.657-.254-.024-.522-.042-.8-.056-3-.148-7.335.186-9.307-2.1-1.634-1.891-.4-6.05-.5-8.187q-.031-.606-.07-1.218C.62,425.3.562,424.526.5,423.754c-.127-1.644-.266-3.3-.362-4.95-.042-.725-.075-1.449-.094-2.172-.014-.514-.023-1.027-.021-1.539.005-1.968-.012-3.94-.021-5.913q0-1.233,0-2.468c0-1.628.019-3.257.065-4.885.021-.688.045-1.378.078-2.066q.073-1.646.2-3.286c.486-5.987,4.944-7.248,8.684-11.159,4.242-4.435,6.8-10.959,5.892-17.17-.442-3.017-2.17-6.049-2.361-9.133-.387-6.254,11.46-5.728,15.511-6.028,4.8-.357,7.421.334,7.482,5.04.075,5.784-.613,11.669-.35,17.435.326,7.16.627,14.346,1.162,21.479.049.676.1,1.35.158,2.024q.034.442.072.879.191,2.275.326,4.554c.024.437.049.874.07,1.312q.206,4.06.218,8.128" transform="translate(0 -253.403)" fill="#f47e20"/>
        <path id="Trazado_814761" data-name="Trazado 814761" d="M36.993,517.83c-2.487,1.808-10.222,1.418-13.292,1.719-7.757.766-15.824,1.938-23.7,1.752q0-1.233,0-2.468c0-1.629.019-3.257.065-4.885.021-.688.045-1.378.078-2.066a190.187,190.187,0,0,0,22.094-1.755,103.473,103.473,0,0,1,14.13-1.066c.049.676.1,1.35.158,2.024.023.294.047.587.071.88q.191,2.275.326,4.554c.024.437.049.874.07,1.311" transform="translate(0 -365.525)" fill="#333"/>
        <path id="Trazado_814762" data-name="Trazado 814762" d="M37.323,568.922q0,1.035-.01,2.073-.029,2.727-.151,5.455c-.016.38-.035.758-.054,1.136,0,.026,0,.054,0,.082-2.489,1.806-10.22,1.416-13.29,1.717-7.54.745-15.37,1.874-23.033,1.762-.049-.766-.106-1.536-.167-2.308-.127-1.644-.266-3.3-.362-4.95-.042-.725-.075-1.449-.094-2.172a189.565,189.565,0,0,0,22.194-1.755,96.646,96.646,0,0,1,14.973-1.04" transform="translate(-0.113 -408.489)" fill="#333"/>
        <path id="Trazado_814763" data-name="Trazado 814763" d="M36.924,521.7c-5.88.7-11.631,1.762-17.616,2-4.314.176-13.146,1.1-19.306.31,0-1.628.019-3.257.065-4.885,2.391-.181,4.89-.155,6.8-.4,7.045-.888,14.152-1.449,21.269-1.755,1.867-.08,5.166-.524,8.4-.712q.034.441.071.879.191,2.275.326,4.554" transform="translate(-0.001 -370.705)" fill="#66bb46"/>
        <path id="Trazado_814764" data-name="Trazado 814764" d="M37.553,576.367q-.029,2.728-.151,5.455c-5.923.7-11.712,1.775-17.742,2.02-4.2.171-12.676,1.052-18.806.369-.127-1.644-.266-3.3-.362-4.95,2.369-.178,4.837-.155,6.723-.392,7.045-.888,14.152-1.447,21.269-1.755,2-.085,5.632-.587,9.07-.747" transform="translate(-0.353 -413.861)" fill="#66bb46"/>
        <path id="Trazado_814765" data-name="Trazado 814765" d="M161.215,413.837q0,1.034.01,2.073.029,2.728.151,5.455c.016.38.035.758.054,1.136,0,.026,0,.054,0,.082.18,3.739-.648,8.663,2.04,11.721,2.863,3.26,5.771,2.41,9.553,2.661,4.842.319,9.189,1.132,14.048.657.254-.024.522-.042.8-.056,3-.148,7.336.186,9.307-2.1,1.634-1.891.4-6.05.5-8.187q.031-.606.07-1.218c.049-.766.106-1.536.167-2.308.127-1.644.266-3.3.362-4.95.042-.725.075-1.449.094-2.172.014-.514.023-1.027.021-1.539-.005-1.968.012-3.94.021-5.913q0-1.233,0-2.468c0-1.628-.019-3.257-.065-4.885-.021-.688-.045-1.378-.078-2.066q-.073-1.646-.2-3.286c-.448-5.578-2.083-5.74-6.291-8.851-3.6-2.66-7.836-5.733-8.593-10.345-.62-3.776.275-7.9.783-11.648.343-2.533,1.609-6.518,1.1-8.707-1.264-5.47-10.75-3.644-14.73-3.939-4.8-.357-7.421.334-7.482,5.04-.075,5.784.613,11.669.35,17.435-.326,7.16-.627,14.346-1.162,21.479-.049.676-.1,1.35-.158,2.024q-.034.442-.072.879-.191,2.275-.326,4.554c-.024.437-.049.874-.07,1.312q-.206,4.06-.218,8.128" transform="translate(-115.76 -253.403)" fill="#f47e20"/>
        <path id="Trazado_814766" data-name="Trazado 814766" d="M161.988,517.83c2.487,1.808,10.221,1.418,13.292,1.719,7.757.766,15.824,1.938,23.7,1.752q0-1.233,0-2.468c0-1.629-.019-3.257-.065-4.885-.021-.688-.045-1.378-.078-2.066a190.187,190.187,0,0,1-22.094-1.755,103.473,103.473,0,0,0-14.13-1.066c-.049.676-.1,1.35-.158,2.024-.023.294-.047.587-.072.88q-.191,2.275-.326,4.554c-.024.437-.049.874-.07,1.311" transform="translate(-116.316 -365.525)" fill="#333"/>
        <path id="Trazado_814767" data-name="Trazado 814767" d="M161.215,568.922q0,1.035.01,2.073.029,2.727.151,5.455c.016.38.035.758.054,1.136,0,.026,0,.054,0,.082,2.489,1.806,10.22,1.416,13.29,1.717,7.54.745,15.37,1.874,23.033,1.762.049-.766.106-1.536.167-2.308.127-1.644.266-3.3.362-4.95.042-.725.075-1.449.094-2.172a189.564,189.564,0,0,1-22.194-1.755,96.646,96.646,0,0,0-14.973-1.04" transform="translate(-115.76 -408.489)" fill="#333"/>
        <path id="Trazado_814768" data-name="Trazado 814768" d="M162.235,521.7c5.88.7,11.63,1.762,17.616,2,4.314.176,13.146,1.1,19.306.31,0-1.628-.019-3.257-.065-4.885-2.391-.181-4.89-.155-6.8-.4-7.045-.888-14.152-1.449-21.269-1.755-1.867-.08-5.166-.524-8.4-.712q-.034.441-.071.879-.191,2.275-.326,4.554" transform="translate(-116.493 -370.705)" fill="#66bb46"/>
        <path id="Trazado_814769" data-name="Trazado 814769" d="M161.253,576.367q.029,2.728.151,5.455c5.923.7,11.712,1.775,17.742,2.02,4.2.171,12.676,1.052,18.806.369.127-1.644.266-3.3.362-4.95-2.369-.178-4.837-.155-6.722-.392-7.045-.888-14.152-1.447-21.269-1.755-2-.085-5.632-.587-9.07-.747" transform="translate(-115.788 -413.861)" fill="#66bb46"/>
        <path id="Trazado_814770" data-name="Trazado 814770" d="M121.153,447.726a35.132,35.132,0,0,1,.051,6.216c4.084-.814,9.21-.828,13.481-1.044.279-2.256.6-4.471,1.036-6.522-4.255,1.211-9.761.528-14.269,1.342-.464-.057.3.261.4.356Z" transform="translate(-86.994 -320.521)" fill="#333"/>
        <path id="Trazado_814771" data-name="Trazado 814771" d="M169.383,442.492a3.626,3.626,0,0,0-.489,1.586c-.172.824-.33,1.653-.528,2.471a8.327,8.327,0,0,0-.3,4.109.782.782,0,0,0,1.5,0,19.584,19.584,0,0,0,.356-3.9c.026-.753.1-1.5.092-2.253a3.4,3.4,0,0,0-.316-1.974c-.067-.089-.222-.149-.308-.04" transform="translate(-120.558 -317.69)" fill="#444445"/>
        <path id="Trazado_814772" data-name="Trazado 814772" d="M117.495,447.339c-.006,1.129.105,2.251.06,3.383-.047,1.182-.215,2.357-.283,3.537s1.82,1.2,1.86,0c.078-2.314.855-5.336-.746-7.29-.3-.368-.89-.053-.892.369" transform="translate(-84.206 -320.83)" fill="#444445"/>
        <path id="Trazado_814773" data-name="Trazado 814773" d="M121.153,513.644a35.132,35.132,0,0,1,.051,6.216c4.084-.814,9.21-.828,13.481-1.044.279-2.256.6-4.471,1.036-6.522-4.255,1.211-9.761.528-14.269,1.342-.464-.057.3.261.4.356Z" transform="translate(-86.994 -367.853)" fill="#333"/>
        <path id="Trazado_814774" data-name="Trazado 814774" d="M169.383,508.409a3.628,3.628,0,0,0-.489,1.586c-.172.824-.33,1.653-.528,2.471a8.327,8.327,0,0,0-.3,4.109.782.782,0,0,0,1.5,0,19.584,19.584,0,0,0,.356-3.9c.026-.753.1-1.5.092-2.253a3.4,3.4,0,0,0-.316-1.974c-.067-.089-.222-.149-.308-.04" transform="translate(-120.558 -365.021)" fill="#444445"/>
        <path id="Trazado_814775" data-name="Trazado 814775" d="M117.495,513.257c-.006,1.129.105,2.251.06,3.383-.047,1.182-.215,2.357-.283,3.537s1.82,1.2,1.86,0c.078-2.314.855-5.336-.746-7.29-.3-.368-.89-.053-.892.369" transform="translate(-84.206 -368.163)" fill="#444445"/>
        <path id="Trazado_814776" data-name="Trazado 814776" d="M786.156,346.865c-.425-1.883-2.876-9.384,1.88-7.309,1.054.46,1.953,2.086,2.633,3.939-.889-4.066-1.348-8.5,1.808-8.731,4.934-.364,5.937,10.143,6.438,13.364a48.111,48.111,0,0,1-.752-9.173c.462-7.62,5.075-4.672,6.365.786,1.139,4.818.81,11.1,4.095,15.026-.588-2.722-2.239-17.054,4.012-10.764,3.5,3.524,2.776,11.034,3.55,15.588a64.13,64.13,0,0,0,5.11,16.12c5.61,12.19,14.8,22.5,18.872,35.363l-.3.3c-.6,1.336-3.848,3.014-6.107,3.851-8.872,3.288-18.953,8.865-28.363,10.2a96.156,96.156,0,0,1-5.584-16.205c-2.95-11.474-3.779-23.588-8.466-34.5-2.224-5.177-4.2-10.568-6-15.9-.891-2.64-2.036-5.418-2.185-8.242-.083-1.583.4-6.553,2.992-3.712" transform="translate(-562.345 -240.078)" fill="#a86131"/>
        <path id="Trazado_814777" data-name="Trazado 814777" d="M883.052,368.964a6.826,6.826,0,0,0-3.711-5.884,4.92,4.92,0,0,1,2.359,1.555c3.5,3.524,2.776,11.034,3.55,15.588a64.123,64.123,0,0,0,5.11,16.12c5.61,12.19,14.8,22.5,18.872,35.363l-.3.3c-.372.832-1.774,1.8-3.324,2.609-2.176-5.281-3.349-10.849-6.764-15.68a83.718,83.718,0,0,1-15.794-49.966" transform="translate(-631.411 -260.71)" fill="#955726"/>
        <path id="Trazado_814778" data-name="Trazado 814778" d="M850.288,356.617c-3.143-5.163-3.116-10.706-4.276-16.453-.434-1.774-1.415-4.43-2.87-5.753,1.574-.477,3.657,1.943,4.458,5.333,1.107,4.685,1.091,11.081,4.095,15.026.35,2.189.449,4.036.749,6.212-.784-1.588-1.371-2.976-2.157-4.366" transform="translate(-605.419 -240.081)" fill="#955726"/>
        <path id="Trazado_814779" data-name="Trazado 814779" d="M820.128,339.615a17.3,17.3,0,0,0-2.017-3.769c3.716.337,5,7.2,5.6,11.284.219,2.464.372,4.921.5,7.353-1.362-4.956-1.93-10.3-4.085-14.868" transform="translate(-587.445 -241.155)" fill="#955726"/>
        <path id="Trazado_814780" data-name="Trazado 814780" d="M836.457,361.383q.236,1.91.407,3.819c-.171-1.265-.326-2.544-.407-3.819" transform="translate(-600.619 -259.491)" fill="#955726"/>
        <path id="Trazado_814781" data-name="Trazado 814781" d="M791.447,352.147c.392-.637,1.164-.84,2.542-.239,1.055.46,1.953,2.086,2.633,3.939-.1-.442-.187-.888-.27-1.332a40.244,40.244,0,0,1,1.986,10.815c-1.041-4.8-2.24-10.705-6.891-13.183" transform="translate(-568.299 -252.43)" fill="#955726"/>
        <path id="Trazado_814782" data-name="Trazado 814782" d="M788.265,376.555c-.038-.168-.092-.381-.156-.628a34.348,34.348,0,0,1,2.806,9.693c-1.15-3-1.732-7.95-4.823-9.472.461-.619,1.154-.712,2.173.406" transform="translate(-564.454 -269.768)" fill="#955726"/>
        <path id="Trazado_814783" data-name="Trazado 814783" d="M892.756,600.254c-.386.155-.761.895-1.078,1.2a21.877,21.877,0,0,1-3.156,2.419,35.622,35.622,0,0,1-7.871,3.312c-5.44,1.778-10.592,4.177-15.937,6.08a27.5,27.5,0,0,1-4.693,1.425c-1.367.221-3.136.221-2.717,2.135,2.294.732,5.962-.612,8.189-1.289,2.944-.9,5.7-2.23,8.583-3.311a88.519,88.519,0,0,0,13.976-6.619c1.364-.8,2.939-1.2,4.25-2.106a3.669,3.669,0,0,0,1.537-1.676c.284-.846.084-2.039-1.083-1.569" transform="translate(-615.542 -430.937)" fill="#ba7342"/>
        <path id="Trazado_814784" data-name="Trazado 814784" d="M815.921,357.564c.043-1.687-1.14-6.964-3.459-4.158-1.209,1.463-.279,4.414-.009,6.053.254,1.541,1.695,6.735.009,7.876-3.191,2.162-6.437-11.273-6.707-13.361-.2-1.508.215-7.193-2.223-7.17-2.744.026-.6,5.758-.488,7.263s.658,10.743-1.89,5.849c-1.824-3.505-1.843-8.256-3.45-11.974-.41-.949-1.694-3.653-3.091-3.283-1.6.422-.759,3.427-.524,4.481.724,3.239,2.951,8.268,1.253,11.44-2.285-1.277-2.306-11.93-5.661-11.5-.979,3.98,1.988,7.357,2.425,11.184.27,2.359-.946,2.974-2.166.788-1.025-1.837-.779-3.736-2.469-5.256-.908,4.849,1.455,9.117,3.244,13.582,1.9,4.737,4.056,9.441,5.533,14.33,3.184,10.542,5.8,21.412,8.027,32.183.638,3.09.862,6.23,1.976,9.213,1.528,4.093,5.762,2.361,9.156,1.318,6.183-1.9,21.006-4.941,17.049-14.605-1.612-3.937-4.738-7.178-6.718-10.939-2.345-4.456-3.845-9.318-5.519-14.05-2.331-6.587-3.061-12.629-4.044-19.469a56.473,56.473,0,0,1-.254-9.792" transform="translate(-565.3 -247.459)" fill="#ba7342"/>
        <path id="Trazado_814785" data-name="Trazado 814785" d="M843.268,543.172c-2.868-4.755-2.238-10.939-4.271-16.063-.491-1.238-1.588-4.371-2.89-2.554-1.36,1.9.533,7.518.973,9.491.839,3.764,1.764,7.528,2.754,11.256.711,2.678,2.455,7.9,5.712,8.534,1.745.338,7.021-.6,7.883-2.282,1.209-2.36-2.274-3.109-3.786-3.685-2.575-.979-4.886-2.228-6.374-4.7" transform="translate(-600.02 -376.259)" fill="#cc8656"/>
        <path id="Trazado_814786" data-name="Trazado 814786" d="M806.246,424.261a86.514,86.514,0,0,0,4.525,11.663c2.161,4.623,4.113.75,6.9-1.031,2.481-1.587,5.3-2.529,7.589-4.431,5.07-4.21-.934-4.474-3.014-7.556-2.608-3.863-2.831-8.393-8.831-7.246-4.544.869-8.669,3.507-7.166,8.6" transform="translate(-578.699 -298.335)" fill="#cc8656"/>
        <path id="Trazado_814787" data-name="Trazado 814787" d="M882.5,339.973c.434-1.881,2.921-9.37-1.844-7.318-1.057.455-1.963,2.077-2.652,3.927.909-4.062,1.389-8.492-1.765-8.74-4.933-.388-5.986,10.114-6.5,13.333a48.146,48.146,0,0,0,.8-9.169c-.426-7.622-5.052-4.7-6.369.755-1.162,4.812-.864,11.091-4.167,15.006.6-2.719,2.322-17.043-3.96-10.784-3.519,3.507-2.83,11.021-3.626,15.571a64.132,64.132,0,0,1-5.188,16.1c-5.669,12.163-14.9,22.427-19.043,35.271l.3.3c.591,1.339,3.834,3.033,6.088,3.881,8.856,3.332,18.909,8.956,28.314,10.335a96.135,96.135,0,0,0,5.662-16.178c3.006-11.459,3.894-23.569,8.633-34.454,2.249-5.166,4.25-10.547,6.077-15.869.9-2.635,2.063-5.408,2.225-8.231.091-1.583-.373-6.555-2.974-3.727" transform="translate(-594.672 -235.079)" fill="#a86131"/>
        <path id="Trazado_814788" data-name="Trazado 814788" d="M854.659,361.814a6.826,6.826,0,0,1,3.739-5.866,4.92,4.92,0,0,0-2.366,1.544c-3.519,3.507-2.83,11.021-3.626,15.571a64.135,64.135,0,0,1-5.189,16.1c-5.669,12.163-14.9,22.427-19.043,35.271l.3.3c.368.834,1.765,1.806,3.311,2.625,2.2-5.271,3.4-10.832,6.84-15.647a83.719,83.719,0,0,0,16.036-49.889" transform="translate(-594.672 -255.589)" fill="#955726"/>
        <path id="Trazado_814789" data-name="Trazado 814789" d="M940.436,349.621c3.167-5.147,3.167-10.691,4.355-16.432.443-1.772,1.436-4.423,2.9-5.739-1.572-.485-3.667,1.926-4.484,5.312-1.13,4.68-1.144,11.075-4.167,15.006-.361,2.187-.469,4.033-.779,6.208.792-1.584,1.386-2.969,2.178-4.355" transform="translate(-673.717 -235.081)" fill="#955726"/>
        <path id="Trazado_814790" data-name="Trazado 814790" d="M978.928,332.772a17.275,17.275,0,0,1,2.035-3.76c-3.718.319-5.034,7.171-5.658,11.257-.23,2.463-.4,4.919-.534,7.35,1.386-4.949,1.979-10.295,4.158-14.848" transform="translate(-699.934 -236.247)" fill="#955726"/>
        <path id="Trazado_814791" data-name="Trazado 814791" d="M977.178,354.46q-.246,1.909-.426,3.816c.177-1.264.339-2.543.426-3.816" transform="translate(-701.357 -254.52)" fill="#955726"/>
        <path id="Trazado_814792" data-name="Trazado 814792" d="M1005.6,345.428c-.389-.639-1.161-.846-2.541-.251-1.057.455-1.963,2.077-2.652,3.927.1-.442.192-.887.276-1.331a40.248,40.248,0,0,0-2.038,10.805c1.065-4.792,2.292-10.694,6.954-13.15" transform="translate(-717.077 -247.601)" fill="#955726"/>
        <path id="Trazado_814793" data-name="Trazado 814793" d="M1013.977,369.857c.039-.168.094-.38.159-.627a34.328,34.328,0,0,0-2.852,9.679c1.164-2.994,1.77-7.942,4.868-9.448-.458-.622-1.151-.717-2.175.4" transform="translate(-726.153 -264.963)" fill="#955726"/>
        <path id="Trazado_814794" data-name="Trazado 814794" d="M826.66,594.451c.389.148.778.881,1.1,1.177a21.885,21.885,0,0,0,3.2,2.36,35.614,35.614,0,0,0,7.932,3.163c5.473,1.676,10.668,3.977,16.048,5.78a27.517,27.517,0,0,0,4.719,1.337c1.371.2,3.139.162,2.757,2.084-2.28.775-5.973-.5-8.212-1.135-2.961-.84-5.743-2.123-8.644-3.15a88.529,88.529,0,0,1-14.1-6.355c-1.379-.776-2.961-1.146-4.289-2.026a3.667,3.667,0,0,1-1.568-1.647c-.3-.84-.123-2.037,1.053-1.589" transform="translate(-592.735 -426.776)" fill="#ba7342"/>
        <path id="Trazado_814795" data-name="Trazado 814795" d="M881.187,350.646c-.035-1.687,1.174-6.958,3.479-4.141,1.2,1.47.257,4.416-.021,6.054-.261,1.539-1.727,6.726-.048,7.876,3.18,2.177,6.492-11.242,6.772-13.328.2-1.507-.18-7.194,2.258-7.159,2.743.04.575,5.761.453,7.265s-.71,10.74,1.862,5.858c1.842-3.5,1.883-8.247,3.508-11.957.415-.947,1.712-3.645,3.108-3.268,1.593.43.742,3.431.5,4.484-.74,3.235-2.991,8.254-1.308,11.434,2.291-1.266,2.364-11.919,5.717-11.477.96,3.984-2.024,7.347-2.479,11.172-.28,2.357.932,2.978,2.162.8,1.034-1.832.8-3.732,2.5-5.243.884,4.853-1.5,9.11-3.31,13.566-1.921,4.728-4.1,9.421-5.6,14.3-3.236,10.526-5.908,21.384-8.184,32.144-.653,3.087-.892,6.225-2.02,9.2-1.548,4.086-5.774,2.333-9.163,1.274-6.174-1.93-20.982-5.043-16.977-14.688,1.631-3.929,4.773-7.154,6.771-10.906,2.366-4.445,3.89-9.3,5.587-14.023,2.363-6.576,3.122-12.614,4.138-19.45a56.49,56.49,0,0,0,.3-9.79" transform="translate(-620.189 -242.565)" fill="#ba7342"/>
        <path id="Trazado_814796" data-name="Trazado 814796" d="M924.257,536.2c2.891-4.742,2.291-10.928,4.349-16.042.5-1.236,1.609-4.363,2.9-2.54,1.35,1.9-.569,7.515-1.019,9.486-.857,3.76-1.8,7.52-2.809,11.242-.724,2.674-2.493,7.891-5.753,8.506-1.746.33-7.018-.634-7.872-2.321-1.2-2.365,2.289-3.1,3.8-3.666,2.579-.967,4.9-2.2,6.4-4.665" transform="translate(-656.162 -371.274)" fill="#cc8656"/>
        <path id="Trazado_814797" data-name="Trazado 814797" d="M953.748,417.37a86.435,86.435,0,0,1-4.582,11.64c-2.183,4.613-4.117.73-6.891-1.064-2.473-1.6-5.285-2.554-7.567-4.468-5.05-4.234.956-4.469,3.051-7.541,2.627-3.851,2.872-8.379,8.866-7.2,4.54.891,8.652,3.549,7.124,8.636" transform="translate(-669.753 -293.356)" fill="#cc8656"/>
        <path id="Trazado_814798" data-name="Trazado 814798" d="M826.028,206.851,783.268,194.76l29.547-21.768,39.642,11.031Z" transform="translate(-562.426 -124.217)" fill="#ef7133"/>
        <path id="Trazado_814799" data-name="Trazado 814799" d="M826.028,265.223l-42.759-12.091V250.2l42.759,12.092Z" transform="translate(-562.426 -179.654)" fill="#ec5525"/>
        <path id="Trazado_814800" data-name="Trazado 814800" d="M961.353,212.116v2.638L934.924,237.88v-2.936Z" transform="translate(-671.323 -152.31)" fill="#d73927"/>
        <path id="Trazado_814801" data-name="Trazado 814801" d="M877.713,64.526a3,3,0,0,0-.206-1.075l-6.9-35.957-.356-1.858-.515-2.682-.442-2.3-.825-4.3-.422-2.2-.629-3.279-.266-1.386L865.9,2.967C865.9,1.329,862.4,0,858.084,0s-7.816,1.329-7.816,2.967l-1.251,6.519-.266,1.386-.629,3.278-.422,2.2-.825,4.3-.442,2.3-.515,2.682-.357,1.858-6.9,35.957a3.006,3.006,0,0,0-.206,1.075c0,4.115,8.788,7.451,19.628,7.451A45.89,45.89,0,0,0,868.3,70.888C873.946,69.579,877.713,67.22,877.713,64.526Z" transform="translate(-602.054)" fill="#e95924"/>
        <path id="Trazado_814802" data-name="Trazado 814802" d="M876.181,90.152a29.5,29.5,0,0,0,6.546-.7l-.462-5.023a27.8,27.8,0,0,1-6.083.638c-4.535,0-8.474-.967-10.469-2.387a3.609,3.609,0,0,1-1.182-1.279l-.515,2.682-.357,1.858c.761,2.369,6.075,4.2,12.522,4.2" transform="translate(-620.151 -58.454)" fill="#fff"/>
        <path id="Trazado_814803" data-name="Trazado 814803" d="M934.034,82.687a12.582,12.582,0,0,1-4.385,1.748l.462,5.023c3.223-.744,5.5-2.022,5.977-3.51l-.357-1.858-.515-2.682a3.609,3.609,0,0,1-1.182,1.279" transform="translate(-667.535 -58.455)" fill="#d8d8d8"/>
        <path id="Trazado_814804" data-name="Trazado 814804" d="M929.04,60.159a16.337,16.337,0,0,1-1.677.469l.644,6.995a12.585,12.585,0,0,0,4.385-1.748,3.608,3.608,0,0,0,1.182-1.279l-.442-2.3-.825-4.3a5.8,5.8,0,0,1-3.269,2.166" transform="translate(-665.894 -41.642)" fill="#d94026"/>
        <path id="Trazado_814805" data-name="Trazado 814805" d="M928.016,40.333a12.133,12.133,0,0,1-2.452.828l.508,5.512a16.353,16.353,0,0,0,1.676-.469,5.8,5.8,0,0,0,3.269-2.166l-.422-2.2-.629-3.279a3.476,3.476,0,0,1-1.949,1.773" transform="translate(-664.602 -27.688)" fill="#d8d8d8"/>
        <path id="Trazado_814806" data-name="Trazado 814806" d="M874.51,46.205a22.567,22.567,0,0,0,7.116,1.041,24.855,24.855,0,0,0,5.439-.572l-.508-5.512a21.9,21.9,0,0,1-4.932.531,17.974,17.974,0,0,1-7.384-1.36,3.477,3.477,0,0,1-1.949-1.773l-.629,3.279-.423,2.2a5.8,5.8,0,0,0,3.269,2.166" transform="translate(-625.595 -27.688)" fill="#fff"/>
        <path id="Trazado_814807" data-name="Trazado 814807" d="M922.95,13.026l.737,8a12.133,12.133,0,0,0,2.452-.828,3.477,3.477,0,0,0,1.949-1.773l-.266-1.386-1.251-6.519c0,1.053-1.445,1.976-3.622,2.5" transform="translate(-662.725 -7.556)" fill="#d94026"/>
        <path id="Trazado_814808" data-name="Trazado 814808" d="M944.372,134.545a3,3,0,0,0-.206-1.075l-6.9-35.957c-.478,1.488-2.753,2.765-5.976,3.51l3.673,39.885C940.605,139.6,944.372,137.239,944.372,134.545Z" transform="translate(-668.713 -70.019)" fill="#d94026"/>
        <path id="Trazado_814809" data-name="Trazado 814809" d="M888.167,0c-4.317,0-7.816,1.328-7.816,2.967s3.5,2.967,7.816,2.967a18.113,18.113,0,0,0,4.195-.464c2.177-.527,3.622-1.45,3.622-2.5,0-1.639-3.5-2.967-7.816-2.967m0,3.257c-2.261,0-4.094-.7-4.094-1.554S885.906.149,888.167.149s4.094.7,4.094,1.554-1.833,1.554-4.094,1.554" transform="translate(-632.137)" fill="#ef7133"/>
        <path id="Trazado_814810" data-name="Trazado 814810" d="M901.74,2.4c0-.858-1.833-1.554-4.094-1.554s-4.094.7-4.094,1.554,1.833,1.554,4.094,1.554,4.094-.7,4.094-1.554" transform="translate(-641.616 -0.604)" fill="#d73927"/>
        <path id="Trazado_814811" data-name="Trazado 814811" d="M418.534,74.306a4.847,4.847,0,0,0,2.512,1.195,9.866,9.866,0,0,0,3.147-.2,21.449,21.449,0,0,0,6.255-2.824c3.548-2.075,7.072-4.194,10.643-6.23,6.582-3.753,15.994-8.35,22.382-1.825V62.489c-.475.421-1.039.72-1.5,1.171h1.877a17.272,17.272,0,0,0-5.745-3.832,11.909,11.909,0,0,0-6.19-.382c-4.484.781-8.115,3.694-11.795,6.139-3.534,2.35-7.229,4.447-10.738,6.836a34.821,34.821,0,0,0-9.127,8.287l2.375.31c-.4-1.439.05-3.136.077-4.608l-.976,1.283A65.508,65.508,0,0,0,428,75.118a44.048,44.048,0,0,0,6.2-3.737l-1.5-1.941c-3.459,4.2-8.751,7.089-11.192,12.093l2.149.906c.34-1.914.731-3.819,1.1-5.727l-2.226-.3a23.026,23.026,0,0,1-.612,4.579,12.839,12.839,0,0,1-1.292,4.127l1.5.878c1.821-4.108,5.878-6.757,8.107-10.607.552-.954-.808-2.075-1.557-1.2-1.49,1.737-3.026,3.448-4.462,5.233a29.9,29.9,0,0,0-3.59,5.7c-.409.833.707,1.864,1.366,1.054a12.215,12.215,0,0,0,1.977-4.34,20.718,20.718,0,0,0,.828-5.42,1.138,1.138,0,0,0-2.226-.3c-.391,1.9-.762,3.809-1.184,5.7-.282,1.265,1.491,2.12,2.149.906,2.571-4.739,7.509-7.474,10.909-11.532.844-1.008-.264-2.788-1.5-1.941a55.135,55.135,0,0,1-11.923,5.881,1.366,1.366,0,0,0-.976,1.283c-.01,1.739-.419,3.595.077,5.3a1.313,1.313,0,0,0,2.375.31c2.088-3.027,5.182-5.323,8.174-7.39,3.284-2.268,6.739-4.272,10.083-6.448,3.4-2.212,6.55-4.811,10.508-5.978a10.079,10.079,0,0,1,10.708,3.333,1.348,1.348,0,0,0,1.877,0c.5-.4,1.069-.687,1.552-1.115a1.375,1.375,0,0,0,0-1.933,13.544,13.544,0,0,0-11-4.084c-4.32.341-8.417,2.277-12.191,4.284-3.687,1.96-7.276,4.159-10.858,6.306-3.652,2.189-7.573,4.948-12.052,3.983-.7-.151-1.448.795-.773,1.329" transform="translate(-300.338 -41.903)" fill="#424342"/>
        <path id="Trazado_814812" data-name="Trazado 814812" d="M464.685,113.23c4.808,3.2,7.37,8.023,5.473,15.338-.769,2.962-1.088,9.877-3.6,11.747-2.088,1.554-8.671,1.1-11.261,1.218-8.54.386-12.568-.989-17.347-8.374-3.638-5.623-3.8-8.577-11.27-7.953-.929,4.2-1.664,9.324-3.171,13.212-6.453-.082-12.53-.076-18.994-.779-5.043-.548-6.859-.548-7.993-6.013-.827-3.989-.194-8.845.4-12.936,1.769-12.166,18.437-12.342,27.715-12.009,9.177.33,29.756-.292,40.047,6.549" transform="translate(-284.439 -76.546)" fill="#8accc5"/>
        <path id="Trazado_814813" data-name="Trazado 814813" d="M490.815,147.932c-.633,6.04-11.552,17.764-4.552,21.337,4.171,2.128,14.343.441,18.6-1.228-1.424-3.915-4.174-7.891-6.048-11.707-.888-1.807-3.71-11.446-6.1-9.165Z" transform="translate(-347.486 -105.426)" fill="#619f9e"/>
        <path id="Trazado_814814" data-name="Trazado 814814" d="M396.547,120.677a4.93,4.93,0,0,0,1.508-2.541c.388-1.062.707-2.173,1.021-3.259a10.1,10.1,0,0,1,3.1-5.252c1.938-1.616,4.716-2.209,7.156-2.469a61.79,61.79,0,0,1,7.893-.1c2.8.061,5.6-.106,8.41-.092,3.06.016,6.118.17,9.169.4,5.947.446,11.878,1.086,17.812,1.679,4.511.451,9.415.978,13.333,3.446a6.165,6.165,0,0,1,3.121,5.108,25.86,25.86,0,0,1-1.046,7.42c-.453,1.927,2.569,2.731,2.945.812.794-4.052,2.23-9.319-.422-12.994-2.534-3.513-7.07-4.959-11.132-5.762-4.823-.954-9.812-1.221-14.7-1.7-6.1-.593-12.218-1.045-18.353-1.045-3.786,0-7.56.231-11.348.2a32.133,32.133,0,0,0-10.558,1.171c-3.142,1.057-5.745,2.887-7.093,5.986a16.282,16.282,0,0,0-1.107,4.3c-.212,1.5-.633,3.083-.206,4.557a.3.3,0,0,0,.493.13" transform="translate(-284.255 -74.914)" fill="#424342"/>
        <path id="Trazado_814815" data-name="Trazado 814815" d="M651.568,90.511a3.278,3.278,0,0,0,1.846,1.195,5.384,5.384,0,0,0,2.313-.2,14.21,14.21,0,0,0,4.6-2.824c2.607-2.075,5.2-4.194,7.821-6.23,4.837-3.753,11.754-8.35,16.448-1.825V78.694c-.349.421-.764.72-1.1,1.171h1.38a13.238,13.238,0,0,0-4.222-3.832,6.557,6.557,0,0,0-4.549-.382c-3.3.781-5.964,3.694-8.668,6.139-2.6,2.35-5.312,4.447-7.891,6.836a30.611,30.611,0,0,0-6.707,8.287l1.745.31a22.673,22.673,0,0,1,.057-4.608l-.718,1.282a42.043,42.043,0,0,0,4.606-2.575,32.353,32.353,0,0,0,4.554-3.737l-1.1-1.941c-2.542,4.2-6.431,7.089-8.225,12.093l1.58.906c.25-1.914.537-3.819.81-5.727l-1.636-.3a30.926,30.926,0,0,1-.449,4.579,16.364,16.364,0,0,1-.95,4.127l1.1.878c1.338-4.108,4.32-6.757,5.958-10.607.406-.954-.594-2.075-1.144-1.2-1.095,1.737-2.224,3.448-3.279,5.233a32.939,32.939,0,0,0-2.638,5.7c-.3.833.519,1.864,1,1.054a14.641,14.641,0,0,0,1.453-4.34,27.706,27.706,0,0,0,.608-5.42c.015-1.261-1.444-1.57-1.636-.3-.287,1.9-.56,3.809-.87,5.7-.207,1.265,1.1,2.12,1.579.906,1.889-4.739,5.519-7.474,8.017-11.532.621-1.008-.194-2.788-1.1-1.941a37.56,37.56,0,0,1-8.762,5.881,1.372,1.372,0,0,0-.718,1.283,25.179,25.179,0,0,0,.057,5.3c.243,1.135,1.285,1.219,1.745.31a27.153,27.153,0,0,1,6.007-7.39c2.413-2.268,4.953-4.272,7.409-6.448,2.5-2.212,4.814-4.811,7.722-5.978,2.971-1.193,5.859.174,7.87,3.333.376.591.988.423,1.38,0,.368-.4.785-.687,1.141-1.115a1.746,1.746,0,0,0,0-1.933c-2.159-3.009-5.01-4.415-8.083-4.084-3.175.341-6.186,2.277-8.959,4.284-2.71,1.96-5.347,4.159-7.979,6.306-2.684,2.189-5.565,4.948-8.857,3.983-.516-.151-1.064.795-.568,1.329" transform="translate(-467.719 -53.539)" fill="#424342"/>
        <path id="Trazado_814816" data-name="Trazado 814816" d="M601.914,136.372c-2.185-3.2-15.44-6.981-14.125.144.5,2.721,4.73,4.487,6.66,5.853,1.692,1.2,4.619,5.1,7.251,3.227,2.283-1.621,1.492-7.352.215-9.223" transform="translate(-421.997 -95.113)" fill="#c2e5e2"/>
        <path id="Trazado_814817" data-name="Trazado 814817" d="M497.085,185.5c-4.508,1.522-.789-9.037.2-10.331,5.674-7.4,4.663,8.688-.2,10.331" transform="translate(-355.366 -124.387)" fill="#8accc5"/>
      </g>
    </g>
  </g>
</svg>
