<svg xmlns="http://www.w3.org/2000/svg" width="50.89" height="78.663" viewBox="0 0 50.89 78.663">
  <g id="Grupo_1070365" data-name="Grupo 1070365" transform="translate(-1192.034 -1812.215)">
    <g id="veterinario" transform="translate(1192.035 1812.215)">
      <path id="Trazado_811218" data-name="Trazado 811218" d="M39.769,261.077H33.2a1.659,1.659,0,0,1-1.659-1.659V251.5h-12.2v7.914a1.659,1.659,0,0,1-1.659,1.659H11.118a5.372,5.372,0,0,0-5,3.418L.168,279.73a2.443,2.443,0,0,0,2.275,3.33H9.316v8.466H41.572V283.06h6.872a2.442,2.442,0,0,0,2.275-3.33L44.773,264.5a5.372,5.372,0,0,0-5-3.418Zm0,0" transform="translate(0 -212.864)" fill="#7addd8"/>
      <path id="Trazado_811219" data-name="Trazado 811219" d="M243.076,332.465l-5.946-15.235a5.372,5.372,0,0,0-5-3.418h-4.852a5.372,5.372,0,0,1,5,3.418l5.946,15.235a2.442,2.442,0,0,1-2.275,3.33H240.8A2.442,2.442,0,0,0,243.076,332.465Zm0,0" transform="translate(-192.357 -265.599)" fill="#40c6c2"/>
      <path id="Trazado_811220" data-name="Trazado 811220" d="M123.732,270.449l7.087-9.372a1.659,1.659,0,0,1-1.62-1.658V251.5H117v7.914a1.659,1.659,0,0,1-1.62,1.658l7.087,9.372A.792.792,0,0,0,123.732,270.449Zm0,0" transform="translate(-97.657 -212.864)" fill="#ffc999"/>
      <path id="Trazado_811221" data-name="Trazado 811221" d="M138.122,251.5h-12.2v7.567a14.793,14.793,0,0,0,12.5,1.308,1.65,1.65,0,0,1-.307-.96Zm0,0" transform="translate(-106.58 -212.863)" fill="#e2a36f"/>
      <path id="Trazado_811222" data-name="Trazado 811222" d="M270.59,456.891v8.467h5.289a.792.792,0,0,0,.792-.792v-7.675Zm0,0" transform="translate(-229.018 -386.695)" fill="#ffc999"/>
      <path id="Trazado_811223" data-name="Trazado 811223" d="M21.063,456.891v7.675a.791.791,0,0,0,.792.792h5.289v-8.467Zm0,0" transform="translate(-17.828 -386.695)" fill="#ffc999"/>
      <path id="Trazado_811224" data-name="Trazado 811224" d="M270.59,456.891h6.081v3.8H270.59Zm0,0" transform="translate(-229.018 -386.695)" fill="#e2a36f"/>
      <path id="Trazado_811225" data-name="Trazado 811225" d="M21.063,456.891h6.081v3.8H21.063Zm0,0" transform="translate(-17.828 -386.695)" fill="#e2a36f"/>
      <g id="Grupo_1068191" data-name="Grupo 1068191" transform="translate(29.08 63.988)">
        <path id="Trazado_811226" data-name="Trazado 811226" d="M200.259,441.558a3.924,3.924,0,0,0-2.8,1.165,4.454,4.454,0,0,0-1.331,3.154,1.884,1.884,0,0,0,.781,1.528,1.935,1.935,0,0,0,1.718.281,5.064,5.064,0,0,1,3.142,0,1.936,1.936,0,0,0,1.718-.281,1.879,1.879,0,0,0,.781-1.523h0q0-.069,0-.139A4.288,4.288,0,0,0,200.259,441.558Zm0,0" transform="translate(-195.08 -437.706)" fill="#5b586d"/>
        <path id="Trazado_811227" data-name="Trazado 811227" d="M216.269,419.349a1.152,1.152,0,0,0,1.152-1.152v-.556a1.152,1.152,0,0,0-2.3,0v.556A1.152,1.152,0,0,0,216.269,419.349Zm0,0" transform="translate(-211.148 -416.488)" fill="#5b586d"/>
        <path id="Trazado_811228" data-name="Trazado 811228" d="M240.933,425.216a1.153,1.153,0,0,0-1.617.2l-.342.439a1.152,1.152,0,0,0,1.817,1.418l.342-.439a1.153,1.153,0,0,0-.2-1.617Zm0,0" transform="translate(-231.133 -423.669)" fill="#5b586d"/>
        <path id="Trazado_811229" data-name="Trazado 811229" d="M191.484,427.472a1.153,1.153,0,0,0,.2-1.617l-.342-.439a1.152,1.152,0,0,0-1.817,1.418l.342.439a1.153,1.153,0,0,0,1.617.2Zm0,0" transform="translate(-189.281 -423.669)" fill="#5b586d"/>
      </g>
      <path id="Trazado_811230" data-name="Trazado 811230" d="M105.8,269.8a1.153,1.153,0,0,1-1.152-1.152v-2.876a11.536,11.536,0,1,0-23.072,0v1.642a1.152,1.152,0,0,1-2.3,0v-1.642a13.841,13.841,0,0,1,27.681,0v2.876A1.153,1.153,0,0,1,105.8,269.8Zm0,0" transform="translate(-67.095 -213.227)" fill="#7393d8"/>
      <path id="Trazado_811231" data-name="Trazado 811231" d="M59.635,4.505V3.848A3.848,3.848,0,0,0,55.787,0h-14.2A14.319,14.319,0,0,0,27.273,14.318V37.9a4.253,4.253,0,0,0,4.253,4.253h34A4.253,4.253,0,0,0,69.782,37.9V12.856A6.252,6.252,0,0,0,63.53,6.6h-1.8a2.1,2.1,0,0,1-2.1-2.1Zm0,0" transform="translate(-23.084)" fill="#5b586d"/>
      <path id="Trazado_811232" data-name="Trazado 811232" d="M196.426,6.6h-1.8a2.1,2.1,0,0,1-2.1-2.1V3.848A3.848,3.848,0,0,0,188.683,0h-4.389a3.848,3.848,0,0,1,3.848,3.848v.657a2.1,2.1,0,0,0,2.1,2.1h1.8a6.253,6.253,0,0,1,6.252,6.252V37.9a4.253,4.253,0,0,1-4.253,4.253h4.389a4.253,4.253,0,0,0,4.253-4.253V12.856A6.252,6.252,0,0,0,196.426,6.6Zm0,0" transform="translate(-155.98 0)" fill="#403f4f"/>
      <path id="Trazado_811233" data-name="Trazado 811233" d="M257.18,167.261h-4.5v-6.749h4.5a3.375,3.375,0,1,1,0,6.749Zm0,0" transform="translate(-213.856 -135.851)" fill="#ffc999"/>
      <path id="Trazado_811234" data-name="Trazado 811234" d="M30.648,167.261h4.5v-6.749h-4.5a3.375,3.375,0,1,0,0,6.749Zm0,0" transform="translate(-23.084 -135.851)" fill="#ffc999"/>
      <path id="Trazado_811235" data-name="Trazado 811235" d="M95.082,89.822l-1.941-4.163a.791.791,0,0,0-1.434,0l-1.941,4.163a.792.792,0,0,1-.718.457H72.816a.791.791,0,0,0-.792.792v10.372a14.756,14.756,0,0,0,29.511,0V91.07a.791.791,0,0,0-.792-.792H95.8a.791.791,0,0,1-.717-.457Zm0,0" transform="translate(-60.96 -72.112)" fill="#ffc999"/>
      <path id="Trazado_811236" data-name="Trazado 811236" d="M122.616,118.246h-2.144v8.737a14.758,14.758,0,0,1-22.6,12.5,14.755,14.755,0,0,0,25.54-10.07V119.038a.792.792,0,0,0-.792-.792Zm0,0" transform="translate(-82.832 -100.079)" fill="#e2a36f"/>
      <path id="Trazado_811237" data-name="Trazado 811237" d="M106.836,155.768a1.153,1.153,0,0,1-1.152-1.152v-.452a1.152,1.152,0,0,1,2.3,0v.452A1.153,1.153,0,0,1,106.836,155.768Zm0,0" transform="translate(-89.448 -129.503)" fill="#403f4f"/>
      <path id="Trazado_811238" data-name="Trazado 811238" d="M211.7,155.768a1.152,1.152,0,0,1-1.152-1.152v-.452a1.152,1.152,0,1,1,2.3,0v.452A1.153,1.153,0,0,1,211.7,155.768Zm0,0" transform="translate(-178.2 -129.503)" fill="#403f4f"/>
      <path id="Trazado_811239" data-name="Trazado 811239" d="M137.7,210.135a6.757,6.757,0,0,1-4.717-1.922,1.152,1.152,0,0,1,1.6-1.655,4.454,4.454,0,0,0,6.226,0,1.152,1.152,0,1,1,1.6,1.655A6.755,6.755,0,0,1,137.7,210.135Zm0,0" transform="translate(-112.258 -174.548)" fill="#403f4f"/>
      <path id="Trazado_811240" data-name="Trazado 811240" d="M237.387,363.967a3.229,3.229,0,1,1-3.229-3.229A3.228,3.228,0,0,1,237.387,363.967Zm0,0" transform="translate(-195.451 -305.315)" fill="#7393d8"/>
      <path id="Trazado_811241" data-name="Trazado 811241" d="M227.81,362a4.381,4.381,0,1,1,4.381-4.38A4.386,4.386,0,0,1,227.81,362Zm0-6.457a2.076,2.076,0,1,0,2.077,2.077A2.079,2.079,0,0,0,227.81,355.543Zm0,0" transform="translate(-189.103 -298.968)" fill="#195693"/>
      <path id="Trazado_811242" data-name="Trazado 811242" d="M60.679,356.132H59.39a1.152,1.152,0,1,1,0-2.3h.137v-3.089a3.227,3.227,0,0,0-6.453,0v3.089h.138a1.152,1.152,0,1,1,0,2.3h-1.29a1.153,1.153,0,0,1-1.152-1.152v-4.241a5.531,5.531,0,0,1,11.063,0v4.241A1.152,1.152,0,0,1,60.679,356.132Zm0,0" transform="translate(-42.97 -292.171)" fill="#195693"/>
    </g>
  </g>
</svg>
