<svg xmlns="http://www.w3.org/2000/svg" width="400" height="324.356" viewBox="0 0 400 324.356">
  <g id="Grupo_1070379" data-name="Grupo 1070379" transform="translate(-180 -1796.929)">
    <g id="Grupo_1070300" data-name="Grupo 1070300" transform="translate(0 -61.51)">
      <g id="Image_Place_Holder" data-name="Image Place Holder" transform="translate(180 1912.025)">
        <rect id="Image_Place_Holder-2" data-name="Image Place Holder" width="400" height="270.769" rx="10" fill="#fffad0"/>
      </g>
      <g id="Grupo_1069899" data-name="Grupo 1069899" transform="translate(-1000.89 8998.133)">
        <path id="Trazado_812956" data-name="Trazado 812956" d="M92.175,196.969h33.2a1.178,1.178,0,0,0,1.135.88h.414a1.173,1.173,0,0,0,1.134-.88h.05a1.749,1.749,0,0,0,1.744,1.6H131.9a1.753,1.753,0,0,0,1.744-1.6h.006V184.5h-.006a1.749,1.749,0,0,0-1.744-1.6h-2.042a1.754,1.754,0,0,0-1.744,1.6h-.05a1.177,1.177,0,0,0-1.134-.88h-.414a1.175,1.175,0,0,0-1.135.88h-33.2A18.738,18.738,0,0,0,74.509,172H9.462A4.462,4.462,0,0,0,5,176.462V205a4.462,4.462,0,0,0,4.461,4.462H74.509a18.735,18.735,0,0,0,17.666-12.5Z" transform="translate(1423.811 -7101.102)" fill="#507c04"/>
        <path id="Trazado_812957" data-name="Trazado 812957" d="M89.7,195.914a2.294,2.294,0,0,1,2.158-1.545h41.475v-7.913H91.857a2.294,2.294,0,0,1-2.158-1.545,16.48,16.48,0,0,0-15.508-10.954H9.143a2.181,2.181,0,0,0-2.183,2.183A18.419,18.419,0,0,0,9.653,185.9a8.538,8.538,0,0,1,0,9.016,18.419,18.419,0,0,0-2.692,9.762,2.181,2.181,0,0,0,2.183,2.183H74.191A16.479,16.479,0,0,0,89.7,195.912Z" transform="translate(1424.129 -7100.785)" fill="#96cc1f"/>
        <path id="Trazado_812958" data-name="Trazado 812958" d="M77.326,189.829a1.215,1.215,0,0,1,1.216-1.216h32.733a1.216,1.216,0,0,1,0,2.431H78.541A1.215,1.215,0,0,1,77.326,189.829Z" transform="translate(1435.542 -7098.408)" fill="#fff"/>
        <path id="Trazado_812959" data-name="Trazado 812959" d="M57.2,197.862v-.019a1.215,1.215,0,0,1,1.231-1.2l.88.013c6.346.1,12.906.2,18.176-3.458a1.215,1.215,0,1,1,1.387,2c-5.913,4.1-13.185,3.989-19.6,3.889l-.877-.012a1.214,1.214,0,0,1-1.2-1.216Z" transform="translate(1432.278 -7097.699)" fill="#fff"/>
        <path id="Trazado_812960" data-name="Trazado 812960" d="M49.678,197.369a1.217,1.217,0,0,1,1.209-1.216l4.017-.019a1.216,1.216,0,0,1,1.222,1.21v.006a1.216,1.216,0,0,1-1.21,1.216l-4.017.019a1.217,1.217,0,0,1-1.222-1.209Z" transform="translate(1431.057 -7097.187)" fill="#fff"/>
        <path id="Trazado_812961" data-name="Trazado 812961" d="M10.674,197.351v-.009a1.216,1.216,0,0,1,1.225-1.206c11.326.085,23.243.1,37.5.05a1.216,1.216,0,1,1,.006,2.431c-14.264.05-26.191.035-37.526-.05a1.215,1.215,0,0,1-1.206-1.216Z" transform="translate(1424.731 -7097.187)" fill="#fff"/>
        <path id="Trazado_812962" data-name="Trazado 812962" d="M108.178,191.137a1.215,1.215,0,0,1,1.216-1.216h1.175a1.216,1.216,0,1,1,0,2.431h-1.175A1.215,1.215,0,0,1,108.178,191.137Z" transform="translate(1440.546 -7098.195)" fill="#fff"/>
        <path id="Trazado_812963" data-name="Trazado 812963" d="M110.813,191.659a1.215,1.215,0,0,1,1.216-1.216H114.6a1.216,1.216,0,0,1,0,2.431h-2.572A1.216,1.216,0,0,1,110.813,191.659Z" transform="translate(1440.974 -7098.111)" fill="#fff"/>
        <path id="Trazado_812964" data-name="Trazado 812964" d="M115.384.067H66.217V44.492h49.167Z" transform="translate(1433.74 -7128.989)" fill="#c6b375"/>
        <path id="Trazado_812965" data-name="Trazado 812965" d="M81.655,30.665H107.47l5.41,8.861H81.655Z" transform="translate(1436.244 -7124.027)" fill="#a38e54"/>
        <path id="Trazado_812966" data-name="Trazado 812966" d="M87.369,39.526h13.764l5.41-8.861H87.369Z" transform="translate(1437.171 -7124.027)" fill="#e0d299"/>
        <path id="Trazado_812967" data-name="Trazado 812967" d="M82.714,8.928H107.3l5.41-8.861H82.714Z" transform="translate(1436.416 -7128.989)" fill="#e0d299"/>
        <path id="Trazado_812968" data-name="Trazado 812968" d="M87.369.067h13.764l5.41,8.861H87.369Z" transform="translate(1437.171 -7128.989)" fill="#a38e54"/>
        <path id="Trazado_812969" data-name="Trazado 812969" d="M104.564.067H66.217V44.492h38.347Z" transform="translate(1433.74 -7128.989)" fill="#e0d299"/>
        <path id="Trazado_812970" data-name="Trazado 812970" d="M74.99,44.489,66.372,46.9,53.127,4.5,68.34.067Z" transform="translate(1431.617 -7128.989)" fill="#c6b375"/>
        <path id="Trazado_812971" data-name="Trazado 812971" d="M67.69,46.781,45,45.1,48.293.794,63,1.886Z" transform="translate(1430.299 -7128.871)" fill="#e0d299"/>
        <path id="Trazado_812972" data-name="Trazado 812972" d="M66.155,6.015l9.333,32.527,4.085,3.4L66.227.067Z" transform="translate(1433.73 -7128.989)" fill="#c6b375"/>
        <path id="Trazado_812973" data-name="Trazado 812973" d="M75.347,7.461v7L87.162,37.106Z" transform="translate(1435.221 -7127.79)" fill="#c6b375"/>
        <path id="Trazado_812974" data-name="Trazado 812974" d="M59.59,11.747,54.768,44.106l-4.8-.357Z" transform="translate(1431.105 -7127.095)" fill="#c6b375"/>
        <path id="Trazado_812975" data-name="Trazado 812975" d="M109.925,44.581l-5.282-8.649-5.279,8.649-.283-.078V.078L99.364,0l5.279,8.649L109.925,0l.282.078V44.5l-.282.078Zm-5.41-9.019h.258l5.13,8.4V.616l-5.13,8.4h-.258l-5.13-8.4V43.962Z" transform="translate(1439.071 -7129)" fill="#a38e54"/>
        <path id="Trazado_812976" data-name="Trazado 812976" d="M47.282,65.178H13.132v50h34.15Z" transform="translate(1425.13 -7118.428)" fill="#ededed"/>
        <path id="Trazado_812977" data-name="Trazado 812977" d="M42.464,57,10.142,63.576a24.56,24.56,0,0,0,.64,8.736,31.855,31.855,0,0,0,1.424,4.281,15.192,15.192,0,0,1,.852,4.328,12.734,12.734,0,0,0,.392,2.294,8.025,8.025,0,0,0,.861,1.76,9.892,9.892,0,0,1,.805,1.6,8.108,8.108,0,0,1,.389,1.94c.152,1.471.081,2.969.149,4.446.071,1.548.183,3.093.326,4.636.034.376.078.752.118,1.132L18.963,112.8,52.425,106,42.458,57Z" transform="translate(1424.622 -7119.755)" fill="#ffe780"/>
        <path id="Trazado_812978" data-name="Trazado 812978" d="M47.424,57.977,13.613,60.722a26.058,26.058,0,0,0,.656,3.9c.466,1.965,1.132,3.9,1.446,5.9.56,3.569-.109,7.135-.168,10.714a7.709,7.709,0,0,0,.33,2.509c.23.737.544,1.446.833,2.161a11.1,11.1,0,0,1,.749,2.444,15.113,15.113,0,0,1,.053,2.7,8.787,8.787,0,0,0,.3,2.593c.171.625.4,1.237.532,1.875a6.633,6.633,0,0,1,.1,2c-.087.88-.1,1.747-.106,2.633a20.789,20.789,0,0,1-.78,5.335c-.131.476-.274.948-.417,1.42l.3,3.66,34.038-2.764L47.427,57.974Z" transform="translate(1425.208 -7119.597)" fill="#cbd895"/>
        <g id="Grupo_1069065" data-name="Grupo 1069065" transform="translate(1440.757 -7054.26)" opacity="0.5">
          <path id="Trazado_812979" data-name="Trazado 812979" d="M47.751,64.309a106.762,106.762,0,0,0-32.132,6.8c.2,3.034-.289,6.066-.339,9.106a9.215,9.215,0,0,0,.075,1.349C26.777,80.886,38.035,79.7,48.7,75.918l-.942-11.609Z" transform="translate(-15.279 -64.309)" fill="#d6d6d6"/>
        </g>
        <path id="Trazado_812980" data-name="Trazado 812980" d="M56.318,62.222H22.168v50h34.15Z" transform="translate(1426.596 -7118.907)" fill="#fff"/>
        <path id="Trazado_812981" data-name="Trazado 812981" d="M55.8,90.806a16.727,16.727,0,0,0,.435-4.182c-.012-1.377-.246-2.723-.323-4.092a17.134,17.134,0,0,1,.333-3.47,11.193,11.193,0,0,0,.149-1.794c0-.631-.137-1.25-.162-1.878a15.566,15.566,0,0,1,.423-3.143c.2-1.147.243-2.307.417-3.457a29.521,29.521,0,0,1,1.094-3.569,14.1,14.1,0,0,0,.42-2.142L35.452,60.6,31.687,95.73l21.962,2.354c.423-2.509,1.542-4.813,2.151-7.281Z" transform="translate(1428.14 -7119.171)" fill="#e0d299"/>
        <g id="Grupo_1069066" data-name="Grupo 1069066" transform="translate(1461.132 -7050.252)" opacity="0.5">
          <path id="Trazado_812982" data-name="Trazado 812982" d="M33.681,73.716l-.871,8.13A69.058,69.058,0,0,0,44.1,84.433a81.527,81.527,0,0,0,11.951,1.405c.012-.323.016-.65.012-.973-.012-1.377-.246-2.724-.323-4.092a17.126,17.126,0,0,1,.333-3.47,11.207,11.207,0,0,0,.149-1.794c0-.631-.137-1.25-.162-1.878a9.661,9.661,0,0,1,.236-2.158,90.555,90.555,0,0,0-22.615,2.245Z" transform="translate(-32.81 -67.16)" fill="#d6d6d6"/>
          <path id="Trazado_812983" data-name="Trazado 812983" d="M33.854,71.108a169.152,169.152,0,0,0,22.715-2.13c.016-.152.031-.3.047-.46a93.162,93.162,0,0,0-22.466-.159Z" transform="translate(-32.641 -67.757)" fill="#d6d6d6"/>
        </g>
        <path id="Trazado_812984" data-name="Trazado 812984" d="M55.359,82.136,30.848,75.352l-9.932,35.885,24.511,6.784Z" transform="translate(1426.393 -7116.778)" fill="#ededed"/>
        <g id="Grupo_1069067" data-name="Grupo 1069067" transform="translate(1452.324 -7027.288)" opacity="0.5">
          <path id="Trazado_812985" data-name="Trazado 812985" d="M52.408,88.28l-1.8,6.5c-.556-.174-1.11-.345-1.669-.51-7.726-2.3-15.772-4.163-23.707-3.15l.656-2.375a25.262,25.262,0,0,1,2.559-.389C36.4,87.45,44.53,87.074,52.4,88.28ZM36.825,94.343v.009a4.935,4.935,0,0,0,1,2.839,31.79,31.79,0,0,0,9.461,9.61l2.26-8.17A23.658,23.658,0,0,0,36.825,94.343Z" transform="translate(-25.232 -87.517)" fill="#d6d6d6"/>
        </g>
        <path id="Trazado_813084" data-name="Trazado 813084" d="M48.766,129.532A9.154,9.154,0,0,0,41.659,126H33.535a21.6,21.6,0,0,0-20.495,14.8H1.319v13.578H13.04a21.6,21.6,0,0,0,20.495,14.8h8.124a9.149,9.149,0,0,0,7.107-3.528,5.641,5.641,0,0,1,8.8,0,9.154,9.154,0,0,0,7.107,3.528H127.6a8.9,8.9,0,0,0,8.964-8.538,8.784,8.784,0,0,0-8.78-9.031V143.57a8.785,8.785,0,0,0,8.78-9.033A8.9,8.9,0,0,0,127.6,126H64.678a9.147,9.147,0,0,0-7.107,3.53,5.641,5.641,0,0,1-8.8,0Z" transform="translate(1423.214 -7108.563)" fill="#c1e5cf"/>
        <path id="Trazado_813085" data-name="Trazado 813085" d="M98.893,161.234h13.065c0-3.793,8.783-6.125,8.783-14.612s-8.783-10.82-8.783-14.612H98.893Z" transform="translate(1439.04 -7107.588)" fill="#c1e5cf"/>
        <path id="Trazado_813086" data-name="Trazado 813086" d="M13.04,140.8H1.319v11.271H13.04c2.848,4.508,10.944,7.763,20.495,7.763a8.125,8.125,0,0,0,8.124-8.125V126H33.535A21.594,21.594,0,0,0,13.04,140.8Z" transform="translate(1423.214 -7108.563)" fill="#e1f4f0"/>
        <path id="Trazado_813087" data-name="Trazado 813087" d="M46.988,130.743a.238.238,0,0,0-.028.007A.082.082,0,0,0,46.988,130.743Z" transform="translate(1430.617 -7107.793)" fill="#e1f4f0"/>
        <path id="Trazado_813088" data-name="Trazado 813088" d="M50.109,129.408a5.646,5.646,0,0,1-2.167,1.732v23.178a4.283,4.283,0,0,0,1.946,3.585l.124.08a13.341,13.341,0,0,0,7.107,1.85h50.211A10.035,10.035,0,0,0,117.367,149.8V132.659A6.66,6.66,0,0,0,110.708,126H57.119a8.774,8.774,0,0,0-7.011,3.4Z" transform="translate(1430.776 -7108.563)" fill="#e1f4f0"/>
        <path id="Trazado_813089" data-name="Trazado 813089" d="M0,137.937v15.442H7.44V137.937Z" transform="translate(1423 -7106.627)" fill="#3c8e8a"/>
        <path id="Trazado_813090" data-name="Trazado 813090" d="M7.4,137.185v17.194H8.762V137.185Z" transform="translate(1424.2 -7106.749)" fill="#c1e5cf"/>
        <path id="Trazado_813091" data-name="Trazado 813091" d="M6.4,138.739v13.578H8.923V138.739Z" transform="translate(1424.038 -7106.497)" fill="#c1e5cf"/>
        <path id="Trazado_813092" data-name="Trazado 813092" d="M37.114,134.245a1.216,1.216,0,0,1-1.216,1.217H31.577c-6.43,0-12.371,1.554-16.3,4.268a1.216,1.216,0,1,1-1.384-2c4.322-2.987,10.767-4.7,17.678-4.7H35.9a1.215,1.215,0,0,1,1.216,1.214Z" transform="translate(1425.169 -7107.422)" fill="#fff"/>
        <path id="Trazado_813093" data-name="Trazado 813093" d="M114.1,134.246a1.215,1.215,0,0,1-1.216,1.216H56.958c-2.764,0-4.707.445-6.125,1.4a1.216,1.216,0,0,1-1.362-2.015c1.837-1.24,4.216-1.819,7.483-1.819h55.929a1.216,1.216,0,0,1,1.216,1.216Z" transform="translate(1430.937 -7107.423)" fill="#fff"/>
        <path id="Trazado_813094" data-name="Trazado 813094" d="M0,137.937v12.2H7.44v-12.2Z" transform="translate(1423 -7106.627)" fill="#5fb2ac"/>
        <path id="Trazado_813095" data-name="Trazado 813095" d="M17,15.95c-2.211,0-4,3.837-4,8.569s1.791,8.569,4,8.569l17.5,2.574V13.372L17,15.947Z" transform="translate(1425.109 -7126.831)" fill="#e2991a"/>
        <path id="Trazado_813096" data-name="Trazado 813096" d="M13.1,24.688c.423,3.762,2,6.56,3.889,6.56l17.5,2.574V24.688Z" transform="translate(1425.124 -7124.995)" fill="#ba7817"/>
        <path id="Trazado_813097" data-name="Trazado 813097" d="M35.666,12H29.093a2.985,2.985,0,0,0-2.985,2.985V34.491a2.985,2.985,0,0,0,2.985,2.985h6.573a2.985,2.985,0,0,0,2.985-2.985V14.985A2.985,2.985,0,0,0,35.666,12Z" transform="translate(1427.235 -7127.054)" fill="#c6c5c2"/>
        <path id="Trazado_813098" data-name="Trazado 813098" d="M32.23,35.658c2.874,0,5.2-4.989,5.2-11.143s-2.33-11.143-5.2-11.143-5.2,4.989-5.2,11.143S29.356,35.658,32.23,35.658Z" transform="translate(1427.384 -7126.831)" fill="#8c8a83"/>
        <path id="Trazado_813099" data-name="Trazado 813099" d="M27.032,24.008H37.425c-.124-5.917-2.4-10.633-5.2-10.633s-5.074,4.716-5.2,10.633Z" transform="translate(1427.384 -7126.831)" fill="#605f5b"/>
        <path id="Trazado_813131" data-name="Trazado 813131" d="M86.2,87.372A15.455,15.455,0,1,0,70.744,71.916,15.455,15.455,0,0,0,86.2,87.372Z" transform="translate(1434.474 -7119.842)" fill="#9e9e9e"/>
        <path id="Trazado_813132" data-name="Trazado 813132" d="M86.671,119.752c10.04-.015,18.172-4.351,18.164-9.685s-8.154-9.644-18.194-9.629-18.172,4.352-18.164,9.686S76.631,119.769,86.671,119.752Z" transform="translate(1434.107 -7112.709)" fill="#c4c2c2"/>
        <path id="Trazado_813133" data-name="Trazado 813133" d="M105.148,109.628l2.235-6.619-40.775.065,2.182,6.613Z" transform="translate(1433.804 -7112.292)" fill="#c4c2c2"/>
        <path id="Trazado_813134" data-name="Trazado 813134" d="M107.1,103.508a23.938,23.938,0,0,0-1.791-4.925c-1.446-2.982-3.681-2.17-1.642-5.444.746-1.194,3.914-4.11,1.331-5.043-1.079-.392-2.593.348-3.37-.814-.734-1.094.264-2.068,1.206-2.537.435-.218.917-.351,1.343-.578a8.671,8.671,0,0,0,1.719-1.178,4.582,4.582,0,0,0,1.462-2.54l-.035-9.079-40.85.068.034,9.256a.641.641,0,0,1,.05.227c.031,1.365.983,2.478,1.116,3.833a5.9,5.9,0,0,1-.1,1.7c-.1.556-.109,1.119-.162,1.682-.218,2.3-.538,1.723.286,3.945a20.492,20.492,0,0,0,1.082,1.968,3.384,3.384,0,0,1,.224,2.3c-.264,1.228-.867,1.244-1.356,2.394a25.22,25.22,0,0,0-1.1,5.1c-.075,1.738.009,3.47.009,3.47.009,5.991,9.162,10.835,20.442,10.817s20.417-4.891,20.407-10.885v-2.17c-.086-.525-.186-1.048-.307-1.567Z" transform="translate(1433.781 -7117.424)" fill="#ff6550"/>
        <g id="Grupo_1069068" data-name="Grupo 1069068" transform="translate(1510.688 -7046.054)" opacity="0.5">
          <path id="Trazado_813135" data-name="Trazado 813135" d="M105.875,108.141a6.209,6.209,0,0,0,.074-.895v-2.171c-.087-.525-.186-1.047-.308-1.567a23.982,23.982,0,0,0-1.79-4.925c-1.446-2.982-3.681-2.17-1.642-5.444.746-1.194,3.914-4.11,1.331-5.043-1.079-.392-2.593.348-3.37-.814-.734-1.094.264-2.068,1.206-2.537.435-.218.917-.351,1.343-.578a8.682,8.682,0,0,0,1.719-1.178,4.58,4.58,0,0,0,1.461-2.54l-.034-9.079-30.416.05V89.508a9.482,9.482,0,0,0,3,3.529A15.3,15.3,0,0,0,84.13,95.82a13.713,13.713,0,0,0,6.694.19,4.6,4.6,0,0,0,1.763-.839c.519-.42,1.017-.87,1.533-1.293.721-.591,2.08-1.856,3.1-1.225a1.754,1.754,0,0,1,.569,1.741,3.9,3.9,0,0,1-1.1,2.155,10.183,10.183,0,0,1-4.356,2.478,21.871,21.871,0,0,1-7.008.889c-2.985-.05-5.96-.522-8.932-.681a.95.95,0,0,0-.544.395c-.283.563.513,1.415.87,1.788a7.667,7.667,0,0,0,1.959,1.421,22.317,22.317,0,0,0,7.863,2.372,42.883,42.883,0,0,0,8.283.153,24.761,24.761,0,0,0,4.409-.787c.712-.18,1.424-.358,2.148-.488a6.923,6.923,0,0,1,1.822-.18c.843.084,1.309.775.824,1.532a5.16,5.16,0,0,1-1.875,1.552,21.137,21.137,0,0,1-7.58,2.108c-5.391.675-11.32.293-16.124,3.255a6.773,6.773,0,0,0-3,3.786v6.688a30.471,30.471,0,0,0,10.1,1.61c10.039-.015,18.172-4.352,18.163-9.688l1.716-5.082a6.509,6.509,0,0,0,.336-.995l.184-.542h-.074Z" transform="translate(-75.45 -71.37)" fill="#afaeaa"/>
        </g>
        <path id="Trazado_813136" data-name="Trazado 813136" d="M101.465,88.465a20.579,20.579,0,1,0-29.1,0A20.579,20.579,0,0,0,101.465,88.465Z" transform="translate(1433.759 -7120.35)" fill="#c4c2c2"/>
        <path id="Trazado_813137" data-name="Trazado 813137" d="M86.2,87.372A15.455,15.455,0,1,0,70.744,71.916,15.455,15.455,0,0,0,86.2,87.372Z" transform="translate(1434.474 -7119.842)" fill="#9e9e9e"/>
        <path id="Trazado_813138" data-name="Trazado 813138" d="M86.158,61.654A15.462,15.462,0,0,0,71,74.093a15.457,15.457,0,0,0,30.32,0A15.457,15.457,0,0,0,86.158,61.654Z" transform="translate(1434.516 -7118.999)" fill="#adadad"/>
        <path id="Trazado_813139" data-name="Trazado 813139" d="M86.242,87.719A15.76,15.76,0,1,1,102,71.959,15.778,15.778,0,0,1,86.242,87.719Zm0-30.91a15.15,15.15,0,1,0,15.15,15.15A15.168,15.168,0,0,0,86.242,56.809Z" transform="translate(1434.432 -7119.884)" fill="#cecccc"/>
      </g>
      <g id="Grupo_1069896" data-name="Grupo 1069896" transform="translate(-1228.531 8565.731)">
        <path id="Trazado_812925" data-name="Trazado 812925" d="M211.6,421.062H4.409v17.682H211.6Z" transform="translate(1426.046 -6838.148)" fill="#999"/>
        <path id="Trazado_812926" data-name="Trazado 812926" d="M165.619,511.6V459.593h3.813l10.344-177.13H27.006l13.967,239.2H152.24V511.6Z" transform="translate(1441.655 -6933.887)" fill="#efefef"/>
        <path id="Trazado_812927" data-name="Trazado 812927" d="M165.619,459.593h3.813l10.344-177.13H27.006l13.967,239.2H152.24V492.648c0-16.454,4.139-33.054,13.384-33.054Z" transform="translate(1441.655 -6933.887)" fill="#e6e6e6"/>
        <path id="Trazado_812928" data-name="Trazado 812928" d="M5.64,282.463l13.967,239.2H150.843l7.567-239.2Z" transform="translate(1426.896 -6933.887)" fill="#d2d2d2"/>
        <path id="Trazado_812929" data-name="Trazado 812929" d="M27.006,305.287l13.967-55.868H165.81l13.966,55.868Z" transform="translate(1441.655 -6956.712)" fill="#e6e6e6"/>
        <path id="Trazado_812930" data-name="Trazado 812930" d="M5.64,305.287l13.967-55.868H150.843l7.567,55.868Z" transform="translate(1426.896 -6956.712)" fill="#e8e8e8"/>
        <path id="Trazado_812931" data-name="Trazado 812931" d="M165.707,276.783H.132v21.851H165.707Z" transform="translate(1423.091 -6937.811)" fill="#e8e8e8"/>
        <path id="Trazado_812932" data-name="Trazado 812932" d="M98.061,298.636h41.613v-21.85H98.061Z" transform="translate(1490.736 -6937.808)" fill="#e6e6e6"/>
        <path id="Trazado_812933" data-name="Trazado 812933" d="M207.319,288.923H.132v1.768H207.319Z" transform="translate(1423.091 -6929.425)" fill="#efefef"/>
        <path id="Trazado_812934" data-name="Trazado 812934" d="M207.319,276.261H.132v1.769H207.319Z" transform="translate(1423.091 -6938.171)" fill="#dedede"/>
        <path id="Trazado_812935" data-name="Trazado 812935" d="M112.8,389.621c-5.16,0-9.34,12.99-9.34,29.01s4.185,29.012,9.34,29.012h12.222V389.616H112.8Z" transform="translate(1494.469 -6859.87)" fill="#494949"/>
        <path id="Trazado_812936" data-name="Trazado 812936" d="M127.746,283.226H27a12.2,12.2,0,0,1-12.181-12.182h1.325A10.867,10.867,0,0,0,27,281.9H127.746A10.864,10.864,0,0,0,138.6,271.044V260.13h1.325v10.914a12.2,12.2,0,0,1-12.181,12.182Z" transform="translate(1433.24 -6949.313)" fill="#efefef"/>
        <path id="Trazado_812937" data-name="Trazado 812937" d="M16.149,276.02H14.824V265.106A12.194,12.194,0,0,1,27,252.926H127.746a12.194,12.194,0,0,1,12.181,12.18H138.6a10.865,10.865,0,0,0-10.851-10.855H27a10.866,10.866,0,0,0-10.855,10.855Z" transform="translate(1433.24 -6954.29)" fill="#dedede"/>
        <path id="Trazado_812938" data-name="Trazado 812938" d="M125.147,256.685H24.41a5.829,5.829,0,0,0-5.83,5.83v10.909a5.831,5.831,0,0,0,5.83,5.831H125.147a5.831,5.831,0,0,0,5.83-5.831V262.515A5.829,5.829,0,0,0,125.147,256.685Z" transform="translate(1435.834 -6951.693)" fill="#0f3302"/>
        <path id="Trazado_812939" data-name="Trazado 812939" d="M19.514,273.7H18.189V262.782a6.5,6.5,0,0,1,6.49-6.491H125.421a6.5,6.5,0,0,1,6.49,6.491h-1.325a5.17,5.17,0,0,0-5.165-5.165H24.679a5.17,5.17,0,0,0-5.165,5.165Z" transform="translate(1435.564 -6951.965)" fill="#efefef"/>
        <path id="Trazado_812940" data-name="Trazado 812940" d="M125.421,277.538H24.679a6.5,6.5,0,0,1-6.49-6.491h1.325a5.17,5.17,0,0,0,5.165,5.165H125.421a5.17,5.17,0,0,0,5.165-5.165V260.133h1.325v10.914A6.5,6.5,0,0,1,125.421,277.538Z" transform="translate(1435.564 -6949.312)" fill="#dedede"/>
        <path id="Trazado_812941" data-name="Trazado 812941" d="M103.77,412.382c1.266,11.365,4.741,19.535,8.829,19.535H124.82V412.382Z" transform="translate(1494.68 -6844.145)" fill="#282828"/>
        <path id="Trazado_812942" data-name="Trazado 812942" d="M120.036,447.641c5.159,0,9.34-12.99,9.34-29.012s-4.181-29.01-9.34-29.01-9.34,12.988-9.34,29.01S114.877,447.641,120.036,447.641Z" transform="translate(1499.464 -6859.868)" fill="#1d1d1b"/>
        <path id="Trazado_812943" data-name="Trazado 812943" d="M116.58,434.716a.882.882,0,0,1,0-1.763c2.181,0,5.219-6.875,5.219-18.069s-3.038-18.069-5.219-18.069a.883.883,0,0,1,0-1.765c4.536,0,6.988,10.222,6.988,19.838s-2.447,19.839-6.988,19.839Z" transform="translate(1502.92 -6856.117)" fill="#cbcbcb"/>
        <path id="Trazado_812944" data-name="Trazado 812944" d="M116.75,420.125c1.686,0,3.054-4.244,3.054-9.477s-1.368-9.475-3.054-9.475-3.053,4.242-3.053,9.475S115.065,420.125,116.75,420.125Z" transform="translate(1501.537 -6851.887)" fill="#e6e6e6"/>
        <path id="Trazado_812945" data-name="Trazado 812945" d="M161.293,423.414H13.9v1.768H161.293Z" transform="translate(1432.602 -6836.524)" fill="#efefef"/>
        <path id="Trazado_812946" data-name="Trazado 812946" d="M116.132,444.114a.881.881,0,0,1-.751-.416c-3.216-5.13-5.209-15.207-5.209-26.293,0-10.466,1.831-20.259,4.78-25.559a.885.885,0,0,1,1.547.859c-2.813,5.052-4.558,14.519-4.558,24.7,0,10.773,1.9,20.485,4.944,25.351a.885.885,0,0,1-.752,1.353Z" transform="translate(1499.102 -6858.644)" fill="#cbcbcb"/>
        <path id="Trazado_812947" data-name="Trazado 812947" d="M33.544,364.617l-8.5-14.716a10.469,10.469,0,0,0,3.067.451H63.853v18.079H40.143a7.548,7.548,0,0,1-6.6-3.809Z" transform="translate(1440.3 -6887.304)" fill="#fff"/>
        <path id="Trazado_812948" data-name="Trazado 812948" d="M29.977,361.591a7.618,7.618,0,0,1-6.6-11.426l11.855-20.534,15.654,9.037L37.652,361.591H29.977Z" transform="translate(1438.436 -6901.305)" fill="#fff"/>
        <path id="Trazado_812949" data-name="Trazado 812949" d="M42.023,329.585,49.178,342,27.694,329.59Z" transform="translate(1442.13 -6901.337)" fill="#fff"/>
        <path id="Trazado_812950" data-name="Trazado 812950" d="M89.919,357.738l-8.5,14.716a10.59,10.59,0,0,0-1.14-2.881L62.409,338.622l15.654-9.037,11.855,20.536A7.548,7.548,0,0,1,89.919,357.738Z" transform="translate(1466.11 -6901.337)" fill="#fff"/>
        <path id="Trazado_812951" data-name="Trazado 812951" d="M83.946,356.77a7.618,7.618,0,0,1-6.6,11.426H53.638V350.117H80.106l3.84,6.65Z" transform="translate(1460.051 -6887.154)" fill="#fff"/>
        <path id="Trazado_812952" data-name="Trazado 812952" d="M50.5,360.532l7.174-12.4v24.808Z" transform="translate(1457.881 -6888.527)" fill="#fff"/>
        <path id="Trazado_812953" data-name="Trazado 812953" d="M51.24,310.255h17a10.564,10.564,0,0,0-1.922,2.428l-17.87,30.951L32.79,334.6l11.855-20.534a7.541,7.541,0,0,1,6.6-3.808Z" transform="translate(1445.65 -6914.689)" fill="#fff"/>
        <path id="Trazado_812954" data-name="Trazado 812954" d="M55.6,314.063a7.622,7.622,0,0,1,13.2,0L80.651,334.6,65,343.634,51.762,320.712l3.84-6.65Z" transform="translate(1458.755 -6914.689)" fill="#fff"/>
        <path id="Trazado_812955" data-name="Trazado 812955" d="M71.642,335.115l-14.329,0L78.8,322.705Z" transform="translate(1462.59 -6906.089)" fill="#fff"/>
        <path id="Trazado_814897" data-name="Trazado 814897" d="M35.449,9.356H33.815V13H31.764V3.047h3.7a4.181,4.181,0,0,1,2.721.786,2.713,2.713,0,0,1,.957,2.222,3.062,3.062,0,0,1-.441,1.7,3.007,3.007,0,0,1-1.336,1.083L39.516,12.9V13h-2.2ZM33.815,7.7h1.654a1.694,1.694,0,0,0,1.2-.393,1.4,1.4,0,0,0,.424-1.083,1.5,1.5,0,0,0-.4-1.107,1.662,1.662,0,0,0-1.227-.4H33.815Zm10.158,5.441a3.631,3.631,0,0,1-2.649-1A3.548,3.548,0,0,1,40.3,9.479V9.288A4.468,4.468,0,0,1,40.733,7.3a3.161,3.161,0,0,1,1.22-1.354,3.425,3.425,0,0,1,1.8-.475,3.07,3.07,0,0,1,2.389.957,3.889,3.889,0,0,1,.872,2.714v.807h-4.71a1.835,1.835,0,0,0,.578,1.162,1.746,1.746,0,0,0,1.22.438,2.132,2.132,0,0,0,1.784-.827l.971,1.087a2.966,2.966,0,0,1-1.2.981A3.947,3.947,0,0,1,43.973,13.137ZM43.748,7.06a1.234,1.234,0,0,0-.954.4,2.062,2.062,0,0,0-.468,1.14h2.748V8.44a1.471,1.471,0,0,0-.355-1.02A1.274,1.274,0,0,0,43.748,7.06Zm8.395,3.9a.637.637,0,0,0-.359-.571,4.077,4.077,0,0,0-1.152-.373q-2.639-.554-2.639-2.242a2.032,2.032,0,0,1,.817-1.644,3.3,3.3,0,0,1,2.136-.66A3.547,3.547,0,0,1,53.2,6.13a2.09,2.09,0,0,1,.844,1.723H52.067a.956.956,0,0,0-.273-.7,1.157,1.157,0,0,0-.854-.277,1.182,1.182,0,0,0-.772.226.712.712,0,0,0-.273.574.609.609,0,0,0,.311.53,3.2,3.2,0,0,0,1.049.349,8.571,8.571,0,0,1,1.244.332,2.044,2.044,0,0,1,1.565,1.989,1.929,1.929,0,0,1-.868,1.637,3.745,3.745,0,0,1-2.242.625,3.912,3.912,0,0,1-1.651-.332A2.77,2.77,0,0,1,48.17,11.9a2.113,2.113,0,0,1-.41-1.248h1.873a1.031,1.031,0,0,0,.39.807,1.546,1.546,0,0,0,.971.28,1.43,1.43,0,0,0,.858-.215A.67.67,0,0,0,52.142,10.956ZM57.419,13H55.437V5.6h1.982Zm-2.1-9.311a.973.973,0,0,1,.3-.731,1.281,1.281,0,0,1,1.617,0,.967.967,0,0,1,.3.731.97.97,0,0,1-.3.738,1.267,1.267,0,0,1-1.606,0A.97.97,0,0,1,55.321,3.689Zm3.418,5.558a4.457,4.457,0,0,1,.776-2.755,2.517,2.517,0,0,1,2.123-1.025,2.265,2.265,0,0,1,1.784.807V2.5H65.4V13H63.62l-.1-.786a2.325,2.325,0,0,1-1.9.923,2.511,2.511,0,0,1-2.1-1.029A4.6,4.6,0,0,1,58.739,9.247Zm1.976.147a2.92,2.92,0,0,0,.362,1.6,1.18,1.18,0,0,0,1.053.555,1.322,1.322,0,0,0,1.292-.774V7.847a1.3,1.3,0,0,0-1.278-.774Q60.714,7.073,60.714,9.394Zm10.65,2.854a2.477,2.477,0,0,1-2.023.889,2.337,2.337,0,0,1-1.815-.684,2.918,2.918,0,0,1-.639-2V5.6h1.976v4.784q0,1.157,1.053,1.157a1.426,1.426,0,0,0,1.381-.7V5.6h1.982V13H71.419Zm3.1-3.015a4.387,4.387,0,0,1,.424-1.962,3.1,3.1,0,0,1,1.22-1.333,3.56,3.56,0,0,1,1.849-.472,3.368,3.368,0,0,1,2.444.916,3.676,3.676,0,0,1,1.056,2.488l.014.506a3.866,3.866,0,0,1-.95,2.731,3.683,3.683,0,0,1-5.1,0,3.934,3.934,0,0,1-.954-2.789Zm1.976.14a2.765,2.765,0,0,0,.4,1.612,1.424,1.424,0,0,0,2.256.007,3.025,3.025,0,0,0,.4-1.763,2.737,2.737,0,0,0-.4-1.6,1.311,1.311,0,0,0-1.135-.568,1.29,1.29,0,0,0-1.121.565A3.076,3.076,0,0,0,76.437,9.374Zm10.254,1.582a.637.637,0,0,0-.359-.571,4.077,4.077,0,0,0-1.152-.373q-2.639-.554-2.639-2.242a2.032,2.032,0,0,1,.817-1.644,3.3,3.3,0,0,1,2.136-.66,3.547,3.547,0,0,1,2.252.663,2.09,2.09,0,0,1,.844,1.723H86.616a.956.956,0,0,0-.273-.7,1.157,1.157,0,0,0-.854-.277,1.182,1.182,0,0,0-.772.226.712.712,0,0,0-.273.574.609.609,0,0,0,.311.53,3.2,3.2,0,0,0,1.049.349,8.571,8.571,0,0,1,1.244.332,2.044,2.044,0,0,1,1.565,1.989,1.929,1.929,0,0,1-.868,1.637,3.745,3.745,0,0,1-2.242.625,3.912,3.912,0,0,1-1.651-.332,2.77,2.77,0,0,1-1.131-.909,2.113,2.113,0,0,1-.41-1.248h1.873a1.031,1.031,0,0,0,.39.807,1.546,1.546,0,0,0,.971.28,1.43,1.43,0,0,0,.858-.215A.67.67,0,0,0,86.691,10.956ZM19.237,33a2.194,2.194,0,0,1-.2-.663,2.39,2.39,0,0,1-1.866.8,2.626,2.626,0,0,1-1.8-.629,2.023,2.023,0,0,1-.714-1.586,2.09,2.09,0,0,1,.872-1.8,4.3,4.3,0,0,1,2.519-.636h.909v-.424a1.219,1.219,0,0,0-.263-.82,1.035,1.035,0,0,0-.831-.308,1.177,1.177,0,0,0-.783.239.813.813,0,0,0-.284.656H14.821a1.984,1.984,0,0,1,.4-1.189,2.621,2.621,0,0,1,1.121-.858,4.086,4.086,0,0,1,1.627-.311,3.228,3.228,0,0,1,2.17.687,2.4,2.4,0,0,1,.8,1.931v3.206a3.536,3.536,0,0,0,.294,1.593V33ZM17.6,31.626a1.7,1.7,0,0,0,.807-.195,1.28,1.28,0,0,0,.547-.523V29.637h-.738q-1.483,0-1.579,1.025l-.007.116a.791.791,0,0,0,.26.608A1.009,1.009,0,0,0,17.6,31.626ZM29.115,29.37a4.436,4.436,0,0,1-.776,2.738,2.488,2.488,0,0,1-2.1,1.029,2.3,2.3,0,0,1-1.812-.779v3.486H22.457V25.6h1.832l.068.725a2.322,2.322,0,0,1,1.873-.861,2.5,2.5,0,0,1,2.126,1.012,4.556,4.556,0,0,1,.759,2.789Zm-1.976-.144a2.911,2.911,0,0,0-.366-1.593,1.191,1.191,0,0,0-1.063-.561,1.294,1.294,0,0,0-1.278.711v3.028a1.316,1.316,0,0,0,1.292.731Q27.14,31.544,27.14,29.227ZM34.5,27.456a5.367,5.367,0,0,0-.711-.055,1.447,1.447,0,0,0-1.47.759V33H30.339V25.6h1.866l.055.882a1.831,1.831,0,0,1,1.647-1.019,2.07,2.07,0,0,1,.615.089Zm.4,1.777a4.387,4.387,0,0,1,.424-1.962,3.1,3.1,0,0,1,1.22-1.333,3.56,3.56,0,0,1,1.849-.472,3.368,3.368,0,0,1,2.444.916,3.676,3.676,0,0,1,1.056,2.488l.014.506a3.866,3.866,0,0,1-.95,2.731,3.683,3.683,0,0,1-5.1,0,3.934,3.934,0,0,1-.954-2.789Zm1.976.14a2.765,2.765,0,0,0,.4,1.612,1.424,1.424,0,0,0,2.256.007,3.025,3.025,0,0,0,.4-1.763,2.737,2.737,0,0,0-.4-1.6,1.311,1.311,0,0,0-1.135-.568,1.29,1.29,0,0,0-1.121.565A3.076,3.076,0,0,0,36.867,29.374Zm8.914,1.213L47.155,25.6H49.22l-2.5,7.4H44.838l-2.5-7.4h2.064Zm7.622,2.55a3.631,3.631,0,0,1-2.649-1,3.548,3.548,0,0,1-1.022-2.659v-.191a4.468,4.468,0,0,1,.431-1.993,3.161,3.161,0,0,1,1.22-1.354,3.425,3.425,0,0,1,1.8-.475,3.07,3.07,0,0,1,2.389.957,3.889,3.889,0,0,1,.872,2.714v.807h-4.71a1.835,1.835,0,0,0,.578,1.162,1.746,1.746,0,0,0,1.22.438,2.132,2.132,0,0,0,1.784-.827l.971,1.087a2.966,2.966,0,0,1-1.2.981A3.947,3.947,0,0,1,53.4,33.137Zm-.226-6.077a1.234,1.234,0,0,0-.954.4,2.062,2.062,0,0,0-.468,1.14H54.5V28.44a1.471,1.471,0,0,0-.355-1.02A1.274,1.274,0,0,0,53.178,27.06Zm7.465,4.484a1.3,1.3,0,0,0,.889-.3,1.054,1.054,0,0,0,.355-.8h1.853a2.534,2.534,0,0,1-.41,1.377,2.706,2.706,0,0,1-1.1.971,3.455,3.455,0,0,1-1.548.345,3.211,3.211,0,0,1-2.5-1.008,3.99,3.99,0,0,1-.916-2.786v-.13a3.944,3.944,0,0,1,.909-2.728,3.174,3.174,0,0,1,2.5-1.019,3.111,3.111,0,0,1,2.225.79,2.8,2.8,0,0,1,.851,2.1H61.887a1.358,1.358,0,0,0-.355-.938,1.321,1.321,0,0,0-1.945.142,2.916,2.916,0,0,0-.352,1.633V29.4a2.953,2.953,0,0,0,.349,1.643A1.2,1.2,0,0,0,60.643,31.544Zm6.152-5.134a2.466,2.466,0,0,1,1.976-.943q2.406,0,2.44,2.8V33H69.235V28.317a1.374,1.374,0,0,0-.273-.94,1.172,1.172,0,0,0-.909-.3,1.345,1.345,0,0,0-1.258.67V33H64.819V22.5h1.976ZM76.987,33a2.194,2.194,0,0,1-.2-.663,2.39,2.39,0,0,1-1.866.8,2.626,2.626,0,0,1-1.8-.629,2.023,2.023,0,0,1-.714-1.586,2.09,2.09,0,0,1,.872-1.8,4.3,4.3,0,0,1,2.519-.636h.909v-.424a1.219,1.219,0,0,0-.263-.82,1.035,1.035,0,0,0-.831-.308,1.177,1.177,0,0,0-.783.239.813.813,0,0,0-.284.656H72.571a1.985,1.985,0,0,1,.4-1.189,2.621,2.621,0,0,1,1.121-.858,4.086,4.086,0,0,1,1.627-.311,3.228,3.228,0,0,1,2.17.687,2.4,2.4,0,0,1,.8,1.931v3.206a3.536,3.536,0,0,0,.294,1.593V33Zm-1.634-1.374a1.7,1.7,0,0,0,.807-.195,1.28,1.28,0,0,0,.547-.523V29.637h-.738q-1.483,0-1.579,1.025l-.007.116a.791.791,0,0,0,.26.608A1.009,1.009,0,0,0,75.354,31.626ZM86.872,29.37a4.479,4.479,0,0,1-.759,2.772,2.513,2.513,0,0,1-2.119.995,2.309,2.309,0,0,1-1.921-.923L81.984,33H80.207V22.5h1.976v3.767a2.25,2.25,0,0,1,1.8-.8,2.534,2.534,0,0,1,2.123.995,4.485,4.485,0,0,1,.769,2.8ZM84.9,29.227a2.942,2.942,0,0,0-.355-1.637,1.2,1.2,0,0,0-1.06-.516,1.3,1.3,0,0,0-1.3.772v2.919a1.321,1.321,0,0,0,1.313.779,1.22,1.22,0,0,0,1.258-.943A4.866,4.866,0,0,0,84.9,29.227ZM90.174,33H88.191V22.5h1.982Zm5.031.137a3.631,3.631,0,0,1-2.649-1,3.548,3.548,0,0,1-1.022-2.659v-.191a4.468,4.468,0,0,1,.431-1.993,3.161,3.161,0,0,1,1.22-1.354,3.425,3.425,0,0,1,1.8-.475,3.07,3.07,0,0,1,2.389.957,3.889,3.889,0,0,1,.872,2.714v.807h-4.71a1.835,1.835,0,0,0,.578,1.162,1.746,1.746,0,0,0,1.22.438,2.132,2.132,0,0,0,1.784-.827L98.09,31.8a2.966,2.966,0,0,1-1.2.981A3.947,3.947,0,0,1,95.205,33.137Zm-.226-6.077a1.234,1.234,0,0,0-.954.4,2.062,2.062,0,0,0-.468,1.14h2.748V28.44a1.471,1.471,0,0,0-.355-1.02A1.274,1.274,0,0,0,94.979,27.06Zm8.395,3.9a.637.637,0,0,0-.359-.571,4.077,4.077,0,0,0-1.152-.373q-2.639-.554-2.639-2.242a2.032,2.032,0,0,1,.817-1.644,3.3,3.3,0,0,1,2.136-.66,3.547,3.547,0,0,1,2.252.663,2.09,2.09,0,0,1,.844,1.723H103.3a.956.956,0,0,0-.273-.7,1.157,1.157,0,0,0-.854-.277,1.182,1.182,0,0,0-.772.226.712.712,0,0,0-.273.574.609.609,0,0,0,.311.53,3.2,3.2,0,0,0,1.049.349,8.571,8.571,0,0,1,1.244.332,2.044,2.044,0,0,1,1.565,1.989,1.929,1.929,0,0,1-.868,1.637,3.745,3.745,0,0,1-2.242.625,3.912,3.912,0,0,1-1.651-.332A2.77,2.77,0,0,1,99.4,31.9a2.113,2.113,0,0,1-.41-1.248h1.873a1.031,1.031,0,0,0,.39.807,1.546,1.546,0,0,0,.971.28,1.43,1.43,0,0,0,.858-.215A.67.67,0,0,0,103.374,30.956Z" transform="translate(1455 -6492)" fill="#12263f"/>
      </g>
    </g>
  </g>
</svg>
