<svg xmlns="http://www.w3.org/2000/svg" width="400" height="324.356" viewBox="0 0 400 324.356">
  <g id="Grupo_1070380" data-name="Grupo 1070380" transform="translate(-599.999 -1800.438)">
    <g id="Grupo_1070299" data-name="Grupo 1070299" transform="translate(0 -58)">
      <g id="Image_Place_Holder" data-name="Image Place Holder" transform="translate(599.999 1912.025)">
        <rect id="Image_Place_Holder-2" data-name="Image Place Holder" width="400" height="270.769" rx="10" fill="#fffad0"/>
      </g>
      <g id="Grupo_1069895" data-name="Grupo 1069895" transform="translate(-1236 8565.731)">
        <path id="Trazado_813100" data-name="Trazado 813100" d="M396.407,421.062H189.22v17.682H396.407Z" transform="translate(1668.705 -6838.148)" fill="#999"/>
        <path id="Trazado_813101" data-name="Trazado 813101" d="M350.43,511.6V459.593h3.813l10.344-177.13H211.817l13.967,239.2H337.051V511.6Z" transform="translate(1684.314 -6933.887)" fill="#296621"/>
        <path id="Trazado_813102" data-name="Trazado 813102" d="M350.43,459.593h3.813l10.344-177.13H211.817l13.967,239.2H337.051V492.648c0-16.454,4.139-33.054,13.384-33.054Z" transform="translate(1684.314 -6933.887)" fill="#296621"/>
        <path id="Trazado_813103" data-name="Trazado 813103" d="M190.451,282.463l13.966,239.2H335.653l7.568-239.2Z" transform="translate(1669.555 -6933.887)" fill="#3d7635"/>
        <path id="Trazado_813104" data-name="Trazado 813104" d="M211.817,305.287l13.967-55.868H350.62l13.967,55.868Z" transform="translate(1684.314 -6956.712)" fill="#296621"/>
        <path id="Trazado_813105" data-name="Trazado 813105" d="M190.451,305.287l13.966-55.868H335.653l7.568,55.868Z" transform="translate(1669.555 -6956.712)" fill="#34772b"/>
        <path id="Trazado_813106" data-name="Trazado 813106" d="M350.518,276.783H184.942v21.851H350.518Z" transform="translate(1665.75 -6937.811)" fill="#34772b"/>
        <path id="Trazado_813107" data-name="Trazado 813107" d="M282.872,298.636h41.611v-21.85H282.872Z" transform="translate(1733.396 -6937.808)" fill="#296621"/>
        <path id="Trazado_813108" data-name="Trazado 813108" d="M392.129,289.185H184.942v1.769H392.129Z" transform="translate(1665.75 -6929.244)" fill="#296621"/>
        <path id="Trazado_813109" data-name="Trazado 813109" d="M346.1,423.414H198.711v1.768H346.1Z" transform="translate(1675.261 -6836.524)" fill="#296621"/>
        <path id="Trazado_813110" data-name="Trazado 813110" d="M392.129,276.261H184.942v1.769H392.129Z" transform="translate(1665.75 -6938.171)" fill="#296621"/>
        <path id="Trazado_813111" data-name="Trazado 813111" d="M297.616,389.621c-5.16,0-9.34,12.99-9.34,29.01s4.183,29.012,9.34,29.012h12.221V389.616H297.616Z" transform="translate(1737.129 -6859.87)" fill="#494949"/>
        <path id="Trazado_813112" data-name="Trazado 813112" d="M312.556,283.226H211.816a12.2,12.2,0,0,1-12.182-12.182h1.326A10.867,10.867,0,0,0,211.811,281.9H312.553a10.867,10.867,0,0,0,10.855-10.856V260.13h1.326v10.914a12.2,12.2,0,0,1-12.18,12.182Z" transform="translate(1675.898 -6949.313)" fill="#296621"/>
        <path id="Trazado_813113" data-name="Trazado 813113" d="M200.96,276.02h-1.326V265.106a12.2,12.2,0,0,1,12.182-12.18h100.74a12.2,12.2,0,0,1,12.182,12.18h-1.326a10.867,10.867,0,0,0-10.856-10.855H211.816a10.862,10.862,0,0,0-10.851,10.855V276.02Z" transform="translate(1675.898 -6954.29)" fill="#296621"/>
        <path id="Trazado_813114" data-name="Trazado 813114" d="M309.958,256.685H209.221a5.83,5.83,0,0,0-5.831,5.83v10.909a5.831,5.831,0,0,0,5.831,5.831H309.958a5.831,5.831,0,0,0,5.83-5.831V262.515A5.829,5.829,0,0,0,309.958,256.685Z" transform="translate(1678.493 -6951.693)" fill="#184412"/>
        <path id="Trazado_813115" data-name="Trazado 813115" d="M204.326,273.7H203V262.782a6.5,6.5,0,0,1,6.491-6.491h100.74a6.5,6.5,0,0,1,6.491,6.491H315.4a5.169,5.169,0,0,0-5.165-5.165H209.491a5.169,5.169,0,0,0-5.165,5.165Z" transform="translate(1678.224 -6951.965)" fill="#296621"/>
        <path id="Trazado_813116" data-name="Trazado 813116" d="M310.231,277.538H209.491A6.5,6.5,0,0,1,203,271.047h1.326a5.169,5.169,0,0,0,5.165,5.165h100.74a5.169,5.169,0,0,0,5.165-5.165V260.133h1.326v10.914A6.5,6.5,0,0,1,310.231,277.538Z" transform="translate(1678.224 -6949.312)" fill="#296621"/>
        <path id="Trazado_813117" data-name="Trazado 813117" d="M288.578,412.382c1.266,11.365,4.741,19.535,8.829,19.535h12.221V412.382Z" transform="translate(1737.337 -6844.145)" fill="#282828"/>
        <path id="Trazado_813118" data-name="Trazado 813118" d="M304.847,447.641c5.159,0,9.34-12.99,9.34-29.012s-4.181-29.01-9.34-29.01-9.34,12.988-9.34,29.01S299.688,447.641,304.847,447.641Z" transform="translate(1742.123 -6859.868)" fill="#1d1d1b"/>
        <path id="Trazado_813119" data-name="Trazado 813119" d="M301.753,434.716a.882.882,0,1,1,0-1.763c1.922,0,4.6-6.875,4.6-18.069s-2.682-18.069-4.6-18.069a.883.883,0,0,1,0-1.765c4.185,0,6.372,9.979,6.372,19.838s-2.188,19.839-6.372,19.839Z" transform="translate(1745.828 -6856.117)" fill="#707070"/>
        <path id="Trazado_813120" data-name="Trazado 813120" d="M301.558,420.125c1.687,0,3.054-4.244,3.054-9.477s-1.366-9.475-3.054-9.475-3.052,4.242-3.052,9.475S299.872,420.125,301.558,420.125Z" transform="translate(1744.195 -6851.887)" fill="#296621"/>
        <path id="Trazado_813121" data-name="Trazado 813121" d="M300.944,444.114a.879.879,0,0,1-.751-.416c-3.216-5.133-5.211-15.207-5.211-26.293,0-10.466,1.833-20.259,4.781-25.559a.885.885,0,0,1,1.547.859c-2.813,5.052-4.56,14.519-4.56,24.7,0,10.77,1.9,20.485,4.944,25.351a.885.885,0,0,1-.751,1.353Z" transform="translate(1741.761 -6858.644)" fill="#707070"/>
        <path id="Trazado_813122" data-name="Trazado 813122" d="M218.355,364.617l-8.5-14.716a10.469,10.469,0,0,0,3.067.451h35.741v18.079h-23.71a7.549,7.549,0,0,1-6.6-3.809Z" transform="translate(1682.959 -6887.304)" fill="#fff"/>
        <path id="Trazado_813123" data-name="Trazado 813123" d="M214.787,361.591a7.618,7.618,0,0,1-6.6-11.426l11.854-20.534,15.655,9.037-13.234,22.923h-7.676Z" transform="translate(1681.095 -6901.305)" fill="#fff"/>
        <path id="Trazado_813124" data-name="Trazado 813124" d="M226.83,329.585,233.988,342,212.5,329.59Z" transform="translate(1684.789 -6901.337)" fill="#fff"/>
        <path id="Trazado_813125" data-name="Trazado 813125" d="M274.729,357.738l-8.5,14.716a10.623,10.623,0,0,0-1.14-2.881L247.22,338.622l15.655-9.037,11.854,20.536A7.542,7.542,0,0,1,274.729,357.738Z" transform="translate(1708.769 -6901.337)" fill="#fff"/>
        <path id="Trazado_813126" data-name="Trazado 813126" d="M268.756,356.77a7.618,7.618,0,0,1-6.6,11.426H238.448V350.117h26.469l3.84,6.65Z" transform="translate(1702.709 -6887.154)" fill="#fff"/>
        <path id="Trazado_813127" data-name="Trazado 813127" d="M235.308,360.532l7.169-12.4v24.808Z" transform="translate(1700.541 -6888.527)" fill="#fff"/>
        <path id="Trazado_813128" data-name="Trazado 813128" d="M236.051,310.255h17a10.556,10.556,0,0,0-1.922,2.428l-17.871,30.951L217.6,334.6l11.854-20.534a7.543,7.543,0,0,1,6.6-3.808Z" transform="translate(1688.309 -6914.689)" fill="#fff"/>
        <path id="Trazado_813129" data-name="Trazado 813129" d="M240.409,314.063a7.622,7.622,0,0,1,13.2,0L265.461,334.6l-15.653,9.037-13.235-22.922,3.84-6.65Z" transform="translate(1701.414 -6914.689)" fill="#fff"/>
        <path id="Trazado_813130" data-name="Trazado 813130" d="M256.453,335.115l-14.329,0,21.484-12.407Z" transform="translate(1705.249 -6906.089)" fill="#fff"/>
        <path id="Trazado_814898" data-name="Trazado 814898" d="M35.449,9.356H33.815V13H31.764V3.047h3.7a4.181,4.181,0,0,1,2.721.786,2.713,2.713,0,0,1,.957,2.222,3.062,3.062,0,0,1-.441,1.7,3.007,3.007,0,0,1-1.336,1.083L39.516,12.9V13h-2.2ZM33.815,7.7h1.654a1.694,1.694,0,0,0,1.2-.393,1.4,1.4,0,0,0,.424-1.083,1.5,1.5,0,0,0-.4-1.107,1.662,1.662,0,0,0-1.227-.4H33.815Zm10.158,5.441a3.631,3.631,0,0,1-2.649-1A3.548,3.548,0,0,1,40.3,9.479V9.288A4.468,4.468,0,0,1,40.733,7.3a3.161,3.161,0,0,1,1.22-1.354,3.425,3.425,0,0,1,1.8-.475,3.07,3.07,0,0,1,2.389.957,3.889,3.889,0,0,1,.872,2.714v.807h-4.71a1.835,1.835,0,0,0,.578,1.162,1.746,1.746,0,0,0,1.22.438,2.132,2.132,0,0,0,1.784-.827l.971,1.087a2.966,2.966,0,0,1-1.2.981A3.947,3.947,0,0,1,43.973,13.137ZM43.748,7.06a1.234,1.234,0,0,0-.954.4,2.062,2.062,0,0,0-.468,1.14h2.748V8.44a1.471,1.471,0,0,0-.355-1.02A1.274,1.274,0,0,0,43.748,7.06Zm8.395,3.9a.637.637,0,0,0-.359-.571,4.077,4.077,0,0,0-1.152-.373q-2.639-.554-2.639-2.242a2.032,2.032,0,0,1,.817-1.644,3.3,3.3,0,0,1,2.136-.66A3.547,3.547,0,0,1,53.2,6.13a2.09,2.09,0,0,1,.844,1.723H52.067a.956.956,0,0,0-.273-.7,1.157,1.157,0,0,0-.854-.277,1.182,1.182,0,0,0-.772.226.712.712,0,0,0-.273.574.609.609,0,0,0,.311.53,3.2,3.2,0,0,0,1.049.349,8.571,8.571,0,0,1,1.244.332,2.044,2.044,0,0,1,1.565,1.989,1.929,1.929,0,0,1-.868,1.637,3.745,3.745,0,0,1-2.242.625,3.912,3.912,0,0,1-1.651-.332A2.77,2.77,0,0,1,48.17,11.9a2.113,2.113,0,0,1-.41-1.248h1.873a1.031,1.031,0,0,0,.39.807,1.546,1.546,0,0,0,.971.28,1.43,1.43,0,0,0,.858-.215A.67.67,0,0,0,52.142,10.956ZM57.419,13H55.437V5.6h1.982Zm-2.1-9.311a.973.973,0,0,1,.3-.731,1.281,1.281,0,0,1,1.617,0,.967.967,0,0,1,.3.731.97.97,0,0,1-.3.738,1.267,1.267,0,0,1-1.606,0A.97.97,0,0,1,55.321,3.689Zm3.418,5.558a4.457,4.457,0,0,1,.776-2.755,2.517,2.517,0,0,1,2.123-1.025,2.265,2.265,0,0,1,1.784.807V2.5H65.4V13H63.62l-.1-.786a2.325,2.325,0,0,1-1.9.923,2.511,2.511,0,0,1-2.1-1.029A4.6,4.6,0,0,1,58.739,9.247Zm1.976.147a2.92,2.92,0,0,0,.362,1.6,1.18,1.18,0,0,0,1.053.555,1.322,1.322,0,0,0,1.292-.774V7.847a1.3,1.3,0,0,0-1.278-.774Q60.714,7.073,60.714,9.394Zm10.65,2.854a2.477,2.477,0,0,1-2.023.889,2.337,2.337,0,0,1-1.815-.684,2.918,2.918,0,0,1-.639-2V5.6h1.976v4.784q0,1.157,1.053,1.157a1.426,1.426,0,0,0,1.381-.7V5.6h1.982V13H71.419Zm3.1-3.015a4.387,4.387,0,0,1,.424-1.962,3.1,3.1,0,0,1,1.22-1.333,3.56,3.56,0,0,1,1.849-.472,3.368,3.368,0,0,1,2.444.916,3.676,3.676,0,0,1,1.056,2.488l.014.506a3.866,3.866,0,0,1-.95,2.731,3.683,3.683,0,0,1-5.1,0,3.934,3.934,0,0,1-.954-2.789Zm1.976.14a2.765,2.765,0,0,0,.4,1.612,1.424,1.424,0,0,0,2.256.007,3.025,3.025,0,0,0,.4-1.763,2.737,2.737,0,0,0-.4-1.6,1.311,1.311,0,0,0-1.135-.568,1.29,1.29,0,0,0-1.121.565A3.076,3.076,0,0,0,76.437,9.374Zm10.254,1.582a.637.637,0,0,0-.359-.571,4.077,4.077,0,0,0-1.152-.373q-2.639-.554-2.639-2.242a2.032,2.032,0,0,1,.817-1.644,3.3,3.3,0,0,1,2.136-.66,3.547,3.547,0,0,1,2.252.663,2.09,2.09,0,0,1,.844,1.723H86.616a.956.956,0,0,0-.273-.7,1.157,1.157,0,0,0-.854-.277,1.182,1.182,0,0,0-.772.226.712.712,0,0,0-.273.574.609.609,0,0,0,.311.53,3.2,3.2,0,0,0,1.049.349,8.571,8.571,0,0,1,1.244.332,2.044,2.044,0,0,1,1.565,1.989,1.929,1.929,0,0,1-.868,1.637,3.745,3.745,0,0,1-2.242.625,3.912,3.912,0,0,1-1.651-.332,2.77,2.77,0,0,1-1.131-.909,2.113,2.113,0,0,1-.41-1.248h1.873a1.031,1.031,0,0,0,.39.807,1.546,1.546,0,0,0,.971.28,1.43,1.43,0,0,0,.858-.215A.67.67,0,0,0,86.691,10.956ZM29.272,29.233a4.387,4.387,0,0,1,.424-1.962,3.1,3.1,0,0,1,1.22-1.333,3.56,3.56,0,0,1,1.849-.472,3.368,3.368,0,0,1,2.444.916,3.676,3.676,0,0,1,1.056,2.488l.014.506a3.866,3.866,0,0,1-.95,2.731,3.683,3.683,0,0,1-5.1,0,3.934,3.934,0,0,1-.954-2.789Zm1.976.14a2.765,2.765,0,0,0,.4,1.612,1.424,1.424,0,0,0,2.256.007,3.025,3.025,0,0,0,.4-1.763,2.737,2.737,0,0,0-.4-1.6,1.311,1.311,0,0,0-1.135-.568,1.29,1.29,0,0,0-1.121.565A3.076,3.076,0,0,0,31.248,29.374Zm10.4-1.918a5.367,5.367,0,0,0-.711-.055,1.447,1.447,0,0,0-1.47.759V33H37.5V25.6h1.866l.055.882a1.831,1.831,0,0,1,1.647-1.019,2.07,2.07,0,0,1,.615.089Zm.533,1.791A4.335,4.335,0,0,1,43,26.506a2.625,2.625,0,0,1,2.184-1.039,2.3,2.3,0,0,1,1.894.834l.082-.7h1.791v7.15a3.161,3.161,0,0,1-.441,1.688,2.832,2.832,0,0,1-1.241,1.094,4.362,4.362,0,0,1-1.873.376,4.056,4.056,0,0,1-1.586-.325,2.815,2.815,0,0,1-1.169-.837l.875-1.2a2.314,2.314,0,0,0,1.791.827,1.694,1.694,0,0,0,1.224-.42,1.577,1.577,0,0,0,.438-1.193v-.4a2.285,2.285,0,0,1-1.8.772,2.618,2.618,0,0,1-2.157-1.042,4.334,4.334,0,0,1-.824-2.765Zm1.976.147a2.7,2.7,0,0,0,.4,1.578,1.283,1.283,0,0,0,1.107.572,1.372,1.372,0,0,0,1.292-.678V27.751a1.369,1.369,0,0,0-1.278-.678,1.291,1.291,0,0,0-1.118.582A3.042,3.042,0,0,0,44.161,29.394ZM54.75,33a2.194,2.194,0,0,1-.2-.663,2.39,2.39,0,0,1-1.866.8,2.626,2.626,0,0,1-1.8-.629,2.023,2.023,0,0,1-.714-1.586,2.09,2.09,0,0,1,.872-1.8,4.3,4.3,0,0,1,2.519-.636h.909v-.424a1.219,1.219,0,0,0-.263-.82,1.035,1.035,0,0,0-.831-.308,1.177,1.177,0,0,0-.783.239.813.813,0,0,0-.284.656H50.334a1.984,1.984,0,0,1,.4-1.189,2.621,2.621,0,0,1,1.121-.858,4.086,4.086,0,0,1,1.627-.311,3.228,3.228,0,0,1,2.17.687,2.4,2.4,0,0,1,.8,1.931v3.206a3.536,3.536,0,0,0,.294,1.593V33Zm-1.634-1.374a1.7,1.7,0,0,0,.807-.195,1.28,1.28,0,0,0,.547-.523V29.637h-.738q-1.483,0-1.579,1.025l-.007.116a.791.791,0,0,0,.26.608A1.009,1.009,0,0,0,53.116,31.626Zm.752-9.126h2.153l-1.894,2.119H52.521Zm5.92,3.1.062.854a2.582,2.582,0,0,1,2.126-.991,2.146,2.146,0,0,1,1.75.69,3.221,3.221,0,0,1,.588,2.064V33H62.338V28.27a1.282,1.282,0,0,0-.273-.913,1.224,1.224,0,0,0-.909-.284,1.359,1.359,0,0,0-1.251.711V33H57.929V25.6ZM67.9,33H65.913V25.6H67.9Zm-2.1-9.311a.973.973,0,0,1,.3-.731,1.281,1.281,0,0,1,1.617,0,1.044,1.044,0,0,1,0,1.47,1.267,1.267,0,0,1-1.606,0A.97.97,0,0,1,65.8,23.689Zm6.8,7.854a1.3,1.3,0,0,0,.889-.3,1.054,1.054,0,0,0,.355-.8H75.7a2.534,2.534,0,0,1-.41,1.377,2.706,2.706,0,0,1-1.1.971,3.455,3.455,0,0,1-1.548.345,3.211,3.211,0,0,1-2.5-1.008,3.99,3.99,0,0,1-.916-2.786v-.13a3.944,3.944,0,0,1,.909-2.728,3.174,3.174,0,0,1,2.5-1.019,3.111,3.111,0,0,1,2.225.79,2.8,2.8,0,0,1,.851,2.1H73.843a1.358,1.358,0,0,0-.355-.938,1.321,1.321,0,0,0-1.945.142A2.916,2.916,0,0,0,71.19,29.2V29.4a2.953,2.953,0,0,0,.349,1.643A1.2,1.2,0,0,0,72.6,31.544Zm3.917-2.311a4.387,4.387,0,0,1,.424-1.962,3.1,3.1,0,0,1,1.22-1.333,3.56,3.56,0,0,1,1.849-.472,3.368,3.368,0,0,1,2.444.916,3.676,3.676,0,0,1,1.056,2.488l.014.506a3.866,3.866,0,0,1-.95,2.731,3.683,3.683,0,0,1-5.1,0,3.934,3.934,0,0,1-.954-2.789Zm1.976.14a2.765,2.765,0,0,0,.4,1.612,1.424,1.424,0,0,0,2.256.007,3.025,3.025,0,0,0,.4-1.763,2.737,2.737,0,0,0-.4-1.6,1.311,1.311,0,0,0-1.135-.568,1.29,1.29,0,0,0-1.121.565A3.076,3.076,0,0,0,78.491,29.374Zm10.254,1.582a.637.637,0,0,0-.359-.571,4.077,4.077,0,0,0-1.152-.373Q84.6,29.459,84.6,27.771a2.032,2.032,0,0,1,.817-1.644,3.3,3.3,0,0,1,2.136-.66,3.547,3.547,0,0,1,2.252.663,2.09,2.09,0,0,1,.844,1.723H88.67a.956.956,0,0,0-.273-.7,1.157,1.157,0,0,0-.854-.277,1.182,1.182,0,0,0-.772.226.712.712,0,0,0-.273.574.609.609,0,0,0,.311.53,3.2,3.2,0,0,0,1.049.349,8.571,8.571,0,0,1,1.244.332,2.044,2.044,0,0,1,1.565,1.989,1.929,1.929,0,0,1-.868,1.637,3.745,3.745,0,0,1-2.242.625,3.912,3.912,0,0,1-1.651-.332,2.77,2.77,0,0,1-1.131-.909,2.113,2.113,0,0,1-.41-1.248h1.873a1.031,1.031,0,0,0,.39.807,1.546,1.546,0,0,0,.971.28,1.43,1.43,0,0,0,.858-.215A.67.67,0,0,0,88.745,30.956ZM19.237,53a2.194,2.194,0,0,1-.2-.663,2.39,2.39,0,0,1-1.866.8,2.626,2.626,0,0,1-1.8-.629,2.023,2.023,0,0,1-.714-1.586,2.09,2.09,0,0,1,.872-1.8,4.3,4.3,0,0,1,2.519-.636h.909v-.424a1.219,1.219,0,0,0-.263-.82,1.035,1.035,0,0,0-.831-.308,1.177,1.177,0,0,0-.783.239.813.813,0,0,0-.284.656H14.821a1.984,1.984,0,0,1,.4-1.189,2.621,2.621,0,0,1,1.121-.858,4.086,4.086,0,0,1,1.627-.311,3.228,3.228,0,0,1,2.17.687,2.4,2.4,0,0,1,.8,1.931v3.206a3.536,3.536,0,0,0,.294,1.593V53ZM17.6,51.626a1.7,1.7,0,0,0,.807-.195,1.28,1.28,0,0,0,.547-.523V49.637h-.738q-1.483,0-1.579,1.025l-.007.116a.791.791,0,0,0,.26.608A1.009,1.009,0,0,0,17.6,51.626ZM29.115,49.37a4.436,4.436,0,0,1-.776,2.738,2.488,2.488,0,0,1-2.1,1.029,2.3,2.3,0,0,1-1.812-.779v3.486H22.457V45.6h1.832l.068.725a2.322,2.322,0,0,1,1.873-.861,2.5,2.5,0,0,1,2.126,1.012,4.556,4.556,0,0,1,.759,2.789Zm-1.976-.144a2.911,2.911,0,0,0-.366-1.593,1.191,1.191,0,0,0-1.063-.561,1.294,1.294,0,0,0-1.278.711v3.028a1.316,1.316,0,0,0,1.292.731Q27.14,51.544,27.14,49.227ZM34.5,47.456a5.367,5.367,0,0,0-.711-.055,1.447,1.447,0,0,0-1.47.759V53H30.339V45.6h1.866l.055.882a1.831,1.831,0,0,1,1.647-1.019,2.07,2.07,0,0,1,.615.089Zm.4,1.777a4.387,4.387,0,0,1,.424-1.962,3.1,3.1,0,0,1,1.22-1.333,3.56,3.56,0,0,1,1.849-.472,3.368,3.368,0,0,1,2.444.916,3.676,3.676,0,0,1,1.056,2.488l.014.506a3.866,3.866,0,0,1-.95,2.731,3.683,3.683,0,0,1-5.1,0,3.934,3.934,0,0,1-.954-2.789Zm1.976.14a2.765,2.765,0,0,0,.4,1.612,1.424,1.424,0,0,0,2.256.007,3.025,3.025,0,0,0,.4-1.763,2.737,2.737,0,0,0-.4-1.6,1.311,1.311,0,0,0-1.135-.568,1.29,1.29,0,0,0-1.121.565A3.076,3.076,0,0,0,36.867,49.374Zm8.914,1.213L47.155,45.6H49.22l-2.5,7.4H44.838l-2.5-7.4h2.064Zm7.622,2.55a3.631,3.631,0,0,1-2.649-1,3.548,3.548,0,0,1-1.022-2.659v-.191a4.468,4.468,0,0,1,.431-1.993,3.161,3.161,0,0,1,1.22-1.354,3.425,3.425,0,0,1,1.8-.475,3.07,3.07,0,0,1,2.389.957,3.889,3.889,0,0,1,.872,2.714v.807h-4.71a1.835,1.835,0,0,0,.578,1.162,1.746,1.746,0,0,0,1.22.438,2.132,2.132,0,0,0,1.784-.827l.971,1.087a2.966,2.966,0,0,1-1.2.981A3.947,3.947,0,0,1,53.4,53.137Zm-.226-6.077a1.234,1.234,0,0,0-.954.4,2.062,2.062,0,0,0-.468,1.14H54.5V48.44a1.471,1.471,0,0,0-.355-1.02A1.274,1.274,0,0,0,53.178,47.06Zm7.465,4.484a1.3,1.3,0,0,0,.889-.3,1.054,1.054,0,0,0,.355-.8h1.853a2.534,2.534,0,0,1-.41,1.377,2.706,2.706,0,0,1-1.1.971,3.455,3.455,0,0,1-1.548.345,3.211,3.211,0,0,1-2.5-1.008,3.99,3.99,0,0,1-.916-2.786v-.13a3.944,3.944,0,0,1,.909-2.728,3.174,3.174,0,0,1,2.5-1.019,3.111,3.111,0,0,1,2.225.79,2.8,2.8,0,0,1,.851,2.1H61.887a1.358,1.358,0,0,0-.355-.938,1.321,1.321,0,0,0-1.945.142,2.916,2.916,0,0,0-.352,1.633V49.4a2.953,2.953,0,0,0,.349,1.643A1.2,1.2,0,0,0,60.643,51.544Zm6.152-5.134a2.466,2.466,0,0,1,1.976-.943q2.406,0,2.44,2.8V53H69.235V48.317a1.374,1.374,0,0,0-.273-.94,1.172,1.172,0,0,0-.909-.3,1.345,1.345,0,0,0-1.258.67V53H64.819V42.5h1.976ZM76.987,53a2.194,2.194,0,0,1-.2-.663,2.39,2.39,0,0,1-1.866.8,2.626,2.626,0,0,1-1.8-.629,2.023,2.023,0,0,1-.714-1.586,2.09,2.09,0,0,1,.872-1.8,4.3,4.3,0,0,1,2.519-.636h.909v-.424a1.219,1.219,0,0,0-.263-.82,1.035,1.035,0,0,0-.831-.308,1.177,1.177,0,0,0-.783.239.813.813,0,0,0-.284.656H72.571a1.985,1.985,0,0,1,.4-1.189,2.621,2.621,0,0,1,1.121-.858,4.086,4.086,0,0,1,1.627-.311,3.228,3.228,0,0,1,2.17.687,2.4,2.4,0,0,1,.8,1.931v3.206a3.536,3.536,0,0,0,.294,1.593V53Zm-1.634-1.374a1.7,1.7,0,0,0,.807-.195,1.28,1.28,0,0,0,.547-.523V49.637h-.738q-1.483,0-1.579,1.025l-.007.116a.791.791,0,0,0,.26.608A1.009,1.009,0,0,0,75.354,51.626ZM86.872,49.37a4.479,4.479,0,0,1-.759,2.772,2.513,2.513,0,0,1-2.119.995,2.309,2.309,0,0,1-1.921-.923L81.984,53H80.207V42.5h1.976v3.767a2.25,2.25,0,0,1,1.8-.8,2.534,2.534,0,0,1,2.123.995,4.485,4.485,0,0,1,.769,2.8ZM84.9,49.227a2.942,2.942,0,0,0-.355-1.637,1.2,1.2,0,0,0-1.06-.516,1.3,1.3,0,0,0-1.3.772v2.919a1.321,1.321,0,0,0,1.313.779,1.22,1.22,0,0,0,1.258-.943A4.866,4.866,0,0,0,84.9,49.227ZM90.174,53H88.191V42.5h1.982Zm5.031.137a3.631,3.631,0,0,1-2.649-1,3.548,3.548,0,0,1-1.022-2.659v-.191a4.468,4.468,0,0,1,.431-1.993,3.161,3.161,0,0,1,1.22-1.354,3.425,3.425,0,0,1,1.8-.475,3.07,3.07,0,0,1,2.389.957,3.889,3.889,0,0,1,.872,2.714v.807h-4.71a1.835,1.835,0,0,0,.578,1.162,1.746,1.746,0,0,0,1.22.438,2.132,2.132,0,0,0,1.784-.827L98.09,51.8a2.966,2.966,0,0,1-1.2.981A3.947,3.947,0,0,1,95.205,53.137Zm-.226-6.077a1.234,1.234,0,0,0-.954.4,2.062,2.062,0,0,0-.468,1.14h2.748V48.44a1.471,1.471,0,0,0-.355-1.02A1.274,1.274,0,0,0,94.979,47.06Zm8.395,3.9a.637.637,0,0,0-.359-.571,4.077,4.077,0,0,0-1.152-.373q-2.639-.554-2.639-2.242a2.032,2.032,0,0,1,.817-1.644,3.3,3.3,0,0,1,2.136-.66,3.547,3.547,0,0,1,2.252.663,2.09,2.09,0,0,1,.844,1.723H103.3a.956.956,0,0,0-.273-.7,1.157,1.157,0,0,0-.854-.277,1.182,1.182,0,0,0-.772.226.712.712,0,0,0-.273.574.609.609,0,0,0,.311.53,3.2,3.2,0,0,0,1.049.349,8.571,8.571,0,0,1,1.244.332,2.044,2.044,0,0,1,1.565,1.989,1.929,1.929,0,0,1-.868,1.637,3.745,3.745,0,0,1-2.242.625,3.912,3.912,0,0,1-1.651-.332A2.77,2.77,0,0,1,99.4,51.9a2.113,2.113,0,0,1-.41-1.248h1.873a1.031,1.031,0,0,0,.39.807,1.546,1.546,0,0,0,.971.28,1.43,1.43,0,0,0,.858-.215A.67.67,0,0,0,103.374,50.956Z" transform="translate(1883 -6492)" fill="#fff"/>
      </g>
      <g id="Grupo_1069900" data-name="Grupo 1069900" transform="translate(-1007.156 8996.441)">
        <path id="Trazado_813017" data-name="Trazado 813017" d="M233.026,29.39c-.793-3.388.313-6.985,2.151-9.942a19.12,19.12,0,0,1,13.742-8.992c2.113,5.935-.578,13.1-5.829,16.583a28.248,28.248,0,0,1-5.276,2.535A5.106,5.106,0,0,1,233.026,29.39Z" transform="translate(1671.217 -7126.717)" fill="#827537"/>
        <path id="Trazado_813018" data-name="Trazado 813018" d="M204.654,2.8a8.189,8.189,0,0,0-2.166,1.081,8.338,8.338,0,0,0-1.769,1.691,18.437,18.437,0,0,0-2.353,4.491l-.606-.231a19.27,19.27,0,0,1,2.207-4.819,9.218,9.218,0,0,1,4.271-3.366l.414,1.15Z" transform="translate(1665.325 -7128.2)" fill="#754f36"/>
        <path id="Trazado_813019" data-name="Trazado 813019" d="M210.376,11.524c-1.418-2.194-6.256-3.644-8.411-5.063-2.606-1.716-5.409-4.685-8.575-4.629a12.834,12.834,0,0,0-4.595.935,9.4,9.4,0,0,1,2.113,3.61,8.629,8.629,0,0,1,.3,2.722,3.408,3.408,0,0,1,1.3,2.21,5.915,5.915,0,0,1-.56,3.035,7.267,7.267,0,0,1-1.734,2.366c-.181.169-.373.325-.565.478a8.921,8.921,0,0,1-.048,1.628,7.378,7.378,0,0,1-2.913,5.088,6.822,6.822,0,0,1-2.178,1.041c-.2.175-.4.344-.613.506a13.741,13.741,0,0,1-3.61,1.944,17.731,17.731,0,0,0,1.145,2.013c1.849,2.8,5.028,3.647,8.266,4.841,1.873.691,3.291,2.391,5.229,2.338a17.037,17.037,0,0,0,3.64-.5,7.914,7.914,0,0,1-.53-.719,5.651,5.651,0,0,1-.907-2.391,7,7,0,0,1,.366-3c.013-.038.025-.072.037-.106a2.167,2.167,0,0,1-.629-1.185,4.684,4.684,0,0,1,.972-3.185,20.657,20.657,0,0,1,2.528-3.06c1.057-1.094,2.035-2.288,3.166-3.3A4.89,4.89,0,0,1,208,17.628a9.871,9.871,0,0,1,4.213-1.16,11.581,11.581,0,0,0-1.834-4.938Z" transform="translate(1662.385 -7128.169)" fill="#ff6550"/>
        <path id="Trazado_813020" data-name="Trazado 813020" d="M212.1,16.061a6.762,6.762,0,0,1-3.185-.75c-2.144-1.141-3.25-3.557-5.528-4.5-2.129-.878-4.551-.506-6.672-1.4a3.93,3.93,0,0,1-2.106-1.975,7.329,7.329,0,0,0-1.36-2.538A8.1,8.1,0,0,0,190.488,3.6a5.3,5.3,0,0,1-1.726-.988c-.012.006-.025.009-.037.016a9.4,9.4,0,0,1,2.113,3.61,8.628,8.628,0,0,1,.3,2.722,3.408,3.408,0,0,1,1.3,2.21,5.915,5.915,0,0,1-.56,3.035,7.268,7.268,0,0,1-1.734,2.366c-.181.169-.373.325-.565.478a8.924,8.924,0,0,1-.048,1.628,7.379,7.379,0,0,1-2.913,5.088,6.82,6.82,0,0,1-2.178,1.041c-.2.175-.4.344-.613.506a13.323,13.323,0,0,1-3.119,1.753,3.846,3.846,0,0,1,1.2.428c.716.394,1.319.956,1.987,1.416a5.2,5.2,0,0,0,2.216.853c.9.141,1.8.15,2.707.209a9.83,9.83,0,0,1,2.672.5,13.058,13.058,0,0,1,2.45,1.222,37.248,37.248,0,0,1,3.742,3.054,5.44,5.44,0,0,1-.619-1.9,7,7,0,0,1,.366-3c.013-.038.025-.072.037-.106a2.166,2.166,0,0,1-.629-1.185,4.684,4.684,0,0,1,.972-3.185,20.656,20.656,0,0,1,2.528-3.06c1.057-1.094,2.035-2.288,3.166-3.3a4.89,4.89,0,0,1,4.432-1.51,9.87,9.87,0,0,1,4.213-1.16c-.013-.091-.028-.178-.041-.269Z" transform="translate(1662.455 -7128.038)" fill="#ffea94"/>
        <path id="Trazado_813021" data-name="Trazado 813021" d="M194.789,20.449c-1.681-.3.071-3.285,1.338-4.2C196.576,17.311,196.642,20.774,194.789,20.449Z" transform="translate(1664.709 -7125.743)" fill="#754f36"/>
        <path id="Trazado_813022" data-name="Trazado 813022" d="M189.716,18.394c1.694,1.653,3.685-.91,3.9-3.272C192.331,15.6,188.072,16.788,189.716,18.394Z" transform="translate(1663.909 -7125.933)" fill="#754f36"/>
        <path id="Trazado_813023" data-name="Trazado 813023" d="M301.651,188.144a11.343,11.343,0,0,0-1.935-1.209,8.675,8.675,0,0,0-3.112-.831c-1.335-.1-3.642,1.1-8.129-.116-1.619-.438-3.567.931-4.573,3.135a18.771,18.771,0,0,1-3.379,5.732,6.741,6.741,0,0,1-2.578,1.672,5.588,5.588,0,0,1-1.873.291c.916,5.142,6.295,10.832,13.114,10.832A13.061,13.061,0,0,0,302.444,194.5a26.979,26.979,0,0,0-.79-6.358Z" transform="translate(1678.505 -7097.189)" fill="#d1cfcb"/>
        <path id="Trazado_813024" data-name="Trazado 813024" d="M290.085,182.654a7.051,7.051,0,0,1,4.131,3.737,6.857,6.857,0,0,0,2.263,1.423,8.977,8.977,0,0,0,5.676-.041c4.375-7.627,5.22-17.249.475-20.9-4.773-3.666-14.555-1.091-21.959,6.138a20.491,20.491,0,0,0,3.11,9.314,13.992,13.992,0,0,1,6.306.328Z" transform="translate(1679.279 -7100.671)" fill="#d1cfcb"/>
        <path id="Trazado_813025" data-name="Trazado 813025" d="M300.1,190.38a6.723,6.723,0,0,1-2.616,1.8,5.217,5.217,0,0,1-1.638.3,3.945,3.945,0,0,1-1.821-.453,4.324,4.324,0,0,0-3.8-.418,14.138,14.138,0,0,0-2.785,2.321,10.159,10.159,0,0,1-6.388,2.541c-1.944,0-3.206-2.106-5.1-1.959v.575c.106,5.438,5.829,12.183,13.251,12.183a13.062,13.062,0,0,0,13.258-13.149,26.88,26.88,0,0,0-.713-6.016,12.207,12.207,0,0,1-1.644,2.271Z" transform="translate(1678.484 -7096.818)" fill="#ededed"/>
        <path id="Trazado_813026" data-name="Trazado 813026" d="M284.412,172.021a19.467,19.467,0,0,1,5.135.5c1.291.317,2.663.735,3.267,2.029.562,1.206.453,2.715,1.29,3.8.56.726,1.379.294,2.06,0a3.991,3.991,0,0,1,3.088-.354,5.422,5.422,0,0,1,2.6,3.05,10.653,10.653,0,0,1,.875,4.091,12.742,12.742,0,0,1-.065,1.509c3.832-7.422,4.381-16.3-.134-19.771-4.623-3.554-13.955-1.244-21.265,5.482a19.177,19.177,0,0,1,3.147-.338Z" transform="translate(1679.379 -7100.671)" fill="#ededed"/>
        <path id="Trazado_813027" data-name="Trazado 813027" d="M247.486,190.879a15.328,15.328,0,0,1-3.913,3.4,27.738,27.738,0,0,1-8.786,6.267,22.368,22.368,0,0,1-9.629,1.959,20.787,20.787,0,0,1-4.772-.7,18.944,18.944,0,0,1-3.142-.31,17.527,17.527,0,0,1-6.488-2.681c-2.578-1.707-6.013-4.394-5.523-7.817l-.013-.012a4.788,4.788,0,0,1-4.732-.569,4.484,4.484,0,0,1-1.832-4.257l-.14-.1a3.756,3.756,0,0,1-3.507-.444,8.427,8.427,0,0,1-2.588-3.76,24.985,24.985,0,0,1-1.3-4.5,10.414,10.414,0,0,1-.787-2.288c-.215-1.091-.215-2.21-.331-3.317a14.141,14.141,0,0,0-1.06-3.2,6.3,6.3,0,0,1-.225-3.306,8.946,8.946,0,0,0,.235-3.392,9.124,9.124,0,0,0-1.379-2.715c-2.094-3.473-2.3-7.923-1.741-11.84a43.8,43.8,0,0,1,2.957-10.174c-.578-.612-1-1.09-1.248-1.415-7.513,13.663-9.685,30.6-5.288,44.668s15.187,23.225,27.848,27.81c12.542,4.541,33.794-2.351,38.77-16.088,0,.013-.491-.415-1.391-1.212Z" transform="translate(1662.336 -7105.639)" fill="#ffcc5a"/>
        <path id="Trazado_813028" data-name="Trazado 813028" d="M248.877,192.089c-4.973,13.736-26.228,20.628-38.771,16.086-12.661-4.586-23.449-13.746-27.846-27.81s-2.226-31,5.288-44.668c-20.021,48.306,37.52,93.684,61.33,56.388Z" transform="translate(1662.337 -7105.64)" fill="#eab93f"/>
        <path id="Trazado_813029" data-name="Trazado 813029" d="M263.4,177.605a13.939,13.939,0,0,1-10.439,5.84c-1.356.05-2.666-.349-4.01-.424a7.976,7.976,0,0,0-3.295.837,4.205,4.205,0,0,1-3.194-.137,7.531,7.531,0,0,1-2.7-1.769,7.866,7.866,0,0,1-1.016.881c-3.929,2.8-9.547,1.209-13.208-1.275a11.868,11.868,0,0,1-2.45-2.088c-.828-.988-1.395-2.17-2.207-3.173a1.908,1.908,0,0,0-1.306-.849c-.657-.067-1.313.09-1.97-.037-1.4-.27-1.991-1.472-2.407-2.688a3.3,3.3,0,0,0-.853-1.547,5.186,5.186,0,0,0-1.953-.856,10.406,10.406,0,0,1-2.129-.813,6.7,6.7,0,0,1-1.8-1.659,18.57,18.57,0,0,1-4.207-8.793,15.382,15.382,0,0,0-.978-4.575c-.506-1.019-1.619-1.278-2.5-1.9a11.241,11.241,0,0,1-3.06-3.107,13.746,13.746,0,0,1-1.7-4.054,20.249,20.249,0,0,1-.558-4.334,3.812,3.812,0,0,0-.438-1.994c-.372-.547-1-.882-1.291-1.5-.3-.637.035-1.375-.194-2.021-.222-.625-.778-1.072-1.025-1.694a4.407,4.407,0,0,1-.054-2.782A79.831,79.831,0,0,1,186,126.3c-6.379,14.3-6.123,31.52,1.175,45.374s21.109,22.31,36.32,26.023c15.068,3.678,38.245-4.785,41.708-18.978.006.013-.629-.384-1.788-1.122Z" transform="translate(1662.578 -7107.22)" fill="#ffe67b"/>
        <path id="Trazado_813030" data-name="Trazado 813030" d="M265.188,178.723c-3.463,14.193-26.641,22.653-41.708,18.978-15.211-3.713-29.019-12.17-36.32-26.023s-7.554-31.072-1.175-45.374a84.139,84.139,0,0,0,12.239,35.361c6.854,11.039,16.9,20.288,28.982,25.079,6.5,2.578,13.68,3.847,20.553,2.541s14.174-4.369,17.43-10.564Z" transform="translate(1662.577 -7107.22)" fill="#eab93f"/>
        <path id="Trazado_813031" data-name="Trazado 813031" d="M274.566,176.518a15.333,15.333,0,0,1-3.913,3.4,27.751,27.751,0,0,1-8.786,6.267,22.384,22.384,0,0,1-9.629,1.959,21.937,21.937,0,0,1-9.911-2.76,24.421,24.421,0,0,1-4.867-3.453c-1.681-1.56-3.15-3.326-4.775-4.942a22.155,22.155,0,0,0-2.629-2.265c-.9-.651-1.866-1.22-2.788-1.845a34.13,34.13,0,0,1-4.916-3.956,19.639,19.639,0,0,1-3.761-5.132,12.478,12.478,0,0,1-1.174-3.091c-.216-1.09-.216-2.209-.332-3.316a14.084,14.084,0,0,0-1.06-3.2,6.3,6.3,0,0,1-.225-3.306,8.946,8.946,0,0,0,.235-3.392,9.131,9.131,0,0,0-1.379-2.716c-2.094-3.472-2.3-7.922-1.741-11.838a43.84,43.84,0,0,1,2.957-10.174,18.416,18.416,0,0,1-1.247-1.416c-7.513,13.664-9.686,30.6-5.289,44.669s15.187,23.225,27.848,27.809c12.542,4.541,33.794-2.349,38.77-16.086C275.957,177.743,275.466,177.315,274.566,176.518Z" transform="translate(1666.894 -7108.056)" fill="#ffcc5a"/>
        <path id="Trazado_813032" data-name="Trazado 813032" d="M275.96,177.729c-4.972,13.736-26.228,20.628-38.77,16.086-12.661-4.586-23.45-13.746-27.848-27.81s-2.226-31,5.288-44.668c-20.021,48.306,37.521,93.684,61.33,56.388Z" transform="translate(1666.895 -7108.056)" fill="#eab93f"/>
        <path id="Trazado_813033" data-name="Trazado 813033" d="M239.782,78.98a27.937,27.937,0,0,0-3.864,11.189l-.506-.025a19.307,19.307,0,0,1,.978-6.073,17.464,17.464,0,0,1,2.976-5.382Z" transform="translate(1671.662 -7115.234)" fill="#d1cfcb"/>
        <path id="Trazado_813034" data-name="Trazado 813034" d="M242.569,79.373a48.047,48.047,0,0,0-3.806,13.539l-.507-.034a27.827,27.827,0,0,1,3.864-13.736l.45.234Z" transform="translate(1672.141 -7115.158)" fill="#d1cfcb"/>
        <path id="Trazado_813035" data-name="Trazado 813035" d="M245.579,79.89a58.781,58.781,0,0,0-2.522,11.236,42.819,42.819,0,0,0-.372,5.235l-.507.009A35.446,35.446,0,0,1,245.1,79.706l.472.181Z" transform="translate(1672.791 -7115.063)" fill="#d1cfcb"/>
        <path id="Trazado_813036" data-name="Trazado 813036" d="M248.512,80.135a78.966,78.966,0,0,0-1.069,13.746,60.8,60.8,0,0,0,.347,6.269l-.5.069a48.661,48.661,0,0,1,.728-20.187Z" transform="translate(1673.54 -7115.008)" fill="#d1cfcb"/>
        <path id="Trazado_813037" data-name="Trazado 813037" d="M251.641,80.276a103,103,0,0,1,1,14.08c-.006,2.766-.127,5.738-.3,8.467l-.506-.022c.121-7.007-.289-15.486-.692-22.475l.5-.053Z" transform="translate(1674.309 -7114.967)" fill="#d1cfcb"/>
        <path id="Trazado_813038" data-name="Trazado 813038" d="M254.8,80.139a92.411,92.411,0,0,1,2.838,25.019l-.506-.006c-.063-8.083-1.625-17.287-2.828-24.916Z" transform="translate(1674.842 -7114.99)" fill="#d1cfcb"/>
        <path id="Trazado_813039" data-name="Trazado 813039" d="M259.091,79.978a97.227,97.227,0,0,0,.956,16.8,77.221,77.221,0,0,0,2.035,9.9l-.485.144a66.658,66.658,0,0,1-3.013-26.879Z" transform="translate(1675.513 -7115.022)" fill="#d1cfcb"/>
        <path id="Trazado_813040" data-name="Trazado 813040" d="M262.442,79.568a104.193,104.193,0,0,0,1.006,17.7,73.886,73.886,0,0,0,2.216,10.408l-.485.153a69.321,69.321,0,0,1-3.244-28.285l.507.028Z" transform="translate(1676.078 -7115.091)" fill="#d1cfcb"/>
        <path id="Trazado_813041" data-name="Trazado 813041" d="M267.745,79.051a121.572,121.572,0,0,0-.259,20.071,83.009,83.009,0,0,0,1.122,9.06l-.5.1a79.74,79.74,0,0,1-.869-29.291Z" transform="translate(1676.859 -7115.183)" fill="#d1cfcb"/>
        <path id="Trazado_813042" data-name="Trazado 813042" d="M272.738,78.635a127.244,127.244,0,0,0,.128,21.468c.278,2.916.541,5.6,1.259,9.692l-.5.1a90.982,90.982,0,0,1-1.394-31.307l.5.053Z" transform="translate(1677.733 -7115.251)" fill="#d1cfcb"/>
        <path id="Trazado_813043" data-name="Trazado 813043" d="M277.457,78.058a102.416,102.416,0,0,0-1.847,22.15c.063,3.053.125,5.713.507,10.126l-.5.054c-1.384-11.639-1.013-18.987.093-26.447.588-3.366.657-3.532,1.259-5.994l.494.116Z" transform="translate(1678.277 -7115.359)" fill="#d1cfcb"/>
        <path id="Trazado_813044" data-name="Trazado 813044" d="M280.881,77.757a153.619,153.619,0,0,0-1.8,20.749,66.483,66.483,0,0,0,.987,12.427l-.5.1c-2.366-11.035-1.382-22.331.812-33.357l.5.084Z" transform="translate(1678.864 -7115.405)" fill="#d1cfcb"/>
        <path id="Trazado_813045" data-name="Trazado 813045" d="M284.009,77.161c-.29,7.854-.862,10.67-.662,19.349a56.685,56.685,0,0,0,.6,6.388,36.427,36.427,0,0,0,2.261,8.233l-.466.2a37.029,37.029,0,0,1-2.556-8.3,50.235,50.235,0,0,1-.806-8.651A163.136,163.136,0,0,1,283.5,77.127Z" transform="translate(1679.567 -7115.497)" fill="#d1cfcb"/>
        <path id="Trazado_813046" data-name="Trazado 813046" d="M286.393,77.157c-.532,9.686-.206,16.705,2.091,26.038a51.233,51.233,0,0,0,2.922,8.226l-.456.218a51.575,51.575,0,0,1-3.211-8.235,55.744,55.744,0,0,1-1.821-8.657,72.985,72.985,0,0,1-.029-17.633l.5.047Z" transform="translate(1680.07 -7115.5)" fill="#d1cfcb"/>
        <path id="Trazado_813047" data-name="Trazado 813047" d="M288.64,76.894c.678,9.592,1.293,17.033,4.584,26.11a35.936,35.936,0,0,0,4.142,7.788l-.41.3a36.521,36.521,0,0,1-4.45-7.795c-.985-2.516-.634-1.544-1.535-4.229-.724-2.6-.468-1.6-1.122-4.351a95,95,0,0,1-1.72-17.8l.507-.022Z" transform="translate(1680.534 -7115.536)" fill="#d1cfcb"/>
        <path id="Trazado_813048" data-name="Trazado 813048" d="M293.878,76.85a72.725,72.725,0,0,0,2.334,23.384,66.77,66.77,0,0,0,3.56,10.12l-.459.213a65.052,65.052,0,0,1-4.47-12.208A60.065,60.065,0,0,1,293.012,83.3a59.076,59.076,0,0,1,.362-6.495l.5.041Z" transform="translate(1681.356 -7115.551)" fill="#d1cfcb"/>
        <path id="Trazado_813049" data-name="Trazado 813049" d="M228.128,58.165l-.916.434c3.135,7.551,3.4,15.455,3.8,23.556a35.178,35.178,0,0,1-15.246,4.372l.028,1.013a35.65,35.65,0,0,0,16.569-4.082l.48-.259c-.237-8.342-.734-17.63-4.713-25.034Z" transform="translate(1668.356 -7118.688)" fill="#d1cfcb"/>
        <path id="Trazado_813050" data-name="Trazado 813050" d="M231.109,75.844A45.691,45.691,0,0,0,227.1,59.532l-.941.375a58.809,58.809,0,0,1,3.175,20.978,37.753,37.753,0,0,1-13.01,4.019l.086,1.01a37.8,37.8,0,0,0,14.653-3.9,44.834,44.834,0,0,0,.043-6.163Z" transform="translate(1668.45 -7118.458)" fill="#d1cfcb"/>
        <path id="Trazado_813051" data-name="Trazado 813051" d="M229.418,75.352a56.176,56.176,0,0,0-3.41-14.014l-.966.309a103.494,103.494,0,0,1,2.56,13.9,17.178,17.178,0,0,1,.026,4.066,35.141,35.141,0,0,1-9.983,3.241l.138,1a38.631,38.631,0,0,0,8.357-1.8,31.508,31.508,0,0,0,3.05-1.247A14.916,14.916,0,0,0,229.418,75.352Z" transform="translate(1668.672 -7118.154)" fill="#d1cfcb"/>
        <path id="Trazado_813052" data-name="Trazado 813052" d="M227.74,75.251a30.587,30.587,0,0,0-1.866-9.892l-.976.272a55.753,55.753,0,0,1,.994,12.38A22.974,22.974,0,0,1,218.76,80.6l.09,1.01a25,25,0,0,0,8.746-2.447,30.7,30.7,0,0,0,.14-3.916Z" transform="translate(1668.859 -7117.478)" fill="#d1cfcb"/>
        <path id="Trazado_813053" data-name="Trazado 813053" d="M226.244,75a20.45,20.45,0,0,0-1.138-5.554l-1,.181c.035,2.025.376,4.179.307,6.651a39.754,39.754,0,0,1-4.138,1.366l.131,1a13.521,13.521,0,0,0,3.963-.491,12.3,12.3,0,0,0,1.778-.656,15.047,15.047,0,0,0,.1-2.5Z" transform="translate(1669.115 -7116.79)" fill="#d1cfcb"/>
        <path id="Trazado_813054" data-name="Trazado 813054" d="M309.029,95.811c-14.642,1.5-29.357-.566-43.8-3.438-14.465-2.888-29.276-6.623-40.736-15.818a.809.809,0,0,1,1-1.269,63.243,63.243,0,0,0,19.09,9.748c11.505,3.807,30.835,7.079,42.581,8a109.754,109.754,0,0,0,21.521-.259,1.527,1.527,0,1,1,.334,3.035Z" transform="translate(1669.774 -7115.835)" fill="#d1cfcb"/>
        <path id="Trazado_813055" data-name="Trazado 813055" d="M302.567,23.578C308.875,9.32,295.148,2.522,283,4.719a17.378,17.378,0,0,0-1.925.5,6.636,6.636,0,0,1-6.982-1.994A16.056,16.056,0,0,0,271.7,1l-2.34,3.1c.172.131.343.266.509.406a6.565,6.565,0,0,1,1.868,7.22l-.012.034c-4.426,6.857-5.961,24.625-5.7,27.431-.391,5.441,2.056,10.558,4.928,15.149.8-.784.86-1.516.61-2.957a63.969,63.969,0,0,1,.719-19.159c3.817,10.933,12.321,17.762,13.2,25.519,1.06,4.432-1.944,7.8.144,8.3,4.026-5.7,3.957-13.261,2.744-19.993-.218-2.131-1.188-3.485-2.2-5.7-5.719-10.326-5.62-16.577-4.616-20.981a17.092,17.092,0,0,1,6.01,2.619c8.015,4.519,12.159,12.67,16.04,20.574,1.729,2.6-.39,7.392,3.179,6.207,3.4-8.5.966-17.593-4.213-25.2ZM289.36,10.9c6.166-.225,11.133,3.307,11.6,10.479A45.468,45.468,0,0,0,289.36,10.9Z" transform="translate(1676.807 -7128.309)" fill="#ffdc4a"/>
        <path id="Trazado_813056" data-name="Trazado 813056" d="M301.834,23.578c6.308-14.258-7.42-21.056-19.571-18.859a17.38,17.38,0,0,0-1.925.5,6.636,6.636,0,0,1-6.982-1.994A16.058,16.058,0,0,0,270.967,1l-.625.828a16.433,16.433,0,0,1,3.42,3.607c1.9,2.869,2.407,6.445,2.375,9.882s-.562,6.863-.532,10.3a26.8,26.8,0,0,0,2.326,10.961c1.853,4.026,4.829,7.435,6.9,11.355a28.248,28.248,0,0,1,3.107,10.582,35.477,35.477,0,0,0-.3-12.464c-.218-2.131-1.187-3.485-2.2-5.7-5.72-10.326-5.62-16.577-4.617-20.981.322.091.641.181.96.278a.236.236,0,0,1,.159-.031,28.052,28.052,0,0,1,9.377,2.978,29.238,29.238,0,0,1,12.72,12.448,20.559,20.559,0,0,1,2.243,8.339,18.369,18.369,0,0,1-.618,5.494c.122-.028.247-.062.387-.109,3.4-8.5.966-17.593-4.209-25.2ZM288.626,10.9c6.166-.225,11.133,3.307,11.6,10.479A45.468,45.468,0,0,0,288.626,10.9Z" transform="translate(1677.541 -7128.309)" fill="#eab93f"/>
        <path id="Trazado_813057" data-name="Trazado 813057" d="M274.609,172.929a8.632,8.632,0,0,0,2.032-2.075,25.925,25.925,0,0,1,1.8-2.3,7.822,7.822,0,0,1,2.681-1.816c2.288-.972,4.864-1.15,7.1-2.228a26.389,26.389,0,0,0,10.529-9.808,29.673,29.673,0,0,0,4.348-12.514,31.5,31.5,0,0,0-1.082-11.937,42.757,42.757,0,0,0-2.625-6.888c-.851-.5-1.731-.959-2.623-1.387-.659-.317-1.347-.591-1.987-.942-.685-.372-1.31-.838-1.959-1.269A5.9,5.9,0,0,1,291.374,118a18.558,18.558,0,0,0-1.444-2.047,6.447,6.447,0,0,0-1.553-1.3c-.794-.334-1.6-.646-2.432-.925a9.439,9.439,0,0,0-3.838.057,27.22,27.22,0,0,0-4.379,1.687,5.506,5.506,0,0,1-4,.278c-2.163-.8-3.222-3.256-5.644-3.55a.321.321,0,0,1-.257-.165,31.713,31.713,0,0,0-5.666,2.431,41.23,41.23,0,0,0-11.6,9.657,43.628,43.628,0,0,0-7.507,12.667c-1.525,4.058-2.42,8.349-4.3,12.271a17.322,17.322,0,0,1-3.56,5.125,13.142,13.142,0,0,1-4.341,2.735c.078.235.162.466.25.7a25.6,25.6,0,0,0,4.566,7.71,5.06,5.06,0,0,1,.891-.64c2.7-1.5,6.131-.45,8.791.612a86.833,86.833,0,0,1,8.579,4.392,52.973,52.973,0,0,0,4.9,2.219,35.666,35.666,0,0,0,6.3,2.022,15.912,15.912,0,0,0,6.441.14,8.643,8.643,0,0,0,3.026-1.155Z" transform="translate(1670.896 -7109.621)" fill="#96a53d"/>
        <path id="Trazado_813058" data-name="Trazado 813058" d="M293.211,124.659a3.274,3.274,0,0,1,1.44-.789,6.447,6.447,0,0,0-1.237-.784c-.6-.291-1.22-.522-1.794-.856a7.237,7.237,0,0,1-1.409-1.134q-2.252.31-4.461.834a64.122,64.122,0,0,0-8.288,3.022,58.284,58.284,0,0,0-18.28,12.183,111.112,111.112,0,0,0-8.58,10.241q1.975-1.43,3.944-2.853c2.134-1.535,4.289-3.05,6.495-4.479,2.238-1.446,4.548-2.775,6.873-4.075,7.758-4.329,16.021-8.2,24.8-9.707a1.772,1.772,0,0,1,.5-1.6Z" transform="translate(1674.219 -7108.097)" fill="#b6cc5a"/>
        <path id="Trazado_813059" data-name="Trazado 813059" d="M244.652,154.753q1.59-.994,3.144-2.045c2.235-2.484,3.9-5.459,5.829-8.182a41.032,41.032,0,0,1,8.177-8.489c1.565-1.228,3.222-2.347,4.851-3.491q2.474-1.735,5.088-3.269a62.268,62.268,0,0,1,17.355-7.1q1.73-.5,3.5-.884a4.445,4.445,0,0,0-2.306-.9,7.756,7.756,0,0,0-2.966.519c-2.138.7-4.257,1.616-6.56,1.325a6.688,6.688,0,0,1-3.032-1.151c-.856-.59-1.591-1.334-2.392-2a5.607,5.607,0,0,0-2.759-1.394,10.893,10.893,0,0,0-3.45.412,4.021,4.021,0,0,1-2.282-.084,8.072,8.072,0,0,1-2.323-1.97,4.484,4.484,0,0,0-4.788-.64,42.244,42.244,0,0,0-9.176,8.207,43.627,43.627,0,0,0-7.507,12.667c-1.525,4.058-2.42,8.349-4.3,12.271a17.322,17.322,0,0,1-3.56,5.125,13.142,13.142,0,0,1-4.341,2.735c.078.235.162.466.25.7a25.251,25.251,0,0,0,1.588,3.425,55.369,55.369,0,0,0,11.961-5.8Z" transform="translate(1670.896 -7109.119)" fill="#b6cc5a"/>
        <path id="Trazado_813060" data-name="Trazado 813060" d="M283.275,145.371a1.932,1.932,0,0,1,.478.06,1.7,1.7,0,0,1-.157-1.351c.06-.155.129-.306.2-.452a3.058,3.058,0,0,1-.731-3.72c.016-.028.032-.05.047-.078a40.514,40.514,0,0,1-7.594-.375,24.355,24.355,0,0,1-4.741-1.1,8.118,8.118,0,0,1-3.017-1.735c-4,2.668-7.9,5.5-11.842,8.232,1.543-.3,3.1-.537,4.659-.7a73.844,73.844,0,0,1,22.572,1.229c.044,0,.085-.007.129-.007Z" transform="translate(1675.113 -7105.484)" fill="#b6cc5a"/>
        <path id="Trazado_813061" data-name="Trazado 813061" d="M284.158,149.428a10.7,10.7,0,0,1-.175-2.025,1.793,1.793,0,0,1,.81-1.5c-.4-.084-.793-.169-1.19-.25a1.773,1.773,0,0,1-1.747,2.153,1.835,1.835,0,0,1-1.55-2.757c-.2-.03-.4-.068-.6-.1a75.76,75.76,0,0,0-15.348-.925c.78.6,1.569,1.2,2.366,1.782a1.575,1.575,0,0,1,.653.478c.356.256.713.506,1.071.757.2.137.4.269.6.4a1.942,1.942,0,0,1,.188-.238,2.562,2.562,0,0,1,2.928-.618,4.056,4.056,0,0,1,1.819,1.759,1.744,1.744,0,0,1,.222,1.178c1.806-.681,3.55.129,4.763,1.845.256.362.472.787.7,1.2h.015a1.871,1.871,0,0,1,3.138-1.4c.194.175.507.537.823.8a1.7,1.7,0,0,1,.541-.866,1.818,1.818,0,0,1,.809-.472l.116-.047a1.684,1.684,0,0,1-.953-1.147Z" transform="translate(1676.533 -7104.251)" fill="#b6cc5a"/>
        <path id="Trazado_813062" data-name="Trazado 813062" d="M281.844,154.624c-.3-.5-.6-1.009-.947-1.485a1.129,1.129,0,0,0-.228-.2,3.011,3.011,0,0,0-.506.359,1.456,1.456,0,0,1-.991.276,2.849,2.849,0,0,1-2.8.381,3.033,3.033,0,0,1-.8-.544c-.091.041-.181.082-.259.125-2.288,1.222-4.6.261-4.285-2.59a2.007,2.007,0,0,1,3.207-1.335,1.743,1.743,0,0,1-.332-1.187c-.315-.2-.631-.407-.943-.616a1.7,1.7,0,0,1-1.751,1.56c-2,0-2.3-2.625-.918-3.432q-1.349-.988-2.666-2.019a.347.347,0,0,1-.112-.155,42,42,0,0,0-12.433,2.521c-6.785,4.532-13.879,8.733-21.566,11.477.354.515.722,1.019,1.11,1.506a.312.312,0,0,1,.153-.213,18.324,18.324,0,0,1,4.2-1.909,24.987,24.987,0,0,1,18.3,1.672c2.7,1.325,5.254,2.925,8,4.15,2.694,1.2,5.707,1.7,8.273-.065a9.745,9.745,0,0,0,1.992-1.918,2,2,0,0,1-.819-1.082c-.21-.541-.341-1.11-.55-1.65A1.851,1.851,0,0,1,275.46,156a1.871,1.871,0,0,1,1.413.185,1.635,1.635,0,0,1,.282.206,1.791,1.791,0,0,1,2.974.575,10.333,10.333,0,0,1,3.432-.278,7.742,7.742,0,0,1-1.71-2.062Zm-9.973,8.495a1.834,1.834,0,0,1,0-3.666A1.834,1.834,0,0,1,271.872,163.118Z" transform="translate(1671.342 -7104.282)" fill="#b6cc5a"/>
        <path id="Trazado_813063" data-name="Trazado 813063" d="M292.6,129.018a1.684,1.684,0,0,1-.731-.813,4.73,4.73,0,0,1-.806-.287,1.672,1.672,0,0,1-.863-1.247,42.669,42.669,0,0,0-12.157,4.084,105.631,105.631,0,0,0-11.8,6.9,9.02,9.02,0,0,0,3.663,1.806c.856.25,1.735.453,2.623.619a.309.309,0,0,1,.069-.065,29.111,29.111,0,0,1,6.875-3.11,1.775,1.775,0,0,1,1.744-2.17,1.677,1.677,0,0,1,1.694,1.276q1.3-.277,2.612-.481a1.743,1.743,0,0,1-.39-.453,1.871,1.871,0,0,1,.655-2.507,3.566,3.566,0,0,1,1.432-.562c-1.629-.647-1.391-3.535.7-3.535,2.234,0,2.349,3.272.365,3.632a2.07,2.07,0,0,1,.822.541,2.014,2.014,0,0,1,.216.265,6.745,6.745,0,0,0,.75-.082,2.388,2.388,0,0,1,1.025.054,3.466,3.466,0,0,1,2.054-1.7,1.691,1.691,0,0,1,.665-.141,9.828,9.828,0,0,0,.369-1.9,1.881,1.881,0,0,1-1.584-.106Z" transform="translate(1676.85 -7107.159)" fill="#b6cc5a"/>
        <path id="Trazado_813064" data-name="Trazado 813064" d="M288.523,135.16a3.993,3.993,0,0,1-2.373-.322,44.325,44.325,0,0,0-4.482.8,1.786,1.786,0,0,1-3,.856,26.2,26.2,0,0,0-4.948,2.237,36.229,36.229,0,0,0,6.079.379c.481-.009.963-.032,1.444-.06a5.288,5.288,0,0,1,2.259-.544,11.407,11.407,0,0,1,1.61.123q.887-.14,1.765-.319c.282-.416.582-.822.895-1.216.25-.315.509-.627.769-.937A1.961,1.961,0,0,1,288.523,135.16Z" transform="translate(1678.109 -7105.784)" fill="#b6cc5a"/>
        <path id="Trazado_813065" data-name="Trazado 813065" d="M232.055,126.552c-8.526-10.392-22.931-8.842-30.919-20.691-6.6-9.432-5.724-25.044-8.052-36.367a5.3,5.3,0,0,0-2.627-.419,2.111,2.111,0,0,0-1.129.647c.778,14.033-1.36,27.866,7.517,40.637,9.629,12.286,22.952,9.876,31.488,17.32a10.768,10.768,0,0,0,3.719-1.131Z" transform="translate(1663.906 -7116.859)" fill="#e58f28"/>
        <path id="Trazado_813066" data-name="Trazado 813066" d="M225.41,116.358a8.659,8.659,0,0,0,3.978.372,34.36,34.36,0,0,0-5.319-9.077c-7.982-9.8-17.939-10.889-25.275-16.733a32.709,32.709,0,0,1-11.855-22.431c-.112-.1-.075-.222-.043-.459a32.664,32.664,0,0,1,.194-7.057c-.287-1.856-1.013-3.622-2.888-3.507a.47.47,0,0,1-.069-.009c-5.069,12.717-.657,29.194,10.886,38.264,8.735,6.795,18.193,6.795,25.919,14.721a27.979,27.979,0,0,1,4.444,5.913h.028Z" transform="translate(1662.682 -7118.808)" fill="#e58f28"/>
        <path id="Trazado_813067" data-name="Trazado 813067" d="M242.052,103.974a17.475,17.475,0,0,1-11.815,11.2,17.724,17.724,0,0,1-16.9-4.765c-4.207-4.4-6.11-11.392-8.051-18.14a156.978,156.978,0,0,1-3.829-18.509c-1.254-.994-2.922-.678-3.7,1.256a98.709,98.709,0,0,0,5.129,29.313,31.613,31.613,0,0,0,4.053,7.9,21.45,21.45,0,0,0,35.893-1.185C243.389,108.718,243.53,105.856,242.052,103.974Z" transform="translate(1665.324 -7116.157)" fill="#ffa645"/>
        <path id="Trazado_813068" data-name="Trazado 813068" d="M231.016,126.257a35.28,35.28,0,0,1,.437,3.972c1.3,1.466,2.625-.25,3.588-2-.109-21.534-16.124-36.367-34.485-47.456a8.4,8.4,0,0,0-3.27,2.113c11.911,10.779,29.573,23.522,33.727,43.371Z" transform="translate(1665.245 -7114.883)" fill="#ffa645"/>
        <path id="Trazado_813069" data-name="Trazado 813069" d="M224.422,98.151a19.391,19.391,0,0,1-4.81,4.988,23.085,23.085,0,0,1-19.245,3.45c-7.2-2.06-13.455-8.629-15.39-16.817-.959-1.053-2.515-2.51-4.015-1.894-.856,12.752,10.685,27.7,28.4,25.05A25.579,25.579,0,0,0,215.387,111a25.961,25.961,0,0,0,11.942-11.139l-2.909-1.71Z" transform="translate(1662.49 -7113.712)" fill="#ffa645"/>
        <path id="Trazado_813070" data-name="Trazado 813070" d="M229.077,40.952a28.9,28.9,0,0,1,4.763-28.163,20.028,20.028,0,0,1,3.737,15.039c-.752,5.251-4.194,10.026-8.5,13.12Z" transform="translate(1670.301 -7126.325)" fill="#b7d672"/>
        <path id="Trazado_813071" data-name="Trazado 813071" d="M249.426,31.393a18.942,18.942,0,0,0-16.09,20.162c4.056.781,8.191-1.25,11.014-4.269a21.6,21.6,0,0,0,5.06-11.126A9.04,9.04,0,0,0,249.426,31.393Z" transform="translate(1671.304 -7123.194)" fill="#b7d672"/>
        <path id="Trazado_813072" data-name="Trazado 813072" d="M216.687,53.373a19.1,19.1,0,0,0-7.448-22.347c-1.481,7.26-.2,19.19,7.448,22.35Z" transform="translate(1667.166 -7123.255)" fill="#87a54e"/>
        <path id="Trazado_813073" data-name="Trazado 813073" d="M246.712,18.278a2.346,2.346,0,0,0-.225-.206.564.564,0,0,1-.082-.088,1.225,1.225,0,0,1-.2-.075.772.772,0,0,1-.368-.444.174.174,0,0,1-.009-.031.821.821,0,0,1-.022-.178.619.619,0,0,1,.062-.275.762.762,0,0,1,.319-.369,1.019,1.019,0,0,1,.787-.091c.013,0,.026.009.037.013.11-.013.22-.022.328-.031.047,0,.095-.006.138-.013a.221.221,0,0,0,.037-.006c.11-.028.054-.009,0,0l-.032.006c.076-.019.151-.025.225-.047l.032-.009c.025-.013.049-.028.075-.041s.041-.044.062-.066.022-.038.035-.056.015-.031.025-.047.019-.05.026-.072a.514.514,0,0,1,0-.072c-.009-.034-.019-.066-.028-.1-.065-.131-.141-.259-.213-.388-.028-.05-.056-.1-.084-.156a1.466,1.466,0,0,1-.194-.3,2.5,2.5,0,0,1-.166-.431.614.614,0,0,1-.168-.281.651.651,0,0,1,.062-.472,1.36,1.36,0,0,1,.181-.266.815.815,0,0,1,.1-.106,1.1,1.1,0,0,1,.488-.288,1.177,1.177,0,0,1,.853.122,1.248,1.248,0,0,1,.272.2,1.348,1.348,0,0,1,.081-.553,2.213,2.213,0,0,0-.175-.6,1.786,1.786,0,0,1-1.122-.481,2.715,2.715,0,0,1-.6-1.282c-.282.063-.56.128-.838.206a7.553,7.553,0,0,1-1.072,1.019,1.429,1.429,0,0,1-1.562-.075,19.846,19.846,0,0,0-8.586,7.56c-1.841,2.953-2.944,6.551-2.151,9.942a5.1,5.1,0,0,0,4.789.184,28.63,28.63,0,0,0,5.275-2.535,14.147,14.147,0,0,0,3.369-3.166.491.491,0,0,1-.019-.381,2.787,2.787,0,0,0,.244-.891c0-.041,0-.078,0-.119-.006-.022-.019-.088-.022-.1s-.034-.081-.037-.1-.03-.059-.047-.088a7.862,7.862,0,0,1-.909-1.453,1.864,1.864,0,0,1,.737-1.906c.082-.081.166-.163.244-.25,0,0,.112-.15.069-.081,0,0,.053-.075.065-.091v-.006c0-.031.037.028-.013-.044.037.053-.028-.025-.047-.047Z" transform="translate(1671.218 -7126.676)" fill="#b7d672"/>
        <path id="Trazado_813074" data-name="Trazado 813074" d="M246.263,18.817c.043.131.077.263.109.394a15.519,15.519,0,0,0,.532-1.522.977.977,0,0,1-.509-.3,1.867,1.867,0,0,1-.419-.713.113.113,0,0,1-.006.044c-.11.434-.078.894-.2,1.325a1.346,1.346,0,0,1-.147.322A.636.636,0,0,1,246.263,18.817Z" transform="translate(1673.38 -7125.67)" fill="#b7d672"/>
        <path id="Trazado_813075" data-name="Trazado 813075" d="M223,26.759a13.871,13.871,0,0,0,2.935-2.994C229.33,19.039,229.4,12.619,227.892,7c-3.472,1.488-5.351,5.307-6.148,9a15.6,15.6,0,0,0,1.263,10.761Z" transform="translate(1669.287 -7127.299)" fill="#87a54e"/>
        <path id="Trazado_813076" data-name="Trazado 813076" d="M253.743,19.08a15.125,15.125,0,0,0-15.512,16.355C246.126,33.409,251.7,26.965,253.743,19.08Z" transform="translate(1672.128 -7125.267)" fill="#87a54e"/>
        <path id="Trazado_813077" data-name="Trazado 813077" d="M236.268,48.086a15.333,15.333,0,0,0-.709-15.971,13.08,13.08,0,0,0-2.073,8.026,13.479,13.479,0,0,0,2.785,7.942Z" transform="translate(1671.336 -7123.073)" fill="#87a54e"/>
        <path id="Trazado_813078" data-name="Trazado 813078" d="M234.6,24.7a22.914,22.914,0,0,0-16.8,4.016c-4.7,3.575-7.613,9.645-6.735,15.489,5.7-.078,11.267-1.163,15.961-4.4S234.427,30.4,234.6,24.7Z" transform="translate(1667.538 -7124.359)" fill="#827537"/>
        <path id="Trazado_813079" data-name="Trazado 813079" d="M227.1,39.185a3.481,3.481,0,0,1,.915-1.519,6.4,6.4,0,0,1,1.444-.706,2.927,2.927,0,0,0,1.048-.8c.537-.728.228-1.7.368-2.535a3.191,3.191,0,0,1,.528-1.3,2.115,2.115,0,0,1,.141-.184l.009-.009a1.542,1.542,0,0,0-.16-.431c-.19-.341-.515-.566-.646-.944a1.723,1.723,0,0,1,.2-1.372c.412-.71,1.338-.866,1.981-1.3a.336.336,0,0,0,.116-.1c.019-.069-.035.028,0,0a.975.975,0,0,0,.043-.381c-.015-.484-.428-.847-.241-1.369a1.321,1.321,0,0,1,.407-.522s.006-.006.009-.013c0-.034.019-.1.019-.116.013-.084.037-.169.054-.253a1.813,1.813,0,0,0,.028-.181.823.823,0,0,0-.013-.106s-.009-.006-.013-.009a.974.974,0,0,1-.181-.084h-.006a.414.414,0,0,0-.06.013c-.11.022-.218.047-.328.069a2.369,2.369,0,0,1-.948.059.785.785,0,0,1-.674-.609,22.114,22.114,0,0,0-13.349,4.238c-4.7,3.575-7.614,9.645-6.735,15.489,5.635-.075,11.139-1.141,15.8-4.294.088-.241.16-.488.241-.725Z" transform="translate(1667.537 -7124.357)" fill="#87a54e"/>
        <path id="Trazado_813080" data-name="Trazado 813080" d="M244.149,30.242a8.689,8.689,0,0,0,1.06-5.582A21.839,21.839,0,0,0,233.655,7.348a11.7,11.7,0,0,0-2.826,7.067,19.055,19.055,0,0,0,1.451,7.61,16.578,16.578,0,0,0,4.291,6.538c1.981,1.732,4.976,2.053,7.582,1.682Z" transform="translate(1670.889 -7127.241)" fill="#827537"/>
        <path id="Trazado_813081" data-name="Trazado 813081" d="M244.17,29.508a4.691,4.691,0,0,0,.082-1.219,1.245,1.245,0,0,0-.166-.581c-.091-.122-.238-.194-.328-.322-.41-.588-.166-1.147.047-1.735a3.461,3.461,0,0,0,.25-1.756,3.666,3.666,0,0,0-.747-1.478,4.453,4.453,0,0,1-.9-1.36,5.06,5.06,0,0,1-.054-1.444c.013-.5-.328-.731-.825-.741a8.78,8.78,0,0,1-1.879-.019,2.865,2.865,0,0,1-2.2-2.185,3.223,3.223,0,0,1,.14-1.585,6.012,6.012,0,0,0,.41-1.519,1.112,1.112,0,0,0-.194-.685,1.227,1.227,0,0,0-.535-.353.844.844,0,0,1-.44-1.206c.015-.031.035-.081.044-.106-.022-.028-.057-.094-.067-.1l-.043-.05c-.122-.081-.362-.059-.5-.094a1.711,1.711,0,0,1-1.11-.672c-.194-.353-.071-.791-.241-1.153-.116-.25-.377-.288-.631-.319a2.291,2.291,0,0,1-1.459-.538,11.517,11.517,0,0,0-2,5.96,19.055,19.055,0,0,0,1.451,7.61,16.578,16.578,0,0,0,4.291,6.538c1.981,1.731,4.976,2.053,7.582,1.681.043-.063.081-.128.122-.194a.474.474,0,0,1-.106-.381Z" transform="translate(1670.888 -7127.083)" fill="#87a54e"/>
        <path id="Trazado_813082" data-name="Trazado 813082" d="M232.878,53.64a9.687,9.687,0,0,0-.853-4.3,13.19,13.19,0,0,0-2.847-3.891,21.339,21.339,0,0,0-16.693-5.973,11.073,11.073,0,0,0,2.041,8,19.254,19.254,0,0,0,6.879,5.354A16.053,16.053,0,0,0,232.878,53.64Z" transform="translate(1667.793 -7121.848)" fill="#827537"/>
        <path id="Trazado_813083" data-name="Trazado 813083" d="M231.19,53.165a.966.966,0,0,0,.127-.438c-.021-.188-.287-.428-.5-.647a2.959,2.959,0,0,1-.731-1.106,3.259,3.259,0,0,1-.019-1.588,2.457,2.457,0,0,0,.048-.391s0,0,0-.006a1.177,1.177,0,0,0-.179-.081,3.564,3.564,0,0,0-1.247-.072c-1.166.019-1.141-1.41-.8-2.2.224-.522.493-.888.078-1.416a3.866,3.866,0,0,0-1.522-.96A43.436,43.436,0,0,1,222.2,42.5a8.055,8.055,0,0,1-.987-.672,2.988,2.988,0,0,0-.694-.469c-.6-.25-1,.234-1.563.331a1.34,1.34,0,0,1-1.384-.606c-.078-.122-.125-.259-.256-.334a1.345,1.345,0,0,0-.679-.066c-.937.063-1.821.481-2.769.5a1.977,1.977,0,0,1-1.444-.528,10.537,10.537,0,0,0,2.1,6.6,19.254,19.254,0,0,0,6.879,5.354,15.748,15.748,0,0,0,9.191,1.316,3.636,3.636,0,0,0,.595-.769Z" transform="translate(1667.793 -7121.636)" fill="#b7d672"/>
      </g>
    </g>
  </g>
</svg>
