<svg xmlns="http://www.w3.org/2000/svg" width="85" height="85" viewBox="0 0 85 85">
  <g id="Grupo_1070371" data-name="Grupo 1070371" transform="translate(-285 -4009.697)">
    <circle id="Elipse_5752" data-name="Elipse 5752" cx="42.5" cy="42.5" r="42.5" transform="translate(285 4009.697)" fill="#afc797"/>
    <g id="veterinario" transform="translate(309.699 4024.681)">
      <path id="Trazado_811218" data-name="Trazado 811218" d="M27.823,258.2h-4.6a1.161,1.161,0,0,1-1.161-1.161V251.5H13.534v5.537a1.161,1.161,0,0,1-1.161,1.161h-4.6a3.759,3.759,0,0,0-3.5,2.391L.117,271.251a1.709,1.709,0,0,0,1.592,2.33H6.517V279.5H29.084v-5.924h4.808a1.708,1.708,0,0,0,1.592-2.329l-4.16-10.658a3.758,3.758,0,0,0-3.5-2.391Zm0,0" transform="translate(0 -224.471)" fill="#7addd8"/>
      <path id="Trazado_811219" data-name="Trazado 811219" d="M238.329,326.862l-4.16-10.658a3.758,3.758,0,0,0-3.5-2.391h-3.395a3.758,3.758,0,0,1,3.5,2.391l4.16,10.658a1.709,1.709,0,0,1-1.592,2.329h3.395A1.709,1.709,0,0,0,238.329,326.862Zm0,0" transform="translate(-202.846 -280.082)" fill="#40c6c2"/>
      <path id="Trazado_811220" data-name="Trazado 811220" d="M121.224,264.758l4.958-6.557a1.161,1.161,0,0,1-1.133-1.16V251.5h-8.532v5.537a1.161,1.161,0,0,1-1.133,1.16l4.958,6.557A.554.554,0,0,0,121.224,264.758Zm0,0" transform="translate(-102.982 -224.471)" fill="#ffc999"/>
      <path id="Trazado_811221" data-name="Trazado 811221" d="M134.458,251.5h-8.532V256.8a10.35,10.35,0,0,0,8.747.915,1.155,1.155,0,0,1-.215-.672Zm0,0" transform="translate(-112.392 -224.471)" fill="#e2a36f"/>
      <path id="Trazado_811222" data-name="Trazado 811222" d="M270.59,456.891v5.924h3.7a.554.554,0,0,0,.554-.554v-5.37Zm0,0" transform="translate(-241.506 -407.781)" fill="#ffc999"/>
      <path id="Trazado_811223" data-name="Trazado 811223" d="M21.063,456.891v5.37a.554.554,0,0,0,.554.554h3.7v-5.924Zm0,0" transform="translate(-18.8 -407.781)" fill="#ffc999"/>
      <path id="Trazado_811224" data-name="Trazado 811224" d="M270.59,456.891h4.254v2.658H270.59Zm0,0" transform="translate(-241.506 -407.781)" fill="#e2a36f"/>
      <path id="Trazado_811225" data-name="Trazado 811225" d="M21.063,456.891h4.254v2.658H21.063Zm0,0" transform="translate(-18.8 -407.781)" fill="#e2a36f"/>
      <g id="Grupo_1068191" data-name="Grupo 1068191" transform="translate(20.344 44.767)">
        <path id="Trazado_811226" data-name="Trazado 811226" d="M199.02,441.558a2.745,2.745,0,0,0-1.956.815,3.116,3.116,0,0,0-.931,2.206,1.318,1.318,0,0,0,.546,1.069,1.354,1.354,0,0,0,1.2.2,3.543,3.543,0,0,1,2.2,0,1.355,1.355,0,0,0,1.2-.2,1.314,1.314,0,0,0,.546-1.065h0q0-.048,0-.1A3,3,0,0,0,199.02,441.558Zm0,0" transform="translate(-195.396 -438.863)" fill="#5b586d"/>
        <path id="Trazado_811227" data-name="Trazado 811227" d="M215.923,418.489a.806.806,0,0,0,.806-.806v-.389a.806.806,0,0,0-1.612,0v.389A.806.806,0,0,0,215.923,418.489Zm0,0" transform="translate(-212.34 -416.488)" fill="#5b586d"/>
        <path id="Trazado_811228" data-name="Trazado 811228" d="M240.271,425.143a.806.806,0,0,0-1.132.14l-.239.307a.806.806,0,0,0,1.271.992l.239-.307a.806.806,0,0,0-.14-1.132Zm0,0" transform="translate(-233.415 -424.061)" fill="#5b586d"/>
        <path id="Trazado_811229" data-name="Trazado 811229" d="M190.822,426.721a.806.806,0,0,0,.14-1.132l-.239-.307a.806.806,0,0,0-1.271.992l.239.307a.806.806,0,0,0,1.132.14Zm0,0" transform="translate(-189.281 -424.06)" fill="#5b586d"/>
      </g>
      <path id="Trazado_811230" data-name="Trazado 811230" d="M97.833,264.435a.806.806,0,0,1-.806-.806v-2.012a8.071,8.071,0,1,0-16.142,0v1.149a.806.806,0,0,1-1.612,0v-1.149a9.683,9.683,0,0,1,19.366,0v2.012A.806.806,0,0,1,97.833,264.435Zm0,0" transform="translate(-70.753 -224.854)" fill="#7393d8"/>
      <path id="Trazado_811231" data-name="Trazado 811231" d="M49.914,3.152v-.46A2.692,2.692,0,0,0,47.222,0H37.291A10.018,10.018,0,0,0,27.273,10.017V26.512a2.975,2.975,0,0,0,2.975,2.975H54.038a2.975,2.975,0,0,0,2.975-2.975V8.994A4.374,4.374,0,0,0,52.639,4.62H51.382a1.468,1.468,0,0,1-1.468-1.468Zm0,0" transform="translate(-24.343)" fill="#5b586d"/>
      <path id="Trazado_811232" data-name="Trazado 811232" d="M192.781,4.62h-1.257a1.468,1.468,0,0,1-1.468-1.468v-.46A2.692,2.692,0,0,0,187.364,0h-3.071a2.692,2.692,0,0,1,2.692,2.692v.46a1.468,1.468,0,0,0,1.468,1.468h1.257a4.374,4.374,0,0,1,4.374,4.374V26.512a2.975,2.975,0,0,1-2.975,2.975h3.071a2.975,2.975,0,0,0,2.975-2.975V8.994a4.374,4.374,0,0,0-4.374-4.374Zm0,0" transform="translate(-164.485 0)" fill="#403f4f"/>
      <path id="Trazado_811233" data-name="Trazado 811233" d="M255.827,165.233h-3.151v-4.722h3.151a2.361,2.361,0,0,1,0,4.722Zm0,0" transform="translate(-225.517 -143.258)" fill="#ffc999"/>
      <path id="Trazado_811234" data-name="Trazado 811234" d="M29.634,165.233h3.151v-4.722H29.634a2.361,2.361,0,1,0,0,4.722Zm0,0" transform="translate(-24.343 -143.258)" fill="#ffc999"/>
      <path id="Trazado_811235" data-name="Trazado 811235" d="M88.156,88.434,86.8,85.521a.554.554,0,0,0-1,0l-1.358,2.913a.554.554,0,0,1-.5.32H72.578a.554.554,0,0,0-.554.554v7.257a10.323,10.323,0,0,0,20.646,0V89.307a.554.554,0,0,0-.554-.554H88.657a.554.554,0,0,1-.5-.32Zm0,0" transform="translate(-64.284 -76.044)" fill="#ffc999"/>
      <path id="Trazado_811236" data-name="Trazado 811236" d="M115.182,118.246h-1.5v6.113A10.325,10.325,0,0,1,97.867,133.1a10.323,10.323,0,0,0,17.868-7.045V118.8a.554.554,0,0,0-.554-.554Zm0,0" transform="translate(-87.349 -105.536)" fill="#e2a36f"/>
      <path id="Trazado_811237" data-name="Trazado 811237" d="M106.49,154.94a.806.806,0,0,1-.806-.806v-.316a.806.806,0,0,1,1.612,0v.316A.806.806,0,0,1,106.49,154.94Zm0,0" transform="translate(-94.325 -136.565)" fill="#403f4f"/>
      <path id="Trazado_811238" data-name="Trazado 811238" d="M211.353,154.94a.806.806,0,0,1-.806-.806v-.316a.806.806,0,0,1,1.612,0v.316A.806.806,0,0,1,211.353,154.94Zm0,0" transform="translate(-187.917 -136.565)" fill="#403f4f"/>
      <path id="Trazado_811239" data-name="Trazado 811239" d="M136.18,208.963a4.727,4.727,0,0,1-3.3-1.345A.806.806,0,0,1,134,206.461a3.116,3.116,0,0,0,4.356,0,.806.806,0,0,1,1.122,1.158A4.726,4.726,0,0,1,136.18,208.963Zm0,0" transform="translate(-118.38 -184.066)" fill="#403f4f"/>
      <path id="Trazado_811240" data-name="Trazado 811240" d="M235.448,363a2.259,2.259,0,1,1-2.259-2.259A2.259,2.259,0,0,1,235.448,363Zm0,0" transform="translate(-206.109 -321.964)" fill="#7393d8"/>
      <path id="Trazado_811241" data-name="Trazado 811241" d="M226.494,359.368a3.065,3.065,0,1,1,3.065-3.065A3.068,3.068,0,0,1,226.494,359.368Zm0-4.517a1.453,1.453,0,1,0,1.453,1.453A1.454,1.454,0,0,0,226.494,354.851Zm0,0" transform="translate(-199.415 -315.27)" fill="#195693"/>
      <path id="Trazado_811242" data-name="Trazado 811242" d="M57.7,352.85h-.9a.806.806,0,0,1,0-1.612h.1v-2.161a2.257,2.257,0,0,0-4.515,0v2.161h.1a.806.806,0,0,1,0,1.612h-.9a.806.806,0,0,1-.806-.806v-2.967a3.87,3.87,0,0,1,7.739,0v2.967A.806.806,0,0,1,57.7,352.85Zm0,0" transform="translate(-45.313 -308.102)" fill="#195693"/>
    </g>
  </g>
</svg>
